M48
;DRILL file {KiCad 4.0.6} date 07/29/17 17:41:14
;FORMAT={-:-/ absolute / inch / decimal}
FMAT,2
INCH,TZ
T1C0.008
T2C0.010
T3C0.010
T4C0.012
T5C0.016
T6C0.020
T7C0.039
%
G90
G05
M72
T1
X3.837Y-5.087
X3.841Y-5.296
X3.844Y-5.147
X3.845Y-5.2235
X3.859Y-5.064
X3.86Y-5.125
X3.938Y-4.432
X3.94Y-4.105
X3.959Y-2.671
X4.009Y-3.067
X4.0099Y-2.673
X4.02Y-4.093
X4.028Y-3.304
X4.036Y-3.77
X4.062Y-2.686
X4.086Y-2.85
X4.116Y-2.692
X4.127Y-3.035
X4.127Y-3.119
X4.14Y-2.661
X4.158Y-2.608
X4.167Y-2.55
X4.17Y-1.775
X4.173Y-3.041
X4.22Y-1.576
X4.223Y-5.036
X4.247Y-5.107
X4.262Y-2.534
X4.262Y-5.024
X4.263Y-2.903
X4.265Y-2.868
X4.266Y-5.261
X4.267Y-5.124
X4.269Y-1.575
X4.269Y-1.625
X4.281Y-2.846
X4.291Y-2.891
X4.296Y-1.845
X4.301Y-2.613
X4.32Y-2.871
X4.322Y-1.776
X4.323Y-1.522
X4.3231Y-1.723
X4.325Y-2.645
X4.333Y-3.108
X4.345Y-2.192
X4.36Y-5.442
X4.368Y-1.473
X4.371Y-1.524
X4.373Y-5.343
X4.377Y-2.659
X4.377Y-5.398
X4.379Y-5.3
X4.386Y-5.262
X4.395Y-2.397
X4.397Y-2.882
X4.405Y-2.084
X4.41Y-2.664
X4.421Y-1.474
X4.423Y-2.803
X4.432Y-4.643
X4.436Y-2.062
X4.44Y-2.675
X4.468Y-2.662
X4.47Y-1.523
X4.487Y-2.058
X4.517Y-1.776
X4.521Y-1.725
X4.554Y-2.154
X4.559Y-2.193
X4.56Y-2.627
X4.569Y-2.399
X4.57Y-1.426
X4.594Y-2.621
X4.605Y-2.113
X4.621Y-1.524
X4.621Y-1.629
X4.621Y-1.676
X4.6227Y-2.7973
X4.63Y-2.617
X4.635Y-2.144
X4.663Y-2.615
X4.664Y-3.202
X4.668Y-1.422
X4.67Y-1.674
X4.672Y-1.776
X4.679Y-5.069
X4.683Y-2.146
X4.685Y-3.707
X4.702Y-2.611
X4.702Y-4.61
X4.703Y-4.985
X4.71Y-2.171
X4.719Y-1.832
X4.72Y-1.867
X4.722Y-1.776
X4.732Y-2.383
X4.735Y-5.039
X4.737Y-5.194
X4.746Y-4.936
X4.77Y-1.527
X4.772Y-1.479
X4.81Y-2.777
X4.823Y-1.42
X4.87Y-1.474
X4.87Y-5.127
X4.871Y-1.425
X4.871Y-1.773
X4.872Y-5.064
X4.876Y-5.096
X4.878Y-1.847
X4.878Y-2.658
X4.886Y-3.17
X4.898Y-5.024
X4.9Y-4.983
X4.933Y-3.166
X4.936Y-5.062
X4.946Y-5.224
X4.963Y-5.127
X4.964Y-3.7
X4.973Y-3.127
X4.987Y-2.806
X5.012Y-3.16
X5.022Y-4.308
X5.023Y-4.234
X5.029Y-4.333
X5.035Y-3.534
X5.045Y-4.274
X5.045Y-4.372
X5.046Y-4.4116
X5.046Y-4.451
X5.047Y-4.195
X5.056Y-4.117
X5.071Y-1.522
X5.072Y-3.506
X5.077Y-3.546
X5.08Y-3.153
X5.086Y-5.111
X5.09Y-5.21
X5.091Y-5.064
X5.12Y-1.424
X5.12Y-1.526
X5.122Y-5.084
X5.141Y-2.804
X5.169Y-1.425
X5.194Y-2.536
X5.208Y-4.585
X5.236Y-3.173
X5.253Y-2.536
X5.271Y-4.313
X5.2719Y-1.777
X5.272Y-1.425
X5.274Y-4.392
X5.29Y-4.294
X5.29Y-4.332
X5.2963Y-1.7498
X5.309Y-4.412
X5.321Y-1.477
X5.321Y-1.519
X5.338Y-2.804
X5.356Y-5.295
X5.371Y-1.424
X5.372Y-1.374
X5.372Y-1.523
X5.3861Y-4.4241
X5.4099Y-4.4479
X5.42Y-5.253
X5.445Y-2.42
X5.473Y-1.476
X5.479Y-4.352
X5.495Y-4.37
X5.513Y-2.807
X5.519Y-1.574
X5.521Y-1.375
X5.521Y-1.625
X5.521Y-1.727
X5.551Y-3.914
X5.555Y-3.946
X5.555Y-3.984
X5.561Y-4.016
X5.571Y-1.476
X5.571Y-1.726
X5.579Y-4.968
X5.62Y-1.727
X5.621Y-1.525
X5.621Y-1.674
X5.621Y-4.93
X5.622Y-1.626
X5.652Y-4.987
X5.671Y-1.575
X5.672Y-1.625
X5.673Y-1.375
X5.679Y-4.839
X5.702Y-4.957
X5.703Y-2.807
X5.713Y-4.067
X5.713Y-4.035
X5.771Y-1.474
X5.772Y-1.626
X5.772Y-1.676
X5.822Y-1.628
X5.823Y-1.524
X5.851Y-4.841
X5.9371Y-3.87
X5.955Y-4.868
X5.9709Y-3.87
X6.087Y-3.8528
X6.087Y-3.8866
X6.096Y-4.857
X6.097Y-3.7421
X6.097Y-3.7759
X6.12Y-4.888
X6.127Y-4.771
T2
X3.9203Y-3.8373
X3.9497Y-3.8667
X3.959Y-3.163
X4.021Y-1.425
X4.021Y-1.476
X4.027Y-2.846
X4.055Y-3.056
X4.102Y-3.055
X4.133Y-2.891
X4.151Y-3.07
X4.154Y-2.851
X4.2Y-3.092
X4.2215Y-1.626
X4.2215Y-1.674
X4.232Y-3.092
X4.271Y-1.725
X4.273Y-1.676
X4.328Y-3.231
X4.3448Y-1.9202
X4.371Y-1.675
X4.372Y-1.625
X4.3743Y-1.9496
X4.421Y-1.724
X4.4293Y-1.875
X4.465Y-1.874
X4.472Y-1.725
X4.52Y-1.674
X4.54Y-1.861
X4.571Y-1.675
X4.584Y-1.859
X4.633Y-3.165
X4.7539Y-3.53
X4.7833Y-3.5005
X4.804Y-2.224
X4.822Y-2.469
X4.866Y-2.384
X4.877Y-2.478
X4.883Y-2.223
X4.983Y-2.204
X5.Y-2.556
X5.021Y-1.324
X5.022Y-1.375
X5.022Y-3.771
X5.103Y-2.173
X5.134Y-3.882
X5.139Y-3.141
X5.155Y-4.548
X5.201Y-2.392
X5.202Y-2.309
X5.202Y-3.133
X5.206Y-2.247
X5.209Y-2.441
X5.221Y-1.374
X5.222Y-1.318
X5.234Y-4.088
X5.242Y-2.316
X5.252Y-4.568
X5.264Y-2.227
X5.286Y-3.667
X5.42Y-1.375
X5.422Y-1.316
X5.425Y-4.575
X5.441Y-2.524
X5.526Y-2.498
X5.538Y-1.888
X5.672Y-1.423
X5.72Y-1.524
X5.722Y-1.423
X5.77Y-1.524
X5.82Y-1.475
X5.872Y-1.477
X5.886Y-2.643
T3
X4.907Y-3.2709
X4.907Y-3.3029
X4.938Y-3.2709
X4.938Y-3.3029
X4.969Y-3.2709
X4.969Y-3.3029
X5.Y-3.2709
X5.Y-3.3029
X5.031Y-3.2709
X5.031Y-3.3029
X5.062Y-3.2709
X5.062Y-3.3029
X5.093Y-3.2709
X5.093Y-3.3029
X5.124Y-3.2709
X5.124Y-3.3029
X5.1494Y-4.189
X5.1494Y-4.22
X5.1494Y-4.251
X5.1494Y-4.282
X5.1494Y-4.313
X5.1494Y-4.344
X5.1494Y-4.375
X5.1494Y-4.406
X5.1494Y-4.437
X5.155Y-3.2709
X5.155Y-3.3029
X5.1814Y-4.189
X5.1814Y-4.22
X5.1814Y-4.251
X5.1814Y-4.282
X5.1814Y-4.313
X5.1814Y-4.344
X5.1814Y-4.375
X5.1814Y-4.406
X5.1814Y-4.437
T4
X3.646Y-5.475
X3.665Y-1.777
X3.678Y-1.348
X3.678Y-1.501
X3.684Y-5.302
X3.687Y-1.257
X3.814Y-4.952
X3.841Y-5.444
X3.861Y-1.679
X3.898Y-5.033
X3.927Y-3.726
X3.937Y-4.592
X3.946Y-3.507
X3.948Y-3.342
X3.957Y-3.242
X3.967Y-2.316
X4.04Y-3.723
X4.045Y-4.434
X4.046Y-5.319
X4.053Y-2.221
X4.065Y-4.65
X4.117Y-4.739
X4.12Y-2.156
X4.125Y-4.557
X4.143Y-4.109
X4.15Y-4.438
X4.17Y-4.917
X4.174Y-4.651
X4.1784Y-1.257
X4.183Y-4.823
X4.228Y-2.049
X4.304Y-4.751
X4.307Y-4.484
X4.337Y-4.924
X4.347Y-3.644
X4.347Y-4.417
X4.351Y-3.474
X4.367Y-4.137
X4.404Y-4.36
X4.436Y-2.111
X4.447Y-4.795
X4.459Y-1.233
X4.496Y-4.345
X4.523Y-5.35
X4.635Y-3.558
X4.6698Y-1.257
X4.712Y-4.528
X4.729Y-3.165
X4.762Y-5.387
X4.789Y-2.018
X4.848Y-4.531
X4.882Y-5.183
X4.897Y-5.252
X4.923Y-5.483
X4.974Y-2.4
X4.978Y-3.832
X5.015Y-3.981
X5.018Y-2.327
X5.023Y-3.035
X5.028Y-5.447
X5.06Y-3.86
X5.063Y-2.797
X5.072Y-2.3
X5.101Y-2.424
X5.127Y-2.893
X5.146Y-2.138
X5.1612Y-1.257
X5.206Y-3.468
X5.244Y-2.648
X5.253Y-4.021
X5.264Y-3.609
X5.277Y-2.267
X5.281Y-5.491
X5.307Y-1.946
X5.348Y-3.735
X5.365Y-5.231
X5.368Y-5.131
X5.397Y-3.48
X5.4Y-5.04
X5.405Y-2.981
X5.413Y-2.815
X5.424Y-2.676
X5.429Y-3.296
X5.457Y-5.148
X5.459Y-3.642
X5.465Y-2.292
X5.471Y-2.009
X5.479Y-2.471
X5.546Y-3.306
X5.546Y-3.505
X5.553Y-4.118
X5.575Y-5.49
X5.577Y-3.194
X5.635Y-4.103
X5.6526Y-1.257
X5.701Y-4.117
X5.703Y-4.387
X5.705Y-4.487
X5.719Y-4.926
X5.753Y-1.94
X5.828Y-5.492
X5.833Y-4.449
X5.834Y-5.306
X5.852Y-4.982
X5.858Y-5.072
X5.859Y-4.033
X5.865Y-3.782
X5.871Y-1.574
X5.871Y-1.674
X5.872Y-1.622
X5.872Y-1.725
X5.95Y-5.072
X5.955Y-4.915
X5.971Y-5.161
X5.992Y-5.285
X6.039Y-4.383
X6.096Y-3.816
X6.139Y-1.47
X6.14Y-4.678
X6.142Y-1.338
X6.144Y-1.257
X6.149Y-4.585
X6.151Y-1.794
X6.18Y-5.047
X6.192Y-4.86
X6.2Y-3.275
X6.201Y-2.149
X6.202Y-2.989
X6.203Y-1.924
X6.205Y-2.342
X6.205Y-3.55
X6.209Y-5.421
X6.211Y-2.689
T5
X5.634Y-5.131
T6
X4.808Y-3.398
X5.283Y-3.294
X6.106Y-4.926
X6.167Y-5.195
T7
X5.587Y-2.303
X5.587Y-2.403
X5.598Y-5.343
X5.698Y-5.343
X5.982Y-5.415
X6.082Y-5.415
T0
M30
