%TF.GenerationSoftware,KiCad,Pcbnew,4.0.6*%
%TF.CreationDate,2017-07-29T17:48:32+03:00*%
%TF.ProjectId,FMC_MIPI_v1,464D435F4D4950495F76312E6B696361,rev?*%
%TF.FileFunction,Soldermask,Bot*%
%FSLAX46Y46*%
G04 Gerber Fmt 4.6, Leading zero omitted, Abs format (unit mm)*
G04 Created by KiCad (PCBNEW 4.0.6) date 07/29/17 17:48:32*
%MOMM*%
%LPD*%
G01*
G04 APERTURE LIST*
%ADD10C,0.100000*%
%ADD11C,0.800000*%
%ADD12R,1.647800X0.499720*%
%ADD13R,0.837540X2.740000*%
%ADD14R,0.837540X4.899000*%
%ADD15C,1.218540*%
%ADD16C,0.708000*%
%ADD17R,0.900000X1.500000*%
%ADD18R,0.700000X0.800000*%
%ADD19R,0.800000X0.700000*%
%ADD20R,1.200000X1.450000*%
%ADD21C,0.835000*%
%ADD22C,0.758800*%
%ADD23C,1.470000*%
%ADD24C,2.765400*%
%ADD25R,1.900000X1.900000*%
%ADD26O,1.900000X1.900000*%
G04 APERTURE END LIST*
D10*
D11*
X157480000Y-83185000D03*
X157607000Y-59486800D03*
X102946200Y-56413400D03*
X157530800Y-75920600D03*
X129565400Y-61569600D03*
X126339600Y-60960000D03*
X128828800Y-58420000D03*
X127457200Y-59105800D03*
X156235400Y-45567600D03*
X109321600Y-120675400D03*
X123139200Y-115087400D03*
X119684800Y-115011200D03*
X113258600Y-31318200D03*
X133426200Y-102133400D03*
X127381000Y-101117400D03*
X128524000Y-98044000D03*
X126441200Y-97332800D03*
X135839200Y-94869000D03*
X120116600Y-80391000D03*
X117729000Y-90373200D03*
X132232400Y-88087200D03*
X133705600Y-91668600D03*
X137896600Y-83718400D03*
X137083800Y-88392000D03*
X140868400Y-89027000D03*
X140868400Y-83972400D03*
X141655800Y-81127600D03*
X98069400Y-42646600D03*
X93091000Y-45135800D03*
X121640600Y-51257200D03*
X130708400Y-54305200D03*
X134035800Y-57581800D03*
X138811000Y-58216800D03*
X139166600Y-62763400D03*
X133197600Y-67259200D03*
X137769600Y-67970400D03*
X130225800Y-73482200D03*
X128600200Y-71043800D03*
X137287000Y-75717400D03*
X137490200Y-71501000D03*
X157607000Y-90170000D03*
X157759400Y-68300600D03*
X157505400Y-54584600D03*
X157556200Y-48869600D03*
X151663400Y-131089400D03*
X148793200Y-128828800D03*
X151130000Y-128828800D03*
X148640800Y-126542800D03*
X151257000Y-124841000D03*
X157276800Y-123444000D03*
X156184600Y-116459000D03*
X153390600Y-111328200D03*
X148971000Y-96062800D03*
X154838400Y-96926400D03*
X148818600Y-102438200D03*
X144805400Y-104571800D03*
X143129000Y-104216200D03*
X141046200Y-104597200D03*
X144907000Y-113969800D03*
X144856200Y-111429800D03*
X148158200Y-113004600D03*
X155956000Y-118821200D03*
X157708600Y-137693400D03*
X156972000Y-128193800D03*
X134137400Y-139471400D03*
X141605000Y-139446000D03*
X148031200Y-139496800D03*
X152196800Y-134239000D03*
X148183600Y-134772400D03*
X136271000Y-132867400D03*
X138607800Y-130759200D03*
X127711200Y-138353800D03*
X125044200Y-139268200D03*
X124002800Y-131648200D03*
X124383800Y-133400800D03*
X114884200Y-135890000D03*
X120954800Y-136829800D03*
X92608400Y-139065000D03*
X93573600Y-134670800D03*
X97561400Y-138277600D03*
X102768400Y-135102600D03*
X99009200Y-127838200D03*
X96875600Y-125780800D03*
X105918000Y-124891800D03*
X110159800Y-125069600D03*
X106248200Y-122504200D03*
X104571800Y-120370600D03*
X106019600Y-118135400D03*
X103251000Y-118110000D03*
X99999800Y-116636800D03*
X104775000Y-115747800D03*
X102743000Y-112623600D03*
X105410000Y-112725200D03*
X112953800Y-121793000D03*
X109397800Y-113893600D03*
X110413800Y-112191800D03*
X111861600Y-110744000D03*
X114198400Y-110363000D03*
X110921800Y-105079800D03*
X105232200Y-104368600D03*
X102616000Y-94564200D03*
X99745800Y-94640400D03*
X100228400Y-89077800D03*
X100279200Y-84886800D03*
X100507800Y-82346800D03*
X110413800Y-92557600D03*
X110515400Y-88239600D03*
X100761800Y-58826400D03*
X112674400Y-53619400D03*
X104648000Y-54762400D03*
X107391200Y-52044600D03*
X134797800Y-49428400D03*
X138963400Y-51028600D03*
X146126200Y-49276000D03*
X93421200Y-38125400D03*
X93421200Y-34239200D03*
X93649800Y-31927800D03*
X106131360Y-31927800D03*
X118612920Y-31927800D03*
X131094480Y-31927800D03*
X143576040Y-31927800D03*
X155930600Y-37338000D03*
X156006800Y-33985200D03*
X156057600Y-31927800D03*
X137160000Y-128016000D03*
X136347200Y-130327400D03*
X138658600Y-92506800D03*
D12*
X146825000Y-95126720D03*
X153002280Y-95126720D03*
X146825000Y-95627100D03*
X153002280Y-95627100D03*
X146825000Y-96127480D03*
X153002280Y-96127480D03*
X146825000Y-96627860D03*
X153002280Y-96627860D03*
X146825000Y-97128240D03*
X153002280Y-97128240D03*
X146825000Y-97626080D03*
X153002280Y-97626080D03*
X146825000Y-98126460D03*
X153002280Y-98126460D03*
X146825000Y-98626840D03*
X153002280Y-98626840D03*
X146825000Y-99127220D03*
X153002280Y-99127220D03*
X146825000Y-99627600D03*
X153002280Y-99627600D03*
X146825000Y-100127980D03*
X153002280Y-100127980D03*
X146825000Y-100628360D03*
X153002280Y-100628360D03*
X146825000Y-101126200D03*
X153002280Y-101126200D03*
X146825000Y-101626580D03*
X153002280Y-101626580D03*
X146825000Y-102126960D03*
X153002280Y-102126960D03*
X146825000Y-102627340D03*
X153002280Y-102627340D03*
X146825000Y-103127720D03*
X153002280Y-103127720D03*
X146825000Y-103628100D03*
X153002280Y-103628100D03*
X146825000Y-104125940D03*
X153002280Y-104125940D03*
X146825000Y-104626320D03*
X153002280Y-104626320D03*
X146825000Y-105126700D03*
X153002280Y-105126700D03*
X146825000Y-105627080D03*
X153002280Y-105627080D03*
X146825000Y-106127460D03*
X153002280Y-106127460D03*
X146825000Y-106627840D03*
X153002280Y-106627840D03*
X146825000Y-107128220D03*
X153002280Y-107128220D03*
X146825000Y-107626060D03*
X153002280Y-107626060D03*
X146825000Y-108126440D03*
X153002280Y-108126440D03*
X146825000Y-108626820D03*
X153002280Y-108626820D03*
X146825000Y-109127200D03*
X153002280Y-109127200D03*
X146825000Y-109627580D03*
X153002280Y-109627580D03*
X146825000Y-115124140D03*
X153002280Y-115124140D03*
X146825000Y-115624520D03*
X153002280Y-115624520D03*
X146825000Y-116124900D03*
X153002280Y-116124900D03*
X146825000Y-116625280D03*
X153002280Y-116625280D03*
X146825000Y-117125660D03*
X153002280Y-117125660D03*
X146825000Y-117623500D03*
X153002280Y-117623500D03*
X146825000Y-118123880D03*
X153002280Y-118123880D03*
X146825000Y-118624260D03*
X153002280Y-118624260D03*
X146825000Y-119124640D03*
X153002280Y-119124640D03*
X146825000Y-119625020D03*
X153002280Y-119625020D03*
X146825000Y-120125400D03*
X153002280Y-120125400D03*
X146825000Y-120625780D03*
X153002280Y-120625780D03*
X146825000Y-121123620D03*
X153002280Y-121123620D03*
X146825000Y-121624000D03*
X153002280Y-121624000D03*
X146825000Y-122124380D03*
X153002280Y-122124380D03*
X146825000Y-122624760D03*
X153002280Y-122624760D03*
X146825000Y-123125140D03*
X153002280Y-123125140D03*
X146825000Y-123625520D03*
X153002280Y-123625520D03*
X146825000Y-124123360D03*
X153002280Y-124123360D03*
X146825000Y-124623740D03*
X153002280Y-124623740D03*
X146825000Y-125124120D03*
X153002280Y-125124120D03*
X146825000Y-125624500D03*
X153002280Y-125624500D03*
X146825000Y-126124880D03*
X153002280Y-126124880D03*
X146825000Y-126625260D03*
X153002280Y-126625260D03*
X146825000Y-127125640D03*
X153002280Y-127125640D03*
X146825000Y-127623480D03*
X153002280Y-127623480D03*
X146825000Y-128123860D03*
X153002280Y-128123860D03*
X146825000Y-128624240D03*
X153002280Y-128624240D03*
X146825000Y-129124620D03*
X153002280Y-129124620D03*
X146825000Y-129625000D03*
X153002280Y-129625000D03*
D13*
X149913640Y-93932920D03*
D14*
X149913640Y-99200880D03*
X149913640Y-105550880D03*
D13*
X149913640Y-110821380D03*
X149913640Y-113930340D03*
D14*
X149913640Y-119200840D03*
X149913640Y-125550840D03*
D13*
X149913640Y-130818800D03*
D15*
X147884180Y-93137900D03*
X147884180Y-131613820D03*
D16*
X131606740Y-106401800D03*
X131606740Y-107189200D03*
X131606740Y-107976600D03*
X131606740Y-108764000D03*
X131606740Y-109551400D03*
X131606740Y-110338800D03*
X131606740Y-111126200D03*
X131606740Y-111913600D03*
X131606740Y-112701000D03*
X130793940Y-106401800D03*
X130793940Y-107189200D03*
X130793940Y-107976600D03*
X130793940Y-108764000D03*
X130793940Y-109551400D03*
X130793940Y-110338800D03*
X130793940Y-111126200D03*
X130793940Y-111913600D03*
X130793940Y-112701000D03*
D17*
X122255200Y-65938400D03*
X124155200Y-65938400D03*
X136950000Y-54000000D03*
X135050000Y-54000000D03*
X135050000Y-64000000D03*
X136950000Y-64000000D03*
D18*
X128000000Y-64950000D03*
X128000000Y-66050000D03*
X128000000Y-54550000D03*
X128000000Y-53450000D03*
D16*
X130936800Y-83892800D03*
X130149400Y-83892800D03*
X129362000Y-83892800D03*
X128574600Y-83892800D03*
X127787200Y-83892800D03*
X126999800Y-83892800D03*
X126212400Y-83892800D03*
X125425000Y-83892800D03*
X124637600Y-83892800D03*
X130936800Y-83080000D03*
X130149400Y-83080000D03*
X129362000Y-83080000D03*
X128574600Y-83080000D03*
X127787200Y-83080000D03*
X126999800Y-83080000D03*
X126212400Y-83080000D03*
X125425000Y-83080000D03*
X124637600Y-83080000D03*
D19*
X110557400Y-60604400D03*
X109457400Y-60604400D03*
D20*
X134407400Y-81940400D03*
X136407400Y-81940400D03*
D19*
X126746000Y-78105000D03*
X125646000Y-78105000D03*
D18*
X126238000Y-109287400D03*
X126238000Y-108187400D03*
D19*
X134324000Y-114706400D03*
X135424000Y-114706400D03*
D21*
X100235000Y-34285000D03*
X101505000Y-34285000D03*
X102775000Y-34285000D03*
X104045000Y-34285000D03*
X105315000Y-34285000D03*
X106585000Y-34285000D03*
X107855000Y-34285000D03*
X109125000Y-34285000D03*
X110395000Y-34285000D03*
X111665000Y-34285000D03*
X112935000Y-34285000D03*
X114205000Y-34285000D03*
X115475000Y-34285000D03*
X116745000Y-34285000D03*
X118015000Y-34285000D03*
X119285000Y-34285000D03*
X120555000Y-34285000D03*
X121825000Y-34285000D03*
X123095000Y-34285000D03*
X124365000Y-34285000D03*
X125635000Y-34285000D03*
X126905000Y-34285000D03*
X128175000Y-34285000D03*
X129445000Y-34285000D03*
X130715000Y-34285000D03*
X131985000Y-34285000D03*
X133255000Y-34285000D03*
X134525000Y-34285000D03*
X135795000Y-34285000D03*
X137065000Y-34285000D03*
X138335000Y-34285000D03*
X139605000Y-34285000D03*
X140875000Y-34285000D03*
X142145000Y-34285000D03*
X143415000Y-34285000D03*
X144685000Y-34285000D03*
X145955000Y-34285000D03*
X147225000Y-34285000D03*
X148495000Y-34285000D03*
X149765000Y-34285000D03*
X100235000Y-35555000D03*
X101505000Y-35555000D03*
X102775000Y-35555000D03*
X104045000Y-35555000D03*
X105315000Y-35555000D03*
X106585000Y-35555000D03*
X107855000Y-35555000D03*
X109125000Y-35555000D03*
X110395000Y-35555000D03*
X111665000Y-35555000D03*
X112935000Y-35555000D03*
X114205000Y-35555000D03*
X115475000Y-35555000D03*
X116745000Y-35555000D03*
X118015000Y-35555000D03*
X119285000Y-35555000D03*
X120555000Y-35555000D03*
X121825000Y-35555000D03*
X123095000Y-35555000D03*
X124365000Y-35555000D03*
X125635000Y-35555000D03*
X126905000Y-35555000D03*
D22*
X128175000Y-35555000D03*
D21*
X129445000Y-35555000D03*
X130715000Y-35555000D03*
D22*
X131985000Y-35555000D03*
D21*
X133255000Y-35555000D03*
X134525000Y-35555000D03*
X135795000Y-35555000D03*
D22*
X137065000Y-35555000D03*
D21*
X138335000Y-35555000D03*
X139605000Y-35555000D03*
X140875000Y-35555000D03*
X142145000Y-35555000D03*
X143415000Y-35555000D03*
X144685000Y-35555000D03*
X145955000Y-35555000D03*
X147225000Y-35555000D03*
X148495000Y-35555000D03*
X149765000Y-35555000D03*
X100235000Y-36825000D03*
X101505000Y-36825000D03*
X102775000Y-36825000D03*
X104045000Y-36825000D03*
X105315000Y-36825000D03*
X106585000Y-36825000D03*
X107855000Y-36825000D03*
X109125000Y-36825000D03*
X110395000Y-36825000D03*
X111665000Y-36825000D03*
X112935000Y-36825000D03*
X114205000Y-36825000D03*
X115475000Y-36825000D03*
X116745000Y-36825000D03*
X118015000Y-36825000D03*
X119285000Y-36825000D03*
X120555000Y-36825000D03*
X121825000Y-36825000D03*
X123095000Y-36825000D03*
X124365000Y-36825000D03*
X125635000Y-36825000D03*
X126905000Y-36825000D03*
D22*
X128175000Y-36825000D03*
D21*
X129445000Y-36825000D03*
X130715000Y-36825000D03*
D22*
X131985000Y-36825000D03*
D21*
X133255000Y-36825000D03*
X134525000Y-36825000D03*
X135795000Y-36825000D03*
D22*
X137065000Y-36825000D03*
D21*
X138335000Y-36825000D03*
X139605000Y-36825000D03*
X140875000Y-36825000D03*
X142145000Y-36825000D03*
X143415000Y-36825000D03*
X144685000Y-36825000D03*
X145955000Y-36825000D03*
X147225000Y-36825000D03*
X148495000Y-36825000D03*
X149765000Y-36825000D03*
X100235000Y-38095000D03*
X101505000Y-38095000D03*
D22*
X102775000Y-38095000D03*
D21*
X104045000Y-38095000D03*
X105315000Y-38095000D03*
X106585000Y-38095000D03*
X107855000Y-38095000D03*
X109125000Y-38095000D03*
X110395000Y-38095000D03*
X111665000Y-38095000D03*
X112935000Y-38095000D03*
X114205000Y-38095000D03*
X115475000Y-38095000D03*
X116745000Y-38095000D03*
X118015000Y-38095000D03*
X119285000Y-38095000D03*
X120555000Y-38095000D03*
X121825000Y-38095000D03*
X123095000Y-38095000D03*
X124365000Y-38095000D03*
X125635000Y-38095000D03*
X126905000Y-38095000D03*
D22*
X128175000Y-38095000D03*
D21*
X129445000Y-38095000D03*
X130715000Y-38095000D03*
D22*
X131985000Y-38095000D03*
D21*
X133255000Y-38095000D03*
X134525000Y-38095000D03*
X135795000Y-38095000D03*
D22*
X137065000Y-38095000D03*
D21*
X138335000Y-38095000D03*
X139605000Y-38095000D03*
X140875000Y-38095000D03*
X142145000Y-38095000D03*
X143415000Y-38095000D03*
X144685000Y-38095000D03*
X145955000Y-38095000D03*
X147225000Y-38095000D03*
X148495000Y-38095000D03*
X149765000Y-38095000D03*
X100235000Y-39365000D03*
X101505000Y-39365000D03*
D22*
X102775000Y-39365000D03*
D21*
X104045000Y-39365000D03*
X105315000Y-39365000D03*
X106585000Y-39365000D03*
X107855000Y-39365000D03*
X109125000Y-39365000D03*
X110395000Y-39365000D03*
X111665000Y-39365000D03*
X112935000Y-39365000D03*
X114205000Y-39365000D03*
X115475000Y-39365000D03*
X116745000Y-39365000D03*
X118015000Y-39365000D03*
X119285000Y-39365000D03*
X120555000Y-39365000D03*
X121825000Y-39365000D03*
X123095000Y-39365000D03*
X124365000Y-39365000D03*
X125635000Y-39365000D03*
X126905000Y-39365000D03*
D22*
X128175000Y-39365000D03*
D21*
X129445000Y-39365000D03*
X130715000Y-39365000D03*
D22*
X131985000Y-39365000D03*
D21*
X133255000Y-39365000D03*
X134525000Y-39365000D03*
X135795000Y-39365000D03*
D22*
X137065000Y-39365000D03*
D21*
X138335000Y-39365000D03*
X139605000Y-39365000D03*
X140875000Y-39365000D03*
X142145000Y-39365000D03*
X143415000Y-39365000D03*
X144685000Y-39365000D03*
X145955000Y-39365000D03*
X147225000Y-39365000D03*
X148495000Y-39365000D03*
X149765000Y-39365000D03*
X100235000Y-40635000D03*
X101505000Y-40635000D03*
D22*
X102775000Y-40635000D03*
D21*
X104045000Y-40635000D03*
X105315000Y-40635000D03*
X106585000Y-40635000D03*
X107855000Y-40635000D03*
X109125000Y-40635000D03*
X110395000Y-40635000D03*
X111665000Y-40635000D03*
X112935000Y-40635000D03*
X114205000Y-40635000D03*
X115475000Y-40635000D03*
X116745000Y-40635000D03*
X118015000Y-40635000D03*
X119285000Y-40635000D03*
X120555000Y-40635000D03*
X121825000Y-40635000D03*
X123095000Y-40635000D03*
X124365000Y-40635000D03*
X125635000Y-40635000D03*
X126905000Y-40635000D03*
D22*
X128175000Y-40635000D03*
D21*
X129445000Y-40635000D03*
X130715000Y-40635000D03*
D22*
X131985000Y-40635000D03*
D21*
X133255000Y-40635000D03*
X134525000Y-40635000D03*
X135795000Y-40635000D03*
D22*
X137065000Y-40635000D03*
D21*
X138335000Y-40635000D03*
X139605000Y-40635000D03*
X140875000Y-40635000D03*
X142145000Y-40635000D03*
X143415000Y-40635000D03*
X144685000Y-40635000D03*
X145955000Y-40635000D03*
X147225000Y-40635000D03*
X148495000Y-40635000D03*
X149765000Y-40635000D03*
X100235000Y-41905000D03*
X101505000Y-41905000D03*
D22*
X102775000Y-41905000D03*
D21*
X104045000Y-41905000D03*
X105315000Y-41905000D03*
X106585000Y-41905000D03*
X107855000Y-41905000D03*
X109125000Y-41905000D03*
X110395000Y-41905000D03*
X111665000Y-41905000D03*
X112935000Y-41905000D03*
X114205000Y-41905000D03*
X115475000Y-41905000D03*
X116745000Y-41905000D03*
X118015000Y-41905000D03*
X119285000Y-41905000D03*
X120555000Y-41905000D03*
X121825000Y-41905000D03*
X123095000Y-41905000D03*
X124365000Y-41905000D03*
X125635000Y-41905000D03*
X126905000Y-41905000D03*
D22*
X128175000Y-41905000D03*
D21*
X129445000Y-41905000D03*
X130715000Y-41905000D03*
D22*
X131985000Y-41905000D03*
D21*
X133255000Y-41905000D03*
X134525000Y-41905000D03*
X135795000Y-41905000D03*
D22*
X137065000Y-41905000D03*
D21*
X138335000Y-41905000D03*
X139605000Y-41905000D03*
X140875000Y-41905000D03*
X142145000Y-41905000D03*
X143415000Y-41905000D03*
X144685000Y-41905000D03*
X145955000Y-41905000D03*
X147225000Y-41905000D03*
X148495000Y-41905000D03*
X149765000Y-41905000D03*
X100235000Y-43175000D03*
X101505000Y-43175000D03*
D22*
X102775000Y-43175000D03*
D21*
X104045000Y-43175000D03*
X105315000Y-43175000D03*
X106585000Y-43175000D03*
X107855000Y-43175000D03*
X109125000Y-43175000D03*
X110395000Y-43175000D03*
X111665000Y-43175000D03*
X112935000Y-43175000D03*
X114205000Y-43175000D03*
X115475000Y-43175000D03*
X116745000Y-43175000D03*
X118015000Y-43175000D03*
X119285000Y-43175000D03*
X120555000Y-43175000D03*
X121825000Y-43175000D03*
X123095000Y-43175000D03*
X124365000Y-43175000D03*
X125635000Y-43175000D03*
X126905000Y-43175000D03*
D22*
X128175000Y-43175000D03*
D21*
X129445000Y-43175000D03*
X130715000Y-43175000D03*
D22*
X131985000Y-43175000D03*
D21*
X133255000Y-43175000D03*
X134525000Y-43175000D03*
X135795000Y-43175000D03*
D22*
X137065000Y-43175000D03*
D21*
X138335000Y-43175000D03*
X139605000Y-43175000D03*
X140875000Y-43175000D03*
X142145000Y-43175000D03*
X143415000Y-43175000D03*
X144685000Y-43175000D03*
X145955000Y-43175000D03*
X147225000Y-43175000D03*
X148495000Y-43175000D03*
X149765000Y-43175000D03*
X100235000Y-44445000D03*
X101505000Y-44445000D03*
D22*
X102775000Y-44445000D03*
D21*
X104045000Y-44445000D03*
X105315000Y-44445000D03*
X106585000Y-44445000D03*
X107855000Y-44445000D03*
X109125000Y-44445000D03*
X110395000Y-44445000D03*
X111665000Y-44445000D03*
X112935000Y-44445000D03*
X114205000Y-44445000D03*
X115475000Y-44445000D03*
X116745000Y-44445000D03*
X118015000Y-44445000D03*
X119285000Y-44445000D03*
X120555000Y-44445000D03*
X121825000Y-44445000D03*
X123095000Y-44445000D03*
X124365000Y-44445000D03*
X125635000Y-44445000D03*
X126905000Y-44445000D03*
D22*
X128175000Y-44445000D03*
D21*
X129445000Y-44445000D03*
X130715000Y-44445000D03*
D22*
X131985000Y-44445000D03*
D21*
X133255000Y-44445000D03*
X134525000Y-44445000D03*
X135795000Y-44445000D03*
D22*
X137065000Y-44445000D03*
D21*
X138335000Y-44445000D03*
X139605000Y-44445000D03*
X140875000Y-44445000D03*
X142145000Y-44445000D03*
X143415000Y-44445000D03*
X144685000Y-44445000D03*
X145955000Y-44445000D03*
X147225000Y-44445000D03*
X148495000Y-44445000D03*
X149765000Y-44445000D03*
X100235000Y-45715000D03*
X101505000Y-45715000D03*
D22*
X102775000Y-45715000D03*
D21*
X104045000Y-45715000D03*
X105315000Y-45715000D03*
X106585000Y-45715000D03*
X107855000Y-45715000D03*
X109125000Y-45715000D03*
X110395000Y-45715000D03*
X111665000Y-45715000D03*
X112935000Y-45715000D03*
X114205000Y-45715000D03*
X115475000Y-45715000D03*
X116745000Y-45715000D03*
X118015000Y-45715000D03*
X119285000Y-45715000D03*
X120555000Y-45715000D03*
X121825000Y-45715000D03*
X123095000Y-45715000D03*
X124365000Y-45715000D03*
X125635000Y-45715000D03*
X126905000Y-45715000D03*
D22*
X128175000Y-45715000D03*
D21*
X129445000Y-45715000D03*
X130715000Y-45715000D03*
D22*
X131985000Y-45715000D03*
D21*
X133255000Y-45715000D03*
X134525000Y-45715000D03*
X135795000Y-45715000D03*
D22*
X137065000Y-45715000D03*
D21*
X138335000Y-45715000D03*
X139605000Y-45715000D03*
X140875000Y-45715000D03*
X142145000Y-45715000D03*
X143415000Y-45715000D03*
X144685000Y-45715000D03*
X145955000Y-45715000D03*
X147225000Y-45715000D03*
X148495000Y-45715000D03*
X149765000Y-45715000D03*
D23*
X152190700Y-43048000D03*
X97809300Y-40000000D03*
D24*
X93509334Y-42006600D03*
X156508700Y-42006600D03*
D19*
X118178400Y-127965200D03*
X119278400Y-127965200D03*
X126838800Y-127406400D03*
X125738800Y-127406400D03*
X110243800Y-70866000D03*
X109143800Y-70866000D03*
X117999600Y-55422800D03*
X116899600Y-55422800D03*
X117052000Y-60985400D03*
X118152000Y-60985400D03*
D25*
X142189200Y-135712200D03*
D26*
X144729200Y-135712200D03*
D25*
X151942800Y-137541000D03*
D26*
X154482800Y-137541000D03*
D25*
X141909800Y-61036200D03*
D26*
X141909800Y-58496200D03*
M02*
