%TF.GenerationSoftware,KiCad,Pcbnew,4.0.6*%
%TF.CreationDate,2017-07-29T17:48:31+03:00*%
%TF.ProjectId,FMC_MIPI_v1,464D435F4D4950495F76312E6B696361,rev?*%
%TF.FileFunction,Legend,Bot*%
%FSLAX46Y46*%
G04 Gerber Fmt 4.6, Leading zero omitted, Abs format (unit mm)*
G04 Created by KiCad (PCBNEW 4.0.6) date 07/29/17 17:48:31*
%MOMM*%
%LPD*%
G01*
G04 APERTURE LIST*
%ADD10C,0.100000*%
%ADD11C,0.127000*%
%ADD12C,0.120000*%
%ADD13C,0.203200*%
%ADD14C,0.101600*%
%ADD15C,0.150000*%
%ADD16C,0.177800*%
G04 APERTURE END LIST*
D10*
D11*
X145814080Y-91878060D02*
X145814080Y-132873660D01*
X145814080Y-132873660D02*
X152011680Y-132873660D01*
X152011680Y-132873660D02*
X154013200Y-130874680D01*
X154013200Y-130874680D02*
X154013200Y-93877040D01*
X154013200Y-93877040D02*
X152011680Y-91878060D01*
X152011680Y-91878060D02*
X145814080Y-91878060D01*
D12*
X123805200Y-65058400D02*
X122605200Y-65058400D01*
X122605200Y-66818400D02*
X123805200Y-66818400D01*
X135400000Y-54880000D02*
X136600000Y-54880000D01*
X136600000Y-53120000D02*
X135400000Y-53120000D01*
X136600000Y-63120000D02*
X135400000Y-63120000D01*
X135400000Y-64880000D02*
X136600000Y-64880000D01*
X127530000Y-65750000D02*
X127530000Y-65250000D01*
X128470000Y-65250000D02*
X128470000Y-65750000D01*
X128470000Y-53750000D02*
X128470000Y-54250000D01*
X127530000Y-54250000D02*
X127530000Y-53750000D01*
X109757400Y-60134400D02*
X110257400Y-60134400D01*
X110257400Y-61074400D02*
X109757400Y-61074400D01*
X135907400Y-82790400D02*
X134907400Y-82790400D01*
X134907400Y-81090400D02*
X135907400Y-81090400D01*
X125946000Y-77635000D02*
X126446000Y-77635000D01*
X126446000Y-78575000D02*
X125946000Y-78575000D01*
X126708000Y-108487400D02*
X126708000Y-108987400D01*
X125768000Y-108987400D02*
X125768000Y-108487400D01*
X135124000Y-115176400D02*
X134624000Y-115176400D01*
X134624000Y-114236400D02*
X135124000Y-114236400D01*
D13*
X152940000Y-33015000D02*
X97060000Y-33015000D01*
X97060000Y-33015000D02*
X97060000Y-39047500D01*
X97060000Y-39047500D02*
X96107500Y-39047500D01*
X96107500Y-39047500D02*
X96107500Y-40952500D01*
X96107500Y-40952500D02*
X97060000Y-40952500D01*
X97060000Y-40952500D02*
X97060000Y-46985000D01*
X97060000Y-46985000D02*
X152940000Y-46985000D01*
X152940000Y-46985000D02*
X152940000Y-33015000D01*
D11*
X152639713Y-43048000D02*
G75*
G03X152639713Y-43048000I-449013J0D01*
G01*
X152825700Y-43048000D02*
X151428700Y-43048000D01*
X152190700Y-43962400D02*
X152190700Y-42184400D01*
X98258313Y-40000000D02*
G75*
G03X98258313Y-40000000I-449013J0D01*
G01*
X98698300Y-40000000D02*
X96933000Y-40000000D01*
X97809300Y-40850900D02*
X97809300Y-39136400D01*
D12*
X118978400Y-128435200D02*
X118478400Y-128435200D01*
X118478400Y-127495200D02*
X118978400Y-127495200D01*
X126038800Y-126936400D02*
X126538800Y-126936400D01*
X126538800Y-127876400D02*
X126038800Y-127876400D01*
X109443800Y-70396000D02*
X109943800Y-70396000D01*
X109943800Y-71336000D02*
X109443800Y-71336000D01*
X117199600Y-54952800D02*
X117699600Y-54952800D01*
X117699600Y-55892800D02*
X117199600Y-55892800D01*
X117852000Y-61455400D02*
X117352000Y-61455400D01*
X117352000Y-60515400D02*
X117852000Y-60515400D01*
D14*
X144318504Y-112016027D02*
X145225647Y-112016027D01*
X145407075Y-111955551D01*
X145528028Y-111834599D01*
X145588504Y-111653170D01*
X145588504Y-111532218D01*
X144439456Y-112560313D02*
X144378980Y-112620789D01*
X144318504Y-112741741D01*
X144318504Y-113044122D01*
X144378980Y-113165075D01*
X144439456Y-113225551D01*
X144560409Y-113286027D01*
X144681361Y-113286027D01*
X144862790Y-113225551D01*
X145588504Y-112499837D01*
X145588504Y-113286027D01*
X145509764Y-95804537D02*
X145509764Y-95078823D01*
X145509764Y-95441680D02*
X144239764Y-95441680D01*
X144421192Y-95320728D01*
X144542145Y-95199775D01*
X144602621Y-95078823D01*
X154259096Y-94974683D02*
X154198620Y-95035159D01*
X154138144Y-95156111D01*
X154138144Y-95458492D01*
X154198620Y-95579445D01*
X154259096Y-95639921D01*
X154380049Y-95700397D01*
X154501001Y-95700397D01*
X154682430Y-95639921D01*
X155408144Y-94914207D01*
X155408144Y-95700397D01*
X155408144Y-129898473D02*
X155408144Y-129172759D01*
X155408144Y-129535616D02*
X154138144Y-129535616D01*
X154319572Y-129414664D01*
X154440525Y-129293711D01*
X154501001Y-129172759D01*
X154259096Y-130382283D02*
X154198620Y-130442759D01*
X154138144Y-130563711D01*
X154138144Y-130866092D01*
X154198620Y-130987045D01*
X154259096Y-131047521D01*
X154380049Y-131107997D01*
X154501001Y-131107997D01*
X154682430Y-131047521D01*
X155408144Y-130321807D01*
X155408144Y-131107997D01*
X154138144Y-131894188D02*
X154138144Y-132015140D01*
X154198620Y-132136092D01*
X154259096Y-132196569D01*
X154380049Y-132257045D01*
X154621953Y-132317521D01*
X154924334Y-132317521D01*
X155166239Y-132257045D01*
X155287191Y-132196569D01*
X155347668Y-132136092D01*
X155408144Y-132015140D01*
X155408144Y-131894188D01*
X155347668Y-131773235D01*
X155287191Y-131712759D01*
X155166239Y-131652283D01*
X154924334Y-131591807D01*
X154621953Y-131591807D01*
X154380049Y-131652283D01*
X154259096Y-131712759D01*
X154198620Y-131773235D01*
X154138144Y-131894188D01*
X145309104Y-130002613D02*
X145309104Y-129276899D01*
X145309104Y-129639756D02*
X144039104Y-129639756D01*
X144220532Y-129518804D01*
X144341485Y-129397851D01*
X144401961Y-129276899D01*
X145309104Y-131212137D02*
X145309104Y-130486423D01*
X145309104Y-130849280D02*
X144039104Y-130849280D01*
X144220532Y-130728328D01*
X144341485Y-130607375D01*
X144401961Y-130486423D01*
X145309104Y-131816899D02*
X145309104Y-132058804D01*
X145248628Y-132179756D01*
X145188151Y-132240232D01*
X145006723Y-132361185D01*
X144764818Y-132421661D01*
X144281009Y-132421661D01*
X144160056Y-132361185D01*
X144099580Y-132300709D01*
X144039104Y-132179756D01*
X144039104Y-131937852D01*
X144099580Y-131816899D01*
X144160056Y-131756423D01*
X144281009Y-131695947D01*
X144583390Y-131695947D01*
X144704342Y-131756423D01*
X144764818Y-131816899D01*
X144825294Y-131937852D01*
X144825294Y-132179756D01*
X144764818Y-132300709D01*
X144704342Y-132361185D01*
X144583390Y-132421661D01*
D15*
X123848057Y-68040781D02*
X124181391Y-67564590D01*
X124419486Y-68040781D02*
X124419486Y-67040781D01*
X124038533Y-67040781D01*
X123943295Y-67088400D01*
X123895676Y-67136019D01*
X123848057Y-67231257D01*
X123848057Y-67374114D01*
X123895676Y-67469352D01*
X123943295Y-67516971D01*
X124038533Y-67564590D01*
X124419486Y-67564590D01*
X122990914Y-67040781D02*
X123181391Y-67040781D01*
X123276629Y-67088400D01*
X123324248Y-67136019D01*
X123419486Y-67278876D01*
X123467105Y-67469352D01*
X123467105Y-67850305D01*
X123419486Y-67945543D01*
X123371867Y-67993162D01*
X123276629Y-68040781D01*
X123086152Y-68040781D01*
X122990914Y-67993162D01*
X122943295Y-67945543D01*
X122895676Y-67850305D01*
X122895676Y-67612210D01*
X122943295Y-67516971D01*
X122990914Y-67469352D01*
X123086152Y-67421733D01*
X123276629Y-67421733D01*
X123371867Y-67469352D01*
X123419486Y-67516971D01*
X123467105Y-67612210D01*
X122419486Y-68040781D02*
X122229010Y-68040781D01*
X122133771Y-67993162D01*
X122086152Y-67945543D01*
X121990914Y-67802686D01*
X121943295Y-67612210D01*
X121943295Y-67231257D01*
X121990914Y-67136019D01*
X122038533Y-67088400D01*
X122133771Y-67040781D01*
X122324248Y-67040781D01*
X122419486Y-67088400D01*
X122467105Y-67136019D01*
X122514724Y-67231257D01*
X122514724Y-67469352D01*
X122467105Y-67564590D01*
X122419486Y-67612210D01*
X122324248Y-67659829D01*
X122133771Y-67659829D01*
X122038533Y-67612210D01*
X121990914Y-67564590D01*
X121943295Y-67469352D01*
X139617857Y-54402381D02*
X139951191Y-53926190D01*
X140189286Y-54402381D02*
X140189286Y-53402381D01*
X139808333Y-53402381D01*
X139713095Y-53450000D01*
X139665476Y-53497619D01*
X139617857Y-53592857D01*
X139617857Y-53735714D01*
X139665476Y-53830952D01*
X139713095Y-53878571D01*
X139808333Y-53926190D01*
X140189286Y-53926190D01*
X139284524Y-53402381D02*
X138617857Y-53402381D01*
X139046429Y-54402381D01*
X137713095Y-54402381D02*
X138284524Y-54402381D01*
X137998810Y-54402381D02*
X137998810Y-53402381D01*
X138094048Y-53545238D01*
X138189286Y-53640476D01*
X138284524Y-53688095D01*
X139942857Y-64352381D02*
X140276191Y-63876190D01*
X140514286Y-64352381D02*
X140514286Y-63352381D01*
X140133333Y-63352381D01*
X140038095Y-63400000D01*
X139990476Y-63447619D01*
X139942857Y-63542857D01*
X139942857Y-63685714D01*
X139990476Y-63780952D01*
X140038095Y-63828571D01*
X140133333Y-63876190D01*
X140514286Y-63876190D01*
X139609524Y-63352381D02*
X138942857Y-63352381D01*
X139371429Y-64352381D01*
X138657143Y-63352381D02*
X138038095Y-63352381D01*
X138371429Y-63733333D01*
X138228571Y-63733333D01*
X138133333Y-63780952D01*
X138085714Y-63828571D01*
X138038095Y-63923810D01*
X138038095Y-64161905D01*
X138085714Y-64257143D01*
X138133333Y-64304762D01*
X138228571Y-64352381D01*
X138514286Y-64352381D01*
X138609524Y-64304762D01*
X138657143Y-64257143D01*
X127087143Y-65333334D02*
X127134762Y-65285715D01*
X127182381Y-65142858D01*
X127182381Y-65047620D01*
X127134762Y-64904762D01*
X127039524Y-64809524D01*
X126944286Y-64761905D01*
X126753810Y-64714286D01*
X126610952Y-64714286D01*
X126420476Y-64761905D01*
X126325238Y-64809524D01*
X126230000Y-64904762D01*
X126182381Y-65047620D01*
X126182381Y-65142858D01*
X126230000Y-65285715D01*
X126277619Y-65333334D01*
X126182381Y-65666667D02*
X126182381Y-66333334D01*
X127182381Y-65904762D01*
X128357143Y-50868343D02*
X128404762Y-50820724D01*
X128452381Y-50677867D01*
X128452381Y-50582629D01*
X128404762Y-50439771D01*
X128309524Y-50344533D01*
X128214286Y-50296914D01*
X128023810Y-50249295D01*
X127880952Y-50249295D01*
X127690476Y-50296914D01*
X127595238Y-50344533D01*
X127500000Y-50439771D01*
X127452381Y-50582629D01*
X127452381Y-50677867D01*
X127500000Y-50820724D01*
X127547619Y-50868343D01*
X128452381Y-51820724D02*
X128452381Y-51249295D01*
X128452381Y-51535009D02*
X127452381Y-51535009D01*
X127595238Y-51439771D01*
X127690476Y-51344533D01*
X127738095Y-51249295D01*
X127452381Y-52439771D02*
X127452381Y-52535010D01*
X127500000Y-52630248D01*
X127547619Y-52677867D01*
X127642857Y-52725486D01*
X127833333Y-52773105D01*
X128071429Y-52773105D01*
X128261905Y-52725486D01*
X128357143Y-52677867D01*
X128404762Y-52630248D01*
X128452381Y-52535010D01*
X128452381Y-52439771D01*
X128404762Y-52344533D01*
X128357143Y-52296914D01*
X128261905Y-52249295D01*
X128071429Y-52201676D01*
X127833333Y-52201676D01*
X127642857Y-52249295D01*
X127547619Y-52296914D01*
X127500000Y-52344533D01*
X127452381Y-52439771D01*
X110049457Y-59742343D02*
X110097076Y-59789962D01*
X110239933Y-59837581D01*
X110335171Y-59837581D01*
X110478029Y-59789962D01*
X110573267Y-59694724D01*
X110620886Y-59599486D01*
X110668505Y-59409010D01*
X110668505Y-59266152D01*
X110620886Y-59075676D01*
X110573267Y-58980438D01*
X110478029Y-58885200D01*
X110335171Y-58837581D01*
X110239933Y-58837581D01*
X110097076Y-58885200D01*
X110049457Y-58932819D01*
X109097076Y-59837581D02*
X109668505Y-59837581D01*
X109382791Y-59837581D02*
X109382791Y-58837581D01*
X109478029Y-58980438D01*
X109573267Y-59075676D01*
X109668505Y-59123295D01*
X108525648Y-59266152D02*
X108620886Y-59218533D01*
X108668505Y-59170914D01*
X108716124Y-59075676D01*
X108716124Y-59028057D01*
X108668505Y-58932819D01*
X108620886Y-58885200D01*
X108525648Y-58837581D01*
X108335171Y-58837581D01*
X108239933Y-58885200D01*
X108192314Y-58932819D01*
X108144695Y-59028057D01*
X108144695Y-59075676D01*
X108192314Y-59170914D01*
X108239933Y-59218533D01*
X108335171Y-59266152D01*
X108525648Y-59266152D01*
X108620886Y-59313771D01*
X108668505Y-59361390D01*
X108716124Y-59456629D01*
X108716124Y-59647105D01*
X108668505Y-59742343D01*
X108620886Y-59789962D01*
X108525648Y-59837581D01*
X108335171Y-59837581D01*
X108239933Y-59789962D01*
X108192314Y-59742343D01*
X108144695Y-59647105D01*
X108144695Y-59456629D01*
X108192314Y-59361390D01*
X108239933Y-59313771D01*
X108335171Y-59266152D01*
X139453857Y-82348343D02*
X139501476Y-82395962D01*
X139644333Y-82443581D01*
X139739571Y-82443581D01*
X139882429Y-82395962D01*
X139977667Y-82300724D01*
X140025286Y-82205486D01*
X140072905Y-82015010D01*
X140072905Y-81872152D01*
X140025286Y-81681676D01*
X139977667Y-81586438D01*
X139882429Y-81491200D01*
X139739571Y-81443581D01*
X139644333Y-81443581D01*
X139501476Y-81491200D01*
X139453857Y-81538819D01*
X138501476Y-82443581D02*
X139072905Y-82443581D01*
X138787191Y-82443581D02*
X138787191Y-81443581D01*
X138882429Y-81586438D01*
X138977667Y-81681676D01*
X139072905Y-81729295D01*
X138025286Y-82443581D02*
X137834810Y-82443581D01*
X137739571Y-82395962D01*
X137691952Y-82348343D01*
X137596714Y-82205486D01*
X137549095Y-82015010D01*
X137549095Y-81634057D01*
X137596714Y-81538819D01*
X137644333Y-81491200D01*
X137739571Y-81443581D01*
X137930048Y-81443581D01*
X138025286Y-81491200D01*
X138072905Y-81538819D01*
X138120524Y-81634057D01*
X138120524Y-81872152D01*
X138072905Y-81967390D01*
X138025286Y-82015010D01*
X137930048Y-82062629D01*
X137739571Y-82062629D01*
X137644333Y-82015010D01*
X137596714Y-81967390D01*
X137549095Y-81872152D01*
X126838857Y-77192143D02*
X126886476Y-77239762D01*
X127029333Y-77287381D01*
X127124571Y-77287381D01*
X127267429Y-77239762D01*
X127362667Y-77144524D01*
X127410286Y-77049286D01*
X127457905Y-76858810D01*
X127457905Y-76715952D01*
X127410286Y-76525476D01*
X127362667Y-76430238D01*
X127267429Y-76335000D01*
X127124571Y-76287381D01*
X127029333Y-76287381D01*
X126886476Y-76335000D01*
X126838857Y-76382619D01*
X126457905Y-76382619D02*
X126410286Y-76335000D01*
X126315048Y-76287381D01*
X126076952Y-76287381D01*
X125981714Y-76335000D01*
X125934095Y-76382619D01*
X125886476Y-76477857D01*
X125886476Y-76573095D01*
X125934095Y-76715952D01*
X126505524Y-77287381D01*
X125886476Y-77287381D01*
X125553143Y-76287381D02*
X124934095Y-76287381D01*
X125267429Y-76668333D01*
X125124571Y-76668333D01*
X125029333Y-76715952D01*
X124981714Y-76763571D01*
X124934095Y-76858810D01*
X124934095Y-77096905D01*
X124981714Y-77192143D01*
X125029333Y-77239762D01*
X125124571Y-77287381D01*
X125410286Y-77287381D01*
X125505524Y-77239762D01*
X125553143Y-77192143D01*
X125502943Y-108069143D02*
X125550562Y-108021524D01*
X125598181Y-107878667D01*
X125598181Y-107783429D01*
X125550562Y-107640571D01*
X125455324Y-107545333D01*
X125360086Y-107497714D01*
X125169610Y-107450095D01*
X125026752Y-107450095D01*
X124836276Y-107497714D01*
X124741038Y-107545333D01*
X124645800Y-107640571D01*
X124598181Y-107783429D01*
X124598181Y-107878667D01*
X124645800Y-108021524D01*
X124693419Y-108069143D01*
X124693419Y-108450095D02*
X124645800Y-108497714D01*
X124598181Y-108592952D01*
X124598181Y-108831048D01*
X124645800Y-108926286D01*
X124693419Y-108973905D01*
X124788657Y-109021524D01*
X124883895Y-109021524D01*
X125026752Y-108973905D01*
X125598181Y-108402476D01*
X125598181Y-109021524D01*
X124598181Y-109354857D02*
X124598181Y-110021524D01*
X125598181Y-109592952D01*
X135516857Y-116333543D02*
X135564476Y-116381162D01*
X135707333Y-116428781D01*
X135802571Y-116428781D01*
X135945429Y-116381162D01*
X136040667Y-116285924D01*
X136088286Y-116190686D01*
X136135905Y-116000210D01*
X136135905Y-115857352D01*
X136088286Y-115666876D01*
X136040667Y-115571638D01*
X135945429Y-115476400D01*
X135802571Y-115428781D01*
X135707333Y-115428781D01*
X135564476Y-115476400D01*
X135516857Y-115524019D01*
X135135905Y-115524019D02*
X135088286Y-115476400D01*
X134993048Y-115428781D01*
X134754952Y-115428781D01*
X134659714Y-115476400D01*
X134612095Y-115524019D01*
X134564476Y-115619257D01*
X134564476Y-115714495D01*
X134612095Y-115857352D01*
X135183524Y-116428781D01*
X134564476Y-116428781D01*
X133993048Y-115857352D02*
X134088286Y-115809733D01*
X134135905Y-115762114D01*
X134183524Y-115666876D01*
X134183524Y-115619257D01*
X134135905Y-115524019D01*
X134088286Y-115476400D01*
X133993048Y-115428781D01*
X133802571Y-115428781D01*
X133707333Y-115476400D01*
X133659714Y-115524019D01*
X133612095Y-115619257D01*
X133612095Y-115666876D01*
X133659714Y-115762114D01*
X133707333Y-115809733D01*
X133802571Y-115857352D01*
X133993048Y-115857352D01*
X134088286Y-115904971D01*
X134135905Y-115952590D01*
X134183524Y-116047829D01*
X134183524Y-116238305D01*
X134135905Y-116333543D01*
X134088286Y-116381162D01*
X133993048Y-116428781D01*
X133802571Y-116428781D01*
X133707333Y-116381162D01*
X133659714Y-116333543D01*
X133612095Y-116238305D01*
X133612095Y-116047829D01*
X133659714Y-115952590D01*
X133707333Y-115904971D01*
X133802571Y-115857352D01*
D16*
X96088667Y-34193619D02*
X96088667Y-34919333D01*
X96137047Y-35064476D01*
X96233809Y-35161238D01*
X96378952Y-35209619D01*
X96475714Y-35209619D01*
X95072667Y-35209619D02*
X95653238Y-35209619D01*
X95362952Y-35209619D02*
X95362952Y-34193619D01*
X95459714Y-34338762D01*
X95556476Y-34435524D01*
X95653238Y-34483905D01*
D15*
X119371257Y-129592343D02*
X119418876Y-129639962D01*
X119561733Y-129687581D01*
X119656971Y-129687581D01*
X119799829Y-129639962D01*
X119895067Y-129544724D01*
X119942686Y-129449486D01*
X119990305Y-129259010D01*
X119990305Y-129116152D01*
X119942686Y-128925676D01*
X119895067Y-128830438D01*
X119799829Y-128735200D01*
X119656971Y-128687581D01*
X119561733Y-128687581D01*
X119418876Y-128735200D01*
X119371257Y-128782819D01*
X119037924Y-128687581D02*
X118418876Y-128687581D01*
X118752210Y-129068533D01*
X118609352Y-129068533D01*
X118514114Y-129116152D01*
X118466495Y-129163771D01*
X118418876Y-129259010D01*
X118418876Y-129497105D01*
X118466495Y-129592343D01*
X118514114Y-129639962D01*
X118609352Y-129687581D01*
X118895067Y-129687581D01*
X118990305Y-129639962D01*
X119037924Y-129592343D01*
X117466495Y-129687581D02*
X118037924Y-129687581D01*
X117752210Y-129687581D02*
X117752210Y-128687581D01*
X117847448Y-128830438D01*
X117942686Y-128925676D01*
X118037924Y-128973295D01*
X126931657Y-126493543D02*
X126979276Y-126541162D01*
X127122133Y-126588781D01*
X127217371Y-126588781D01*
X127360229Y-126541162D01*
X127455467Y-126445924D01*
X127503086Y-126350686D01*
X127550705Y-126160210D01*
X127550705Y-126017352D01*
X127503086Y-125826876D01*
X127455467Y-125731638D01*
X127360229Y-125636400D01*
X127217371Y-125588781D01*
X127122133Y-125588781D01*
X126979276Y-125636400D01*
X126931657Y-125684019D01*
X126598324Y-125588781D02*
X125979276Y-125588781D01*
X126312610Y-125969733D01*
X126169752Y-125969733D01*
X126074514Y-126017352D01*
X126026895Y-126064971D01*
X125979276Y-126160210D01*
X125979276Y-126398305D01*
X126026895Y-126493543D01*
X126074514Y-126541162D01*
X126169752Y-126588781D01*
X126455467Y-126588781D01*
X126550705Y-126541162D01*
X126598324Y-126493543D01*
X125598324Y-125684019D02*
X125550705Y-125636400D01*
X125455467Y-125588781D01*
X125217371Y-125588781D01*
X125122133Y-125636400D01*
X125074514Y-125684019D01*
X125026895Y-125779257D01*
X125026895Y-125874495D01*
X125074514Y-126017352D01*
X125645943Y-126588781D01*
X125026895Y-126588781D01*
X110336657Y-69953143D02*
X110384276Y-70000762D01*
X110527133Y-70048381D01*
X110622371Y-70048381D01*
X110765229Y-70000762D01*
X110860467Y-69905524D01*
X110908086Y-69810286D01*
X110955705Y-69619810D01*
X110955705Y-69476952D01*
X110908086Y-69286476D01*
X110860467Y-69191238D01*
X110765229Y-69096000D01*
X110622371Y-69048381D01*
X110527133Y-69048381D01*
X110384276Y-69096000D01*
X110336657Y-69143619D01*
X110003324Y-69048381D02*
X109384276Y-69048381D01*
X109717610Y-69429333D01*
X109574752Y-69429333D01*
X109479514Y-69476952D01*
X109431895Y-69524571D01*
X109384276Y-69619810D01*
X109384276Y-69857905D01*
X109431895Y-69953143D01*
X109479514Y-70000762D01*
X109574752Y-70048381D01*
X109860467Y-70048381D01*
X109955705Y-70000762D01*
X110003324Y-69953143D01*
X109050943Y-69048381D02*
X108431895Y-69048381D01*
X108765229Y-69429333D01*
X108622371Y-69429333D01*
X108527133Y-69476952D01*
X108479514Y-69524571D01*
X108431895Y-69619810D01*
X108431895Y-69857905D01*
X108479514Y-69953143D01*
X108527133Y-70000762D01*
X108622371Y-70048381D01*
X108908086Y-70048381D01*
X109003324Y-70000762D01*
X109050943Y-69953143D01*
X118092457Y-54509943D02*
X118140076Y-54557562D01*
X118282933Y-54605181D01*
X118378171Y-54605181D01*
X118521029Y-54557562D01*
X118616267Y-54462324D01*
X118663886Y-54367086D01*
X118711505Y-54176610D01*
X118711505Y-54033752D01*
X118663886Y-53843276D01*
X118616267Y-53748038D01*
X118521029Y-53652800D01*
X118378171Y-53605181D01*
X118282933Y-53605181D01*
X118140076Y-53652800D01*
X118092457Y-53700419D01*
X117759124Y-53605181D02*
X117140076Y-53605181D01*
X117473410Y-53986133D01*
X117330552Y-53986133D01*
X117235314Y-54033752D01*
X117187695Y-54081371D01*
X117140076Y-54176610D01*
X117140076Y-54414705D01*
X117187695Y-54509943D01*
X117235314Y-54557562D01*
X117330552Y-54605181D01*
X117616267Y-54605181D01*
X117711505Y-54557562D01*
X117759124Y-54509943D01*
X116235314Y-53605181D02*
X116711505Y-53605181D01*
X116759124Y-54081371D01*
X116711505Y-54033752D01*
X116616267Y-53986133D01*
X116378171Y-53986133D01*
X116282933Y-54033752D01*
X116235314Y-54081371D01*
X116187695Y-54176610D01*
X116187695Y-54414705D01*
X116235314Y-54509943D01*
X116282933Y-54557562D01*
X116378171Y-54605181D01*
X116616267Y-54605181D01*
X116711505Y-54557562D01*
X116759124Y-54509943D01*
X118244857Y-62612543D02*
X118292476Y-62660162D01*
X118435333Y-62707781D01*
X118530571Y-62707781D01*
X118673429Y-62660162D01*
X118768667Y-62564924D01*
X118816286Y-62469686D01*
X118863905Y-62279210D01*
X118863905Y-62136352D01*
X118816286Y-61945876D01*
X118768667Y-61850638D01*
X118673429Y-61755400D01*
X118530571Y-61707781D01*
X118435333Y-61707781D01*
X118292476Y-61755400D01*
X118244857Y-61803019D01*
X117911524Y-61707781D02*
X117292476Y-61707781D01*
X117625810Y-62088733D01*
X117482952Y-62088733D01*
X117387714Y-62136352D01*
X117340095Y-62183971D01*
X117292476Y-62279210D01*
X117292476Y-62517305D01*
X117340095Y-62612543D01*
X117387714Y-62660162D01*
X117482952Y-62707781D01*
X117768667Y-62707781D01*
X117863905Y-62660162D01*
X117911524Y-62612543D01*
X116435333Y-61707781D02*
X116625810Y-61707781D01*
X116721048Y-61755400D01*
X116768667Y-61803019D01*
X116863905Y-61945876D01*
X116911524Y-62136352D01*
X116911524Y-62517305D01*
X116863905Y-62612543D01*
X116816286Y-62660162D01*
X116721048Y-62707781D01*
X116530571Y-62707781D01*
X116435333Y-62660162D01*
X116387714Y-62612543D01*
X116340095Y-62517305D01*
X116340095Y-62279210D01*
X116387714Y-62183971D01*
X116435333Y-62136352D01*
X116530571Y-62088733D01*
X116721048Y-62088733D01*
X116816286Y-62136352D01*
X116863905Y-62183971D01*
X116911524Y-62279210D01*
M02*
