<?xml version="1.0" standalone="no"?>
 <!DOCTYPE svg PUBLIC "-//W3C//DTD SVG 1.1//EN" 
 "http://www.w3.org/Graphics/SVG/1.1/DTD/svg11.dtd"> 
<svg xmlns="http://www.w3.org/2000/svg" version="1.1" 
    width="11.971cm" height="15.0622cm" viewBox="0 0 47130 59300 ">
<title>SVG Picture created as FMC_MIPI_v1-brd.svg date 2017/07/31 23:11:27 </title>
  <desc>Picture generated by PCBNEW </desc>
<g style="fill:#000000; fill-opacity:1;stroke:#000000; stroke-opacity:1;
stroke-linecap:round; stroke-linejoin:round; "
 transform="translate(0 0) scale(1 1)">
</g>
<g style="fill:#000000; fill-opacity:0.0; 
stroke:#000000; stroke-width:-0.000393701; stroke-opacity:1; 
stroke-linecap:round; stroke-linejoin:round;">
</g>
<g style="fill:#C2C200; fill-opacity:0.0; 
stroke:#C2C200; stroke-width:-0.000393701; stroke-opacity:1; 
stroke-linecap:round; stroke-linejoin:round;">
</g>
<g style="fill:#C2C200; fill-opacity:0.0; 
stroke:#C2C200; stroke-width:19.685; stroke-opacity:1; 
stroke-linecap:round; stroke-linejoin:round;">
<path d="M21305 19794
L22526 19794
" />
<path d="M21305 19794
L21305 19085
" />
<path d="M22526 19085
L22526 19794
" />
<path d="M22526 19085
L21305 19085
" />
<path d="M27563 14385
L26343 14385
" />
<path d="M27563 14385
L27563 15094
" />
<path d="M26343 15094
L26343 14385
" />
<path d="M26343 15094
L27563 15094
" />
<path d="M26343 19031
L27563 19031
" />
<path d="M26343 19031
L26343 18322
" />
<path d="M27563 18322
L27563 19031
" />
<path d="M27563 18322
L26343 18322
" />
<path d="M23646 18873
L23646 19661
" />
<path d="M23646 18873
L23961 18873
" />
<path d="M23961 19661
L23646 19661
" />
<path d="M23961 19661
L23961 18873
" />
<path d="M23961 15133
L23961 14346
" />
<path d="M23961 15133
L23646 15133
" />
<path d="M23646 14346
L23961 14346
" />
<path d="M23646 14346
L23646 15133
" />
<path d="M17113 17182
L16326 17182
" />
<path d="M17113 17182
L17113 17497
" />
<path d="M16326 17497
L16326 17182
" />
<path d="M16326 17497
L17113 17497
" />
<path d="M26031 26086
L27408 26086
" />
<path d="M26031 26086
L26031 25397
" />
<path d="M27408 25397
L27408 26086
" />
<path d="M27408 25397
L26031 25397
" />
<path d="M23487 24072
L22699 24072
" />
<path d="M23487 24072
L23487 24387
" />
<path d="M22699 24387
L22699 24072
" />
<path d="M22699 24387
L23487 24387
" />
<path d="M23267 36683
L23267 35896
" />
<path d="M23267 36683
L22952 36683
" />
<path d="M22952 35896
L23267 35896
" />
<path d="M22952 35896
L22952 36683
" />
<path d="M26116 38797
L26903 38797
" />
<path d="M26116 38797
L26116 38482
" />
<path d="M26903 38482
L26903 38797
" />
<path d="M26903 38482
L26116 38482
" />
<path d="M19759 44017
L20547 44017
" />
<path d="M19759 44017
L19759 43702
" />
<path d="M20547 43702
L20547 44017
" />
<path d="M20547 43702
L19759 43702
" />
<path d="M23523 43482
L22736 43482
" />
<path d="M23523 43482
L23523 43797
" />
<path d="M22736 43797
L22736 43482
" />
<path d="M22736 43797
L23523 43797
" />
<path d="M16990 21222
L16202 21222
" />
<path d="M16990 21222
L16990 21537
" />
<path d="M16202 21537
L16202 21222
" />
<path d="M16202 21537
L16990 21537
" />
<path d="M20043 15142
L19256 15142
" />
<path d="M20043 15142
L20043 15457
" />
<path d="M19256 15457
L19256 15142
" />
<path d="M19256 15457
L20043 15457
" />
<path d="M19316 17647
L20103 17647
" />
<path d="M19316 17647
L19316 17332
" />
<path d="M20103 17332
L20103 17647
" />
<path d="M20103 17332
L19316 17332
" />
</g>
<g style="fill:#000000; fill-opacity:0.0; 
stroke:#000000; stroke-width:19.685; stroke-opacity:1; 
stroke-linecap:round; stroke-linejoin:round;">
</g>
<g style="fill:#FFFFC2; fill-opacity:0.0; 
stroke:#FFFFC2; stroke-width:19.685; stroke-opacity:1; 
stroke-linecap:round; stroke-linejoin:round;">
</g>
<g style="fill:#FFFFC2; fill-opacity:0.0; 
stroke:#FFFFC2; stroke-width:50; stroke-opacity:1; 
stroke-linecap:round; stroke-linejoin:round;">
<path d="M30817 29652
L30817 45792
" />
<path d="M30817 45792
L33257 45792
" />
<path d="M33257 45792
L34045 45005
" />
<path d="M34045 45005
L34045 30439
" />
<path d="M34045 30439
L33257 29652
" />
<path d="M33257 29652
L30817 29652
" />
</g>
<g style="fill:#FFFFC2; fill-opacity:0.0; 
stroke:#FFFFC2; stroke-width:47.2441; stroke-opacity:1; 
stroke-linecap:round; stroke-linejoin:round;">
<path d="M22152 19093
L21679 19093
" />
<path d="M21679 19786
L22152 19786
" />
<path d="M26717 15086
L27189 15086
" />
<path d="M27189 14393
L26717 14393
" />
<path d="M27189 18330
L26717 18330
" />
<path d="M26717 19023
L27189 19023
" />
<path d="M23618 19365
L23618 19168
" />
<path d="M23988 19168
L23988 19365
" />
<path d="M23988 14641
L23988 14838
" />
<path d="M23618 14838
L23618 14641
" />
<path d="M16621 17154
L16818 17154
" />
<path d="M16818 17525
L16621 17525
" />
<path d="M26916 26074
L26523 26074
" />
<path d="M26523 25405
L26916 25405
" />
<path d="M22995 24044
L23191 24044
" />
<path d="M23191 24415
L22995 24415
" />
<path d="M23295 36191
L23295 36388
" />
<path d="M22924 36388
L22924 36191
" />
<path d="M26608 38825
L26411 38825
" />
<path d="M26411 38454
L26608 38454
" />
</g>
<g style="fill:#FFFFC2; fill-opacity:0.0; 
stroke:#FFFFC2; stroke-width:80; stroke-opacity:1; 
stroke-linecap:round; stroke-linejoin:round;">
<path d="M33622 6478
L11622 6478
" />
<path d="M11622 6478
L11622 8853
" />
<path d="M11622 8853
L11247 8853
" />
<path d="M11247 8853
L11247 9603
" />
<path d="M11247 9603
L11622 9603
" />
<path d="M11622 9603
L11622 11978
" />
<path d="M11622 11978
L33622 11978
" />
<path d="M33622 11978
L33622 6478
" />
</g>
<g style="fill:#FFFFC2; fill-opacity:0.0; 
stroke:#FFFFC2; stroke-width:50; stroke-opacity:1; 
stroke-linecap:round; stroke-linejoin:round;">
<circle cx="33327.6" cy="10428" r="176.777" /> 
<path d="M33577 10428
L33027 10428
" />
<path d="M33327 10788
L33327 10088
" />
<circle cx="11917.6" cy="9228.03" r="176.777" /> 
<path d="M12267 9228
L11572 9228
" />
<path d="M11917 9563
L11917 8888
" />
</g>
<g style="fill:#FFFFC2; fill-opacity:0.0; 
stroke:#FFFFC2; stroke-width:47.2441; stroke-opacity:1; 
stroke-linecap:round; stroke-linejoin:round;">
<path d="M20251 44045
L20055 44045
" />
<path d="M20055 43674
L20251 43674
" />
<path d="M23031 43454
L23228 43454
" />
<path d="M23228 43825
L23031 43825
" />
<path d="M16498 21194
L16694 21194
" />
<path d="M16694 21565
L16498 21565
" />
<path d="M19551 15114
L19748 15114
" />
<path d="M19748 15485
L19551 15485
" />
<path d="M19808 17675
L19611 17675
" />
<path d="M19611 17304
L19808 17304
" />
</g>
<g style="fill:#FFFFC2; fill-opacity:0.0; 
stroke:#FFFFC2; stroke-width:40; stroke-opacity:1; 
stroke-linecap:round; stroke-linejoin:round;">
<path d="M30228 37580
L30585 37580
L30656 37556
L30704 37509
L30728 37437
L30728 37390
" />
<path d="M30275 37795
L30252 37818
L30228 37866
L30228 37985
L30252 38033
L30275 38056
L30323 38080
L30371 38080
L30442 38056
L30728 37771
L30728 38080
" />
<path d="M34666 32271
L34643 32223
L34595 32176
L34524 32104
L34500 32056
L34500 32009
" />
<path d="M34619 32033
L34595 31985
L34547 31937
L34452 31914
L34285 31914
L34190 31937
L34143 31985
L34119 32033
L34119 32128
L34143 32176
L34190 32223
L34285 32247
L34452 32247
L34547 32223
L34595 32176
L34619 32128
L34619 32033
" />
<path d="M34119 32390
L34119 32676
" />
<path d="M34619 32533
L34119 32533
" />
<path d="M34619 32842
L34119 32842
" />
<path d="M34357 32842
L34357 33128
" />
<path d="M34619 33128
L34119 33128
" />
<path d="M34428 33366
L34428 33747
" />
<path d="M34119 34080
L34119 34128
L34143 34176
L34166 34199
L34214 34223
L34309 34247
L34428 34247
L34524 34223
L34571 34199
L34595 34176
L34619 34128
L34619 34080
L34595 34033
L34571 34009
L34524 33985
L34428 33961
L34309 33961
L34214 33985
L34166 34009
L34143 34033
L34119 34080
" />
<path d="M34119 34676
L34119 34580
L34143 34533
L34166 34509
L34238 34461
L34333 34437
L34524 34437
L34571 34461
L34595 34485
L34619 34533
L34619 34628
L34595 34676
L34571 34699
L34524 34723
L34405 34723
L34357 34699
L34333 34676
L34309 34628
L34309 34533
L34333 34485
L34357 34461
L34405 34437
" />
<path d="M34119 35033
L34119 35080
L34143 35128
L34166 35152
L34214 35176
L34309 35199
L34428 35199
L34524 35176
L34571 35152
L34595 35128
L34619 35080
L34619 35033
L34595 34985
L34571 34961
L34524 34937
L34428 34914
L34309 34914
L34214 34937
L34166 34961
L34143 34985
L34119 35033
" />
<path d="M34428 35414
L34428 35795
" />
<path d="M34119 36128
L34119 36176
L34143 36223
L34166 36247
L34214 36271
L34309 36295
L34428 36295
L34524 36271
L34571 36247
L34595 36223
L34619 36176
L34619 36128
L34595 36080
L34571 36056
L34524 36033
L34428 36009
L34309 36009
L34214 36033
L34166 36056
L34143 36080
L34119 36128
" />
<path d="M34619 36771
L34619 36485
" />
<path d="M34619 36628
L34119 36628
L34190 36580
L34238 36533
L34262 36485
" />
<path d="M34428 36985
L34428 37366
" />
<path d="M34119 37556
L34619 37890
" />
<path d="M34119 37890
L34619 37556
" />
<path d="M34428 38080
L34428 38461
" />
<path d="M34619 38699
L34119 38699
L34119 38818
L34143 38890
L34190 38937
L34238 38961
L34333 38985
L34405 38985
L34500 38961
L34547 38937
L34595 38890
L34619 38818
L34619 38699
" />
<path d="M34428 39199
L34428 39580
" />
<path d="M34476 39795
L34476 40033
" />
<path d="M34619 39747
L34119 39914
L34619 40080
" />
<path d="M34666 40128
L34666 40509
" />
<path d="M34119 40771
L34476 40771
L34547 40747
L34595 40699
L34619 40628
L34619 40580
" />
<path d="M34595 41199
L34619 41152
L34619 41056
L34595 41009
L34547 40985
L34357 40985
L34309 41009
L34285 41056
L34285 41152
L34309 41199
L34357 41223
L34405 41223
L34452 40985
" />
<path d="M34285 41366
L34285 41556
" />
<path d="M34119 41437
L34547 41437
L34595 41461
L34619 41509
L34619 41556
" />
<path d="M34595 41699
L34619 41747
L34619 41842
L34595 41890
L34547 41914
L34524 41914
L34476 41890
L34452 41842
L34452 41771
L34428 41723
L34381 41699
L34357 41699
L34309 41723
L34285 41771
L34285 41842
L34309 41890
" />
<path d="M34619 42199
L34595 42152
L34571 42128
L34524 42104
L34381 42104
L34333 42128
L34309 42152
L34285 42199
L34285 42271
L34309 42318
L34333 42342
L34381 42366
L34524 42366
L34571 42342
L34595 42318
L34619 42271
L34619 42199
" />
<path d="M34285 42580
L34619 42580
" />
<path d="M34333 42580
L34309 42604
L34285 42652
L34285 42723
L34309 42771
L34357 42795
L34619 42795
" />
<path d="M34119 42961
L34119 43247
" />
<path d="M34619 43104
L34119 43104
" />
<path d="M34119 43366
L34619 43699
" />
<path d="M34119 43699
L34619 43366
" />
<path d="M34619 43842
L34285 44104
" />
<path d="M34285 43842
L34619 44104
" />
<path d="M30697 31198
L30697 30912
" />
<path d="M30697 31055
L30197 31055
L30268 31007
L30316 30960
L30340 30912
" />
<path d="M34141 30871
L34118 30895
L34094 30943
L34094 31062
L34118 31109
L34141 31133
L34189 31157
L34237 31157
L34308 31133
L34594 30847
L34594 31157
" />
<path d="M34594 44621
L34594 44335
" />
<path d="M34594 44478
L34094 44478
L34165 44430
L34213 44383
L34237 44335
" />
<path d="M34141 44811
L34118 44835
L34094 44883
L34094 45002
L34118 45049
L34141 45073
L34189 45097
L34237 45097
L34308 45073
L34594 44787
L34594 45097
" />
<path d="M34094 45406
L34094 45454
L34118 45502
L34141 45525
L34189 45549
L34284 45573
L34403 45573
L34499 45549
L34546 45525
L34570 45502
L34594 45454
L34594 45406
L34570 45359
L34546 45335
L34499 45311
L34403 45287
L34284 45287
L34189 45311
L34141 45335
L34118 45359
L34094 45406
" />
<path d="M30618 44662
L30618 44376
" />
<path d="M30618 44519
L30118 44519
L30189 44471
L30237 44424
L30261 44376
" />
<path d="M30618 45138
L30618 44852
" />
<path d="M30618 44995
L30118 44995
L30189 44947
L30237 44900
L30261 44852
" />
<path d="M30618 45376
L30618 45471
L30594 45519
L30570 45543
L30499 45590
L30404 45614
L30213 45614
L30165 45590
L30142 45566
L30118 45519
L30118 45424
L30142 45376
L30165 45352
L30213 45328
L30332 45328
L30380 45352
L30404 45376
L30427 45424
L30427 45519
L30404 45566
L30380 45590
L30332 45614
" />
</g>
<g style="fill:#840000; fill-opacity:0.0; 
stroke:#840000; stroke-width:40; stroke-opacity:1; 
stroke-linecap:round; stroke-linejoin:round;">
</g>
<g style="fill:#840000; fill-opacity:0.0; 
stroke:#840000; stroke-width:59.0551; stroke-opacity:1; 
stroke-linecap:round; stroke-linejoin:round;">
<path d="M22169 20267
L22300 20080
" />
<path d="M22394 20267
L22394 19874
L22244 19874
L22206 19892
L22187 19911
L22169 19948
L22169 20005
L22187 20042
L22206 20061
L22244 20080
L22394 20080
" />
<path d="M21831 19874
L21906 19874
L21944 19892
L21962 19911
L22000 19967
L22019 20042
L22019 20192
L22000 20230
L21981 20248
L21944 20267
L21869 20267
L21831 20248
L21812 20230
L21794 20192
L21794 20098
L21812 20061
L21831 20042
L21869 20023
L21944 20023
L21981 20042
L22000 20061
L22019 20098
" />
<path d="M21606 20267
L21531 20267
L21494 20248
L21475 20230
L21437 20173
L21419 20098
L21419 19948
L21437 19911
L21456 19892
L21494 19874
L21569 19874
L21606 19892
L21625 19911
L21644 19948
L21644 20042
L21625 20080
L21606 20098
L21569 20117
L21494 20117
L21456 20098
L21437 20080
L21419 20042
" />
<path d="M28377 14898
L28508 14710
" />
<path d="M28602 14898
L28602 14504
L28452 14504
L28415 14523
L28396 14542
L28377 14579
L28377 14635
L28396 14673
L28415 14692
L28452 14710
L28602 14710
" />
<path d="M28246 14504
L27983 14504
L28152 14898
" />
<path d="M27627 14898
L27852 14898
" />
<path d="M27740 14898
L27740 14504
L27777 14560
L27815 14598
L27852 14617
" />
<path d="M28505 18815
L28636 18628
" />
<path d="M28730 18815
L28730 18421
L28580 18421
L28543 18440
L28524 18459
L28505 18496
L28505 18553
L28524 18590
L28543 18609
L28580 18628
L28730 18628
" />
<path d="M28374 18421
L28111 18421
L28280 18815
" />
<path d="M27999 18421
L27755 18421
L27886 18571
L27830 18571
L27793 18590
L27774 18609
L27755 18646
L27755 18740
L27774 18778
L27793 18796
L27830 18815
L27943 18815
L27980 18796
L27999 18778
" />
<path d="M23444 19201
L23463 19183
L23481 19126
L23481 19089
L23463 19033
L23425 18995
L23388 18976
L23313 18958
L23256 18958
L23181 18976
L23144 18995
L23106 19033
L23088 19089
L23088 19126
L23106 19183
L23125 19201
" />
<path d="M23088 19333
L23088 19595
L23481 19426
" />
<path d="M23944 13506
L23963 13488
L23981 13431
L23981 13394
L23963 13338
L23925 13300
L23888 13281
L23813 13263
L23756 13263
L23681 13281
L23644 13300
L23606 13338
L23588 13394
L23588 13431
L23606 13488
L23625 13506
" />
<path d="M23981 13881
L23981 13656
" />
<path d="M23981 13769
L23588 13769
L23644 13731
L23681 13694
L23700 13656
" />
<path d="M23588 14125
L23588 14163
L23606 14200
L23625 14219
L23663 14238
L23738 14256
L23831 14256
L23906 14238
L23944 14219
L23963 14200
L23981 14163
L23981 14125
L23963 14088
L23944 14069
L23906 14050
L23831 14031
L23738 14031
L23663 14050
L23625 14069
L23606 14088
L23588 14125
" />
<path d="M16736 17000
L16755 17019
L16811 17038
L16849 17038
L16905 17019
L16942 16981
L16961 16944
L16980 16869
L16980 16813
L16961 16738
L16942 16700
L16905 16663
L16849 16644
L16811 16644
L16755 16663
L16736 16681
" />
<path d="M16361 17038
L16586 17038
" />
<path d="M16474 17038
L16474 16644
L16511 16700
L16549 16738
L16586 16756
" />
<path d="M16136 16813
L16174 16794
L16192 16775
L16211 16738
L16211 16719
L16192 16681
L16174 16663
L16136 16644
L16061 16644
L16024 16663
L16005 16681
L15986 16719
L15986 16738
L16005 16775
L16024 16794
L16061 16813
L16136 16813
L16174 16831
L16192 16850
L16211 16888
L16211 16963
L16192 17000
L16174 17019
L16136 17038
L16061 17038
L16024 17019
L16005 17000
L15986 16963
L15986 16888
L16005 16850
L16024 16831
L16061 16813
" />
<path d="M28313 25900
L28331 25919
L28388 25938
L28425 25938
L28481 25919
L28519 25881
L28538 25844
L28556 25769
L28556 25713
L28538 25638
L28519 25600
L28481 25563
L28425 25544
L28388 25544
L28331 25563
L28313 25581
" />
<path d="M27938 25938
L28163 25938
" />
<path d="M28050 25938
L28050 25544
L28088 25600
L28125 25638
L28163 25656
" />
<path d="M27750 25938
L27675 25938
L27638 25919
L27619 25900
L27581 25844
L27563 25769
L27563 25619
L27581 25581
L27600 25563
L27638 25544
L27713 25544
L27750 25563
L27769 25581
L27788 25619
L27788 25713
L27769 25750
L27750 25769
L27713 25788
L27638 25788
L27600 25769
L27581 25750
L27563 25713
" />
<path d="M23346 23870
L23365 23889
L23421 23908
L23459 23908
L23515 23889
L23552 23851
L23571 23814
L23590 23739
L23590 23683
L23571 23608
L23552 23570
L23515 23533
L23459 23514
L23421 23514
L23365 23533
L23346 23551
" />
<path d="M23196 23551
L23177 23533
L23140 23514
L23046 23514
L23009 23533
L22990 23551
L22971 23589
L22971 23626
L22990 23683
L23215 23908
L22971 23908
" />
<path d="M22840 23514
L22596 23514
L22727 23664
L22671 23664
L22634 23683
L22615 23701
L22596 23739
L22596 23833
L22615 23870
L22634 23889
L22671 23908
L22784 23908
L22821 23889
L22840 23870
" />
<path d="M22820 36026
L22839 36008
L22858 35951
L22858 35914
L22839 35858
L22801 35820
L22764 35801
L22689 35783
L22633 35783
L22558 35801
L22520 35820
L22483 35858
L22464 35914
L22464 35951
L22483 36008
L22501 36026
" />
<path d="M22501 36176
L22483 36195
L22464 36233
L22464 36326
L22483 36364
L22501 36383
L22539 36401
L22576 36401
L22633 36383
L22858 36158
L22858 36401
" />
<path d="M22464 36533
L22464 36795
L22858 36626
" />
<path d="M26763 39280
L26781 39299
L26838 39318
L26875 39318
L26931 39299
L26969 39261
L26988 39224
L27006 39149
L27006 39093
L26988 39018
L26969 38980
L26931 38943
L26875 38924
L26838 38924
L26781 38943
L26763 38961
" />
<path d="M26613 38961
L26594 38943
L26556 38924
L26463 38924
L26425 38943
L26406 38961
L26388 38999
L26388 39036
L26406 39093
L26631 39318
L26388 39318
" />
<path d="M26163 39093
L26200 39074
L26219 39055
L26238 39018
L26238 38999
L26219 38961
L26200 38943
L26163 38924
L26088 38924
L26050 38943
L26031 38961
L26013 38999
L26013 39018
L26031 39055
L26050 39074
L26088 39093
L26163 39093
L26200 39111
L26219 39130
L26238 39168
L26238 39243
L26219 39280
L26200 39299
L26163 39318
L26088 39318
L26050 39299
L26031 39280
L26013 39243
L26013 39168
L26031 39130
L26050 39111
L26088 39093
" />
</g>
<g style="fill:#FFFFC2; fill-opacity:0.0; 
stroke:#FFFFC2; stroke-width:59.0551; stroke-opacity:1; 
stroke-linecap:round; stroke-linejoin:round;">
</g>
<g style="fill:#FFFFC2; fill-opacity:0.0; 
stroke:#FFFFC2; stroke-width:70; stroke-opacity:1; 
stroke-linecap:round; stroke-linejoin:round;">
<path d="M11240 6942
L11240 7227
L11259 7284
L11297 7323
L11354 7342
L11392 7342
" />
<path d="M10840 7342
L11068 7342
" />
<path d="M10954 7342
L10954 6942
L10992 6999
L11030 7037
L11068 7056
" />
</g>
<g style="fill:#FFFFC2; fill-opacity:0.0; 
stroke:#FFFFC2; stroke-width:30; stroke-opacity:1; 
stroke-linecap:round; stroke-linejoin:round;">
<path d="M35382 12371
L35230 12371
" />
<path d="M35413 12462
L35306 12142
L35199 12462
" />
<path d="M35108 12447
L35062 12462
L34986 12462
L34955 12447
L34940 12432
L34925 12401
L34925 12371
L34940 12340
L34955 12325
L34986 12310
L35047 12295
L35077 12279
L35093 12264
L35108 12234
L35108 12203
L35093 12173
L35077 12158
L35047 12142
L34971 12142
L34925 12158
" />
<path d="M34788 12462
L34788 12142
L34666 12142
L34635 12158
L34620 12173
L34605 12203
L34605 12249
L34620 12279
L34635 12295
L34666 12310
L34788 12310
" />
<path d="M34468 12340
L34224 12340
" />
<path d="M33904 12462
L34087 12462
" />
<path d="M33995 12462
L33995 12142
L34026 12188
L34056 12218
L34087 12234
" />
<path d="M33797 12142
L33599 12142
L33706 12264
L33660 12264
L33630 12279
L33614 12295
L33599 12325
L33599 12401
L33614 12432
L33630 12447
L33660 12462
L33752 12462
L33782 12447
L33797 12432
" />
<path d="M33325 12249
L33325 12462
" />
<path d="M33401 12127
L33477 12356
L33279 12356
" />
<path d="M33020 12249
L33020 12462
" />
<path d="M33096 12127
L33173 12356
L32974 12356
" />
<path d="M32807 12279
L32837 12264
L32853 12249
L32868 12218
L32868 12203
L32853 12173
L32837 12158
L32807 12142
L32746 12142
L32715 12158
L32700 12173
L32685 12203
L32685 12218
L32700 12249
L32715 12264
L32746 12279
L32807 12279
L32837 12295
L32853 12310
L32868 12340
L32868 12401
L32853 12432
L32837 12447
L32807 12462
L32746 12462
L32715 12447
L32700 12432
L32685 12401
L32685 12340
L32700 12310
L32715 12295
L32746 12279
" />
<path d="M32502 12279
L32533 12264
L32548 12249
L32563 12218
L32563 12203
L32548 12173
L32533 12158
L32502 12142
L32441 12142
L32411 12158
L32395 12173
L32380 12203
L32380 12218
L32395 12249
L32411 12264
L32441 12279
L32502 12279
L32533 12295
L32548 12310
L32563 12340
L32563 12401
L32548 12432
L32533 12447
L32502 12462
L32441 12462
L32411 12447
L32395 12432
L32380 12401
L32380 12340
L32395 12310
L32411 12295
L32441 12279
" />
<path d="M32243 12340
L31999 12340
" />
<path d="M31786 12142
L31755 12142
L31725 12158
L31710 12173
L31694 12203
L31679 12264
L31679 12340
L31694 12401
L31710 12432
L31725 12447
L31755 12462
L31786 12462
L31816 12447
L31832 12432
L31847 12401
L31862 12340
L31862 12264
L31847 12203
L31832 12173
L31816 12158
L31786 12142
" />
<path d="M31374 12462
L31557 12462
" />
<path d="M31466 12462
L31466 12142
L31496 12188
L31527 12218
L31557 12234
" />
<path d="M31314 12493
L31070 12493
" />
<path d="M31039 12142
L30933 12462
L30826 12142
" />
<path d="M30719 12295
L30613 12295
" />
<path d="M30567 12462
L30719 12462
L30719 12142
L30567 12142
" />
<path d="M30247 12462
L30354 12310
" />
<path d="M30430 12462
L30430 12142
L30308 12142
L30277 12158
L30262 12173
L30247 12203
L30247 12249
L30262 12279
L30277 12295
L30308 12310
L30430 12310
" />
<path d="M30125 12173
L30110 12158
L30079 12142
L30003 12142
L29973 12158
L29957 12173
L29942 12203
L29942 12234
L29957 12279
L30140 12462
L29942 12462
" />
</g>
<g style="fill:#840000; fill-opacity:0.0; 
stroke:#840000; stroke-width:30; stroke-opacity:1; 
stroke-linecap:round; stroke-linejoin:round;">
</g>
<g style="fill:#840000; fill-opacity:0.0; 
stroke:#840000; stroke-width:59.0551; stroke-opacity:1; 
stroke-linecap:round; stroke-linejoin:round;">
<path d="M20406 44500
L20425 44519
L20481 44538
L20519 44538
L20575 44519
L20612 44481
L20631 44444
L20650 44369
L20650 44313
L20631 44238
L20612 44200
L20575 44163
L20519 44144
L20481 44144
L20425 44163
L20406 44181
" />
<path d="M20275 44144
L20031 44144
L20162 44294
L20106 44294
L20069 44313
L20050 44331
L20031 44369
L20031 44463
L20050 44500
L20069 44519
L20106 44538
L20219 44538
L20256 44519
L20275 44500
" />
<path d="M19656 44538
L19881 44538
" />
<path d="M19769 44538
L19769 44144
L19806 44200
L19844 44238
L19881 44256
" />
<path d="M23383 43280
L23401 43299
L23458 43318
L23495 43318
L23551 43299
L23589 43261
L23608 43224
L23626 43149
L23626 43093
L23608 43018
L23589 42980
L23551 42943
L23495 42924
L23458 42924
L23401 42943
L23383 42961
" />
<path d="M23251 42924
L23008 42924
L23139 43074
L23083 43074
L23045 43093
L23026 43111
L23008 43149
L23008 43243
L23026 43280
L23045 43299
L23083 43318
L23195 43318
L23233 43299
L23251 43280
" />
<path d="M22858 42961
L22839 42943
L22801 42924
L22708 42924
L22670 42943
L22651 42961
L22633 42999
L22633 43036
L22651 43093
L22876 43318
L22633 43318
" />
<path d="M16849 21020
L16868 21039
L16924 21058
L16962 21058
L17018 21039
L17055 21001
L17074 20964
L17093 20889
L17093 20833
L17074 20758
L17055 20720
L17018 20683
L16962 20664
L16924 20664
L16868 20683
L16849 20701
" />
<path d="M16718 20664
L16474 20664
L16605 20814
L16549 20814
L16512 20833
L16493 20851
L16474 20889
L16474 20983
L16493 21020
L16512 21039
L16549 21058
L16662 21058
L16699 21039
L16718 21020
" />
<path d="M16343 20664
L16099 20664
L16230 20814
L16174 20814
L16137 20833
L16118 20851
L16099 20889
L16099 20983
L16118 21020
L16137 21039
L16174 21058
L16287 21058
L16324 21039
L16343 21020
" />
<path d="M19903 14940
L19921 14959
L19978 14978
L20015 14978
L20071 14959
L20109 14921
L20128 14884
L20146 14809
L20146 14753
L20128 14678
L20109 14640
L20071 14603
L20015 14584
L19978 14584
L19921 14603
L19903 14621
" />
<path d="M19771 14584
L19528 14584
L19659 14734
L19603 14734
L19565 14753
L19546 14771
L19528 14809
L19528 14903
L19546 14940
L19565 14959
L19603 14978
L19715 14978
L19753 14959
L19771 14940
" />
<path d="M19171 14584
L19359 14584
L19378 14771
L19359 14753
L19321 14734
L19228 14734
L19190 14753
L19171 14771
L19153 14809
L19153 14903
L19171 14940
L19190 14959
L19228 14978
L19321 14978
L19359 14959
L19378 14940
" />
<path d="M19963 18130
L19981 18149
L20038 18168
L20075 18168
L20131 18149
L20169 18111
L20188 18074
L20206 17999
L20206 17943
L20188 17868
L20169 17830
L20131 17793
L20075 17774
L20038 17774
L19981 17793
L19963 17811
" />
<path d="M19831 17774
L19588 17774
L19719 17924
L19663 17924
L19625 17943
L19606 17961
L19588 17999
L19588 18093
L19606 18130
L19625 18149
L19663 18168
L19775 18168
L19813 18149
L19831 18130
" />
<path d="M19250 17774
L19325 17774
L19363 17793
L19381 17811
L19419 17868
L19438 17943
L19438 18093
L19419 18130
L19400 18149
L19363 18168
L19288 18168
L19250 18149
L19231 18130
L19213 18093
L19213 17999
L19231 17961
L19250 17943
L19288 17924
L19363 17924
L19400 17943
L19419 17961
L19438 17999
" />
</g>
<g style="fill:#000000; fill-opacity:0.0; 
stroke:#000000; stroke-width:59.0551; stroke-opacity:1; 
stroke-linecap:round; stroke-linejoin:round;">
</g>
<g style="fill:#C2C2C2; fill-opacity:0.0; 
stroke:#C2C2C2; stroke-width:59.0551; stroke-opacity:1; 
stroke-linecap:round; stroke-linejoin:round;">
</g>
<g style="fill:#C2C2C2; fill-opacity:0.0; 
stroke:#C2C2C2; stroke-width:50; stroke-opacity:1; 
stroke-linecap:round; stroke-linejoin:round;">
<path d="M31256 29848
L31256 45596
" />
<path d="M31256 45596
L33006 45596
" />
<path d="M33006 45596
L33606 44996
" />
<path d="M33606 44996
L33606 30448
" />
<path d="M33606 30448
L33006 29848
" />
<path d="M33006 29848
L31256 29848
" />
</g>
<g style="fill:#C2C2C2; fill-opacity:0.0; 
stroke:#C2C2C2; stroke-width:60; stroke-opacity:1; 
stroke-linecap:round; stroke-linejoin:round;">
<path d="M25103 16042
L25103 15802
" />
<path d="M24863 18402
L25103 18402
" />
<path d="M22503 18162
L22503 18402
" />
<path d="M22743 15802
L22503 15802
" />
<path d="M22503 15802
L22503 16042
" />
<path d="M22503 18402
L22743 18402
" />
<path d="M25103 18402
L25103 18162
" />
<path d="M25103 15802
L24863 15802
" />
</g>
<g style="fill:#C2C2C2; fill-opacity:0.0; 
stroke:#C2C2C2; stroke-width:0; stroke-opacity:1; 
stroke-linecap:round; stroke-linejoin:round;">
<path d="M22993 15642
L22843 15642
" />
<path d="M22843 15642
L22843 15742
" />
<path d="M22843 15742
L22993 15742
" />
<path d="M22993 15742
L22993 15642
" />
<path d="M22443 17912
L22343 17912
" />
<path d="M22343 17912
L22343 18062
" />
<path d="M22343 18062
L22443 18062
" />
<path d="M22443 18062
L22443 17912
" />
<path d="M24763 18562
L24613 18562
" />
<path d="M24613 18562
L24613 18462
" />
<path d="M24613 18462
L24763 18462
" />
<path d="M24763 18462
L24763 18562
" />
<path d="M25163 16142
L25263 16142
" />
<path d="M25263 16142
L25263 16292
" />
<path d="M25263 16292
L25163 16292
" />
<path d="M25163 16292
L25163 16142
" />
</g>
<g style="fill:#C2C2C2; fill-opacity:0.0; 
stroke:#C2C2C2; stroke-width:30; stroke-opacity:1; 
stroke-linecap:round; stroke-linejoin:round;">
<path d="M24659 15612
L24778 15612
" />
<path d="M24731 15731
L24778 15612
L24731 15492
" />
<path d="M24874 15683
L24778 15612
L24874 15540
" />
</g>
<g style="fill:#000000; fill-opacity:0.0; 
stroke:#000000; stroke-width:30; stroke-opacity:1; 
stroke-linecap:round; stroke-linejoin:round;">
</g>
<g style="fill:#C2C200; fill-opacity:0.0; 
stroke:#C2C200; stroke-width:30; stroke-opacity:1; 
stroke-linecap:round; stroke-linejoin:round;">
</g>
<g style="fill:#C2C200; fill-opacity:0.0; 
stroke:#C2C200; stroke-width:59.0551; stroke-opacity:1; 
stroke-linecap:round; stroke-linejoin:round;">
<path d="M36205 4897
L9039 4897
" />
<path d="M36205 48991
L36205 4897
" />
<path d="M9039 48991
L36205 48991
" />
<path d="M9039 4897
L9039 48991
" />
</g> 
</svg>
