<?xml version="1.0" standalone="no"?>
 <!DOCTYPE svg PUBLIC "-//W3C//DTD SVG 1.1//EN" 
 "http://www.w3.org/Graphics/SVG/1.1/DTD/svg11.dtd"> 
<svg xmlns="http://www.w3.org/2000/svg" version="1.1" 
    width="11.971cm" height="15.0622cm" viewBox="0 0 47130 59300 ">
<title>SVG Picture created as FMC_MIPI_v1-brd.svg date 2017/07/31 23:17:43 </title>
  <desc>Picture generated by PCBNEW </desc>
<g style="fill:#000000; fill-opacity:1;stroke:#000000; stroke-opacity:1;
stroke-linecap:round; stroke-linejoin:round; "
 transform="translate(0 0) scale(1 1)">
</g>
<g style="fill:#000000; fill-opacity:0.0; 
stroke:#000000; stroke-width:-0.000393701; stroke-opacity:1; 
stroke-linecap:round; stroke-linejoin:round;">
</g>
<g style="fill:#C2C200; fill-opacity:0.0; 
stroke:#C2C200; stroke-width:-0.000393701; stroke-opacity:1; 
stroke-linecap:round; stroke-linejoin:round;">
</g>
<g style="fill:#C2C200; fill-opacity:0.0; 
stroke:#C2C200; stroke-width:19.685; stroke-opacity:1; 
stroke-linecap:round; stroke-linejoin:round;">
<path d="M25824 19794
L24603 19794
" />
<path d="M25824 19794
L25824 19085
" />
<path d="M24603 19085
L24603 19794
" />
<path d="M24603 19085
L25824 19085
" />
<path d="M19566 14385
L20786 14385
" />
<path d="M19566 14385
L19566 15094
" />
<path d="M20786 15094
L20786 14385
" />
<path d="M20786 15094
L19566 15094
" />
<path d="M20786 19031
L19566 19031
" />
<path d="M20786 19031
L20786 18322
" />
<path d="M19566 18322
L19566 19031
" />
<path d="M19566 18322
L20786 18322
" />
<path d="M23483 18873
L23483 19661
" />
<path d="M23483 18873
L23168 18873
" />
<path d="M23168 19661
L23483 19661
" />
<path d="M23168 19661
L23168 18873
" />
<path d="M23168 15133
L23168 14346
" />
<path d="M23168 15133
L23483 15133
" />
<path d="M23483 14346
L23168 14346
" />
<path d="M23483 14346
L23483 15133
" />
<path d="M30016 17182
L30803 17182
" />
<path d="M30016 17182
L30016 17497
" />
<path d="M30803 17497
L30803 17182
" />
<path d="M30803 17497
L30016 17497
" />
<path d="M21098 26086
L19721 26086
" />
<path d="M21098 26086
L21098 25397
" />
<path d="M19721 25397
L19721 26086
" />
<path d="M19721 25397
L21098 25397
" />
<path d="M23642 24072
L24430 24072
" />
<path d="M23642 24072
L23642 24387
" />
<path d="M24430 24387
L24430 24072
" />
<path d="M24430 24387
L23642 24387
" />
<path d="M23862 36683
L23862 35896
" />
<path d="M23862 36683
L24177 36683
" />
<path d="M24177 35896
L23862 35896
" />
<path d="M24177 35896
L24177 36683
" />
<path d="M21013 38797
L20226 38797
" />
<path d="M21013 38797
L21013 38482
" />
<path d="M20226 38482
L20226 38797
" />
<path d="M20226 38482
L21013 38482
" />
<path d="M27370 44017
L26582 44017
" />
<path d="M27370 44017
L27370 43702
" />
<path d="M26582 43702
L26582 44017
" />
<path d="M26582 43702
L27370 43702
" />
<path d="M23606 43482
L24393 43482
" />
<path d="M23606 43482
L23606 43797
" />
<path d="M24393 43797
L24393 43482
" />
<path d="M24393 43797
L23606 43797
" />
<path d="M30139 21222
L30927 21222
" />
<path d="M30139 21222
L30139 21537
" />
<path d="M30927 21537
L30927 21222
" />
<path d="M30927 21537
L30139 21537
" />
<path d="M27086 15142
L27873 15142
" />
<path d="M27086 15142
L27086 15457
" />
<path d="M27873 15457
L27873 15142
" />
<path d="M27873 15457
L27086 15457
" />
<path d="M27813 17647
L27026 17647
" />
<path d="M27813 17647
L27813 17332
" />
<path d="M27026 17332
L27026 17647
" />
<path d="M27026 17332
L27813 17332
" />
</g>
<g style="fill:#000000; fill-opacity:0.0; 
stroke:#000000; stroke-width:19.685; stroke-opacity:1; 
stroke-linecap:round; stroke-linejoin:round;">
</g>
<g style="fill:#FFFFC2; fill-opacity:0.0; 
stroke:#FFFFC2; stroke-width:19.685; stroke-opacity:1; 
stroke-linecap:round; stroke-linejoin:round;">
</g>
<g style="fill:#FFFFC2; fill-opacity:0.0; 
stroke:#FFFFC2; stroke-width:50; stroke-opacity:1; 
stroke-linecap:round; stroke-linejoin:round;">
<path d="M16312 29652
L16312 45792
" />
<path d="M16312 45792
L13872 45792
" />
<path d="M13872 45792
L13084 45005
" />
<path d="M13084 45005
L13084 30439
" />
<path d="M13084 30439
L13872 29652
" />
<path d="M13872 29652
L16312 29652
" />
</g>
<g style="fill:#FFFFC2; fill-opacity:0.0; 
stroke:#FFFFC2; stroke-width:47.2441; stroke-opacity:1; 
stroke-linecap:round; stroke-linejoin:round;">
<path d="M24977 19093
L25450 19093
" />
<path d="M25450 19786
L24977 19786
" />
<path d="M20412 15086
L19940 15086
" />
<path d="M19940 14393
L20412 14393
" />
<path d="M19940 18330
L20412 18330
" />
<path d="M20412 19023
L19940 19023
" />
<path d="M23511 19365
L23511 19168
" />
<path d="M23141 19168
L23141 19365
" />
<path d="M23141 14641
L23141 14838
" />
<path d="M23511 14838
L23511 14641
" />
<path d="M30508 17154
L30311 17154
" />
<path d="M30311 17525
L30508 17525
" />
<path d="M20213 26074
L20606 26074
" />
<path d="M20606 25405
L20213 25405
" />
<path d="M24134 24044
L23938 24044
" />
<path d="M23938 24415
L24134 24415
" />
<path d="M23834 36191
L23834 36388
" />
<path d="M24205 36388
L24205 36191
" />
<path d="M20521 38825
L20718 38825
" />
<path d="M20718 38454
L20521 38454
" />
</g>
<g style="fill:#FFFFC2; fill-opacity:0.0; 
stroke:#FFFFC2; stroke-width:80; stroke-opacity:1; 
stroke-linecap:round; stroke-linejoin:round;">
<path d="M13507 6478
L35507 6478
" />
<path d="M35507 6478
L35507 8853
" />
<path d="M35507 8853
L35882 8853
" />
<path d="M35882 8853
L35882 9603
" />
<path d="M35882 9603
L35507 9603
" />
<path d="M35507 9603
L35507 11978
" />
<path d="M35507 11978
L13507 11978
" />
<path d="M13507 11978
L13507 6478
" />
</g>
<g style="fill:#FFFFC2; fill-opacity:0.0; 
stroke:#FFFFC2; stroke-width:50; stroke-opacity:1; 
stroke-linecap:round; stroke-linejoin:round;">
<circle cx="13802.4" cy="10428" r="176.777" /> 
<path d="M13552 10428
L14102 10428
" />
<path d="M13802 10788
L13802 10088
" />
<circle cx="35212.4" cy="9228.03" r="176.777" /> 
<path d="M34862 9228
L35557 9228
" />
<path d="M35212 9563
L35212 8888
" />
</g>
<g style="fill:#FFFFC2; fill-opacity:0.0; 
stroke:#FFFFC2; stroke-width:47.2441; stroke-opacity:1; 
stroke-linecap:round; stroke-linejoin:round;">
<path d="M26878 44045
L27074 44045
" />
<path d="M27074 43674
L26878 43674
" />
<path d="M24098 43454
L23901 43454
" />
<path d="M23901 43825
L24098 43825
" />
<path d="M30631 21194
L30435 21194
" />
<path d="M30435 21565
L30631 21565
" />
<path d="M27578 15114
L27381 15114
" />
<path d="M27381 15485
L27578 15485
" />
<path d="M27321 17675
L27518 17675
" />
<path d="M27518 17304
L27321 17304
" />
</g>
<g style="fill:#FFFFC2; fill-opacity:0.0; 
stroke:#FFFFC2; stroke-width:40; stroke-opacity:1; 
stroke-linecap:round; stroke-linejoin:round;">
<path d="M16901 37580
L16544 37580
L16473 37556
L16425 37509
L16401 37437
L16401 37390
" />
<path d="M16854 37795
L16877 37818
L16901 37866
L16901 37985
L16877 38033
L16854 38056
L16806 38080
L16758 38080
L16687 38056
L16401 37771
L16401 38080
" />
<path d="M12463 32271
L12486 32223
L12534 32176
L12605 32104
L12629 32056
L12629 32009
" />
<path d="M12510 32033
L12534 31985
L12582 31937
L12677 31914
L12844 31914
L12939 31937
L12986 31985
L13010 32033
L13010 32128
L12986 32176
L12939 32223
L12844 32247
L12677 32247
L12582 32223
L12534 32176
L12510 32128
L12510 32033
" />
<path d="M13010 32390
L13010 32676
" />
<path d="M12510 32533
L13010 32533
" />
<path d="M12510 32842
L13010 32842
" />
<path d="M12772 32842
L12772 33128
" />
<path d="M12510 33128
L13010 33128
" />
<path d="M12701 33366
L12701 33747
" />
<path d="M13010 34080
L13010 34128
L12986 34176
L12963 34199
L12915 34223
L12820 34247
L12701 34247
L12605 34223
L12558 34199
L12534 34176
L12510 34128
L12510 34080
L12534 34033
L12558 34009
L12605 33985
L12701 33961
L12820 33961
L12915 33985
L12963 34009
L12986 34033
L13010 34080
" />
<path d="M13010 34676
L13010 34580
L12986 34533
L12963 34509
L12891 34461
L12796 34437
L12605 34437
L12558 34461
L12534 34485
L12510 34533
L12510 34628
L12534 34676
L12558 34699
L12605 34723
L12724 34723
L12772 34699
L12796 34676
L12820 34628
L12820 34533
L12796 34485
L12772 34461
L12724 34437
" />
<path d="M13010 35033
L13010 35080
L12986 35128
L12963 35152
L12915 35176
L12820 35199
L12701 35199
L12605 35176
L12558 35152
L12534 35128
L12510 35080
L12510 35033
L12534 34985
L12558 34961
L12605 34937
L12701 34914
L12820 34914
L12915 34937
L12963 34961
L12986 34985
L13010 35033
" />
<path d="M12701 35414
L12701 35795
" />
<path d="M13010 36128
L13010 36176
L12986 36223
L12963 36247
L12915 36271
L12820 36295
L12701 36295
L12605 36271
L12558 36247
L12534 36223
L12510 36176
L12510 36128
L12534 36080
L12558 36056
L12605 36033
L12701 36009
L12820 36009
L12915 36033
L12963 36056
L12986 36080
L13010 36128
" />
<path d="M12510 36771
L12510 36485
" />
<path d="M12510 36628
L13010 36628
L12939 36580
L12891 36533
L12867 36485
" />
<path d="M12701 36985
L12701 37366
" />
<path d="M13010 37556
L12510 37890
" />
<path d="M13010 37890
L12510 37556
" />
<path d="M12701 38080
L12701 38461
" />
<path d="M12510 38699
L13010 38699
L13010 38818
L12986 38890
L12939 38937
L12891 38961
L12796 38985
L12724 38985
L12629 38961
L12582 38937
L12534 38890
L12510 38818
L12510 38699
" />
<path d="M12701 39199
L12701 39580
" />
<path d="M12653 39795
L12653 40033
" />
<path d="M12510 39747
L13010 39914
L12510 40080
" />
<path d="M12463 40128
L12463 40509
" />
<path d="M13010 40771
L12653 40771
L12582 40747
L12534 40699
L12510 40628
L12510 40580
" />
<path d="M12534 41199
L12510 41152
L12510 41056
L12534 41009
L12582 40985
L12772 40985
L12820 41009
L12844 41056
L12844 41152
L12820 41199
L12772 41223
L12724 41223
L12677 40985
" />
<path d="M12844 41366
L12844 41556
" />
<path d="M13010 41437
L12582 41437
L12534 41461
L12510 41509
L12510 41556
" />
<path d="M12534 41699
L12510 41747
L12510 41842
L12534 41890
L12582 41914
L12605 41914
L12653 41890
L12677 41842
L12677 41771
L12701 41723
L12748 41699
L12772 41699
L12820 41723
L12844 41771
L12844 41842
L12820 41890
" />
<path d="M12510 42199
L12534 42152
L12558 42128
L12605 42104
L12748 42104
L12796 42128
L12820 42152
L12844 42199
L12844 42271
L12820 42318
L12796 42342
L12748 42366
L12605 42366
L12558 42342
L12534 42318
L12510 42271
L12510 42199
" />
<path d="M12844 42580
L12510 42580
" />
<path d="M12796 42580
L12820 42604
L12844 42652
L12844 42723
L12820 42771
L12772 42795
L12510 42795
" />
<path d="M13010 42961
L13010 43247
" />
<path d="M12510 43104
L13010 43104
" />
<path d="M13010 43366
L12510 43699
" />
<path d="M13010 43699
L12510 43366
" />
<path d="M12510 43842
L12844 44104
" />
<path d="M12844 43842
L12510 44104
" />
<path d="M16432 31198
L16432 30912
" />
<path d="M16432 31055
L16932 31055
L16861 31007
L16813 30960
L16789 30912
" />
<path d="M12988 30871
L13011 30895
L13035 30943
L13035 31062
L13011 31109
L12988 31133
L12940 31157
L12892 31157
L12821 31133
L12535 30847
L12535 31157
" />
<path d="M12535 44621
L12535 44335
" />
<path d="M12535 44478
L13035 44478
L12964 44430
L12916 44383
L12892 44335
" />
<path d="M12988 44811
L13011 44835
L13035 44883
L13035 45002
L13011 45049
L12988 45073
L12940 45097
L12892 45097
L12821 45073
L12535 44787
L12535 45097
" />
<path d="M13035 45406
L13035 45454
L13011 45502
L12988 45525
L12940 45549
L12845 45573
L12726 45573
L12630 45549
L12583 45525
L12559 45502
L12535 45454
L12535 45406
L12559 45359
L12583 45335
L12630 45311
L12726 45287
L12845 45287
L12940 45311
L12988 45335
L13011 45359
L13035 45406
" />
<path d="M16511 44662
L16511 44376
" />
<path d="M16511 44519
L17011 44519
L16940 44471
L16892 44424
L16868 44376
" />
<path d="M16511 45138
L16511 44852
" />
<path d="M16511 44995
L17011 44995
L16940 44947
L16892 44900
L16868 44852
" />
<path d="M16511 45376
L16511 45471
L16535 45519
L16559 45543
L16630 45590
L16725 45614
L16916 45614
L16964 45590
L16987 45566
L17011 45519
L17011 45424
L16987 45376
L16964 45352
L16916 45328
L16797 45328
L16749 45352
L16725 45376
L16702 45424
L16702 45519
L16725 45566
L16749 45590
L16797 45614
" />
</g>
<g style="fill:#840000; fill-opacity:0.0; 
stroke:#840000; stroke-width:40; stroke-opacity:1; 
stroke-linecap:round; stroke-linejoin:round;">
</g>
<g style="fill:#840000; fill-opacity:0.0; 
stroke:#840000; stroke-width:59.0551; stroke-opacity:1; 
stroke-linecap:round; stroke-linejoin:round;">
<path d="M24960 20267
L24829 20080
" />
<path d="M24735 20267
L24735 19874
L24885 19874
L24923 19892
L24942 19911
L24960 19948
L24960 20005
L24942 20042
L24923 20061
L24885 20080
L24735 20080
" />
<path d="M25298 19874
L25223 19874
L25185 19892
L25167 19911
L25129 19967
L25110 20042
L25110 20192
L25129 20230
L25148 20248
L25185 20267
L25260 20267
L25298 20248
L25317 20230
L25335 20192
L25335 20098
L25317 20061
L25298 20042
L25260 20023
L25185 20023
L25148 20042
L25129 20061
L25110 20098
" />
<path d="M25523 20267
L25598 20267
L25635 20248
L25654 20230
L25692 20173
L25710 20098
L25710 19948
L25692 19911
L25673 19892
L25635 19874
L25560 19874
L25523 19892
L25504 19911
L25485 19948
L25485 20042
L25504 20080
L25523 20098
L25560 20117
L25635 20117
L25673 20098
L25692 20080
L25710 20042
" />
<path d="M18752 14898
L18621 14710
" />
<path d="M18527 14898
L18527 14504
L18677 14504
L18714 14523
L18733 14542
L18752 14579
L18752 14635
L18733 14673
L18714 14692
L18677 14710
L18527 14710
" />
<path d="M18883 14504
L19146 14504
L18977 14898
" />
<path d="M19502 14898
L19277 14898
" />
<path d="M19389 14898
L19389 14504
L19352 14560
L19314 14598
L19277 14617
" />
<path d="M18624 18815
L18493 18628
" />
<path d="M18399 18815
L18399 18421
L18549 18421
L18586 18440
L18605 18459
L18624 18496
L18624 18553
L18605 18590
L18586 18609
L18549 18628
L18399 18628
" />
<path d="M18755 18421
L19018 18421
L18849 18815
" />
<path d="M19130 18421
L19374 18421
L19243 18571
L19299 18571
L19336 18590
L19355 18609
L19374 18646
L19374 18740
L19355 18778
L19336 18796
L19299 18815
L19186 18815
L19149 18796
L19130 18778
" />
<path d="M23685 19201
L23666 19183
L23648 19126
L23648 19089
L23666 19033
L23704 18995
L23741 18976
L23816 18958
L23873 18958
L23948 18976
L23985 18995
L24023 19033
L24041 19089
L24041 19126
L24023 19183
L24004 19201
" />
<path d="M24041 19333
L24041 19595
L23648 19426
" />
<path d="M23185 13506
L23166 13488
L23148 13431
L23148 13394
L23166 13338
L23204 13300
L23241 13281
L23316 13263
L23373 13263
L23448 13281
L23485 13300
L23523 13338
L23541 13394
L23541 13431
L23523 13488
L23504 13506
" />
<path d="M23148 13881
L23148 13656
" />
<path d="M23148 13769
L23541 13769
L23485 13731
L23448 13694
L23429 13656
" />
<path d="M23541 14125
L23541 14163
L23523 14200
L23504 14219
L23466 14238
L23391 14256
L23298 14256
L23223 14238
L23185 14219
L23166 14200
L23148 14163
L23148 14125
L23166 14088
L23185 14069
L23223 14050
L23298 14031
L23391 14031
L23466 14050
L23504 14069
L23523 14088
L23541 14125
" />
<path d="M30393 17000
L30374 17019
L30318 17038
L30280 17038
L30224 17019
L30187 16981
L30168 16944
L30149 16869
L30149 16813
L30168 16738
L30187 16700
L30224 16663
L30280 16644
L30318 16644
L30374 16663
L30393 16681
" />
<path d="M30768 17038
L30543 17038
" />
<path d="M30655 17038
L30655 16644
L30618 16700
L30580 16738
L30543 16756
" />
<path d="M30993 16813
L30955 16794
L30937 16775
L30918 16738
L30918 16719
L30937 16681
L30955 16663
L30993 16644
L31068 16644
L31105 16663
L31124 16681
L31143 16719
L31143 16738
L31124 16775
L31105 16794
L31068 16813
L30993 16813
L30955 16831
L30937 16850
L30918 16888
L30918 16963
L30937 17000
L30955 17019
L30993 17038
L31068 17038
L31105 17019
L31124 17000
L31143 16963
L31143 16888
L31124 16850
L31105 16831
L31068 16813
" />
<path d="M18816 25900
L18798 25919
L18741 25938
L18704 25938
L18648 25919
L18610 25881
L18591 25844
L18573 25769
L18573 25713
L18591 25638
L18610 25600
L18648 25563
L18704 25544
L18741 25544
L18798 25563
L18816 25581
" />
<path d="M19191 25938
L18966 25938
" />
<path d="M19079 25938
L19079 25544
L19041 25600
L19004 25638
L18966 25656
" />
<path d="M19379 25938
L19454 25938
L19491 25919
L19510 25900
L19548 25844
L19566 25769
L19566 25619
L19548 25581
L19529 25563
L19491 25544
L19416 25544
L19379 25563
L19360 25581
L19341 25619
L19341 25713
L19360 25750
L19379 25769
L19416 25788
L19491 25788
L19529 25769
L19548 25750
L19566 25713
" />
<path d="M23783 23870
L23764 23889
L23708 23908
L23670 23908
L23614 23889
L23577 23851
L23558 23814
L23539 23739
L23539 23683
L23558 23608
L23577 23570
L23614 23533
L23670 23514
L23708 23514
L23764 23533
L23783 23551
" />
<path d="M23933 23551
L23952 23533
L23989 23514
L24083 23514
L24120 23533
L24139 23551
L24158 23589
L24158 23626
L24139 23683
L23914 23908
L24158 23908
" />
<path d="M24289 23514
L24533 23514
L24402 23664
L24458 23664
L24495 23683
L24514 23701
L24533 23739
L24533 23833
L24514 23870
L24495 23889
L24458 23908
L24345 23908
L24308 23889
L24289 23870
" />
<path d="M24309 36026
L24290 36008
L24271 35951
L24271 35914
L24290 35858
L24328 35820
L24365 35801
L24440 35783
L24496 35783
L24571 35801
L24609 35820
L24646 35858
L24665 35914
L24665 35951
L24646 36008
L24628 36026
" />
<path d="M24628 36176
L24646 36195
L24665 36233
L24665 36326
L24646 36364
L24628 36383
L24590 36401
L24553 36401
L24496 36383
L24271 36158
L24271 36401
" />
<path d="M24665 36533
L24665 36795
L24271 36626
" />
<path d="M20366 39280
L20348 39299
L20291 39318
L20254 39318
L20198 39299
L20160 39261
L20141 39224
L20123 39149
L20123 39093
L20141 39018
L20160 38980
L20198 38943
L20254 38924
L20291 38924
L20348 38943
L20366 38961
" />
<path d="M20516 38961
L20535 38943
L20573 38924
L20666 38924
L20704 38943
L20723 38961
L20741 38999
L20741 39036
L20723 39093
L20498 39318
L20741 39318
" />
<path d="M20966 39093
L20929 39074
L20910 39055
L20891 39018
L20891 38999
L20910 38961
L20929 38943
L20966 38924
L21041 38924
L21079 38943
L21098 38961
L21116 38999
L21116 39018
L21098 39055
L21079 39074
L21041 39093
L20966 39093
L20929 39111
L20910 39130
L20891 39168
L20891 39243
L20910 39280
L20929 39299
L20966 39318
L21041 39318
L21079 39299
L21098 39280
L21116 39243
L21116 39168
L21098 39130
L21079 39111
L21041 39093
" />
</g>
<g style="fill:#FFFFC2; fill-opacity:0.0; 
stroke:#FFFFC2; stroke-width:59.0551; stroke-opacity:1; 
stroke-linecap:round; stroke-linejoin:round;">
</g>
<g style="fill:#FFFFC2; fill-opacity:0.0; 
stroke:#FFFFC2; stroke-width:70; stroke-opacity:1; 
stroke-linecap:round; stroke-linejoin:round;">
<path d="M35889 6942
L35889 7227
L35870 7284
L35832 7323
L35775 7342
L35737 7342
" />
<path d="M36289 7342
L36061 7342
" />
<path d="M36175 7342
L36175 6942
L36137 6999
L36099 7037
L36061 7056
" />
</g>
<g style="fill:#FFFFC2; fill-opacity:0.0; 
stroke:#FFFFC2; stroke-width:30; stroke-opacity:1; 
stroke-linecap:round; stroke-linejoin:round;">
<path d="M11747 12371
L11899 12371
" />
<path d="M11716 12462
L11823 12142
L11930 12462
" />
<path d="M12021 12447
L12067 12462
L12143 12462
L12174 12447
L12189 12432
L12204 12401
L12204 12371
L12189 12340
L12174 12325
L12143 12310
L12082 12295
L12052 12279
L12036 12264
L12021 12234
L12021 12203
L12036 12173
L12052 12158
L12082 12142
L12158 12142
L12204 12158
" />
<path d="M12341 12462
L12341 12142
L12463 12142
L12494 12158
L12509 12173
L12524 12203
L12524 12249
L12509 12279
L12494 12295
L12463 12310
L12341 12310
" />
<path d="M12661 12340
L12905 12340
" />
<path d="M13225 12462
L13042 12462
" />
<path d="M13134 12462
L13134 12142
L13103 12188
L13073 12218
L13042 12234
" />
<path d="M13332 12142
L13530 12142
L13423 12264
L13469 12264
L13499 12279
L13515 12295
L13530 12325
L13530 12401
L13515 12432
L13499 12447
L13469 12462
L13377 12462
L13347 12447
L13332 12432
" />
<path d="M13804 12249
L13804 12462
" />
<path d="M13728 12127
L13652 12356
L13850 12356
" />
<path d="M14109 12249
L14109 12462
" />
<path d="M14033 12127
L13956 12356
L14155 12356
" />
<path d="M14322 12279
L14292 12264
L14276 12249
L14261 12218
L14261 12203
L14276 12173
L14292 12158
L14322 12142
L14383 12142
L14414 12158
L14429 12173
L14444 12203
L14444 12218
L14429 12249
L14414 12264
L14383 12279
L14322 12279
L14292 12295
L14276 12310
L14261 12340
L14261 12401
L14276 12432
L14292 12447
L14322 12462
L14383 12462
L14414 12447
L14429 12432
L14444 12401
L14444 12340
L14429 12310
L14414 12295
L14383 12279
" />
<path d="M14627 12279
L14596 12264
L14581 12249
L14566 12218
L14566 12203
L14581 12173
L14596 12158
L14627 12142
L14688 12142
L14718 12158
L14734 12173
L14749 12203
L14749 12218
L14734 12249
L14718 12264
L14688 12279
L14627 12279
L14596 12295
L14581 12310
L14566 12340
L14566 12401
L14581 12432
L14596 12447
L14627 12462
L14688 12462
L14718 12447
L14734 12432
L14749 12401
L14749 12340
L14734 12310
L14718 12295
L14688 12279
" />
<path d="M14886 12340
L15130 12340
" />
<path d="M15343 12142
L15374 12142
L15404 12158
L15419 12173
L15435 12203
L15450 12264
L15450 12340
L15435 12401
L15419 12432
L15404 12447
L15374 12462
L15343 12462
L15313 12447
L15297 12432
L15282 12401
L15267 12340
L15267 12264
L15282 12203
L15297 12173
L15313 12158
L15343 12142
" />
<path d="M15755 12462
L15572 12462
" />
<path d="M15663 12462
L15663 12142
L15633 12188
L15602 12218
L15572 12234
" />
<path d="M15815 12493
L16059 12493
" />
<path d="M16090 12142
L16196 12462
L16303 12142
" />
<path d="M16410 12295
L16516 12295
" />
<path d="M16562 12462
L16410 12462
L16410 12142
L16562 12142
" />
<path d="M16882 12462
L16775 12310
" />
<path d="M16699 12462
L16699 12142
L16821 12142
L16852 12158
L16867 12173
L16882 12203
L16882 12249
L16867 12279
L16852 12295
L16821 12310
L16699 12310
" />
<path d="M17004 12173
L17019 12158
L17050 12142
L17126 12142
L17156 12158
L17172 12173
L17187 12203
L17187 12234
L17172 12279
L16989 12462
L17187 12462
" />
</g>
<g style="fill:#840000; fill-opacity:0.0; 
stroke:#840000; stroke-width:30; stroke-opacity:1; 
stroke-linecap:round; stroke-linejoin:round;">
</g>
<g style="fill:#840000; fill-opacity:0.0; 
stroke:#840000; stroke-width:59.0551; stroke-opacity:1; 
stroke-linecap:round; stroke-linejoin:round;">
<path d="M26723 44500
L26704 44519
L26648 44538
L26610 44538
L26554 44519
L26517 44481
L26498 44444
L26479 44369
L26479 44313
L26498 44238
L26517 44200
L26554 44163
L26610 44144
L26648 44144
L26704 44163
L26723 44181
" />
<path d="M26854 44144
L27098 44144
L26967 44294
L27023 44294
L27060 44313
L27079 44331
L27098 44369
L27098 44463
L27079 44500
L27060 44519
L27023 44538
L26910 44538
L26873 44519
L26854 44500
" />
<path d="M27473 44538
L27248 44538
" />
<path d="M27360 44538
L27360 44144
L27323 44200
L27285 44238
L27248 44256
" />
<path d="M23746 43280
L23728 43299
L23671 43318
L23634 43318
L23578 43299
L23540 43261
L23521 43224
L23503 43149
L23503 43093
L23521 43018
L23540 42980
L23578 42943
L23634 42924
L23671 42924
L23728 42943
L23746 42961
" />
<path d="M23878 42924
L24121 42924
L23990 43074
L24046 43074
L24084 43093
L24103 43111
L24121 43149
L24121 43243
L24103 43280
L24084 43299
L24046 43318
L23934 43318
L23896 43299
L23878 43280
" />
<path d="M24271 42961
L24290 42943
L24328 42924
L24421 42924
L24459 42943
L24478 42961
L24496 42999
L24496 43036
L24478 43093
L24253 43318
L24496 43318
" />
<path d="M30280 21020
L30261 21039
L30205 21058
L30167 21058
L30111 21039
L30074 21001
L30055 20964
L30036 20889
L30036 20833
L30055 20758
L30074 20720
L30111 20683
L30167 20664
L30205 20664
L30261 20683
L30280 20701
" />
<path d="M30411 20664
L30655 20664
L30524 20814
L30580 20814
L30617 20833
L30636 20851
L30655 20889
L30655 20983
L30636 21020
L30617 21039
L30580 21058
L30467 21058
L30430 21039
L30411 21020
" />
<path d="M30786 20664
L31030 20664
L30899 20814
L30955 20814
L30992 20833
L31011 20851
L31030 20889
L31030 20983
L31011 21020
L30992 21039
L30955 21058
L30842 21058
L30805 21039
L30786 21020
" />
<path d="M27226 14940
L27208 14959
L27151 14978
L27114 14978
L27058 14959
L27020 14921
L27001 14884
L26983 14809
L26983 14753
L27001 14678
L27020 14640
L27058 14603
L27114 14584
L27151 14584
L27208 14603
L27226 14621
" />
<path d="M27358 14584
L27601 14584
L27470 14734
L27526 14734
L27564 14753
L27583 14771
L27601 14809
L27601 14903
L27583 14940
L27564 14959
L27526 14978
L27414 14978
L27376 14959
L27358 14940
" />
<path d="M27958 14584
L27770 14584
L27751 14771
L27770 14753
L27808 14734
L27901 14734
L27939 14753
L27958 14771
L27976 14809
L27976 14903
L27958 14940
L27939 14959
L27901 14978
L27808 14978
L27770 14959
L27751 14940
" />
<path d="M27166 18130
L27148 18149
L27091 18168
L27054 18168
L26998 18149
L26960 18111
L26941 18074
L26923 17999
L26923 17943
L26941 17868
L26960 17830
L26998 17793
L27054 17774
L27091 17774
L27148 17793
L27166 17811
" />
<path d="M27298 17774
L27541 17774
L27410 17924
L27466 17924
L27504 17943
L27523 17961
L27541 17999
L27541 18093
L27523 18130
L27504 18149
L27466 18168
L27354 18168
L27316 18149
L27298 18130
" />
<path d="M27879 17774
L27804 17774
L27766 17793
L27748 17811
L27710 17868
L27691 17943
L27691 18093
L27710 18130
L27729 18149
L27766 18168
L27841 18168
L27879 18149
L27898 18130
L27916 18093
L27916 17999
L27898 17961
L27879 17943
L27841 17924
L27766 17924
L27729 17943
L27710 17961
L27691 17999
" />
</g>
<g style="fill:#000000; fill-opacity:0.0; 
stroke:#000000; stroke-width:59.0551; stroke-opacity:1; 
stroke-linecap:round; stroke-linejoin:round;">
</g>
<g style="fill:#C2C2C2; fill-opacity:0.0; 
stroke:#C2C2C2; stroke-width:59.0551; stroke-opacity:1; 
stroke-linecap:round; stroke-linejoin:round;">
</g>
<g style="fill:#C2C2C2; fill-opacity:0.0; 
stroke:#C2C2C2; stroke-width:50; stroke-opacity:1; 
stroke-linecap:round; stroke-linejoin:round;">
<path d="M15873 29848
L15873 45596
" />
<path d="M15873 45596
L14123 45596
" />
<path d="M14123 45596
L13523 44996
" />
<path d="M13523 44996
L13523 30448
" />
<path d="M13523 30448
L14123 29848
" />
<path d="M14123 29848
L15873 29848
" />
</g>
<g style="fill:#C2C2C2; fill-opacity:0.0; 
stroke:#C2C2C2; stroke-width:60; stroke-opacity:1; 
stroke-linecap:round; stroke-linejoin:round;">
<path d="M22026 16042
L22026 15802
" />
<path d="M22266 18402
L22026 18402
" />
<path d="M24626 18162
L24626 18402
" />
<path d="M24386 15802
L24626 15802
" />
<path d="M24626 15802
L24626 16042
" />
<path d="M24626 18402
L24386 18402
" />
<path d="M22026 18402
L22026 18162
" />
<path d="M22026 15802
L22266 15802
" />
</g>
<g style="fill:#C2C2C2; fill-opacity:0.0; 
stroke:#C2C2C2; stroke-width:0; stroke-opacity:1; 
stroke-linecap:round; stroke-linejoin:round;">
<path d="M24136 15642
L24286 15642
" />
<path d="M24286 15642
L24286 15742
" />
<path d="M24286 15742
L24136 15742
" />
<path d="M24136 15742
L24136 15642
" />
<path d="M24686 17912
L24786 17912
" />
<path d="M24786 17912
L24786 18062
" />
<path d="M24786 18062
L24686 18062
" />
<path d="M24686 18062
L24686 17912
" />
<path d="M22366 18562
L22516 18562
" />
<path d="M22516 18562
L22516 18462
" />
<path d="M22516 18462
L22366 18462
" />
<path d="M22366 18462
L22366 18562
" />
<path d="M21966 16142
L21866 16142
" />
<path d="M21866 16142
L21866 16292
" />
<path d="M21866 16292
L21966 16292
" />
<path d="M21966 16292
L21966 16142
" />
</g>
<g style="fill:#C2C2C2; fill-opacity:0.0; 
stroke:#C2C2C2; stroke-width:30; stroke-opacity:1; 
stroke-linecap:round; stroke-linejoin:round;">
<path d="M22470 15612
L22351 15612
" />
<path d="M22398 15731
L22351 15612
L22398 15492
" />
<path d="M22255 15683
L22351 15612
L22255 15540
" />
</g>
<g style="fill:#000000; fill-opacity:0.0; 
stroke:#000000; stroke-width:30; stroke-opacity:1; 
stroke-linecap:round; stroke-linejoin:round;">
</g>
<g style="fill:#C2C200; fill-opacity:0.0; 
stroke:#C2C200; stroke-width:30; stroke-opacity:1; 
stroke-linecap:round; stroke-linejoin:round;">
</g>
<g style="fill:#C2C200; fill-opacity:0.0; 
stroke:#C2C200; stroke-width:59.0551; stroke-opacity:1; 
stroke-linecap:round; stroke-linejoin:round;">
<path d="M10924 4897
L38090 4897
" />
<path d="M10924 48991
L10924 4897
" />
<path d="M38090 48991
L10924 48991
" />
<path d="M38090 4897
L38090 48991
" />
</g> 
</svg>
