%TF.GenerationSoftware,KiCad,Pcbnew,(6.0.9)*%
%TF.CreationDate,2022-12-19T19:37:01+02:00*%
%TF.ProjectId,FMC_MIPI_v2,464d435f-4d49-4504-995f-76322e6b6963,rev?*%
%TF.SameCoordinates,Original*%
%TF.FileFunction,Legend,Top*%
%TF.FilePolarity,Positive*%
%FSLAX46Y46*%
G04 Gerber Fmt 4.6, Leading zero omitted, Abs format (unit mm)*
G04 Created by KiCad (PCBNEW (6.0.9)) date 2022-12-19 19:37:01*
%MOMM*%
%LPD*%
G01*
G04 APERTURE LIST*
G04 Aperture macros list*
%AMRoundRect*
0 Rectangle with rounded corners*
0 $1 Rounding radius*
0 $2 $3 $4 $5 $6 $7 $8 $9 X,Y pos of 4 corners*
0 Add a 4 corners polygon primitive as box body*
4,1,4,$2,$3,$4,$5,$6,$7,$8,$9,$2,$3,0*
0 Add four circle primitives for the rounded corners*
1,1,$1+$1,$2,$3*
1,1,$1+$1,$4,$5*
1,1,$1+$1,$6,$7*
1,1,$1+$1,$8,$9*
0 Add four rect primitives between the rounded corners*
20,1,$1+$1,$2,$3,$4,$5,0*
20,1,$1+$1,$4,$5,$6,$7,0*
20,1,$1+$1,$6,$7,$8,$9,0*
20,1,$1+$1,$8,$9,$2,$3,0*%
G04 Aperture macros list end*
%ADD10C,0.254000*%
%ADD11C,0.076200*%
%ADD12C,0.150000*%
%ADD13C,0.200000*%
%ADD14C,0.152400*%
%ADD15C,0.120000*%
%ADD16R,1.475000X0.300000*%
%ADD17R,0.420000X0.750000*%
%ADD18R,0.299720X0.848360*%
%ADD19R,0.848360X0.299720*%
%ADD20RoundRect,0.500000X3.774440X-1.024890X3.774440X1.024890X-3.774440X1.024890X-3.774440X-1.024890X0*%
%ADD21R,0.900000X0.500000*%
%ADD22R,0.500000X0.900000*%
%ADD23R,1.300000X0.700000*%
%ADD24R,0.700000X1.300000*%
%ADD25R,1.000000X1.250000*%
%ADD26RoundRect,0.500000X1.024890X3.774440X-1.024890X3.774440X-1.024890X-3.774440X1.024890X-3.774440X0*%
%ADD27R,0.500000X0.600000*%
%ADD28R,1.700000X1.700000*%
%ADD29O,1.700000X1.700000*%
%ADD30R,1.250000X1.000000*%
%ADD31R,0.600000X0.500000*%
%ADD32C,2.800000*%
%ADD33C,1.018540*%
%ADD34C,2.565400*%
%ADD35C,1.270000*%
G04 APERTURE END LIST*
D10*
%TO.C,U3*%
X134414380Y-124526523D02*
X134414380Y-125554619D01*
X134474857Y-125675571D01*
X134535333Y-125736047D01*
X134656285Y-125796523D01*
X134898190Y-125796523D01*
X135019142Y-125736047D01*
X135079619Y-125675571D01*
X135140095Y-125554619D01*
X135140095Y-124526523D01*
X135623904Y-124526523D02*
X136410095Y-124526523D01*
X135986761Y-125010333D01*
X136168190Y-125010333D01*
X136289142Y-125070809D01*
X136349619Y-125131285D01*
X136410095Y-125252238D01*
X136410095Y-125554619D01*
X136349619Y-125675571D01*
X136289142Y-125736047D01*
X136168190Y-125796523D01*
X135805333Y-125796523D01*
X135684380Y-125736047D01*
X135623904Y-125675571D01*
%TO.C,D2*%
X118708523Y-137335380D02*
X117438523Y-137335380D01*
X117438523Y-137033000D01*
X117499000Y-136851571D01*
X117619952Y-136730619D01*
X117740904Y-136670142D01*
X117982809Y-136609666D01*
X118164238Y-136609666D01*
X118406142Y-136670142D01*
X118527095Y-136730619D01*
X118648047Y-136851571D01*
X118708523Y-137033000D01*
X118708523Y-137335380D01*
X117559476Y-136125857D02*
X117499000Y-136065380D01*
X117438523Y-135944428D01*
X117438523Y-135642047D01*
X117499000Y-135521095D01*
X117559476Y-135460619D01*
X117680428Y-135400142D01*
X117801380Y-135400142D01*
X117982809Y-135460619D01*
X118708523Y-136186333D01*
X118708523Y-135400142D01*
%TO.C,D1*%
X115890523Y-132636380D02*
X114620523Y-132636380D01*
X114620523Y-132334000D01*
X114681000Y-132152571D01*
X114801952Y-132031619D01*
X114922904Y-131971142D01*
X115164809Y-131910666D01*
X115346238Y-131910666D01*
X115588142Y-131971142D01*
X115709095Y-132031619D01*
X115830047Y-132152571D01*
X115890523Y-132334000D01*
X115890523Y-132636380D01*
X115890523Y-130701142D02*
X115890523Y-131426857D01*
X115890523Y-131064000D02*
X114620523Y-131064000D01*
X114801952Y-131184952D01*
X114922904Y-131305904D01*
X114983380Y-131426857D01*
D11*
%TO.C,U6*%
X139614123Y-85956019D02*
X140642219Y-85956019D01*
X140763171Y-85895542D01*
X140823647Y-85835066D01*
X140884123Y-85714114D01*
X140884123Y-85472209D01*
X140823647Y-85351257D01*
X140763171Y-85290780D01*
X140642219Y-85230304D01*
X139614123Y-85230304D01*
X139614123Y-84081257D02*
X139614123Y-84323161D01*
X139674600Y-84444114D01*
X139735076Y-84504590D01*
X139916504Y-84625542D01*
X140158409Y-84686019D01*
X140642219Y-84686019D01*
X140763171Y-84625542D01*
X140823647Y-84565066D01*
X140884123Y-84444114D01*
X140884123Y-84202209D01*
X140823647Y-84081257D01*
X140763171Y-84020780D01*
X140642219Y-83960304D01*
X140339838Y-83960304D01*
X140218885Y-84020780D01*
X140158409Y-84081257D01*
X140097933Y-84202209D01*
X140097933Y-84444114D01*
X140158409Y-84565066D01*
X140218885Y-84625542D01*
X140339838Y-84686019D01*
D12*
%TO.C,R54*%
X137866380Y-70111857D02*
X137390190Y-70445190D01*
X137866380Y-70683285D02*
X136866380Y-70683285D01*
X136866380Y-70302333D01*
X136914000Y-70207095D01*
X136961619Y-70159476D01*
X137056857Y-70111857D01*
X137199714Y-70111857D01*
X137294952Y-70159476D01*
X137342571Y-70207095D01*
X137390190Y-70302333D01*
X137390190Y-70683285D01*
X136866380Y-69207095D02*
X136866380Y-69683285D01*
X137342571Y-69730904D01*
X137294952Y-69683285D01*
X137247333Y-69588047D01*
X137247333Y-69349952D01*
X137294952Y-69254714D01*
X137342571Y-69207095D01*
X137437809Y-69159476D01*
X137675904Y-69159476D01*
X137771142Y-69207095D01*
X137818761Y-69254714D01*
X137866380Y-69349952D01*
X137866380Y-69588047D01*
X137818761Y-69683285D01*
X137771142Y-69730904D01*
X137199714Y-68302333D02*
X137866380Y-68302333D01*
X136818761Y-68540428D02*
X137533047Y-68778523D01*
X137533047Y-68159476D01*
%TO.C,R52*%
X135755142Y-65730380D02*
X135421809Y-65254190D01*
X135183714Y-65730380D02*
X135183714Y-64730380D01*
X135564666Y-64730380D01*
X135659904Y-64778000D01*
X135707523Y-64825619D01*
X135755142Y-64920857D01*
X135755142Y-65063714D01*
X135707523Y-65158952D01*
X135659904Y-65206571D01*
X135564666Y-65254190D01*
X135183714Y-65254190D01*
X136659904Y-64730380D02*
X136183714Y-64730380D01*
X136136095Y-65206571D01*
X136183714Y-65158952D01*
X136278952Y-65111333D01*
X136517047Y-65111333D01*
X136612285Y-65158952D01*
X136659904Y-65206571D01*
X136707523Y-65301809D01*
X136707523Y-65539904D01*
X136659904Y-65635142D01*
X136612285Y-65682761D01*
X136517047Y-65730380D01*
X136278952Y-65730380D01*
X136183714Y-65682761D01*
X136136095Y-65635142D01*
X137088476Y-64825619D02*
X137136095Y-64778000D01*
X137231333Y-64730380D01*
X137469428Y-64730380D01*
X137564666Y-64778000D01*
X137612285Y-64825619D01*
X137659904Y-64920857D01*
X137659904Y-65016095D01*
X137612285Y-65158952D01*
X137040857Y-65730380D01*
X137659904Y-65730380D01*
%TO.C,R48*%
X114368342Y-99985780D02*
X114035009Y-99509590D01*
X113796914Y-99985780D02*
X113796914Y-98985780D01*
X114177866Y-98985780D01*
X114273104Y-99033400D01*
X114320723Y-99081019D01*
X114368342Y-99176257D01*
X114368342Y-99319114D01*
X114320723Y-99414352D01*
X114273104Y-99461971D01*
X114177866Y-99509590D01*
X113796914Y-99509590D01*
X115225485Y-99319114D02*
X115225485Y-99985780D01*
X114987390Y-98938161D02*
X114749295Y-99652447D01*
X115368342Y-99652447D01*
X115892152Y-99414352D02*
X115796914Y-99366733D01*
X115749295Y-99319114D01*
X115701676Y-99223876D01*
X115701676Y-99176257D01*
X115749295Y-99081019D01*
X115796914Y-99033400D01*
X115892152Y-98985780D01*
X116082628Y-98985780D01*
X116177866Y-99033400D01*
X116225485Y-99081019D01*
X116273104Y-99176257D01*
X116273104Y-99223876D01*
X116225485Y-99319114D01*
X116177866Y-99366733D01*
X116082628Y-99414352D01*
X115892152Y-99414352D01*
X115796914Y-99461971D01*
X115749295Y-99509590D01*
X115701676Y-99604828D01*
X115701676Y-99795304D01*
X115749295Y-99890542D01*
X115796914Y-99938161D01*
X115892152Y-99985780D01*
X116082628Y-99985780D01*
X116177866Y-99938161D01*
X116225485Y-99890542D01*
X116273104Y-99795304D01*
X116273104Y-99604828D01*
X116225485Y-99509590D01*
X116177866Y-99461971D01*
X116082628Y-99414352D01*
%TO.C,R51*%
X132707142Y-65730380D02*
X132373809Y-65254190D01*
X132135714Y-65730380D02*
X132135714Y-64730380D01*
X132516666Y-64730380D01*
X132611904Y-64778000D01*
X132659523Y-64825619D01*
X132707142Y-64920857D01*
X132707142Y-65063714D01*
X132659523Y-65158952D01*
X132611904Y-65206571D01*
X132516666Y-65254190D01*
X132135714Y-65254190D01*
X133611904Y-64730380D02*
X133135714Y-64730380D01*
X133088095Y-65206571D01*
X133135714Y-65158952D01*
X133230952Y-65111333D01*
X133469047Y-65111333D01*
X133564285Y-65158952D01*
X133611904Y-65206571D01*
X133659523Y-65301809D01*
X133659523Y-65539904D01*
X133611904Y-65635142D01*
X133564285Y-65682761D01*
X133469047Y-65730380D01*
X133230952Y-65730380D01*
X133135714Y-65682761D01*
X133088095Y-65635142D01*
X134611904Y-65730380D02*
X134040476Y-65730380D01*
X134326190Y-65730380D02*
X134326190Y-64730380D01*
X134230952Y-64873238D01*
X134135714Y-64968476D01*
X134040476Y-65016095D01*
%TO.C,R53*%
X132887980Y-69984857D02*
X132411790Y-70318190D01*
X132887980Y-70556285D02*
X131887980Y-70556285D01*
X131887980Y-70175333D01*
X131935600Y-70080095D01*
X131983219Y-70032476D01*
X132078457Y-69984857D01*
X132221314Y-69984857D01*
X132316552Y-70032476D01*
X132364171Y-70080095D01*
X132411790Y-70175333D01*
X132411790Y-70556285D01*
X131887980Y-69080095D02*
X131887980Y-69556285D01*
X132364171Y-69603904D01*
X132316552Y-69556285D01*
X132268933Y-69461047D01*
X132268933Y-69222952D01*
X132316552Y-69127714D01*
X132364171Y-69080095D01*
X132459409Y-69032476D01*
X132697504Y-69032476D01*
X132792742Y-69080095D01*
X132840361Y-69127714D01*
X132887980Y-69222952D01*
X132887980Y-69461047D01*
X132840361Y-69556285D01*
X132792742Y-69603904D01*
X131887980Y-68699142D02*
X131887980Y-68080095D01*
X132268933Y-68413428D01*
X132268933Y-68270571D01*
X132316552Y-68175333D01*
X132364171Y-68127714D01*
X132459409Y-68080095D01*
X132697504Y-68080095D01*
X132792742Y-68127714D01*
X132840361Y-68175333D01*
X132887980Y-68270571D01*
X132887980Y-68556285D01*
X132840361Y-68651523D01*
X132792742Y-68699142D01*
%TO.C,R47*%
X114292142Y-104746980D02*
X113958809Y-104270790D01*
X113720714Y-104746980D02*
X113720714Y-103746980D01*
X114101666Y-103746980D01*
X114196904Y-103794600D01*
X114244523Y-103842219D01*
X114292142Y-103937457D01*
X114292142Y-104080314D01*
X114244523Y-104175552D01*
X114196904Y-104223171D01*
X114101666Y-104270790D01*
X113720714Y-104270790D01*
X115149285Y-104080314D02*
X115149285Y-104746980D01*
X114911190Y-103699361D02*
X114673095Y-104413647D01*
X115292142Y-104413647D01*
X115577857Y-103746980D02*
X116244523Y-103746980D01*
X115815952Y-104746980D01*
%TO.C,R45*%
X111450380Y-104249457D02*
X110974190Y-104582790D01*
X111450380Y-104820885D02*
X110450380Y-104820885D01*
X110450380Y-104439933D01*
X110498000Y-104344695D01*
X110545619Y-104297076D01*
X110640857Y-104249457D01*
X110783714Y-104249457D01*
X110878952Y-104297076D01*
X110926571Y-104344695D01*
X110974190Y-104439933D01*
X110974190Y-104820885D01*
X110783714Y-103392314D02*
X111450380Y-103392314D01*
X110402761Y-103630409D02*
X111117047Y-103868504D01*
X111117047Y-103249457D01*
X110450380Y-102392314D02*
X110450380Y-102868504D01*
X110926571Y-102916123D01*
X110878952Y-102868504D01*
X110831333Y-102773266D01*
X110831333Y-102535171D01*
X110878952Y-102439933D01*
X110926571Y-102392314D01*
X111021809Y-102344695D01*
X111259904Y-102344695D01*
X111355142Y-102392314D01*
X111402761Y-102439933D01*
X111450380Y-102535171D01*
X111450380Y-102773266D01*
X111402761Y-102868504D01*
X111355142Y-102916123D01*
%TO.C,R46*%
X111450380Y-100464857D02*
X110974190Y-100798190D01*
X111450380Y-101036285D02*
X110450380Y-101036285D01*
X110450380Y-100655333D01*
X110498000Y-100560095D01*
X110545619Y-100512476D01*
X110640857Y-100464857D01*
X110783714Y-100464857D01*
X110878952Y-100512476D01*
X110926571Y-100560095D01*
X110974190Y-100655333D01*
X110974190Y-101036285D01*
X110783714Y-99607714D02*
X111450380Y-99607714D01*
X110402761Y-99845809D02*
X111117047Y-100083904D01*
X111117047Y-99464857D01*
X110450380Y-98655333D02*
X110450380Y-98845809D01*
X110498000Y-98941047D01*
X110545619Y-98988666D01*
X110688476Y-99083904D01*
X110878952Y-99131523D01*
X111259904Y-99131523D01*
X111355142Y-99083904D01*
X111402761Y-99036285D01*
X111450380Y-98941047D01*
X111450380Y-98750571D01*
X111402761Y-98655333D01*
X111355142Y-98607714D01*
X111259904Y-98560095D01*
X111021809Y-98560095D01*
X110926571Y-98607714D01*
X110878952Y-98655333D01*
X110831333Y-98750571D01*
X110831333Y-98941047D01*
X110878952Y-99036285D01*
X110926571Y-99083904D01*
X111021809Y-99131523D01*
%TO.C,R1*%
X139262380Y-87542666D02*
X138786190Y-87876000D01*
X139262380Y-88114095D02*
X138262380Y-88114095D01*
X138262380Y-87733142D01*
X138310000Y-87637904D01*
X138357619Y-87590285D01*
X138452857Y-87542666D01*
X138595714Y-87542666D01*
X138690952Y-87590285D01*
X138738571Y-87637904D01*
X138786190Y-87733142D01*
X138786190Y-88114095D01*
X139262380Y-86590285D02*
X139262380Y-87161714D01*
X139262380Y-86876000D02*
X138262380Y-86876000D01*
X138405238Y-86971238D01*
X138500476Y-87066476D01*
X138548095Y-87161714D01*
%TO.C,R38*%
X152726380Y-81160857D02*
X152250190Y-81494190D01*
X152726380Y-81732285D02*
X151726380Y-81732285D01*
X151726380Y-81351333D01*
X151774000Y-81256095D01*
X151821619Y-81208476D01*
X151916857Y-81160857D01*
X152059714Y-81160857D01*
X152154952Y-81208476D01*
X152202571Y-81256095D01*
X152250190Y-81351333D01*
X152250190Y-81732285D01*
X151726380Y-80827523D02*
X151726380Y-80208476D01*
X152107333Y-80541809D01*
X152107333Y-80398952D01*
X152154952Y-80303714D01*
X152202571Y-80256095D01*
X152297809Y-80208476D01*
X152535904Y-80208476D01*
X152631142Y-80256095D01*
X152678761Y-80303714D01*
X152726380Y-80398952D01*
X152726380Y-80684666D01*
X152678761Y-80779904D01*
X152631142Y-80827523D01*
X152154952Y-79637047D02*
X152107333Y-79732285D01*
X152059714Y-79779904D01*
X151964476Y-79827523D01*
X151916857Y-79827523D01*
X151821619Y-79779904D01*
X151774000Y-79732285D01*
X151726380Y-79637047D01*
X151726380Y-79446571D01*
X151774000Y-79351333D01*
X151821619Y-79303714D01*
X151916857Y-79256095D01*
X151964476Y-79256095D01*
X152059714Y-79303714D01*
X152107333Y-79351333D01*
X152154952Y-79446571D01*
X152154952Y-79637047D01*
X152202571Y-79732285D01*
X152250190Y-79779904D01*
X152345428Y-79827523D01*
X152535904Y-79827523D01*
X152631142Y-79779904D01*
X152678761Y-79732285D01*
X152726380Y-79637047D01*
X152726380Y-79446571D01*
X152678761Y-79351333D01*
X152631142Y-79303714D01*
X152535904Y-79256095D01*
X152345428Y-79256095D01*
X152250190Y-79303714D01*
X152202571Y-79351333D01*
X152154952Y-79446571D01*
%TO.C,R63*%
X150233142Y-65984380D02*
X149899809Y-65508190D01*
X149661714Y-65984380D02*
X149661714Y-64984380D01*
X150042666Y-64984380D01*
X150137904Y-65032000D01*
X150185523Y-65079619D01*
X150233142Y-65174857D01*
X150233142Y-65317714D01*
X150185523Y-65412952D01*
X150137904Y-65460571D01*
X150042666Y-65508190D01*
X149661714Y-65508190D01*
X151090285Y-64984380D02*
X150899809Y-64984380D01*
X150804571Y-65032000D01*
X150756952Y-65079619D01*
X150661714Y-65222476D01*
X150614095Y-65412952D01*
X150614095Y-65793904D01*
X150661714Y-65889142D01*
X150709333Y-65936761D01*
X150804571Y-65984380D01*
X150995047Y-65984380D01*
X151090285Y-65936761D01*
X151137904Y-65889142D01*
X151185523Y-65793904D01*
X151185523Y-65555809D01*
X151137904Y-65460571D01*
X151090285Y-65412952D01*
X150995047Y-65365333D01*
X150804571Y-65365333D01*
X150709333Y-65412952D01*
X150661714Y-65460571D01*
X150614095Y-65555809D01*
X151518857Y-64984380D02*
X152137904Y-64984380D01*
X151804571Y-65365333D01*
X151947428Y-65365333D01*
X152042666Y-65412952D01*
X152090285Y-65460571D01*
X152137904Y-65555809D01*
X152137904Y-65793904D01*
X152090285Y-65889142D01*
X152042666Y-65936761D01*
X151947428Y-65984380D01*
X151661714Y-65984380D01*
X151566476Y-65936761D01*
X151518857Y-65889142D01*
%TO.C,R64*%
X153535142Y-65984380D02*
X153201809Y-65508190D01*
X152963714Y-65984380D02*
X152963714Y-64984380D01*
X153344666Y-64984380D01*
X153439904Y-65032000D01*
X153487523Y-65079619D01*
X153535142Y-65174857D01*
X153535142Y-65317714D01*
X153487523Y-65412952D01*
X153439904Y-65460571D01*
X153344666Y-65508190D01*
X152963714Y-65508190D01*
X154392285Y-64984380D02*
X154201809Y-64984380D01*
X154106571Y-65032000D01*
X154058952Y-65079619D01*
X153963714Y-65222476D01*
X153916095Y-65412952D01*
X153916095Y-65793904D01*
X153963714Y-65889142D01*
X154011333Y-65936761D01*
X154106571Y-65984380D01*
X154297047Y-65984380D01*
X154392285Y-65936761D01*
X154439904Y-65889142D01*
X154487523Y-65793904D01*
X154487523Y-65555809D01*
X154439904Y-65460571D01*
X154392285Y-65412952D01*
X154297047Y-65365333D01*
X154106571Y-65365333D01*
X154011333Y-65412952D01*
X153963714Y-65460571D01*
X153916095Y-65555809D01*
X155344666Y-65317714D02*
X155344666Y-65984380D01*
X155106571Y-64936761D02*
X154868476Y-65651047D01*
X155487523Y-65651047D01*
%TO.C,R65*%
X150640380Y-69984857D02*
X150164190Y-70318190D01*
X150640380Y-70556285D02*
X149640380Y-70556285D01*
X149640380Y-70175333D01*
X149688000Y-70080095D01*
X149735619Y-70032476D01*
X149830857Y-69984857D01*
X149973714Y-69984857D01*
X150068952Y-70032476D01*
X150116571Y-70080095D01*
X150164190Y-70175333D01*
X150164190Y-70556285D01*
X149640380Y-69127714D02*
X149640380Y-69318190D01*
X149688000Y-69413428D01*
X149735619Y-69461047D01*
X149878476Y-69556285D01*
X150068952Y-69603904D01*
X150449904Y-69603904D01*
X150545142Y-69556285D01*
X150592761Y-69508666D01*
X150640380Y-69413428D01*
X150640380Y-69222952D01*
X150592761Y-69127714D01*
X150545142Y-69080095D01*
X150449904Y-69032476D01*
X150211809Y-69032476D01*
X150116571Y-69080095D01*
X150068952Y-69127714D01*
X150021333Y-69222952D01*
X150021333Y-69413428D01*
X150068952Y-69508666D01*
X150116571Y-69556285D01*
X150211809Y-69603904D01*
X149640380Y-68127714D02*
X149640380Y-68603904D01*
X150116571Y-68651523D01*
X150068952Y-68603904D01*
X150021333Y-68508666D01*
X150021333Y-68270571D01*
X150068952Y-68175333D01*
X150116571Y-68127714D01*
X150211809Y-68080095D01*
X150449904Y-68080095D01*
X150545142Y-68127714D01*
X150592761Y-68175333D01*
X150640380Y-68270571D01*
X150640380Y-68508666D01*
X150592761Y-68603904D01*
X150545142Y-68651523D01*
%TO.C,R66*%
X155722580Y-69730857D02*
X155246390Y-70064190D01*
X155722580Y-70302285D02*
X154722580Y-70302285D01*
X154722580Y-69921333D01*
X154770200Y-69826095D01*
X154817819Y-69778476D01*
X154913057Y-69730857D01*
X155055914Y-69730857D01*
X155151152Y-69778476D01*
X155198771Y-69826095D01*
X155246390Y-69921333D01*
X155246390Y-70302285D01*
X154722580Y-68873714D02*
X154722580Y-69064190D01*
X154770200Y-69159428D01*
X154817819Y-69207047D01*
X154960676Y-69302285D01*
X155151152Y-69349904D01*
X155532104Y-69349904D01*
X155627342Y-69302285D01*
X155674961Y-69254666D01*
X155722580Y-69159428D01*
X155722580Y-68968952D01*
X155674961Y-68873714D01*
X155627342Y-68826095D01*
X155532104Y-68778476D01*
X155294009Y-68778476D01*
X155198771Y-68826095D01*
X155151152Y-68873714D01*
X155103533Y-68968952D01*
X155103533Y-69159428D01*
X155151152Y-69254666D01*
X155198771Y-69302285D01*
X155294009Y-69349904D01*
X154722580Y-67921333D02*
X154722580Y-68111809D01*
X154770200Y-68207047D01*
X154817819Y-68254666D01*
X154960676Y-68349904D01*
X155151152Y-68397523D01*
X155532104Y-68397523D01*
X155627342Y-68349904D01*
X155674961Y-68302285D01*
X155722580Y-68207047D01*
X155722580Y-68016571D01*
X155674961Y-67921333D01*
X155627342Y-67873714D01*
X155532104Y-67826095D01*
X155294009Y-67826095D01*
X155198771Y-67873714D01*
X155151152Y-67921333D01*
X155103533Y-68016571D01*
X155103533Y-68207047D01*
X155151152Y-68302285D01*
X155198771Y-68349904D01*
X155294009Y-68397523D01*
%TO.C,R5*%
X117546380Y-122366066D02*
X117070190Y-122699400D01*
X117546380Y-122937495D02*
X116546380Y-122937495D01*
X116546380Y-122556542D01*
X116594000Y-122461304D01*
X116641619Y-122413685D01*
X116736857Y-122366066D01*
X116879714Y-122366066D01*
X116974952Y-122413685D01*
X117022571Y-122461304D01*
X117070190Y-122556542D01*
X117070190Y-122937495D01*
X116546380Y-121461304D02*
X116546380Y-121937495D01*
X117022571Y-121985114D01*
X116974952Y-121937495D01*
X116927333Y-121842257D01*
X116927333Y-121604161D01*
X116974952Y-121508923D01*
X117022571Y-121461304D01*
X117117809Y-121413685D01*
X117355904Y-121413685D01*
X117451142Y-121461304D01*
X117498761Y-121508923D01*
X117546380Y-121604161D01*
X117546380Y-121842257D01*
X117498761Y-121937495D01*
X117451142Y-121985114D01*
%TO.C,R7*%
X120365780Y-132373666D02*
X119889590Y-132707000D01*
X120365780Y-132945095D02*
X119365780Y-132945095D01*
X119365780Y-132564142D01*
X119413400Y-132468904D01*
X119461019Y-132421285D01*
X119556257Y-132373666D01*
X119699114Y-132373666D01*
X119794352Y-132421285D01*
X119841971Y-132468904D01*
X119889590Y-132564142D01*
X119889590Y-132945095D01*
X119365780Y-132040333D02*
X119365780Y-131373666D01*
X120365780Y-131802238D01*
%TO.C,R14*%
X132278380Y-134500857D02*
X131802190Y-134834190D01*
X132278380Y-135072285D02*
X131278380Y-135072285D01*
X131278380Y-134691333D01*
X131326000Y-134596095D01*
X131373619Y-134548476D01*
X131468857Y-134500857D01*
X131611714Y-134500857D01*
X131706952Y-134548476D01*
X131754571Y-134596095D01*
X131802190Y-134691333D01*
X131802190Y-135072285D01*
X132278380Y-133548476D02*
X132278380Y-134119904D01*
X132278380Y-133834190D02*
X131278380Y-133834190D01*
X131421238Y-133929428D01*
X131516476Y-134024666D01*
X131564095Y-134119904D01*
X131611714Y-132691333D02*
X132278380Y-132691333D01*
X131230761Y-132929428D02*
X131945047Y-133167523D01*
X131945047Y-132548476D01*
%TO.C,R18*%
X137025142Y-35378380D02*
X136691809Y-34902190D01*
X136453714Y-35378380D02*
X136453714Y-34378380D01*
X136834666Y-34378380D01*
X136929904Y-34426000D01*
X136977523Y-34473619D01*
X137025142Y-34568857D01*
X137025142Y-34711714D01*
X136977523Y-34806952D01*
X136929904Y-34854571D01*
X136834666Y-34902190D01*
X136453714Y-34902190D01*
X137977523Y-35378380D02*
X137406095Y-35378380D01*
X137691809Y-35378380D02*
X137691809Y-34378380D01*
X137596571Y-34521238D01*
X137501333Y-34616476D01*
X137406095Y-34664095D01*
X138548952Y-34806952D02*
X138453714Y-34759333D01*
X138406095Y-34711714D01*
X138358476Y-34616476D01*
X138358476Y-34568857D01*
X138406095Y-34473619D01*
X138453714Y-34426000D01*
X138548952Y-34378380D01*
X138739428Y-34378380D01*
X138834666Y-34426000D01*
X138882285Y-34473619D01*
X138929904Y-34568857D01*
X138929904Y-34616476D01*
X138882285Y-34711714D01*
X138834666Y-34759333D01*
X138739428Y-34806952D01*
X138548952Y-34806952D01*
X138453714Y-34854571D01*
X138406095Y-34902190D01*
X138358476Y-34997428D01*
X138358476Y-35187904D01*
X138406095Y-35283142D01*
X138453714Y-35330761D01*
X138548952Y-35378380D01*
X138739428Y-35378380D01*
X138834666Y-35330761D01*
X138882285Y-35283142D01*
X138929904Y-35187904D01*
X138929904Y-34997428D01*
X138882285Y-34902190D01*
X138834666Y-34854571D01*
X138739428Y-34806952D01*
%TO.C,R9*%
X123251220Y-132333026D02*
X122775030Y-132666360D01*
X123251220Y-132904455D02*
X122251220Y-132904455D01*
X122251220Y-132523502D01*
X122298840Y-132428264D01*
X122346459Y-132380645D01*
X122441697Y-132333026D01*
X122584554Y-132333026D01*
X122679792Y-132380645D01*
X122727411Y-132428264D01*
X122775030Y-132523502D01*
X122775030Y-132904455D01*
X123251220Y-131856836D02*
X123251220Y-131666360D01*
X123203601Y-131571121D01*
X123155982Y-131523502D01*
X123013125Y-131428264D01*
X122822649Y-131380645D01*
X122441697Y-131380645D01*
X122346459Y-131428264D01*
X122298840Y-131475883D01*
X122251220Y-131571121D01*
X122251220Y-131761598D01*
X122298840Y-131856836D01*
X122346459Y-131904455D01*
X122441697Y-131952074D01*
X122679792Y-131952074D01*
X122775030Y-131904455D01*
X122822649Y-131856836D01*
X122870268Y-131761598D01*
X122870268Y-131571121D01*
X122822649Y-131475883D01*
X122775030Y-131428264D01*
X122679792Y-131380645D01*
%TO.C,R6*%
X115895380Y-129706666D02*
X115419190Y-130040000D01*
X115895380Y-130278095D02*
X114895380Y-130278095D01*
X114895380Y-129897142D01*
X114943000Y-129801904D01*
X114990619Y-129754285D01*
X115085857Y-129706666D01*
X115228714Y-129706666D01*
X115323952Y-129754285D01*
X115371571Y-129801904D01*
X115419190Y-129897142D01*
X115419190Y-130278095D01*
X114895380Y-128849523D02*
X114895380Y-129040000D01*
X114943000Y-129135238D01*
X114990619Y-129182857D01*
X115133476Y-129278095D01*
X115323952Y-129325714D01*
X115704904Y-129325714D01*
X115800142Y-129278095D01*
X115847761Y-129230476D01*
X115895380Y-129135238D01*
X115895380Y-128944761D01*
X115847761Y-128849523D01*
X115800142Y-128801904D01*
X115704904Y-128754285D01*
X115466809Y-128754285D01*
X115371571Y-128801904D01*
X115323952Y-128849523D01*
X115276333Y-128944761D01*
X115276333Y-129135238D01*
X115323952Y-129230476D01*
X115371571Y-129278095D01*
X115466809Y-129325714D01*
%TO.C,R11*%
X126462460Y-122523197D02*
X125986270Y-122856530D01*
X126462460Y-123094625D02*
X125462460Y-123094625D01*
X125462460Y-122713673D01*
X125510080Y-122618435D01*
X125557699Y-122570816D01*
X125652937Y-122523197D01*
X125795794Y-122523197D01*
X125891032Y-122570816D01*
X125938651Y-122618435D01*
X125986270Y-122713673D01*
X125986270Y-123094625D01*
X126462460Y-121570816D02*
X126462460Y-122142244D01*
X126462460Y-121856530D02*
X125462460Y-121856530D01*
X125605318Y-121951768D01*
X125700556Y-122047006D01*
X125748175Y-122142244D01*
X126462460Y-120618435D02*
X126462460Y-121189863D01*
X126462460Y-120904149D02*
X125462460Y-120904149D01*
X125605318Y-120999387D01*
X125700556Y-121094625D01*
X125748175Y-121189863D01*
%TO.C,R8*%
X114942880Y-136628166D02*
X114466690Y-136961500D01*
X114942880Y-137199595D02*
X113942880Y-137199595D01*
X113942880Y-136818642D01*
X113990500Y-136723404D01*
X114038119Y-136675785D01*
X114133357Y-136628166D01*
X114276214Y-136628166D01*
X114371452Y-136675785D01*
X114419071Y-136723404D01*
X114466690Y-136818642D01*
X114466690Y-137199595D01*
X114371452Y-136056738D02*
X114323833Y-136151976D01*
X114276214Y-136199595D01*
X114180976Y-136247214D01*
X114133357Y-136247214D01*
X114038119Y-136199595D01*
X113990500Y-136151976D01*
X113942880Y-136056738D01*
X113942880Y-135866261D01*
X113990500Y-135771023D01*
X114038119Y-135723404D01*
X114133357Y-135675785D01*
X114180976Y-135675785D01*
X114276214Y-135723404D01*
X114323833Y-135771023D01*
X114371452Y-135866261D01*
X114371452Y-136056738D01*
X114419071Y-136151976D01*
X114466690Y-136199595D01*
X114561928Y-136247214D01*
X114752404Y-136247214D01*
X114847642Y-136199595D01*
X114895261Y-136151976D01*
X114942880Y-136056738D01*
X114942880Y-135866261D01*
X114895261Y-135771023D01*
X114847642Y-135723404D01*
X114752404Y-135675785D01*
X114561928Y-135675785D01*
X114466690Y-135723404D01*
X114419071Y-135771023D01*
X114371452Y-135866261D01*
%TO.C,C27*%
X131691142Y-78716142D02*
X131643523Y-78763761D01*
X131500666Y-78811380D01*
X131405428Y-78811380D01*
X131262571Y-78763761D01*
X131167333Y-78668523D01*
X131119714Y-78573285D01*
X131072095Y-78382809D01*
X131072095Y-78239952D01*
X131119714Y-78049476D01*
X131167333Y-77954238D01*
X131262571Y-77859000D01*
X131405428Y-77811380D01*
X131500666Y-77811380D01*
X131643523Y-77859000D01*
X131691142Y-77906619D01*
X132072095Y-77906619D02*
X132119714Y-77859000D01*
X132214952Y-77811380D01*
X132453047Y-77811380D01*
X132548285Y-77859000D01*
X132595904Y-77906619D01*
X132643523Y-78001857D01*
X132643523Y-78097095D01*
X132595904Y-78239952D01*
X132024476Y-78811380D01*
X132643523Y-78811380D01*
X132976857Y-77811380D02*
X133643523Y-77811380D01*
X133214952Y-78811380D01*
%TO.C,R17*%
X126944380Y-80144857D02*
X126468190Y-80478190D01*
X126944380Y-80716285D02*
X125944380Y-80716285D01*
X125944380Y-80335333D01*
X125992000Y-80240095D01*
X126039619Y-80192476D01*
X126134857Y-80144857D01*
X126277714Y-80144857D01*
X126372952Y-80192476D01*
X126420571Y-80240095D01*
X126468190Y-80335333D01*
X126468190Y-80716285D01*
X126944380Y-79192476D02*
X126944380Y-79763904D01*
X126944380Y-79478190D02*
X125944380Y-79478190D01*
X126087238Y-79573428D01*
X126182476Y-79668666D01*
X126230095Y-79763904D01*
X125944380Y-78859142D02*
X125944380Y-78192476D01*
X126944380Y-78621047D01*
%TO.C,R27*%
X132786380Y-92082857D02*
X132310190Y-92416190D01*
X132786380Y-92654285D02*
X131786380Y-92654285D01*
X131786380Y-92273333D01*
X131834000Y-92178095D01*
X131881619Y-92130476D01*
X131976857Y-92082857D01*
X132119714Y-92082857D01*
X132214952Y-92130476D01*
X132262571Y-92178095D01*
X132310190Y-92273333D01*
X132310190Y-92654285D01*
X131881619Y-91701904D02*
X131834000Y-91654285D01*
X131786380Y-91559047D01*
X131786380Y-91320952D01*
X131834000Y-91225714D01*
X131881619Y-91178095D01*
X131976857Y-91130476D01*
X132072095Y-91130476D01*
X132214952Y-91178095D01*
X132786380Y-91749523D01*
X132786380Y-91130476D01*
X131786380Y-90797142D02*
X131786380Y-90130476D01*
X132786380Y-90559047D01*
%TO.C,R58*%
X144645142Y-65984380D02*
X144311809Y-65508190D01*
X144073714Y-65984380D02*
X144073714Y-64984380D01*
X144454666Y-64984380D01*
X144549904Y-65032000D01*
X144597523Y-65079619D01*
X144645142Y-65174857D01*
X144645142Y-65317714D01*
X144597523Y-65412952D01*
X144549904Y-65460571D01*
X144454666Y-65508190D01*
X144073714Y-65508190D01*
X145549904Y-64984380D02*
X145073714Y-64984380D01*
X145026095Y-65460571D01*
X145073714Y-65412952D01*
X145168952Y-65365333D01*
X145407047Y-65365333D01*
X145502285Y-65412952D01*
X145549904Y-65460571D01*
X145597523Y-65555809D01*
X145597523Y-65793904D01*
X145549904Y-65889142D01*
X145502285Y-65936761D01*
X145407047Y-65984380D01*
X145168952Y-65984380D01*
X145073714Y-65936761D01*
X145026095Y-65889142D01*
X146168952Y-65412952D02*
X146073714Y-65365333D01*
X146026095Y-65317714D01*
X145978476Y-65222476D01*
X145978476Y-65174857D01*
X146026095Y-65079619D01*
X146073714Y-65032000D01*
X146168952Y-64984380D01*
X146359428Y-64984380D01*
X146454666Y-65032000D01*
X146502285Y-65079619D01*
X146549904Y-65174857D01*
X146549904Y-65222476D01*
X146502285Y-65317714D01*
X146454666Y-65365333D01*
X146359428Y-65412952D01*
X146168952Y-65412952D01*
X146073714Y-65460571D01*
X146026095Y-65508190D01*
X145978476Y-65603428D01*
X145978476Y-65793904D01*
X146026095Y-65889142D01*
X146073714Y-65936761D01*
X146168952Y-65984380D01*
X146359428Y-65984380D01*
X146454666Y-65936761D01*
X146502285Y-65889142D01*
X146549904Y-65793904D01*
X146549904Y-65603428D01*
X146502285Y-65508190D01*
X146454666Y-65460571D01*
X146359428Y-65412952D01*
%TO.C,R57*%
X141597142Y-65984380D02*
X141263809Y-65508190D01*
X141025714Y-65984380D02*
X141025714Y-64984380D01*
X141406666Y-64984380D01*
X141501904Y-65032000D01*
X141549523Y-65079619D01*
X141597142Y-65174857D01*
X141597142Y-65317714D01*
X141549523Y-65412952D01*
X141501904Y-65460571D01*
X141406666Y-65508190D01*
X141025714Y-65508190D01*
X142501904Y-64984380D02*
X142025714Y-64984380D01*
X141978095Y-65460571D01*
X142025714Y-65412952D01*
X142120952Y-65365333D01*
X142359047Y-65365333D01*
X142454285Y-65412952D01*
X142501904Y-65460571D01*
X142549523Y-65555809D01*
X142549523Y-65793904D01*
X142501904Y-65889142D01*
X142454285Y-65936761D01*
X142359047Y-65984380D01*
X142120952Y-65984380D01*
X142025714Y-65936761D01*
X141978095Y-65889142D01*
X142882857Y-64984380D02*
X143549523Y-64984380D01*
X143120952Y-65984380D01*
%TO.C,R60*%
X146756380Y-69908657D02*
X146280190Y-70241990D01*
X146756380Y-70480085D02*
X145756380Y-70480085D01*
X145756380Y-70099133D01*
X145804000Y-70003895D01*
X145851619Y-69956276D01*
X145946857Y-69908657D01*
X146089714Y-69908657D01*
X146184952Y-69956276D01*
X146232571Y-70003895D01*
X146280190Y-70099133D01*
X146280190Y-70480085D01*
X145756380Y-69051514D02*
X145756380Y-69241990D01*
X145804000Y-69337228D01*
X145851619Y-69384847D01*
X145994476Y-69480085D01*
X146184952Y-69527704D01*
X146565904Y-69527704D01*
X146661142Y-69480085D01*
X146708761Y-69432466D01*
X146756380Y-69337228D01*
X146756380Y-69146752D01*
X146708761Y-69051514D01*
X146661142Y-69003895D01*
X146565904Y-68956276D01*
X146327809Y-68956276D01*
X146232571Y-69003895D01*
X146184952Y-69051514D01*
X146137333Y-69146752D01*
X146137333Y-69337228D01*
X146184952Y-69432466D01*
X146232571Y-69480085D01*
X146327809Y-69527704D01*
X145756380Y-68337228D02*
X145756380Y-68241990D01*
X145804000Y-68146752D01*
X145851619Y-68099133D01*
X145946857Y-68051514D01*
X146137333Y-68003895D01*
X146375428Y-68003895D01*
X146565904Y-68051514D01*
X146661142Y-68099133D01*
X146708761Y-68146752D01*
X146756380Y-68241990D01*
X146756380Y-68337228D01*
X146708761Y-68432466D01*
X146661142Y-68480085D01*
X146565904Y-68527704D01*
X146375428Y-68575323D01*
X146137333Y-68575323D01*
X145946857Y-68527704D01*
X145851619Y-68480085D01*
X145804000Y-68432466D01*
X145756380Y-68337228D01*
%TO.C,R59*%
X141750380Y-69984857D02*
X141274190Y-70318190D01*
X141750380Y-70556285D02*
X140750380Y-70556285D01*
X140750380Y-70175333D01*
X140798000Y-70080095D01*
X140845619Y-70032476D01*
X140940857Y-69984857D01*
X141083714Y-69984857D01*
X141178952Y-70032476D01*
X141226571Y-70080095D01*
X141274190Y-70175333D01*
X141274190Y-70556285D01*
X140750380Y-69080095D02*
X140750380Y-69556285D01*
X141226571Y-69603904D01*
X141178952Y-69556285D01*
X141131333Y-69461047D01*
X141131333Y-69222952D01*
X141178952Y-69127714D01*
X141226571Y-69080095D01*
X141321809Y-69032476D01*
X141559904Y-69032476D01*
X141655142Y-69080095D01*
X141702761Y-69127714D01*
X141750380Y-69222952D01*
X141750380Y-69461047D01*
X141702761Y-69556285D01*
X141655142Y-69603904D01*
X141750380Y-68556285D02*
X141750380Y-68365809D01*
X141702761Y-68270571D01*
X141655142Y-68222952D01*
X141512285Y-68127714D01*
X141321809Y-68080095D01*
X140940857Y-68080095D01*
X140845619Y-68127714D01*
X140798000Y-68175333D01*
X140750380Y-68270571D01*
X140750380Y-68461047D01*
X140798000Y-68556285D01*
X140845619Y-68603904D01*
X140940857Y-68651523D01*
X141178952Y-68651523D01*
X141274190Y-68603904D01*
X141321809Y-68556285D01*
X141369428Y-68461047D01*
X141369428Y-68270571D01*
X141321809Y-68175333D01*
X141274190Y-68127714D01*
X141178952Y-68080095D01*
D11*
%TO.C,U5*%
X133449180Y-93411523D02*
X133449180Y-94439619D01*
X133509657Y-94560571D01*
X133570133Y-94621047D01*
X133691085Y-94681523D01*
X133932990Y-94681523D01*
X134053942Y-94621047D01*
X134114419Y-94560571D01*
X134174895Y-94439619D01*
X134174895Y-93411523D01*
X135384419Y-93411523D02*
X134779657Y-93411523D01*
X134719180Y-94016285D01*
X134779657Y-93955809D01*
X134900609Y-93895333D01*
X135202990Y-93895333D01*
X135323942Y-93955809D01*
X135384419Y-94016285D01*
X135444895Y-94137238D01*
X135444895Y-94439619D01*
X135384419Y-94560571D01*
X135323942Y-94621047D01*
X135202990Y-94681523D01*
X134900609Y-94681523D01*
X134779657Y-94621047D01*
X134719180Y-94560571D01*
D12*
%TO.C,C19*%
X139041142Y-107068857D02*
X139088761Y-107116476D01*
X139136380Y-107259333D01*
X139136380Y-107354571D01*
X139088761Y-107497428D01*
X138993523Y-107592666D01*
X138898285Y-107640285D01*
X138707809Y-107687904D01*
X138564952Y-107687904D01*
X138374476Y-107640285D01*
X138279238Y-107592666D01*
X138184000Y-107497428D01*
X138136380Y-107354571D01*
X138136380Y-107259333D01*
X138184000Y-107116476D01*
X138231619Y-107068857D01*
X139136380Y-106116476D02*
X139136380Y-106687904D01*
X139136380Y-106402190D02*
X138136380Y-106402190D01*
X138279238Y-106497428D01*
X138374476Y-106592666D01*
X138422095Y-106687904D01*
X139136380Y-105640285D02*
X139136380Y-105449809D01*
X139088761Y-105354571D01*
X139041142Y-105306952D01*
X138898285Y-105211714D01*
X138707809Y-105164095D01*
X138326857Y-105164095D01*
X138231619Y-105211714D01*
X138184000Y-105259333D01*
X138136380Y-105354571D01*
X138136380Y-105545047D01*
X138184000Y-105640285D01*
X138231619Y-105687904D01*
X138326857Y-105735523D01*
X138564952Y-105735523D01*
X138660190Y-105687904D01*
X138707809Y-105640285D01*
X138755428Y-105545047D01*
X138755428Y-105354571D01*
X138707809Y-105259333D01*
X138660190Y-105211714D01*
X138564952Y-105164095D01*
%TO.C,R75*%
X136113780Y-92311457D02*
X135637590Y-92644790D01*
X136113780Y-92882885D02*
X135113780Y-92882885D01*
X135113780Y-92501933D01*
X135161400Y-92406695D01*
X135209019Y-92359076D01*
X135304257Y-92311457D01*
X135447114Y-92311457D01*
X135542352Y-92359076D01*
X135589971Y-92406695D01*
X135637590Y-92501933D01*
X135637590Y-92882885D01*
X135113780Y-91978123D02*
X135113780Y-91311457D01*
X136113780Y-91740028D01*
X135113780Y-90454314D02*
X135113780Y-90930504D01*
X135589971Y-90978123D01*
X135542352Y-90930504D01*
X135494733Y-90835266D01*
X135494733Y-90597171D01*
X135542352Y-90501933D01*
X135589971Y-90454314D01*
X135685209Y-90406695D01*
X135923304Y-90406695D01*
X136018542Y-90454314D01*
X136066161Y-90501933D01*
X136113780Y-90597171D01*
X136113780Y-90835266D01*
X136066161Y-90930504D01*
X136018542Y-90978123D01*
%TO.C,R29*%
X103704380Y-137040857D02*
X103228190Y-137374190D01*
X103704380Y-137612285D02*
X102704380Y-137612285D01*
X102704380Y-137231333D01*
X102752000Y-137136095D01*
X102799619Y-137088476D01*
X102894857Y-137040857D01*
X103037714Y-137040857D01*
X103132952Y-137088476D01*
X103180571Y-137136095D01*
X103228190Y-137231333D01*
X103228190Y-137612285D01*
X102799619Y-136659904D02*
X102752000Y-136612285D01*
X102704380Y-136517047D01*
X102704380Y-136278952D01*
X102752000Y-136183714D01*
X102799619Y-136136095D01*
X102894857Y-136088476D01*
X102990095Y-136088476D01*
X103132952Y-136136095D01*
X103704380Y-136707523D01*
X103704380Y-136088476D01*
X103704380Y-135612285D02*
X103704380Y-135421809D01*
X103656761Y-135326571D01*
X103609142Y-135278952D01*
X103466285Y-135183714D01*
X103275809Y-135136095D01*
X102894857Y-135136095D01*
X102799619Y-135183714D01*
X102752000Y-135231333D01*
X102704380Y-135326571D01*
X102704380Y-135517047D01*
X102752000Y-135612285D01*
X102799619Y-135659904D01*
X102894857Y-135707523D01*
X103132952Y-135707523D01*
X103228190Y-135659904D01*
X103275809Y-135612285D01*
X103323428Y-135517047D01*
X103323428Y-135326571D01*
X103275809Y-135231333D01*
X103228190Y-135183714D01*
X103132952Y-135136095D01*
%TO.C,R30*%
X107157780Y-136990057D02*
X106681590Y-137323390D01*
X107157780Y-137561485D02*
X106157780Y-137561485D01*
X106157780Y-137180533D01*
X106205400Y-137085295D01*
X106253019Y-137037676D01*
X106348257Y-136990057D01*
X106491114Y-136990057D01*
X106586352Y-137037676D01*
X106633971Y-137085295D01*
X106681590Y-137180533D01*
X106681590Y-137561485D01*
X106157780Y-136656723D02*
X106157780Y-136037676D01*
X106538733Y-136371009D01*
X106538733Y-136228152D01*
X106586352Y-136132914D01*
X106633971Y-136085295D01*
X106729209Y-136037676D01*
X106967304Y-136037676D01*
X107062542Y-136085295D01*
X107110161Y-136132914D01*
X107157780Y-136228152D01*
X107157780Y-136513866D01*
X107110161Y-136609104D01*
X107062542Y-136656723D01*
X106157780Y-135418628D02*
X106157780Y-135323390D01*
X106205400Y-135228152D01*
X106253019Y-135180533D01*
X106348257Y-135132914D01*
X106538733Y-135085295D01*
X106776828Y-135085295D01*
X106967304Y-135132914D01*
X107062542Y-135180533D01*
X107110161Y-135228152D01*
X107157780Y-135323390D01*
X107157780Y-135418628D01*
X107110161Y-135513866D01*
X107062542Y-135561485D01*
X106967304Y-135609104D01*
X106776828Y-135656723D01*
X106538733Y-135656723D01*
X106348257Y-135609104D01*
X106253019Y-135561485D01*
X106205400Y-135513866D01*
X106157780Y-135418628D01*
%TO.C,R32*%
X97100380Y-137040857D02*
X96624190Y-137374190D01*
X97100380Y-137612285D02*
X96100380Y-137612285D01*
X96100380Y-137231333D01*
X96148000Y-137136095D01*
X96195619Y-137088476D01*
X96290857Y-137040857D01*
X96433714Y-137040857D01*
X96528952Y-137088476D01*
X96576571Y-137136095D01*
X96624190Y-137231333D01*
X96624190Y-137612285D01*
X96100380Y-136707523D02*
X96100380Y-136088476D01*
X96481333Y-136421809D01*
X96481333Y-136278952D01*
X96528952Y-136183714D01*
X96576571Y-136136095D01*
X96671809Y-136088476D01*
X96909904Y-136088476D01*
X97005142Y-136136095D01*
X97052761Y-136183714D01*
X97100380Y-136278952D01*
X97100380Y-136564666D01*
X97052761Y-136659904D01*
X97005142Y-136707523D01*
X96195619Y-135707523D02*
X96148000Y-135659904D01*
X96100380Y-135564666D01*
X96100380Y-135326571D01*
X96148000Y-135231333D01*
X96195619Y-135183714D01*
X96290857Y-135136095D01*
X96386095Y-135136095D01*
X96528952Y-135183714D01*
X97100380Y-135755142D01*
X97100380Y-135136095D01*
%TO.C,R33*%
X100402380Y-137040857D02*
X99926190Y-137374190D01*
X100402380Y-137612285D02*
X99402380Y-137612285D01*
X99402380Y-137231333D01*
X99450000Y-137136095D01*
X99497619Y-137088476D01*
X99592857Y-137040857D01*
X99735714Y-137040857D01*
X99830952Y-137088476D01*
X99878571Y-137136095D01*
X99926190Y-137231333D01*
X99926190Y-137612285D01*
X99402380Y-136707523D02*
X99402380Y-136088476D01*
X99783333Y-136421809D01*
X99783333Y-136278952D01*
X99830952Y-136183714D01*
X99878571Y-136136095D01*
X99973809Y-136088476D01*
X100211904Y-136088476D01*
X100307142Y-136136095D01*
X100354761Y-136183714D01*
X100402380Y-136278952D01*
X100402380Y-136564666D01*
X100354761Y-136659904D01*
X100307142Y-136707523D01*
X99402380Y-135755142D02*
X99402380Y-135136095D01*
X99783333Y-135469428D01*
X99783333Y-135326571D01*
X99830952Y-135231333D01*
X99878571Y-135183714D01*
X99973809Y-135136095D01*
X100211904Y-135136095D01*
X100307142Y-135183714D01*
X100354761Y-135231333D01*
X100402380Y-135326571D01*
X100402380Y-135612285D01*
X100354761Y-135707523D01*
X100307142Y-135755142D01*
%TO.C,R34*%
X93798380Y-137040857D02*
X93322190Y-137374190D01*
X93798380Y-137612285D02*
X92798380Y-137612285D01*
X92798380Y-137231333D01*
X92846000Y-137136095D01*
X92893619Y-137088476D01*
X92988857Y-137040857D01*
X93131714Y-137040857D01*
X93226952Y-137088476D01*
X93274571Y-137136095D01*
X93322190Y-137231333D01*
X93322190Y-137612285D01*
X92798380Y-136707523D02*
X92798380Y-136088476D01*
X93179333Y-136421809D01*
X93179333Y-136278952D01*
X93226952Y-136183714D01*
X93274571Y-136136095D01*
X93369809Y-136088476D01*
X93607904Y-136088476D01*
X93703142Y-136136095D01*
X93750761Y-136183714D01*
X93798380Y-136278952D01*
X93798380Y-136564666D01*
X93750761Y-136659904D01*
X93703142Y-136707523D01*
X93131714Y-135231333D02*
X93798380Y-135231333D01*
X92750761Y-135469428D02*
X93465047Y-135707523D01*
X93465047Y-135088476D01*
%TO.C,R35*%
X110332780Y-136939257D02*
X109856590Y-137272590D01*
X110332780Y-137510685D02*
X109332780Y-137510685D01*
X109332780Y-137129733D01*
X109380400Y-137034495D01*
X109428019Y-136986876D01*
X109523257Y-136939257D01*
X109666114Y-136939257D01*
X109761352Y-136986876D01*
X109808971Y-137034495D01*
X109856590Y-137129733D01*
X109856590Y-137510685D01*
X109332780Y-136605923D02*
X109332780Y-135986876D01*
X109713733Y-136320209D01*
X109713733Y-136177352D01*
X109761352Y-136082114D01*
X109808971Y-136034495D01*
X109904209Y-135986876D01*
X110142304Y-135986876D01*
X110237542Y-136034495D01*
X110285161Y-136082114D01*
X110332780Y-136177352D01*
X110332780Y-136463066D01*
X110285161Y-136558304D01*
X110237542Y-136605923D01*
X109332780Y-135082114D02*
X109332780Y-135558304D01*
X109808971Y-135605923D01*
X109761352Y-135558304D01*
X109713733Y-135463066D01*
X109713733Y-135224971D01*
X109761352Y-135129733D01*
X109808971Y-135082114D01*
X109904209Y-135034495D01*
X110142304Y-135034495D01*
X110237542Y-135082114D01*
X110285161Y-135129733D01*
X110332780Y-135224971D01*
X110332780Y-135463066D01*
X110285161Y-135558304D01*
X110237542Y-135605923D01*
%TO.C,R36*%
X136088380Y-134500857D02*
X135612190Y-134834190D01*
X136088380Y-135072285D02*
X135088380Y-135072285D01*
X135088380Y-134691333D01*
X135136000Y-134596095D01*
X135183619Y-134548476D01*
X135278857Y-134500857D01*
X135421714Y-134500857D01*
X135516952Y-134548476D01*
X135564571Y-134596095D01*
X135612190Y-134691333D01*
X135612190Y-135072285D01*
X135088380Y-134167523D02*
X135088380Y-133548476D01*
X135469333Y-133881809D01*
X135469333Y-133738952D01*
X135516952Y-133643714D01*
X135564571Y-133596095D01*
X135659809Y-133548476D01*
X135897904Y-133548476D01*
X135993142Y-133596095D01*
X136040761Y-133643714D01*
X136088380Y-133738952D01*
X136088380Y-134024666D01*
X136040761Y-134119904D01*
X135993142Y-134167523D01*
X135088380Y-132691333D02*
X135088380Y-132881809D01*
X135136000Y-132977047D01*
X135183619Y-133024666D01*
X135326476Y-133119904D01*
X135516952Y-133167523D01*
X135897904Y-133167523D01*
X135993142Y-133119904D01*
X136040761Y-133072285D01*
X136088380Y-132977047D01*
X136088380Y-132786571D01*
X136040761Y-132691333D01*
X135993142Y-132643714D01*
X135897904Y-132596095D01*
X135659809Y-132596095D01*
X135564571Y-132643714D01*
X135516952Y-132691333D01*
X135469333Y-132786571D01*
X135469333Y-132977047D01*
X135516952Y-133072285D01*
X135564571Y-133119904D01*
X135659809Y-133167523D01*
%TO.C,C37*%
X106148142Y-127896857D02*
X106195761Y-127944476D01*
X106243380Y-128087333D01*
X106243380Y-128182571D01*
X106195761Y-128325428D01*
X106100523Y-128420666D01*
X106005285Y-128468285D01*
X105814809Y-128515904D01*
X105671952Y-128515904D01*
X105481476Y-128468285D01*
X105386238Y-128420666D01*
X105291000Y-128325428D01*
X105243380Y-128182571D01*
X105243380Y-128087333D01*
X105291000Y-127944476D01*
X105338619Y-127896857D01*
X105243380Y-127563523D02*
X105243380Y-126944476D01*
X105624333Y-127277809D01*
X105624333Y-127134952D01*
X105671952Y-127039714D01*
X105719571Y-126992095D01*
X105814809Y-126944476D01*
X106052904Y-126944476D01*
X106148142Y-126992095D01*
X106195761Y-127039714D01*
X106243380Y-127134952D01*
X106243380Y-127420666D01*
X106195761Y-127515904D01*
X106148142Y-127563523D01*
X105243380Y-126611142D02*
X105243380Y-125944476D01*
X106243380Y-126373047D01*
%TO.C,R40*%
X111196380Y-111386857D02*
X110720190Y-111720190D01*
X111196380Y-111958285D02*
X110196380Y-111958285D01*
X110196380Y-111577333D01*
X110244000Y-111482095D01*
X110291619Y-111434476D01*
X110386857Y-111386857D01*
X110529714Y-111386857D01*
X110624952Y-111434476D01*
X110672571Y-111482095D01*
X110720190Y-111577333D01*
X110720190Y-111958285D01*
X110529714Y-110529714D02*
X111196380Y-110529714D01*
X110148761Y-110767809D02*
X110863047Y-111005904D01*
X110863047Y-110386857D01*
X110196380Y-109815428D02*
X110196380Y-109720190D01*
X110244000Y-109624952D01*
X110291619Y-109577333D01*
X110386857Y-109529714D01*
X110577333Y-109482095D01*
X110815428Y-109482095D01*
X111005904Y-109529714D01*
X111101142Y-109577333D01*
X111148761Y-109624952D01*
X111196380Y-109720190D01*
X111196380Y-109815428D01*
X111148761Y-109910666D01*
X111101142Y-109958285D01*
X111005904Y-110005904D01*
X110815428Y-110053523D01*
X110577333Y-110053523D01*
X110386857Y-110005904D01*
X110291619Y-109958285D01*
X110244000Y-109910666D01*
X110196380Y-109815428D01*
%TO.C,R42*%
X114266742Y-110383580D02*
X113933409Y-109907390D01*
X113695314Y-110383580D02*
X113695314Y-109383580D01*
X114076266Y-109383580D01*
X114171504Y-109431200D01*
X114219123Y-109478819D01*
X114266742Y-109574057D01*
X114266742Y-109716914D01*
X114219123Y-109812152D01*
X114171504Y-109859771D01*
X114076266Y-109907390D01*
X113695314Y-109907390D01*
X115123885Y-109716914D02*
X115123885Y-110383580D01*
X114885790Y-109335961D02*
X114647695Y-110050247D01*
X115266742Y-110050247D01*
X115600076Y-109478819D02*
X115647695Y-109431200D01*
X115742933Y-109383580D01*
X115981028Y-109383580D01*
X116076266Y-109431200D01*
X116123885Y-109478819D01*
X116171504Y-109574057D01*
X116171504Y-109669295D01*
X116123885Y-109812152D01*
X115552457Y-110383580D01*
X116171504Y-110383580D01*
%TO.C,R39*%
X111196380Y-115188857D02*
X110720190Y-115522190D01*
X111196380Y-115760285D02*
X110196380Y-115760285D01*
X110196380Y-115379333D01*
X110244000Y-115284095D01*
X110291619Y-115236476D01*
X110386857Y-115188857D01*
X110529714Y-115188857D01*
X110624952Y-115236476D01*
X110672571Y-115284095D01*
X110720190Y-115379333D01*
X110720190Y-115760285D01*
X110196380Y-114855523D02*
X110196380Y-114236476D01*
X110577333Y-114569809D01*
X110577333Y-114426952D01*
X110624952Y-114331714D01*
X110672571Y-114284095D01*
X110767809Y-114236476D01*
X111005904Y-114236476D01*
X111101142Y-114284095D01*
X111148761Y-114331714D01*
X111196380Y-114426952D01*
X111196380Y-114712666D01*
X111148761Y-114807904D01*
X111101142Y-114855523D01*
X111196380Y-113760285D02*
X111196380Y-113569809D01*
X111148761Y-113474571D01*
X111101142Y-113426952D01*
X110958285Y-113331714D01*
X110767809Y-113284095D01*
X110386857Y-113284095D01*
X110291619Y-113331714D01*
X110244000Y-113379333D01*
X110196380Y-113474571D01*
X110196380Y-113665047D01*
X110244000Y-113760285D01*
X110291619Y-113807904D01*
X110386857Y-113855523D01*
X110624952Y-113855523D01*
X110720190Y-113807904D01*
X110767809Y-113760285D01*
X110815428Y-113665047D01*
X110815428Y-113474571D01*
X110767809Y-113379333D01*
X110720190Y-113331714D01*
X110624952Y-113284095D01*
%TO.C,R37*%
X139364980Y-92209857D02*
X138888790Y-92543190D01*
X139364980Y-92781285D02*
X138364980Y-92781285D01*
X138364980Y-92400333D01*
X138412600Y-92305095D01*
X138460219Y-92257476D01*
X138555457Y-92209857D01*
X138698314Y-92209857D01*
X138793552Y-92257476D01*
X138841171Y-92305095D01*
X138888790Y-92400333D01*
X138888790Y-92781285D01*
X138364980Y-91876523D02*
X138364980Y-91257476D01*
X138745933Y-91590809D01*
X138745933Y-91447952D01*
X138793552Y-91352714D01*
X138841171Y-91305095D01*
X138936409Y-91257476D01*
X139174504Y-91257476D01*
X139269742Y-91305095D01*
X139317361Y-91352714D01*
X139364980Y-91447952D01*
X139364980Y-91733666D01*
X139317361Y-91828904D01*
X139269742Y-91876523D01*
X138364980Y-90924142D02*
X138364980Y-90257476D01*
X139364980Y-90686047D01*
%TO.C,R3*%
X123434380Y-122280666D02*
X122958190Y-122614000D01*
X123434380Y-122852095D02*
X122434380Y-122852095D01*
X122434380Y-122471142D01*
X122482000Y-122375904D01*
X122529619Y-122328285D01*
X122624857Y-122280666D01*
X122767714Y-122280666D01*
X122862952Y-122328285D01*
X122910571Y-122375904D01*
X122958190Y-122471142D01*
X122958190Y-122852095D01*
X122434380Y-121947333D02*
X122434380Y-121328285D01*
X122815333Y-121661619D01*
X122815333Y-121518761D01*
X122862952Y-121423523D01*
X122910571Y-121375904D01*
X123005809Y-121328285D01*
X123243904Y-121328285D01*
X123339142Y-121375904D01*
X123386761Y-121423523D01*
X123434380Y-121518761D01*
X123434380Y-121804476D01*
X123386761Y-121899714D01*
X123339142Y-121947333D01*
%TO.C,JP1*%
X112704666Y-120610380D02*
X112704666Y-121324666D01*
X112657047Y-121467523D01*
X112561809Y-121562761D01*
X112418952Y-121610380D01*
X112323714Y-121610380D01*
X113180857Y-121610380D02*
X113180857Y-120610380D01*
X113561809Y-120610380D01*
X113657047Y-120658000D01*
X113704666Y-120705619D01*
X113752285Y-120800857D01*
X113752285Y-120943714D01*
X113704666Y-121038952D01*
X113657047Y-121086571D01*
X113561809Y-121134190D01*
X113180857Y-121134190D01*
X114704666Y-121610380D02*
X114133238Y-121610380D01*
X114418952Y-121610380D02*
X114418952Y-120610380D01*
X114323714Y-120753238D01*
X114228476Y-120848476D01*
X114133238Y-120896095D01*
%TO.C,R20*%
X93798380Y-120276857D02*
X93322190Y-120610190D01*
X93798380Y-120848285D02*
X92798380Y-120848285D01*
X92798380Y-120467333D01*
X92846000Y-120372095D01*
X92893619Y-120324476D01*
X92988857Y-120276857D01*
X93131714Y-120276857D01*
X93226952Y-120324476D01*
X93274571Y-120372095D01*
X93322190Y-120467333D01*
X93322190Y-120848285D01*
X92893619Y-119895904D02*
X92846000Y-119848285D01*
X92798380Y-119753047D01*
X92798380Y-119514952D01*
X92846000Y-119419714D01*
X92893619Y-119372095D01*
X92988857Y-119324476D01*
X93084095Y-119324476D01*
X93226952Y-119372095D01*
X93798380Y-119943523D01*
X93798380Y-119324476D01*
X92798380Y-118705428D02*
X92798380Y-118610190D01*
X92846000Y-118514952D01*
X92893619Y-118467333D01*
X92988857Y-118419714D01*
X93179333Y-118372095D01*
X93417428Y-118372095D01*
X93607904Y-118419714D01*
X93703142Y-118467333D01*
X93750761Y-118514952D01*
X93798380Y-118610190D01*
X93798380Y-118705428D01*
X93750761Y-118800666D01*
X93703142Y-118848285D01*
X93607904Y-118895904D01*
X93417428Y-118943523D01*
X93179333Y-118943523D01*
X92988857Y-118895904D01*
X92893619Y-118848285D01*
X92846000Y-118800666D01*
X92798380Y-118705428D01*
%TO.C,R22*%
X97708980Y-120302257D02*
X97232790Y-120635590D01*
X97708980Y-120873685D02*
X96708980Y-120873685D01*
X96708980Y-120492733D01*
X96756600Y-120397495D01*
X96804219Y-120349876D01*
X96899457Y-120302257D01*
X97042314Y-120302257D01*
X97137552Y-120349876D01*
X97185171Y-120397495D01*
X97232790Y-120492733D01*
X97232790Y-120873685D01*
X96804219Y-119921304D02*
X96756600Y-119873685D01*
X96708980Y-119778447D01*
X96708980Y-119540352D01*
X96756600Y-119445114D01*
X96804219Y-119397495D01*
X96899457Y-119349876D01*
X96994695Y-119349876D01*
X97137552Y-119397495D01*
X97708980Y-119968923D01*
X97708980Y-119349876D01*
X96804219Y-118968923D02*
X96756600Y-118921304D01*
X96708980Y-118826066D01*
X96708980Y-118587971D01*
X96756600Y-118492733D01*
X96804219Y-118445114D01*
X96899457Y-118397495D01*
X96994695Y-118397495D01*
X97137552Y-118445114D01*
X97708980Y-119016542D01*
X97708980Y-118397495D01*
%TO.C,R21*%
X105280720Y-120253997D02*
X104804530Y-120587330D01*
X105280720Y-120825425D02*
X104280720Y-120825425D01*
X104280720Y-120444473D01*
X104328340Y-120349235D01*
X104375959Y-120301616D01*
X104471197Y-120253997D01*
X104614054Y-120253997D01*
X104709292Y-120301616D01*
X104756911Y-120349235D01*
X104804530Y-120444473D01*
X104804530Y-120825425D01*
X104375959Y-119873044D02*
X104328340Y-119825425D01*
X104280720Y-119730187D01*
X104280720Y-119492092D01*
X104328340Y-119396854D01*
X104375959Y-119349235D01*
X104471197Y-119301616D01*
X104566435Y-119301616D01*
X104709292Y-119349235D01*
X105280720Y-119920663D01*
X105280720Y-119301616D01*
X105280720Y-118349235D02*
X105280720Y-118920663D01*
X105280720Y-118634949D02*
X104280720Y-118634949D01*
X104423578Y-118730187D01*
X104518816Y-118825425D01*
X104566435Y-118920663D01*
%TO.C,R19*%
X109165380Y-120276857D02*
X108689190Y-120610190D01*
X109165380Y-120848285D02*
X108165380Y-120848285D01*
X108165380Y-120467333D01*
X108213000Y-120372095D01*
X108260619Y-120324476D01*
X108355857Y-120276857D01*
X108498714Y-120276857D01*
X108593952Y-120324476D01*
X108641571Y-120372095D01*
X108689190Y-120467333D01*
X108689190Y-120848285D01*
X109165380Y-119324476D02*
X109165380Y-119895904D01*
X109165380Y-119610190D02*
X108165380Y-119610190D01*
X108308238Y-119705428D01*
X108403476Y-119800666D01*
X108451095Y-119895904D01*
X109165380Y-118848285D02*
X109165380Y-118657809D01*
X109117761Y-118562571D01*
X109070142Y-118514952D01*
X108927285Y-118419714D01*
X108736809Y-118372095D01*
X108355857Y-118372095D01*
X108260619Y-118419714D01*
X108213000Y-118467333D01*
X108165380Y-118562571D01*
X108165380Y-118753047D01*
X108213000Y-118848285D01*
X108260619Y-118895904D01*
X108355857Y-118943523D01*
X108593952Y-118943523D01*
X108689190Y-118895904D01*
X108736809Y-118848285D01*
X108784428Y-118753047D01*
X108784428Y-118562571D01*
X108736809Y-118467333D01*
X108689190Y-118419714D01*
X108593952Y-118372095D01*
%TO.C,R26*%
X107005380Y-132722857D02*
X106529190Y-133056190D01*
X107005380Y-133294285D02*
X106005380Y-133294285D01*
X106005380Y-132913333D01*
X106053000Y-132818095D01*
X106100619Y-132770476D01*
X106195857Y-132722857D01*
X106338714Y-132722857D01*
X106433952Y-132770476D01*
X106481571Y-132818095D01*
X106529190Y-132913333D01*
X106529190Y-133294285D01*
X106100619Y-132341904D02*
X106053000Y-132294285D01*
X106005380Y-132199047D01*
X106005380Y-131960952D01*
X106053000Y-131865714D01*
X106100619Y-131818095D01*
X106195857Y-131770476D01*
X106291095Y-131770476D01*
X106433952Y-131818095D01*
X107005380Y-132389523D01*
X107005380Y-131770476D01*
X106005380Y-130913333D02*
X106005380Y-131103809D01*
X106053000Y-131199047D01*
X106100619Y-131246666D01*
X106243476Y-131341904D01*
X106433952Y-131389523D01*
X106814904Y-131389523D01*
X106910142Y-131341904D01*
X106957761Y-131294285D01*
X107005380Y-131199047D01*
X107005380Y-131008571D01*
X106957761Y-130913333D01*
X106910142Y-130865714D01*
X106814904Y-130818095D01*
X106576809Y-130818095D01*
X106481571Y-130865714D01*
X106433952Y-130913333D01*
X106386333Y-131008571D01*
X106386333Y-131199047D01*
X106433952Y-131294285D01*
X106481571Y-131341904D01*
X106576809Y-131389523D01*
%TO.C,R25*%
X100401380Y-132697457D02*
X99925190Y-133030790D01*
X100401380Y-133268885D02*
X99401380Y-133268885D01*
X99401380Y-132887933D01*
X99449000Y-132792695D01*
X99496619Y-132745076D01*
X99591857Y-132697457D01*
X99734714Y-132697457D01*
X99829952Y-132745076D01*
X99877571Y-132792695D01*
X99925190Y-132887933D01*
X99925190Y-133268885D01*
X99496619Y-132316504D02*
X99449000Y-132268885D01*
X99401380Y-132173647D01*
X99401380Y-131935552D01*
X99449000Y-131840314D01*
X99496619Y-131792695D01*
X99591857Y-131745076D01*
X99687095Y-131745076D01*
X99829952Y-131792695D01*
X100401380Y-132364123D01*
X100401380Y-131745076D01*
X99401380Y-130840314D02*
X99401380Y-131316504D01*
X99877571Y-131364123D01*
X99829952Y-131316504D01*
X99782333Y-131221266D01*
X99782333Y-130983171D01*
X99829952Y-130887933D01*
X99877571Y-130840314D01*
X99972809Y-130792695D01*
X100210904Y-130792695D01*
X100306142Y-130840314D01*
X100353761Y-130887933D01*
X100401380Y-130983171D01*
X100401380Y-131221266D01*
X100353761Y-131316504D01*
X100306142Y-131364123D01*
%TO.C,R23*%
X93798380Y-132722857D02*
X93322190Y-133056190D01*
X93798380Y-133294285D02*
X92798380Y-133294285D01*
X92798380Y-132913333D01*
X92846000Y-132818095D01*
X92893619Y-132770476D01*
X92988857Y-132722857D01*
X93131714Y-132722857D01*
X93226952Y-132770476D01*
X93274571Y-132818095D01*
X93322190Y-132913333D01*
X93322190Y-133294285D01*
X92893619Y-132341904D02*
X92846000Y-132294285D01*
X92798380Y-132199047D01*
X92798380Y-131960952D01*
X92846000Y-131865714D01*
X92893619Y-131818095D01*
X92988857Y-131770476D01*
X93084095Y-131770476D01*
X93226952Y-131818095D01*
X93798380Y-132389523D01*
X93798380Y-131770476D01*
X92798380Y-131437142D02*
X92798380Y-130818095D01*
X93179333Y-131151428D01*
X93179333Y-131008571D01*
X93226952Y-130913333D01*
X93274571Y-130865714D01*
X93369809Y-130818095D01*
X93607904Y-130818095D01*
X93703142Y-130865714D01*
X93750761Y-130913333D01*
X93798380Y-131008571D01*
X93798380Y-131294285D01*
X93750761Y-131389523D01*
X93703142Y-131437142D01*
%TO.C,R24*%
X97100380Y-132722857D02*
X96624190Y-133056190D01*
X97100380Y-133294285D02*
X96100380Y-133294285D01*
X96100380Y-132913333D01*
X96148000Y-132818095D01*
X96195619Y-132770476D01*
X96290857Y-132722857D01*
X96433714Y-132722857D01*
X96528952Y-132770476D01*
X96576571Y-132818095D01*
X96624190Y-132913333D01*
X96624190Y-133294285D01*
X96195619Y-132341904D02*
X96148000Y-132294285D01*
X96100380Y-132199047D01*
X96100380Y-131960952D01*
X96148000Y-131865714D01*
X96195619Y-131818095D01*
X96290857Y-131770476D01*
X96386095Y-131770476D01*
X96528952Y-131818095D01*
X97100380Y-132389523D01*
X97100380Y-131770476D01*
X96433714Y-130913333D02*
X97100380Y-130913333D01*
X96052761Y-131151428D02*
X96767047Y-131389523D01*
X96767047Y-130770476D01*
%TO.C,C4*%
X110339142Y-132373666D02*
X110386761Y-132421285D01*
X110434380Y-132564142D01*
X110434380Y-132659380D01*
X110386761Y-132802238D01*
X110291523Y-132897476D01*
X110196285Y-132945095D01*
X110005809Y-132992714D01*
X109862952Y-132992714D01*
X109672476Y-132945095D01*
X109577238Y-132897476D01*
X109482000Y-132802238D01*
X109434380Y-132659380D01*
X109434380Y-132564142D01*
X109482000Y-132421285D01*
X109529619Y-132373666D01*
X109767714Y-131516523D02*
X110434380Y-131516523D01*
X109386761Y-131754619D02*
X110101047Y-131992714D01*
X110101047Y-131373666D01*
%TO.C,R41*%
X114317542Y-115996980D02*
X113984209Y-115520790D01*
X113746114Y-115996980D02*
X113746114Y-114996980D01*
X114127066Y-114996980D01*
X114222304Y-115044600D01*
X114269923Y-115092219D01*
X114317542Y-115187457D01*
X114317542Y-115330314D01*
X114269923Y-115425552D01*
X114222304Y-115473171D01*
X114127066Y-115520790D01*
X113746114Y-115520790D01*
X115174685Y-115330314D02*
X115174685Y-115996980D01*
X114936590Y-114949361D02*
X114698495Y-115663647D01*
X115317542Y-115663647D01*
X116222304Y-115996980D02*
X115650876Y-115996980D01*
X115936590Y-115996980D02*
X115936590Y-114996980D01*
X115841352Y-115139838D01*
X115746114Y-115235076D01*
X115650876Y-115282695D01*
%TO.C,R4*%
X120540380Y-122280666D02*
X120064190Y-122614000D01*
X120540380Y-122852095D02*
X119540380Y-122852095D01*
X119540380Y-122471142D01*
X119588000Y-122375904D01*
X119635619Y-122328285D01*
X119730857Y-122280666D01*
X119873714Y-122280666D01*
X119968952Y-122328285D01*
X120016571Y-122375904D01*
X120064190Y-122471142D01*
X120064190Y-122852095D01*
X119873714Y-121423523D02*
X120540380Y-121423523D01*
X119492761Y-121661619D02*
X120207047Y-121899714D01*
X120207047Y-121280666D01*
%TO.C,R31*%
X132834142Y-113863380D02*
X132500809Y-113387190D01*
X132262714Y-113863380D02*
X132262714Y-112863380D01*
X132643666Y-112863380D01*
X132738904Y-112911000D01*
X132786523Y-112958619D01*
X132834142Y-113053857D01*
X132834142Y-113196714D01*
X132786523Y-113291952D01*
X132738904Y-113339571D01*
X132643666Y-113387190D01*
X132262714Y-113387190D01*
X133167476Y-112863380D02*
X133786523Y-112863380D01*
X133453190Y-113244333D01*
X133596047Y-113244333D01*
X133691285Y-113291952D01*
X133738904Y-113339571D01*
X133786523Y-113434809D01*
X133786523Y-113672904D01*
X133738904Y-113768142D01*
X133691285Y-113815761D01*
X133596047Y-113863380D01*
X133310333Y-113863380D01*
X133215095Y-113815761D01*
X133167476Y-113768142D01*
X134738904Y-113863380D02*
X134167476Y-113863380D01*
X134453190Y-113863380D02*
X134453190Y-112863380D01*
X134357952Y-113006238D01*
X134262714Y-113101476D01*
X134167476Y-113149095D01*
%TO.C,C41*%
X111625142Y-127865142D02*
X111577523Y-127912761D01*
X111434666Y-127960380D01*
X111339428Y-127960380D01*
X111196571Y-127912761D01*
X111101333Y-127817523D01*
X111053714Y-127722285D01*
X111006095Y-127531809D01*
X111006095Y-127388952D01*
X111053714Y-127198476D01*
X111101333Y-127103238D01*
X111196571Y-127008000D01*
X111339428Y-126960380D01*
X111434666Y-126960380D01*
X111577523Y-127008000D01*
X111625142Y-127055619D01*
X112482285Y-127293714D02*
X112482285Y-127960380D01*
X112244190Y-126912761D02*
X112006095Y-127627047D01*
X112625142Y-127627047D01*
X113529904Y-127960380D02*
X112958476Y-127960380D01*
X113244190Y-127960380D02*
X113244190Y-126960380D01*
X113148952Y-127103238D01*
X113053714Y-127198476D01*
X112958476Y-127246095D01*
%TO.C,R43*%
X119578380Y-114688857D02*
X119102190Y-115022190D01*
X119578380Y-115260285D02*
X118578380Y-115260285D01*
X118578380Y-114879333D01*
X118626000Y-114784095D01*
X118673619Y-114736476D01*
X118768857Y-114688857D01*
X118911714Y-114688857D01*
X119006952Y-114736476D01*
X119054571Y-114784095D01*
X119102190Y-114879333D01*
X119102190Y-115260285D01*
X118911714Y-113831714D02*
X119578380Y-113831714D01*
X118530761Y-114069809D02*
X119245047Y-114307904D01*
X119245047Y-113688857D01*
X118578380Y-113403142D02*
X118578380Y-112784095D01*
X118959333Y-113117428D01*
X118959333Y-112974571D01*
X119006952Y-112879333D01*
X119054571Y-112831714D01*
X119149809Y-112784095D01*
X119387904Y-112784095D01*
X119483142Y-112831714D01*
X119530761Y-112879333D01*
X119578380Y-112974571D01*
X119578380Y-113260285D01*
X119530761Y-113355523D01*
X119483142Y-113403142D01*
%TO.C,R44*%
X119578380Y-111386857D02*
X119102190Y-111720190D01*
X119578380Y-111958285D02*
X118578380Y-111958285D01*
X118578380Y-111577333D01*
X118626000Y-111482095D01*
X118673619Y-111434476D01*
X118768857Y-111386857D01*
X118911714Y-111386857D01*
X119006952Y-111434476D01*
X119054571Y-111482095D01*
X119102190Y-111577333D01*
X119102190Y-111958285D01*
X118911714Y-110529714D02*
X119578380Y-110529714D01*
X118530761Y-110767809D02*
X119245047Y-111005904D01*
X119245047Y-110386857D01*
X118911714Y-109577333D02*
X119578380Y-109577333D01*
X118530761Y-109815428D02*
X119245047Y-110053523D01*
X119245047Y-109434476D01*
%TO.C,R49*%
X119832380Y-103995457D02*
X119356190Y-104328790D01*
X119832380Y-104566885D02*
X118832380Y-104566885D01*
X118832380Y-104185933D01*
X118880000Y-104090695D01*
X118927619Y-104043076D01*
X119022857Y-103995457D01*
X119165714Y-103995457D01*
X119260952Y-104043076D01*
X119308571Y-104090695D01*
X119356190Y-104185933D01*
X119356190Y-104566885D01*
X119165714Y-103138314D02*
X119832380Y-103138314D01*
X118784761Y-103376409D02*
X119499047Y-103614504D01*
X119499047Y-102995457D01*
X119832380Y-102566885D02*
X119832380Y-102376409D01*
X119784761Y-102281171D01*
X119737142Y-102233552D01*
X119594285Y-102138314D01*
X119403809Y-102090695D01*
X119022857Y-102090695D01*
X118927619Y-102138314D01*
X118880000Y-102185933D01*
X118832380Y-102281171D01*
X118832380Y-102471647D01*
X118880000Y-102566885D01*
X118927619Y-102614504D01*
X119022857Y-102662123D01*
X119260952Y-102662123D01*
X119356190Y-102614504D01*
X119403809Y-102566885D01*
X119451428Y-102471647D01*
X119451428Y-102281171D01*
X119403809Y-102185933D01*
X119356190Y-102138314D01*
X119260952Y-102090695D01*
%TO.C,R50*%
X119578380Y-100947457D02*
X119102190Y-101280790D01*
X119578380Y-101518885D02*
X118578380Y-101518885D01*
X118578380Y-101137933D01*
X118626000Y-101042695D01*
X118673619Y-100995076D01*
X118768857Y-100947457D01*
X118911714Y-100947457D01*
X119006952Y-100995076D01*
X119054571Y-101042695D01*
X119102190Y-101137933D01*
X119102190Y-101518885D01*
X118578380Y-100042695D02*
X118578380Y-100518885D01*
X119054571Y-100566504D01*
X119006952Y-100518885D01*
X118959333Y-100423647D01*
X118959333Y-100185552D01*
X119006952Y-100090314D01*
X119054571Y-100042695D01*
X119149809Y-99995076D01*
X119387904Y-99995076D01*
X119483142Y-100042695D01*
X119530761Y-100090314D01*
X119578380Y-100185552D01*
X119578380Y-100423647D01*
X119530761Y-100518885D01*
X119483142Y-100566504D01*
X118578380Y-99376028D02*
X118578380Y-99280790D01*
X118626000Y-99185552D01*
X118673619Y-99137933D01*
X118768857Y-99090314D01*
X118959333Y-99042695D01*
X119197428Y-99042695D01*
X119387904Y-99090314D01*
X119483142Y-99137933D01*
X119530761Y-99185552D01*
X119578380Y-99280790D01*
X119578380Y-99376028D01*
X119530761Y-99471266D01*
X119483142Y-99518885D01*
X119387904Y-99566504D01*
X119197428Y-99614123D01*
X118959333Y-99614123D01*
X118768857Y-99566504D01*
X118673619Y-99518885D01*
X118626000Y-99471266D01*
X118578380Y-99376028D01*
%TO.C,R55*%
X132707142Y-73858380D02*
X132373809Y-73382190D01*
X132135714Y-73858380D02*
X132135714Y-72858380D01*
X132516666Y-72858380D01*
X132611904Y-72906000D01*
X132659523Y-72953619D01*
X132707142Y-73048857D01*
X132707142Y-73191714D01*
X132659523Y-73286952D01*
X132611904Y-73334571D01*
X132516666Y-73382190D01*
X132135714Y-73382190D01*
X133611904Y-72858380D02*
X133135714Y-72858380D01*
X133088095Y-73334571D01*
X133135714Y-73286952D01*
X133230952Y-73239333D01*
X133469047Y-73239333D01*
X133564285Y-73286952D01*
X133611904Y-73334571D01*
X133659523Y-73429809D01*
X133659523Y-73667904D01*
X133611904Y-73763142D01*
X133564285Y-73810761D01*
X133469047Y-73858380D01*
X133230952Y-73858380D01*
X133135714Y-73810761D01*
X133088095Y-73763142D01*
X134564285Y-72858380D02*
X134088095Y-72858380D01*
X134040476Y-73334571D01*
X134088095Y-73286952D01*
X134183333Y-73239333D01*
X134421428Y-73239333D01*
X134516666Y-73286952D01*
X134564285Y-73334571D01*
X134611904Y-73429809D01*
X134611904Y-73667904D01*
X134564285Y-73763142D01*
X134516666Y-73810761D01*
X134421428Y-73858380D01*
X134183333Y-73858380D01*
X134088095Y-73810761D01*
X134040476Y-73763142D01*
%TO.C,R56*%
X135755142Y-73858380D02*
X135421809Y-73382190D01*
X135183714Y-73858380D02*
X135183714Y-72858380D01*
X135564666Y-72858380D01*
X135659904Y-72906000D01*
X135707523Y-72953619D01*
X135755142Y-73048857D01*
X135755142Y-73191714D01*
X135707523Y-73286952D01*
X135659904Y-73334571D01*
X135564666Y-73382190D01*
X135183714Y-73382190D01*
X136659904Y-72858380D02*
X136183714Y-72858380D01*
X136136095Y-73334571D01*
X136183714Y-73286952D01*
X136278952Y-73239333D01*
X136517047Y-73239333D01*
X136612285Y-73286952D01*
X136659904Y-73334571D01*
X136707523Y-73429809D01*
X136707523Y-73667904D01*
X136659904Y-73763142D01*
X136612285Y-73810761D01*
X136517047Y-73858380D01*
X136278952Y-73858380D01*
X136183714Y-73810761D01*
X136136095Y-73763142D01*
X137564666Y-72858380D02*
X137374190Y-72858380D01*
X137278952Y-72906000D01*
X137231333Y-72953619D01*
X137136095Y-73096476D01*
X137088476Y-73286952D01*
X137088476Y-73667904D01*
X137136095Y-73763142D01*
X137183714Y-73810761D01*
X137278952Y-73858380D01*
X137469428Y-73858380D01*
X137564666Y-73810761D01*
X137612285Y-73763142D01*
X137659904Y-73667904D01*
X137659904Y-73429809D01*
X137612285Y-73334571D01*
X137564666Y-73286952D01*
X137469428Y-73239333D01*
X137278952Y-73239333D01*
X137183714Y-73286952D01*
X137136095Y-73334571D01*
X137088476Y-73429809D01*
%TO.C,R61*%
X141597142Y-73858380D02*
X141263809Y-73382190D01*
X141025714Y-73858380D02*
X141025714Y-72858380D01*
X141406666Y-72858380D01*
X141501904Y-72906000D01*
X141549523Y-72953619D01*
X141597142Y-73048857D01*
X141597142Y-73191714D01*
X141549523Y-73286952D01*
X141501904Y-73334571D01*
X141406666Y-73382190D01*
X141025714Y-73382190D01*
X142454285Y-72858380D02*
X142263809Y-72858380D01*
X142168571Y-72906000D01*
X142120952Y-72953619D01*
X142025714Y-73096476D01*
X141978095Y-73286952D01*
X141978095Y-73667904D01*
X142025714Y-73763142D01*
X142073333Y-73810761D01*
X142168571Y-73858380D01*
X142359047Y-73858380D01*
X142454285Y-73810761D01*
X142501904Y-73763142D01*
X142549523Y-73667904D01*
X142549523Y-73429809D01*
X142501904Y-73334571D01*
X142454285Y-73286952D01*
X142359047Y-73239333D01*
X142168571Y-73239333D01*
X142073333Y-73286952D01*
X142025714Y-73334571D01*
X141978095Y-73429809D01*
X143501904Y-73858380D02*
X142930476Y-73858380D01*
X143216190Y-73858380D02*
X143216190Y-72858380D01*
X143120952Y-73001238D01*
X143025714Y-73096476D01*
X142930476Y-73144095D01*
%TO.C,R62*%
X144645142Y-73858380D02*
X144311809Y-73382190D01*
X144073714Y-73858380D02*
X144073714Y-72858380D01*
X144454666Y-72858380D01*
X144549904Y-72906000D01*
X144597523Y-72953619D01*
X144645142Y-73048857D01*
X144645142Y-73191714D01*
X144597523Y-73286952D01*
X144549904Y-73334571D01*
X144454666Y-73382190D01*
X144073714Y-73382190D01*
X145502285Y-72858380D02*
X145311809Y-72858380D01*
X145216571Y-72906000D01*
X145168952Y-72953619D01*
X145073714Y-73096476D01*
X145026095Y-73286952D01*
X145026095Y-73667904D01*
X145073714Y-73763142D01*
X145121333Y-73810761D01*
X145216571Y-73858380D01*
X145407047Y-73858380D01*
X145502285Y-73810761D01*
X145549904Y-73763142D01*
X145597523Y-73667904D01*
X145597523Y-73429809D01*
X145549904Y-73334571D01*
X145502285Y-73286952D01*
X145407047Y-73239333D01*
X145216571Y-73239333D01*
X145121333Y-73286952D01*
X145073714Y-73334571D01*
X145026095Y-73429809D01*
X145978476Y-72953619D02*
X146026095Y-72906000D01*
X146121333Y-72858380D01*
X146359428Y-72858380D01*
X146454666Y-72906000D01*
X146502285Y-72953619D01*
X146549904Y-73048857D01*
X146549904Y-73144095D01*
X146502285Y-73286952D01*
X145930857Y-73858380D01*
X146549904Y-73858380D01*
%TO.C,R67*%
X150233142Y-73858380D02*
X149899809Y-73382190D01*
X149661714Y-73858380D02*
X149661714Y-72858380D01*
X150042666Y-72858380D01*
X150137904Y-72906000D01*
X150185523Y-72953619D01*
X150233142Y-73048857D01*
X150233142Y-73191714D01*
X150185523Y-73286952D01*
X150137904Y-73334571D01*
X150042666Y-73382190D01*
X149661714Y-73382190D01*
X151090285Y-72858380D02*
X150899809Y-72858380D01*
X150804571Y-72906000D01*
X150756952Y-72953619D01*
X150661714Y-73096476D01*
X150614095Y-73286952D01*
X150614095Y-73667904D01*
X150661714Y-73763142D01*
X150709333Y-73810761D01*
X150804571Y-73858380D01*
X150995047Y-73858380D01*
X151090285Y-73810761D01*
X151137904Y-73763142D01*
X151185523Y-73667904D01*
X151185523Y-73429809D01*
X151137904Y-73334571D01*
X151090285Y-73286952D01*
X150995047Y-73239333D01*
X150804571Y-73239333D01*
X150709333Y-73286952D01*
X150661714Y-73334571D01*
X150614095Y-73429809D01*
X151518857Y-72858380D02*
X152185523Y-72858380D01*
X151756952Y-73858380D01*
%TO.C,R68*%
X153789142Y-73858380D02*
X153455809Y-73382190D01*
X153217714Y-73858380D02*
X153217714Y-72858380D01*
X153598666Y-72858380D01*
X153693904Y-72906000D01*
X153741523Y-72953619D01*
X153789142Y-73048857D01*
X153789142Y-73191714D01*
X153741523Y-73286952D01*
X153693904Y-73334571D01*
X153598666Y-73382190D01*
X153217714Y-73382190D01*
X154646285Y-72858380D02*
X154455809Y-72858380D01*
X154360571Y-72906000D01*
X154312952Y-72953619D01*
X154217714Y-73096476D01*
X154170095Y-73286952D01*
X154170095Y-73667904D01*
X154217714Y-73763142D01*
X154265333Y-73810761D01*
X154360571Y-73858380D01*
X154551047Y-73858380D01*
X154646285Y-73810761D01*
X154693904Y-73763142D01*
X154741523Y-73667904D01*
X154741523Y-73429809D01*
X154693904Y-73334571D01*
X154646285Y-73286952D01*
X154551047Y-73239333D01*
X154360571Y-73239333D01*
X154265333Y-73286952D01*
X154217714Y-73334571D01*
X154170095Y-73429809D01*
X155312952Y-73286952D02*
X155217714Y-73239333D01*
X155170095Y-73191714D01*
X155122476Y-73096476D01*
X155122476Y-73048857D01*
X155170095Y-72953619D01*
X155217714Y-72906000D01*
X155312952Y-72858380D01*
X155503428Y-72858380D01*
X155598666Y-72906000D01*
X155646285Y-72953619D01*
X155693904Y-73048857D01*
X155693904Y-73096476D01*
X155646285Y-73191714D01*
X155598666Y-73239333D01*
X155503428Y-73286952D01*
X155312952Y-73286952D01*
X155217714Y-73334571D01*
X155170095Y-73382190D01*
X155122476Y-73477428D01*
X155122476Y-73667904D01*
X155170095Y-73763142D01*
X155217714Y-73810761D01*
X155312952Y-73858380D01*
X155503428Y-73858380D01*
X155598666Y-73810761D01*
X155646285Y-73763142D01*
X155693904Y-73667904D01*
X155693904Y-73477428D01*
X155646285Y-73382190D01*
X155598666Y-73334571D01*
X155503428Y-73286952D01*
%TO.C,C17*%
X124824342Y-69495942D02*
X124776723Y-69543561D01*
X124633866Y-69591180D01*
X124538628Y-69591180D01*
X124395771Y-69543561D01*
X124300533Y-69448323D01*
X124252914Y-69353085D01*
X124205295Y-69162609D01*
X124205295Y-69019752D01*
X124252914Y-68829276D01*
X124300533Y-68734038D01*
X124395771Y-68638800D01*
X124538628Y-68591180D01*
X124633866Y-68591180D01*
X124776723Y-68638800D01*
X124824342Y-68686419D01*
X125776723Y-69591180D02*
X125205295Y-69591180D01*
X125491009Y-69591180D02*
X125491009Y-68591180D01*
X125395771Y-68734038D01*
X125300533Y-68829276D01*
X125205295Y-68876895D01*
X126110057Y-68591180D02*
X126776723Y-68591180D01*
X126348152Y-69591180D01*
%TO.C,C15*%
X115223142Y-65508142D02*
X115175523Y-65555761D01*
X115032666Y-65603380D01*
X114937428Y-65603380D01*
X114794571Y-65555761D01*
X114699333Y-65460523D01*
X114651714Y-65365285D01*
X114604095Y-65174809D01*
X114604095Y-65031952D01*
X114651714Y-64841476D01*
X114699333Y-64746238D01*
X114794571Y-64651000D01*
X114937428Y-64603380D01*
X115032666Y-64603380D01*
X115175523Y-64651000D01*
X115223142Y-64698619D01*
X116175523Y-65603380D02*
X115604095Y-65603380D01*
X115889809Y-65603380D02*
X115889809Y-64603380D01*
X115794571Y-64746238D01*
X115699333Y-64841476D01*
X115604095Y-64889095D01*
X117080285Y-64603380D02*
X116604095Y-64603380D01*
X116556476Y-65079571D01*
X116604095Y-65031952D01*
X116699333Y-64984333D01*
X116937428Y-64984333D01*
X117032666Y-65031952D01*
X117080285Y-65079571D01*
X117127904Y-65174809D01*
X117127904Y-65412904D01*
X117080285Y-65508142D01*
X117032666Y-65555761D01*
X116937428Y-65603380D01*
X116699333Y-65603380D01*
X116604095Y-65555761D01*
X116556476Y-65508142D01*
%TO.C,C16*%
X114927142Y-68429142D02*
X114879523Y-68476761D01*
X114736666Y-68524380D01*
X114641428Y-68524380D01*
X114498571Y-68476761D01*
X114403333Y-68381523D01*
X114355714Y-68286285D01*
X114308095Y-68095809D01*
X114308095Y-67952952D01*
X114355714Y-67762476D01*
X114403333Y-67667238D01*
X114498571Y-67572000D01*
X114641428Y-67524380D01*
X114736666Y-67524380D01*
X114879523Y-67572000D01*
X114927142Y-67619619D01*
X115879523Y-68524380D02*
X115308095Y-68524380D01*
X115593809Y-68524380D02*
X115593809Y-67524380D01*
X115498571Y-67667238D01*
X115403333Y-67762476D01*
X115308095Y-67810095D01*
X116736666Y-67524380D02*
X116546190Y-67524380D01*
X116450952Y-67572000D01*
X116403333Y-67619619D01*
X116308095Y-67762476D01*
X116260476Y-67952952D01*
X116260476Y-68333904D01*
X116308095Y-68429142D01*
X116355714Y-68476761D01*
X116450952Y-68524380D01*
X116641428Y-68524380D01*
X116736666Y-68476761D01*
X116784285Y-68429142D01*
X116831904Y-68333904D01*
X116831904Y-68095809D01*
X116784285Y-68000571D01*
X116736666Y-67952952D01*
X116641428Y-67905333D01*
X116450952Y-67905333D01*
X116355714Y-67952952D01*
X116308095Y-68000571D01*
X116260476Y-68095809D01*
%TO.C,R2*%
X112406133Y-74442580D02*
X112072800Y-73966390D01*
X111834704Y-74442580D02*
X111834704Y-73442580D01*
X112215657Y-73442580D01*
X112310895Y-73490200D01*
X112358514Y-73537819D01*
X112406133Y-73633057D01*
X112406133Y-73775914D01*
X112358514Y-73871152D01*
X112310895Y-73918771D01*
X112215657Y-73966390D01*
X111834704Y-73966390D01*
X112787085Y-73537819D02*
X112834704Y-73490200D01*
X112929942Y-73442580D01*
X113168038Y-73442580D01*
X113263276Y-73490200D01*
X113310895Y-73537819D01*
X113358514Y-73633057D01*
X113358514Y-73728295D01*
X113310895Y-73871152D01*
X112739466Y-74442580D01*
X113358514Y-74442580D01*
%TO.C,R74*%
X119578380Y-90558857D02*
X119102190Y-90892190D01*
X119578380Y-91130285D02*
X118578380Y-91130285D01*
X118578380Y-90749333D01*
X118626000Y-90654095D01*
X118673619Y-90606476D01*
X118768857Y-90558857D01*
X118911714Y-90558857D01*
X119006952Y-90606476D01*
X119054571Y-90654095D01*
X119102190Y-90749333D01*
X119102190Y-91130285D01*
X118578380Y-90225523D02*
X118578380Y-89558857D01*
X119578380Y-89987428D01*
X118911714Y-88749333D02*
X119578380Y-88749333D01*
X118530761Y-88987428D02*
X119245047Y-89225523D01*
X119245047Y-88606476D01*
%TO.C,R73*%
X119578380Y-93860857D02*
X119102190Y-94194190D01*
X119578380Y-94432285D02*
X118578380Y-94432285D01*
X118578380Y-94051333D01*
X118626000Y-93956095D01*
X118673619Y-93908476D01*
X118768857Y-93860857D01*
X118911714Y-93860857D01*
X119006952Y-93908476D01*
X119054571Y-93956095D01*
X119102190Y-94051333D01*
X119102190Y-94432285D01*
X118578380Y-93527523D02*
X118578380Y-92860857D01*
X119578380Y-93289428D01*
X118578380Y-92575142D02*
X118578380Y-91956095D01*
X118959333Y-92289428D01*
X118959333Y-92146571D01*
X119006952Y-92051333D01*
X119054571Y-92003714D01*
X119149809Y-91956095D01*
X119387904Y-91956095D01*
X119483142Y-92003714D01*
X119530761Y-92051333D01*
X119578380Y-92146571D01*
X119578380Y-92432285D01*
X119530761Y-92527523D01*
X119483142Y-92575142D01*
%TO.C,R70*%
X111450380Y-90558857D02*
X110974190Y-90892190D01*
X111450380Y-91130285D02*
X110450380Y-91130285D01*
X110450380Y-90749333D01*
X110498000Y-90654095D01*
X110545619Y-90606476D01*
X110640857Y-90558857D01*
X110783714Y-90558857D01*
X110878952Y-90606476D01*
X110926571Y-90654095D01*
X110974190Y-90749333D01*
X110974190Y-91130285D01*
X110450380Y-90225523D02*
X110450380Y-89558857D01*
X111450380Y-89987428D01*
X110450380Y-88987428D02*
X110450380Y-88892190D01*
X110498000Y-88796952D01*
X110545619Y-88749333D01*
X110640857Y-88701714D01*
X110831333Y-88654095D01*
X111069428Y-88654095D01*
X111259904Y-88701714D01*
X111355142Y-88749333D01*
X111402761Y-88796952D01*
X111450380Y-88892190D01*
X111450380Y-88987428D01*
X111402761Y-89082666D01*
X111355142Y-89130285D01*
X111259904Y-89177904D01*
X111069428Y-89225523D01*
X110831333Y-89225523D01*
X110640857Y-89177904D01*
X110545619Y-89130285D01*
X110498000Y-89082666D01*
X110450380Y-88987428D01*
%TO.C,R69*%
X111704380Y-94114857D02*
X111228190Y-94448190D01*
X111704380Y-94686285D02*
X110704380Y-94686285D01*
X110704380Y-94305333D01*
X110752000Y-94210095D01*
X110799619Y-94162476D01*
X110894857Y-94114857D01*
X111037714Y-94114857D01*
X111132952Y-94162476D01*
X111180571Y-94210095D01*
X111228190Y-94305333D01*
X111228190Y-94686285D01*
X110704380Y-93257714D02*
X110704380Y-93448190D01*
X110752000Y-93543428D01*
X110799619Y-93591047D01*
X110942476Y-93686285D01*
X111132952Y-93733904D01*
X111513904Y-93733904D01*
X111609142Y-93686285D01*
X111656761Y-93638666D01*
X111704380Y-93543428D01*
X111704380Y-93352952D01*
X111656761Y-93257714D01*
X111609142Y-93210095D01*
X111513904Y-93162476D01*
X111275809Y-93162476D01*
X111180571Y-93210095D01*
X111132952Y-93257714D01*
X111085333Y-93352952D01*
X111085333Y-93543428D01*
X111132952Y-93638666D01*
X111180571Y-93686285D01*
X111275809Y-93733904D01*
X111704380Y-92686285D02*
X111704380Y-92495809D01*
X111656761Y-92400571D01*
X111609142Y-92352952D01*
X111466285Y-92257714D01*
X111275809Y-92210095D01*
X110894857Y-92210095D01*
X110799619Y-92257714D01*
X110752000Y-92305333D01*
X110704380Y-92400571D01*
X110704380Y-92591047D01*
X110752000Y-92686285D01*
X110799619Y-92733904D01*
X110894857Y-92781523D01*
X111132952Y-92781523D01*
X111228190Y-92733904D01*
X111275809Y-92686285D01*
X111323428Y-92591047D01*
X111323428Y-92400571D01*
X111275809Y-92305333D01*
X111228190Y-92257714D01*
X111132952Y-92210095D01*
%TO.C,R72*%
X114444542Y-89758780D02*
X114111209Y-89282590D01*
X113873114Y-89758780D02*
X113873114Y-88758780D01*
X114254066Y-88758780D01*
X114349304Y-88806400D01*
X114396923Y-88854019D01*
X114444542Y-88949257D01*
X114444542Y-89092114D01*
X114396923Y-89187352D01*
X114349304Y-89234971D01*
X114254066Y-89282590D01*
X113873114Y-89282590D01*
X114777876Y-88758780D02*
X115444542Y-88758780D01*
X115015971Y-89758780D01*
X115777876Y-88854019D02*
X115825495Y-88806400D01*
X115920733Y-88758780D01*
X116158828Y-88758780D01*
X116254066Y-88806400D01*
X116301685Y-88854019D01*
X116349304Y-88949257D01*
X116349304Y-89044495D01*
X116301685Y-89187352D01*
X115730257Y-89758780D01*
X116349304Y-89758780D01*
%TO.C,R71*%
X114419142Y-94612380D02*
X114085809Y-94136190D01*
X113847714Y-94612380D02*
X113847714Y-93612380D01*
X114228666Y-93612380D01*
X114323904Y-93660000D01*
X114371523Y-93707619D01*
X114419142Y-93802857D01*
X114419142Y-93945714D01*
X114371523Y-94040952D01*
X114323904Y-94088571D01*
X114228666Y-94136190D01*
X113847714Y-94136190D01*
X114752476Y-93612380D02*
X115419142Y-93612380D01*
X114990571Y-94612380D01*
X116323904Y-94612380D02*
X115752476Y-94612380D01*
X116038190Y-94612380D02*
X116038190Y-93612380D01*
X115942952Y-93755238D01*
X115847714Y-93850476D01*
X115752476Y-93898095D01*
%TO.C,R16*%
X127906542Y-49982380D02*
X127573209Y-49506190D01*
X127335114Y-49982380D02*
X127335114Y-48982380D01*
X127716066Y-48982380D01*
X127811304Y-49030000D01*
X127858923Y-49077619D01*
X127906542Y-49172857D01*
X127906542Y-49315714D01*
X127858923Y-49410952D01*
X127811304Y-49458571D01*
X127716066Y-49506190D01*
X127335114Y-49506190D01*
X128858923Y-49982380D02*
X128287495Y-49982380D01*
X128573209Y-49982380D02*
X128573209Y-48982380D01*
X128477971Y-49125238D01*
X128382733Y-49220476D01*
X128287495Y-49268095D01*
X129716066Y-48982380D02*
X129525590Y-48982380D01*
X129430352Y-49030000D01*
X129382733Y-49077619D01*
X129287495Y-49220476D01*
X129239876Y-49410952D01*
X129239876Y-49791904D01*
X129287495Y-49887142D01*
X129335114Y-49934761D01*
X129430352Y-49982380D01*
X129620828Y-49982380D01*
X129716066Y-49934761D01*
X129763685Y-49887142D01*
X129811304Y-49791904D01*
X129811304Y-49553809D01*
X129763685Y-49458571D01*
X129716066Y-49410952D01*
X129620828Y-49363333D01*
X129430352Y-49363333D01*
X129335114Y-49410952D01*
X129287495Y-49458571D01*
X129239876Y-49553809D01*
%TO.C,C14*%
X122293142Y-65889142D02*
X122245523Y-65936761D01*
X122102666Y-65984380D01*
X122007428Y-65984380D01*
X121864571Y-65936761D01*
X121769333Y-65841523D01*
X121721714Y-65746285D01*
X121674095Y-65555809D01*
X121674095Y-65412952D01*
X121721714Y-65222476D01*
X121769333Y-65127238D01*
X121864571Y-65032000D01*
X122007428Y-64984380D01*
X122102666Y-64984380D01*
X122245523Y-65032000D01*
X122293142Y-65079619D01*
X123245523Y-65984380D02*
X122674095Y-65984380D01*
X122959809Y-65984380D02*
X122959809Y-64984380D01*
X122864571Y-65127238D01*
X122769333Y-65222476D01*
X122674095Y-65270095D01*
X124102666Y-65317714D02*
X124102666Y-65984380D01*
X123864571Y-64936761D02*
X123626476Y-65651047D01*
X124245523Y-65651047D01*
%TO.C,R12*%
X124786380Y-137040857D02*
X124310190Y-137374190D01*
X124786380Y-137612285D02*
X123786380Y-137612285D01*
X123786380Y-137231333D01*
X123834000Y-137136095D01*
X123881619Y-137088476D01*
X123976857Y-137040857D01*
X124119714Y-137040857D01*
X124214952Y-137088476D01*
X124262571Y-137136095D01*
X124310190Y-137231333D01*
X124310190Y-137612285D01*
X124786380Y-136088476D02*
X124786380Y-136659904D01*
X124786380Y-136374190D02*
X123786380Y-136374190D01*
X123929238Y-136469428D01*
X124024476Y-136564666D01*
X124072095Y-136659904D01*
X123881619Y-135707523D02*
X123834000Y-135659904D01*
X123786380Y-135564666D01*
X123786380Y-135326571D01*
X123834000Y-135231333D01*
X123881619Y-135183714D01*
X123976857Y-135136095D01*
X124072095Y-135136095D01*
X124214952Y-135183714D01*
X124786380Y-135755142D01*
X124786380Y-135136095D01*
%TO.C,R15*%
X121483380Y-137421857D02*
X121007190Y-137755190D01*
X121483380Y-137993285D02*
X120483380Y-137993285D01*
X120483380Y-137612333D01*
X120531000Y-137517095D01*
X120578619Y-137469476D01*
X120673857Y-137421857D01*
X120816714Y-137421857D01*
X120911952Y-137469476D01*
X120959571Y-137517095D01*
X121007190Y-137612333D01*
X121007190Y-137993285D01*
X121483380Y-136469476D02*
X121483380Y-137040904D01*
X121483380Y-136755190D02*
X120483380Y-136755190D01*
X120626238Y-136850428D01*
X120721476Y-136945666D01*
X120769095Y-137040904D01*
X120483380Y-135564714D02*
X120483380Y-136040904D01*
X120959571Y-136088523D01*
X120911952Y-136040904D01*
X120864333Y-135945666D01*
X120864333Y-135707571D01*
X120911952Y-135612333D01*
X120959571Y-135564714D01*
X121054809Y-135517095D01*
X121292904Y-135517095D01*
X121388142Y-135564714D01*
X121435761Y-135612333D01*
X121483380Y-135707571D01*
X121483380Y-135945666D01*
X121435761Y-136040904D01*
X121388142Y-136088523D01*
%TO.C,R13*%
X126182380Y-133230857D02*
X125706190Y-133564190D01*
X126182380Y-133802285D02*
X125182380Y-133802285D01*
X125182380Y-133421333D01*
X125230000Y-133326095D01*
X125277619Y-133278476D01*
X125372857Y-133230857D01*
X125515714Y-133230857D01*
X125610952Y-133278476D01*
X125658571Y-133326095D01*
X125706190Y-133421333D01*
X125706190Y-133802285D01*
X126182380Y-132278476D02*
X126182380Y-132849904D01*
X126182380Y-132564190D02*
X125182380Y-132564190D01*
X125325238Y-132659428D01*
X125420476Y-132754666D01*
X125468095Y-132849904D01*
X125182380Y-131945142D02*
X125182380Y-131326095D01*
X125563333Y-131659428D01*
X125563333Y-131516571D01*
X125610952Y-131421333D01*
X125658571Y-131373714D01*
X125753809Y-131326095D01*
X125991904Y-131326095D01*
X126087142Y-131373714D01*
X126134761Y-131421333D01*
X126182380Y-131516571D01*
X126182380Y-131802285D01*
X126134761Y-131897523D01*
X126087142Y-131945142D01*
%TO.C,JP2*%
X111180666Y-55796380D02*
X111180666Y-56510666D01*
X111133047Y-56653523D01*
X111037809Y-56748761D01*
X110894952Y-56796380D01*
X110799714Y-56796380D01*
X111656857Y-56796380D02*
X111656857Y-55796380D01*
X112037809Y-55796380D01*
X112133047Y-55844000D01*
X112180666Y-55891619D01*
X112228285Y-55986857D01*
X112228285Y-56129714D01*
X112180666Y-56224952D01*
X112133047Y-56272571D01*
X112037809Y-56320190D01*
X111656857Y-56320190D01*
X112609238Y-55891619D02*
X112656857Y-55844000D01*
X112752095Y-55796380D01*
X112990190Y-55796380D01*
X113085428Y-55844000D01*
X113133047Y-55891619D01*
X113180666Y-55986857D01*
X113180666Y-56082095D01*
X113133047Y-56224952D01*
X112561619Y-56796380D01*
X113180666Y-56796380D01*
%TO.C,JP3*%
X127690666Y-64686380D02*
X127690666Y-65400666D01*
X127643047Y-65543523D01*
X127547809Y-65638761D01*
X127404952Y-65686380D01*
X127309714Y-65686380D01*
X128166857Y-65686380D02*
X128166857Y-64686380D01*
X128547809Y-64686380D01*
X128643047Y-64734000D01*
X128690666Y-64781619D01*
X128738285Y-64876857D01*
X128738285Y-65019714D01*
X128690666Y-65114952D01*
X128643047Y-65162571D01*
X128547809Y-65210190D01*
X128166857Y-65210190D01*
X129071619Y-64686380D02*
X129690666Y-64686380D01*
X129357333Y-65067333D01*
X129500190Y-65067333D01*
X129595428Y-65114952D01*
X129643047Y-65162571D01*
X129690666Y-65257809D01*
X129690666Y-65495904D01*
X129643047Y-65591142D01*
X129595428Y-65638761D01*
X129500190Y-65686380D01*
X129214476Y-65686380D01*
X129119238Y-65638761D01*
X129071619Y-65591142D01*
%TO.C,C38*%
X93067142Y-126626857D02*
X93114761Y-126674476D01*
X93162380Y-126817333D01*
X93162380Y-126912571D01*
X93114761Y-127055428D01*
X93019523Y-127150666D01*
X92924285Y-127198285D01*
X92733809Y-127245904D01*
X92590952Y-127245904D01*
X92400476Y-127198285D01*
X92305238Y-127150666D01*
X92210000Y-127055428D01*
X92162380Y-126912571D01*
X92162380Y-126817333D01*
X92210000Y-126674476D01*
X92257619Y-126626857D01*
X92162380Y-126293523D02*
X92162380Y-125674476D01*
X92543333Y-126007809D01*
X92543333Y-125864952D01*
X92590952Y-125769714D01*
X92638571Y-125722095D01*
X92733809Y-125674476D01*
X92971904Y-125674476D01*
X93067142Y-125722095D01*
X93114761Y-125769714D01*
X93162380Y-125864952D01*
X93162380Y-126150666D01*
X93114761Y-126245904D01*
X93067142Y-126293523D01*
X92590952Y-125103047D02*
X92543333Y-125198285D01*
X92495714Y-125245904D01*
X92400476Y-125293523D01*
X92352857Y-125293523D01*
X92257619Y-125245904D01*
X92210000Y-125198285D01*
X92162380Y-125103047D01*
X92162380Y-124912571D01*
X92210000Y-124817333D01*
X92257619Y-124769714D01*
X92352857Y-124722095D01*
X92400476Y-124722095D01*
X92495714Y-124769714D01*
X92543333Y-124817333D01*
X92590952Y-124912571D01*
X92590952Y-125103047D01*
X92638571Y-125198285D01*
X92686190Y-125245904D01*
X92781428Y-125293523D01*
X92971904Y-125293523D01*
X93067142Y-125245904D01*
X93114761Y-125198285D01*
X93162380Y-125103047D01*
X93162380Y-124912571D01*
X93114761Y-124817333D01*
X93067142Y-124769714D01*
X92971904Y-124722095D01*
X92781428Y-124722095D01*
X92686190Y-124769714D01*
X92638571Y-124817333D01*
X92590952Y-124912571D01*
%TO.C,R28*%
X135960380Y-88018857D02*
X135484190Y-88352190D01*
X135960380Y-88590285D02*
X134960380Y-88590285D01*
X134960380Y-88209333D01*
X135008000Y-88114095D01*
X135055619Y-88066476D01*
X135150857Y-88018857D01*
X135293714Y-88018857D01*
X135388952Y-88066476D01*
X135436571Y-88114095D01*
X135484190Y-88209333D01*
X135484190Y-88590285D01*
X135055619Y-87637904D02*
X135008000Y-87590285D01*
X134960380Y-87495047D01*
X134960380Y-87256952D01*
X135008000Y-87161714D01*
X135055619Y-87114095D01*
X135150857Y-87066476D01*
X135246095Y-87066476D01*
X135388952Y-87114095D01*
X135960380Y-87685523D01*
X135960380Y-87066476D01*
X135388952Y-86495047D02*
X135341333Y-86590285D01*
X135293714Y-86637904D01*
X135198476Y-86685523D01*
X135150857Y-86685523D01*
X135055619Y-86637904D01*
X135008000Y-86590285D01*
X134960380Y-86495047D01*
X134960380Y-86304571D01*
X135008000Y-86209333D01*
X135055619Y-86161714D01*
X135150857Y-86114095D01*
X135198476Y-86114095D01*
X135293714Y-86161714D01*
X135341333Y-86209333D01*
X135388952Y-86304571D01*
X135388952Y-86495047D01*
X135436571Y-86590285D01*
X135484190Y-86637904D01*
X135579428Y-86685523D01*
X135769904Y-86685523D01*
X135865142Y-86637904D01*
X135912761Y-86590285D01*
X135960380Y-86495047D01*
X135960380Y-86304571D01*
X135912761Y-86209333D01*
X135865142Y-86161714D01*
X135769904Y-86114095D01*
X135579428Y-86114095D01*
X135484190Y-86161714D01*
X135436571Y-86209333D01*
X135388952Y-86304571D01*
%TO.C,TP1*%
X140665295Y-111673200D02*
X140570057Y-111625580D01*
X140427200Y-111625580D01*
X140284342Y-111673200D01*
X140189104Y-111768438D01*
X140141485Y-111863676D01*
X140093866Y-112054152D01*
X140093866Y-112197009D01*
X140141485Y-112387485D01*
X140189104Y-112482723D01*
X140284342Y-112577961D01*
X140427200Y-112625580D01*
X140522438Y-112625580D01*
X140665295Y-112577961D01*
X140712914Y-112530342D01*
X140712914Y-112197009D01*
X140522438Y-112197009D01*
X141141485Y-112625580D02*
X141141485Y-111625580D01*
X141712914Y-112625580D01*
X141712914Y-111625580D01*
X142189104Y-112625580D02*
X142189104Y-111625580D01*
X142427200Y-111625580D01*
X142570057Y-111673200D01*
X142665295Y-111768438D01*
X142712914Y-111863676D01*
X142760533Y-112054152D01*
X142760533Y-112197009D01*
X142712914Y-112387485D01*
X142665295Y-112482723D01*
X142570057Y-112577961D01*
X142427200Y-112625580D01*
X142189104Y-112625580D01*
%TO.C,J3*%
X148002666Y-49573380D02*
X148002666Y-50287666D01*
X147955047Y-50430523D01*
X147859809Y-50525761D01*
X147716952Y-50573380D01*
X147621714Y-50573380D01*
X148383619Y-49573380D02*
X149002666Y-49573380D01*
X148669333Y-49954333D01*
X148812190Y-49954333D01*
X148907428Y-50001952D01*
X148955047Y-50049571D01*
X149002666Y-50144809D01*
X149002666Y-50382904D01*
X148955047Y-50478142D01*
X148907428Y-50525761D01*
X148812190Y-50573380D01*
X148526476Y-50573380D01*
X148431238Y-50525761D01*
X148383619Y-50478142D01*
%TO.C,TP2*%
X106553095Y-109387200D02*
X106457857Y-109339580D01*
X106315000Y-109339580D01*
X106172142Y-109387200D01*
X106076904Y-109482438D01*
X106029285Y-109577676D01*
X105981666Y-109768152D01*
X105981666Y-109911009D01*
X106029285Y-110101485D01*
X106076904Y-110196723D01*
X106172142Y-110291961D01*
X106315000Y-110339580D01*
X106410238Y-110339580D01*
X106553095Y-110291961D01*
X106600714Y-110244342D01*
X106600714Y-109911009D01*
X106410238Y-109911009D01*
X107029285Y-110339580D02*
X107029285Y-109339580D01*
X107600714Y-110339580D01*
X107600714Y-109339580D01*
X108076904Y-110339580D02*
X108076904Y-109339580D01*
X108315000Y-109339580D01*
X108457857Y-109387200D01*
X108553095Y-109482438D01*
X108600714Y-109577676D01*
X108648333Y-109768152D01*
X108648333Y-109911009D01*
X108600714Y-110101485D01*
X108553095Y-110196723D01*
X108457857Y-110291961D01*
X108315000Y-110339580D01*
X108076904Y-110339580D01*
D13*
%TO.C,U3*%
X132744500Y-120222000D02*
X134219500Y-120222000D01*
X132744500Y-120122000D02*
X134219500Y-120122000D01*
X132744500Y-119522000D02*
X134219500Y-119522000D01*
X132682000Y-131472000D02*
X132682000Y-118972000D01*
X132744500Y-119322000D02*
X134219500Y-119322000D01*
X132744500Y-120422000D02*
X134219500Y-120422000D01*
X132744500Y-120322000D02*
X134219500Y-120322000D01*
X132744500Y-120022000D02*
X134219500Y-120022000D01*
X130857000Y-118972000D02*
X132332000Y-118972000D01*
X132744500Y-119122000D02*
X134219500Y-119122000D01*
X138082000Y-131472000D02*
X132682000Y-131472000D01*
X132744500Y-119722000D02*
X134219500Y-119722000D01*
X132744500Y-119622000D02*
X134219500Y-119622000D01*
X132682000Y-118972000D02*
X138082000Y-118972000D01*
X132744500Y-119922000D02*
X134219500Y-119922000D01*
X134219500Y-120359500D02*
X134219500Y-119122000D01*
X138082000Y-118972000D02*
X138082000Y-131472000D01*
%TO.C,D2*%
X120034000Y-135323000D02*
X120034000Y-136998000D01*
X119634000Y-137798000D02*
X119634000Y-138398000D01*
X119334000Y-138098000D02*
X119934000Y-138098000D01*
X119234000Y-135798000D02*
X119234000Y-136998000D01*
%TO.C,D1*%
X114192000Y-131005000D02*
X114192000Y-132680000D01*
X113492000Y-133780000D02*
X114092000Y-133780000D01*
X113392000Y-131480000D02*
X113392000Y-132680000D01*
X113792000Y-133480000D02*
X113792000Y-134080000D01*
D14*
%TO.C,U6*%
X141503400Y-86445600D02*
X142054000Y-86445600D01*
X141778700Y-86445600D02*
X141778700Y-87503000D01*
X141503400Y-86445600D02*
X141503400Y-87503000D01*
X151104600Y-84201000D02*
X151104600Y-83388200D01*
X141704000Y-86445600D02*
X141704000Y-87503000D01*
X151104600Y-83388200D02*
X150774400Y-83388200D01*
X141503400Y-87503000D02*
X142054000Y-87503000D01*
X150774400Y-87503000D02*
X151104600Y-87503000D01*
X141604000Y-86445600D02*
X141604000Y-87503000D01*
X141503400Y-83388200D02*
X141503400Y-84201000D01*
X141833600Y-83388200D02*
X141503400Y-83388200D01*
X151104600Y-87503000D02*
X151104600Y-86690200D01*
X142054000Y-86445600D02*
X142054000Y-87503000D01*
X141904000Y-86445600D02*
X141904000Y-87503000D01*
D15*
%TO.C,R54*%
X135210000Y-69842000D02*
X135210000Y-68842000D01*
X136570000Y-68842000D02*
X136570000Y-69842000D01*
%TO.C,R52*%
X135898000Y-66122000D02*
X136898000Y-66122000D01*
X136898000Y-67482000D02*
X135898000Y-67482000D01*
%TO.C,R48*%
X115435000Y-101492600D02*
X114435000Y-101492600D01*
X114435000Y-100132600D02*
X115435000Y-100132600D01*
%TO.C,R51*%
X132850000Y-66122000D02*
X133850000Y-66122000D01*
X133850000Y-67482000D02*
X132850000Y-67482000D01*
%TO.C,R53*%
X133178000Y-69842000D02*
X133178000Y-68842000D01*
X134538000Y-68842000D02*
X134538000Y-69842000D01*
%TO.C,R47*%
X114435000Y-102164600D02*
X115435000Y-102164600D01*
X115435000Y-103524600D02*
X114435000Y-103524600D01*
%TO.C,R45*%
X111715000Y-103852600D02*
X111715000Y-102852600D01*
X113075000Y-102852600D02*
X113075000Y-103852600D01*
%TO.C,R46*%
X111715000Y-100804600D02*
X111715000Y-99804600D01*
X113075000Y-99804600D02*
X113075000Y-100804600D01*
%TO.C,R1*%
X138040000Y-86776000D02*
X138040000Y-87976000D01*
X136280000Y-87976000D02*
X136280000Y-86776000D01*
%TO.C,R38*%
X153044000Y-81118000D02*
X153044000Y-79918000D01*
X154804000Y-79918000D02*
X154804000Y-81118000D01*
%TO.C,R63*%
X151630000Y-67482000D02*
X150630000Y-67482000D01*
X150630000Y-66122000D02*
X151630000Y-66122000D01*
%TO.C,R64*%
X154678000Y-67482000D02*
X153678000Y-67482000D01*
X153678000Y-66122000D02*
X154678000Y-66122000D01*
%TO.C,R65*%
X150958000Y-69842000D02*
X150958000Y-68842000D01*
X152318000Y-68842000D02*
X152318000Y-69842000D01*
%TO.C,R66*%
X154350000Y-68842000D02*
X154350000Y-69842000D01*
X152990000Y-69842000D02*
X152990000Y-68842000D01*
%TO.C,R5*%
X116214000Y-125314000D02*
X116214000Y-124114000D01*
X117974000Y-124114000D02*
X117974000Y-125314000D01*
%TO.C,R7*%
X120768000Y-128940000D02*
X120768000Y-130140000D01*
X119008000Y-130140000D02*
X119008000Y-128940000D01*
%TO.C,R14*%
X134484000Y-133258000D02*
X134484000Y-134458000D01*
X132724000Y-134458000D02*
X132724000Y-133258000D01*
%TO.C,R18*%
X138268000Y-37456000D02*
X137068000Y-37456000D01*
X137068000Y-35696000D02*
X138268000Y-35696000D01*
%TO.C,R9*%
X123562000Y-128940000D02*
X123562000Y-130140000D01*
X121802000Y-130140000D02*
X121802000Y-128940000D01*
%TO.C,R6*%
X116214000Y-130140000D02*
X116214000Y-128940000D01*
X117974000Y-128940000D02*
X117974000Y-130140000D01*
%TO.C,R11*%
X126610000Y-124114000D02*
X126610000Y-125314000D01*
X124850000Y-125314000D02*
X124850000Y-124114000D01*
%TO.C,R8*%
X115452000Y-136998000D02*
X115452000Y-135798000D01*
X117212000Y-135798000D02*
X117212000Y-136998000D01*
%TO.C,C27*%
X131834000Y-77558000D02*
X132834000Y-77558000D01*
X132834000Y-75858000D02*
X131834000Y-75858000D01*
%TO.C,R17*%
X127136000Y-80356000D02*
X127136000Y-79156000D01*
X128896000Y-79156000D02*
X128896000Y-80356000D01*
%TO.C,R27*%
X134738000Y-90840000D02*
X134738000Y-92040000D01*
X132978000Y-92040000D02*
X132978000Y-90840000D01*
%TO.C,R58*%
X145788000Y-67482000D02*
X144788000Y-67482000D01*
X144788000Y-66122000D02*
X145788000Y-66122000D01*
%TO.C,R57*%
X141740000Y-66122000D02*
X142740000Y-66122000D01*
X142740000Y-67482000D02*
X141740000Y-67482000D01*
%TO.C,R60*%
X144100000Y-69842000D02*
X144100000Y-68842000D01*
X145460000Y-68842000D02*
X145460000Y-69842000D01*
%TO.C,R59*%
X142068000Y-69842000D02*
X142068000Y-68842000D01*
X143428000Y-68842000D02*
X143428000Y-69842000D01*
D14*
%TO.C,U5*%
X136677400Y-105130600D02*
X136677400Y-104580000D01*
X135620000Y-105130600D02*
X136677400Y-105130600D01*
X135620000Y-105030000D02*
X136677400Y-105030000D01*
X135620000Y-105130600D02*
X135620000Y-104580000D01*
X132562600Y-104800400D02*
X132562600Y-105130600D01*
X135620000Y-104580000D02*
X136677400Y-104580000D01*
X135620000Y-104855300D02*
X136677400Y-104855300D01*
X133375400Y-95529400D02*
X132562600Y-95529400D01*
X132562600Y-95529400D02*
X132562600Y-95859600D01*
X135620000Y-104930000D02*
X136677400Y-104930000D01*
X136677400Y-95859600D02*
X136677400Y-95529400D01*
X132562600Y-105130600D02*
X133375400Y-105130600D01*
X135620000Y-104730000D02*
X136677400Y-104730000D01*
X136677400Y-95529400D02*
X135864600Y-95529400D01*
D15*
%TO.C,C19*%
X137884000Y-106422000D02*
X137884000Y-105922000D01*
X136944000Y-105922000D02*
X136944000Y-106422000D01*
%TO.C,R75*%
X136280000Y-92040000D02*
X136280000Y-90840000D01*
X138040000Y-90840000D02*
X138040000Y-92040000D01*
%TO.C,R29*%
X105782000Y-135798000D02*
X105782000Y-136998000D01*
X104022000Y-136998000D02*
X104022000Y-135798000D01*
%TO.C,R30*%
X109084000Y-135798000D02*
X109084000Y-136998000D01*
X107324000Y-136998000D02*
X107324000Y-135798000D01*
%TO.C,R32*%
X99178000Y-135798000D02*
X99178000Y-136998000D01*
X97418000Y-136998000D02*
X97418000Y-135798000D01*
%TO.C,R33*%
X100720000Y-136998000D02*
X100720000Y-135798000D01*
X102480000Y-135798000D02*
X102480000Y-136998000D01*
%TO.C,R34*%
X95876000Y-135798000D02*
X95876000Y-136998000D01*
X94116000Y-136998000D02*
X94116000Y-135798000D01*
%TO.C,R35*%
X112386000Y-135798000D02*
X112386000Y-136998000D01*
X110626000Y-136998000D02*
X110626000Y-135798000D01*
%TO.C,R36*%
X136280000Y-134458000D02*
X136280000Y-133258000D01*
X138040000Y-133258000D02*
X138040000Y-134458000D01*
%TO.C,C37*%
X107404000Y-127758000D02*
X107404000Y-127258000D01*
X106464000Y-127258000D02*
X106464000Y-127758000D01*
%TO.C,R40*%
X113075000Y-110498000D02*
X113075000Y-111498000D01*
X111715000Y-111498000D02*
X111715000Y-110498000D01*
%TO.C,R42*%
X114435000Y-110826000D02*
X115435000Y-110826000D01*
X115435000Y-112186000D02*
X114435000Y-112186000D01*
%TO.C,R39*%
X111715000Y-114546000D02*
X111715000Y-113546000D01*
X113075000Y-113546000D02*
X113075000Y-114546000D01*
%TO.C,R37*%
X139836000Y-92040000D02*
X139836000Y-90840000D01*
X141596000Y-90840000D02*
X141596000Y-92040000D01*
%TO.C,R3*%
X123562000Y-124114000D02*
X123562000Y-125314000D01*
X121802000Y-125314000D02*
X121802000Y-124114000D01*
%TO.C,JP1*%
X114360000Y-122368000D02*
X114360000Y-123698000D01*
X113030000Y-122368000D02*
X114360000Y-122368000D01*
X111760000Y-125028000D02*
X106620000Y-125028000D01*
X111760000Y-122368000D02*
X106620000Y-122368000D01*
X106620000Y-122368000D02*
X106620000Y-125028000D01*
X111760000Y-122368000D02*
X111760000Y-125028000D01*
%TO.C,R20*%
X95876000Y-119034000D02*
X95876000Y-120234000D01*
X94116000Y-120234000D02*
X94116000Y-119034000D01*
%TO.C,R22*%
X99813000Y-119034000D02*
X99813000Y-120234000D01*
X98053000Y-120234000D02*
X98053000Y-119034000D01*
%TO.C,R21*%
X107306000Y-119034000D02*
X107306000Y-120234000D01*
X105546000Y-120234000D02*
X105546000Y-119034000D01*
%TO.C,R19*%
X111243000Y-119034000D02*
X111243000Y-120234000D01*
X109483000Y-120234000D02*
X109483000Y-119034000D01*
%TO.C,R26*%
X109084000Y-131480000D02*
X109084000Y-132680000D01*
X107324000Y-132680000D02*
X107324000Y-131480000D01*
%TO.C,R25*%
X100720000Y-132680000D02*
X100720000Y-131480000D01*
X102480000Y-131480000D02*
X102480000Y-132680000D01*
%TO.C,R23*%
X95876000Y-131480000D02*
X95876000Y-132680000D01*
X94116000Y-132680000D02*
X94116000Y-131480000D01*
%TO.C,R24*%
X97418000Y-132680000D02*
X97418000Y-131480000D01*
X99178000Y-131480000D02*
X99178000Y-132680000D01*
%TO.C,C4*%
X110656000Y-131580000D02*
X110656000Y-132580000D01*
X112356000Y-132580000D02*
X112356000Y-131580000D01*
%TO.C,R41*%
X115435000Y-114218000D02*
X114435000Y-114218000D01*
X114435000Y-112858000D02*
X115435000Y-112858000D01*
%TO.C,R4*%
X120768000Y-124114000D02*
X120768000Y-125314000D01*
X119008000Y-125314000D02*
X119008000Y-124114000D01*
%TO.C,R31*%
X134712000Y-115942000D02*
X133512000Y-115942000D01*
X133512000Y-114182000D02*
X134712000Y-114182000D01*
%TO.C,C41*%
X112018000Y-129248000D02*
X112518000Y-129248000D01*
X112518000Y-128308000D02*
X112018000Y-128308000D01*
%TO.C,R43*%
X118155000Y-113546000D02*
X118155000Y-114546000D01*
X116795000Y-114546000D02*
X116795000Y-113546000D01*
%TO.C,R44*%
X116795000Y-111498000D02*
X116795000Y-110498000D01*
X118155000Y-110498000D02*
X118155000Y-111498000D01*
%TO.C,R49*%
X118155000Y-102852600D02*
X118155000Y-103852600D01*
X116795000Y-103852600D02*
X116795000Y-102852600D01*
%TO.C,R50*%
X118155000Y-99804600D02*
X118155000Y-100804600D01*
X116795000Y-100804600D02*
X116795000Y-99804600D01*
%TO.C,R55*%
X132850000Y-71202000D02*
X133850000Y-71202000D01*
X133850000Y-72562000D02*
X132850000Y-72562000D01*
%TO.C,R56*%
X135898000Y-71202000D02*
X136898000Y-71202000D01*
X136898000Y-72562000D02*
X135898000Y-72562000D01*
%TO.C,R61*%
X141740000Y-71202000D02*
X142740000Y-71202000D01*
X142740000Y-72562000D02*
X141740000Y-72562000D01*
%TO.C,R62*%
X145788000Y-72562000D02*
X144788000Y-72562000D01*
X144788000Y-71202000D02*
X145788000Y-71202000D01*
%TO.C,R67*%
X151630000Y-72562000D02*
X150630000Y-72562000D01*
X150630000Y-71202000D02*
X151630000Y-71202000D01*
%TO.C,R68*%
X153678000Y-71202000D02*
X154678000Y-71202000D01*
X154678000Y-72562000D02*
X153678000Y-72562000D01*
%TO.C,C17*%
X123186000Y-68364000D02*
X122686000Y-68364000D01*
X122686000Y-69304000D02*
X123186000Y-69304000D01*
%TO.C,C15*%
X116116000Y-65824000D02*
X115616000Y-65824000D01*
X115616000Y-66764000D02*
X116116000Y-66764000D01*
%TO.C,C16*%
X116074000Y-68872000D02*
X115574000Y-68872000D01*
X115574000Y-69812000D02*
X116074000Y-69812000D01*
%TO.C,R2*%
X113249000Y-76953000D02*
X112049000Y-76953000D01*
X112049000Y-75193000D02*
X113249000Y-75193000D01*
%TO.C,R74*%
X118282000Y-89670000D02*
X118282000Y-90670000D01*
X116922000Y-90670000D02*
X116922000Y-89670000D01*
%TO.C,R73*%
X116922000Y-93718000D02*
X116922000Y-92718000D01*
X118282000Y-92718000D02*
X118282000Y-93718000D01*
%TO.C,R70*%
X113202000Y-89670000D02*
X113202000Y-90670000D01*
X111842000Y-90670000D02*
X111842000Y-89670000D01*
%TO.C,R69*%
X111842000Y-93718000D02*
X111842000Y-92718000D01*
X113202000Y-92718000D02*
X113202000Y-93718000D01*
%TO.C,R72*%
X114562000Y-89998000D02*
X115562000Y-89998000D01*
X115562000Y-91358000D02*
X114562000Y-91358000D01*
%TO.C,R71*%
X115562000Y-93390000D02*
X114562000Y-93390000D01*
X114562000Y-92030000D02*
X115562000Y-92030000D01*
%TO.C,R16*%
X129124000Y-51934000D02*
X127924000Y-51934000D01*
X127924000Y-50174000D02*
X129124000Y-50174000D01*
%TO.C,C14*%
X123186000Y-66332000D02*
X122686000Y-66332000D01*
X122686000Y-67272000D02*
X123186000Y-67272000D01*
%TO.C,R12*%
X125104000Y-136998000D02*
X125104000Y-135798000D01*
X126864000Y-135798000D02*
X126864000Y-136998000D01*
%TO.C,R15*%
X121802000Y-136998000D02*
X121802000Y-135798000D01*
X123562000Y-135798000D02*
X123562000Y-136998000D01*
%TO.C,R13*%
X126610000Y-128940000D02*
X126610000Y-130140000D01*
X124850000Y-130140000D02*
X124850000Y-128940000D01*
%TO.C,JP2*%
X113344000Y-59944000D02*
X113344000Y-62544000D01*
X110684000Y-59944000D02*
X110684000Y-62544000D01*
X110684000Y-62544000D02*
X113344000Y-62544000D01*
X110684000Y-59944000D02*
X113344000Y-59944000D01*
X110684000Y-57344000D02*
X112014000Y-57344000D01*
X110684000Y-58674000D02*
X110684000Y-57344000D01*
%TO.C,JP3*%
X127194000Y-67564000D02*
X127194000Y-66234000D01*
X127194000Y-68834000D02*
X129854000Y-68834000D01*
X127194000Y-68834000D02*
X127194000Y-71434000D01*
X129854000Y-68834000D02*
X129854000Y-71434000D01*
X127194000Y-66234000D02*
X128524000Y-66234000D01*
X127194000Y-71434000D02*
X129854000Y-71434000D01*
%TO.C,C38*%
X92240000Y-128274000D02*
X92240000Y-128774000D01*
X93180000Y-128774000D02*
X93180000Y-128274000D01*
%TO.C,R28*%
X134738000Y-86776000D02*
X134738000Y-87976000D01*
X132978000Y-87976000D02*
X132978000Y-86776000D01*
D12*
%TO.C,TP1*%
X143177200Y-109423200D02*
G75*
G03*
X143177200Y-109423200I-1750000J0D01*
G01*
D15*
%TO.C,J3*%
X145736000Y-53721000D02*
X148336000Y-53721000D01*
X150936000Y-51121000D02*
X150936000Y-61401000D01*
X145736000Y-51121000D02*
X147066000Y-51121000D01*
X148336000Y-53721000D02*
X148336000Y-51121000D01*
X145736000Y-53721000D02*
X145736000Y-61401000D01*
X148336000Y-51121000D02*
X150936000Y-51121000D01*
X145736000Y-61401000D02*
X150936000Y-61401000D01*
X145736000Y-52451000D02*
X145736000Y-51121000D01*
D12*
%TO.C,TP2*%
X109065000Y-107137200D02*
G75*
G03*
X109065000Y-107137200I-1750000J0D01*
G01*
%TD*%
%LPC*%
D16*
%TO.C,U3*%
X131594000Y-119472000D03*
X131594000Y-119972000D03*
X131594000Y-120472000D03*
X131594000Y-120972000D03*
X131594000Y-121472000D03*
X131594000Y-121972000D03*
X131594000Y-122472000D03*
X131594000Y-122972000D03*
X131594000Y-123472000D03*
X131594000Y-123972000D03*
X131594000Y-124472000D03*
X131594000Y-124972000D03*
X131594000Y-125472000D03*
X131594000Y-125972000D03*
X131594000Y-126472000D03*
X131594000Y-126972000D03*
X131594000Y-127472000D03*
X131594000Y-127972000D03*
X131594000Y-128472000D03*
X131594000Y-128972000D03*
X131594000Y-129472000D03*
X131594000Y-129972000D03*
X131594000Y-130472000D03*
X131594000Y-130972000D03*
X139170000Y-130972000D03*
X139170000Y-130472000D03*
X139170000Y-129972000D03*
X139170000Y-129472000D03*
X139170000Y-128972000D03*
X139170000Y-128472000D03*
X139170000Y-127972000D03*
X139170000Y-127472000D03*
X139170000Y-126972000D03*
X139170000Y-126472000D03*
X139170000Y-125972000D03*
X139170000Y-125472000D03*
X139170000Y-124972000D03*
X139170000Y-124472000D03*
X139170000Y-123972000D03*
X139170000Y-123472000D03*
X139170000Y-122972000D03*
X139170000Y-122472000D03*
X139170000Y-121972000D03*
X139170000Y-121472000D03*
X139170000Y-120972000D03*
X139170000Y-120472000D03*
X139170000Y-119972000D03*
X139170000Y-119472000D03*
%TD*%
D17*
%TO.C,D2*%
X119634000Y-135698000D03*
X119634000Y-137098000D03*
%TD*%
%TO.C,D1*%
X113792000Y-131380000D03*
X113792000Y-132780000D03*
%TD*%
D18*
%TO.C,U6*%
X142306040Y-87170260D03*
X142806420Y-87170260D03*
X143304260Y-87170260D03*
X143804640Y-87170260D03*
X144305020Y-87170260D03*
X144805400Y-87170260D03*
X145305780Y-87170260D03*
X145806160Y-87170260D03*
X146304000Y-87170260D03*
X146801840Y-87170260D03*
X147302220Y-87170260D03*
X147802600Y-87170260D03*
X148302980Y-87170260D03*
X148803360Y-87170260D03*
X149303740Y-87170260D03*
X149801580Y-87170260D03*
X150301960Y-87170260D03*
D19*
X150776940Y-86194900D03*
X150776940Y-85694520D03*
X150776940Y-85196680D03*
X150776940Y-84696300D03*
D18*
X150301960Y-83720940D03*
X149801580Y-83720940D03*
X149303740Y-83720940D03*
X148803360Y-83720940D03*
X148302980Y-83720940D03*
X147802600Y-83720940D03*
X147302220Y-83720940D03*
X146801840Y-83720940D03*
X146304000Y-83720940D03*
X145806160Y-83720940D03*
X145305780Y-83720940D03*
X144805400Y-83720940D03*
X144305020Y-83720940D03*
X143804640Y-83720940D03*
X143304260Y-83720940D03*
X142806420Y-83720940D03*
X142306040Y-83720940D03*
D19*
X141831060Y-84696300D03*
X141831060Y-85196680D03*
X141831060Y-85694520D03*
X141831060Y-86194900D03*
D20*
X146304000Y-85445600D03*
%TD*%
D21*
%TO.C,R54*%
X135890000Y-70092000D03*
X135890000Y-68592000D03*
%TD*%
D22*
%TO.C,R52*%
X135648000Y-66802000D03*
X137148000Y-66802000D03*
%TD*%
%TO.C,R48*%
X115685000Y-100812600D03*
X114185000Y-100812600D03*
%TD*%
%TO.C,R51*%
X132600000Y-66802000D03*
X134100000Y-66802000D03*
%TD*%
D21*
%TO.C,R53*%
X133858000Y-70092000D03*
X133858000Y-68592000D03*
%TD*%
D22*
%TO.C,R47*%
X115685000Y-102844600D03*
X114185000Y-102844600D03*
%TD*%
D21*
%TO.C,R45*%
X112395000Y-104102600D03*
X112395000Y-102602600D03*
%TD*%
%TO.C,R46*%
X112395000Y-101054600D03*
X112395000Y-99554600D03*
%TD*%
D23*
%TO.C,R1*%
X137160000Y-86426000D03*
X137160000Y-88326000D03*
%TD*%
%TO.C,R38*%
X153924000Y-81468000D03*
X153924000Y-79568000D03*
%TD*%
D22*
%TO.C,R63*%
X150380000Y-66802000D03*
X151880000Y-66802000D03*
%TD*%
%TO.C,R64*%
X153428000Y-66802000D03*
X154928000Y-66802000D03*
%TD*%
D21*
%TO.C,R65*%
X151638000Y-70092000D03*
X151638000Y-68592000D03*
%TD*%
%TO.C,R66*%
X153670000Y-70092000D03*
X153670000Y-68592000D03*
%TD*%
D23*
%TO.C,R5*%
X117094000Y-123764000D03*
X117094000Y-125664000D03*
%TD*%
%TO.C,R7*%
X119888000Y-128590000D03*
X119888000Y-130490000D03*
%TD*%
%TO.C,R14*%
X133604000Y-134808000D03*
X133604000Y-132908000D03*
%TD*%
D24*
%TO.C,R18*%
X136718000Y-36576000D03*
X138618000Y-36576000D03*
%TD*%
D23*
%TO.C,R9*%
X122682000Y-130490000D03*
X122682000Y-128590000D03*
%TD*%
%TO.C,R6*%
X117094000Y-128590000D03*
X117094000Y-130490000D03*
%TD*%
%TO.C,R11*%
X125730000Y-123764000D03*
X125730000Y-125664000D03*
%TD*%
%TO.C,R8*%
X116332000Y-137348000D03*
X116332000Y-135448000D03*
%TD*%
D25*
%TO.C,C27*%
X133334000Y-76708000D03*
X131334000Y-76708000D03*
%TD*%
D23*
%TO.C,R17*%
X128016000Y-78806000D03*
X128016000Y-80706000D03*
%TD*%
%TO.C,R27*%
X133858000Y-92390000D03*
X133858000Y-90490000D03*
%TD*%
D22*
%TO.C,R58*%
X144538000Y-66802000D03*
X146038000Y-66802000D03*
%TD*%
%TO.C,R57*%
X141490000Y-66802000D03*
X142990000Y-66802000D03*
%TD*%
D21*
%TO.C,R60*%
X144780000Y-70092000D03*
X144780000Y-68592000D03*
%TD*%
%TO.C,R59*%
X142748000Y-70092000D03*
X142748000Y-68592000D03*
%TD*%
D19*
%TO.C,U5*%
X136344660Y-104327960D03*
X136344660Y-103827580D03*
X136344660Y-103329740D03*
X136344660Y-102829360D03*
X136344660Y-102328980D03*
X136344660Y-101828600D03*
X136344660Y-101328220D03*
X136344660Y-100827840D03*
X136344660Y-100330000D03*
X136344660Y-99832160D03*
X136344660Y-99331780D03*
X136344660Y-98831400D03*
X136344660Y-98331020D03*
X136344660Y-97830640D03*
X136344660Y-97330260D03*
X136344660Y-96832420D03*
X136344660Y-96332040D03*
D18*
X135369300Y-95857060D03*
X134868920Y-95857060D03*
X134371080Y-95857060D03*
X133870700Y-95857060D03*
D19*
X132895340Y-96332040D03*
X132895340Y-96832420D03*
X132895340Y-97330260D03*
X132895340Y-97830640D03*
X132895340Y-98331020D03*
X132895340Y-98831400D03*
X132895340Y-99331780D03*
X132895340Y-99832160D03*
X132895340Y-100330000D03*
X132895340Y-100827840D03*
X132895340Y-101328220D03*
X132895340Y-101828600D03*
X132895340Y-102328980D03*
X132895340Y-102829360D03*
X132895340Y-103329740D03*
X132895340Y-103827580D03*
X132895340Y-104327960D03*
D18*
X133870700Y-104802940D03*
X134371080Y-104802940D03*
X134868920Y-104802940D03*
X135369300Y-104802940D03*
D26*
X134620000Y-100330000D03*
%TD*%
D27*
%TO.C,C19*%
X137414000Y-106722000D03*
X137414000Y-105622000D03*
%TD*%
D23*
%TO.C,R75*%
X137160000Y-92390000D03*
X137160000Y-90490000D03*
%TD*%
%TO.C,R29*%
X104902000Y-137348000D03*
X104902000Y-135448000D03*
%TD*%
%TO.C,R30*%
X108204000Y-135448000D03*
X108204000Y-137348000D03*
%TD*%
%TO.C,R32*%
X98298000Y-137348000D03*
X98298000Y-135448000D03*
%TD*%
%TO.C,R33*%
X101600000Y-137348000D03*
X101600000Y-135448000D03*
%TD*%
%TO.C,R34*%
X94996000Y-137348000D03*
X94996000Y-135448000D03*
%TD*%
%TO.C,R35*%
X111506000Y-135448000D03*
X111506000Y-137348000D03*
%TD*%
%TO.C,R36*%
X137160000Y-132908000D03*
X137160000Y-134808000D03*
%TD*%
D27*
%TO.C,C37*%
X106934000Y-126958000D03*
X106934000Y-128058000D03*
%TD*%
D21*
%TO.C,R40*%
X112395000Y-111748000D03*
X112395000Y-110248000D03*
%TD*%
D22*
%TO.C,R42*%
X115685000Y-111506000D03*
X114185000Y-111506000D03*
%TD*%
D21*
%TO.C,R39*%
X112395000Y-114796000D03*
X112395000Y-113296000D03*
%TD*%
D23*
%TO.C,R37*%
X140716000Y-92390000D03*
X140716000Y-90490000D03*
%TD*%
%TO.C,R3*%
X122682000Y-123764000D03*
X122682000Y-125664000D03*
%TD*%
D28*
%TO.C,JP1*%
X113030000Y-123698000D03*
D29*
X110490000Y-123698000D03*
X107950000Y-123698000D03*
%TD*%
D23*
%TO.C,R20*%
X94996000Y-120584000D03*
X94996000Y-118684000D03*
%TD*%
%TO.C,R22*%
X98933000Y-118684000D03*
X98933000Y-120584000D03*
%TD*%
%TO.C,R21*%
X106426000Y-118684000D03*
X106426000Y-120584000D03*
%TD*%
%TO.C,R19*%
X110363000Y-120584000D03*
X110363000Y-118684000D03*
%TD*%
%TO.C,R26*%
X108204000Y-131130000D03*
X108204000Y-133030000D03*
%TD*%
%TO.C,R25*%
X101600000Y-131130000D03*
X101600000Y-133030000D03*
%TD*%
%TO.C,R23*%
X94996000Y-133030000D03*
X94996000Y-131130000D03*
%TD*%
%TO.C,R24*%
X98298000Y-133030000D03*
X98298000Y-131130000D03*
%TD*%
D30*
%TO.C,C4*%
X111506000Y-133080000D03*
X111506000Y-131080000D03*
%TD*%
D22*
%TO.C,R41*%
X115685000Y-113538000D03*
X114185000Y-113538000D03*
%TD*%
D23*
%TO.C,R4*%
X119888000Y-123764000D03*
X119888000Y-125664000D03*
%TD*%
D24*
%TO.C,R31*%
X133162000Y-115062000D03*
X135062000Y-115062000D03*
%TD*%
D31*
%TO.C,C41*%
X111718000Y-128778000D03*
X112818000Y-128778000D03*
%TD*%
D21*
%TO.C,R43*%
X117475000Y-114796000D03*
X117475000Y-113296000D03*
%TD*%
%TO.C,R44*%
X117475000Y-111748000D03*
X117475000Y-110248000D03*
%TD*%
%TO.C,R49*%
X117475000Y-104102600D03*
X117475000Y-102602600D03*
%TD*%
%TO.C,R50*%
X117475000Y-101054600D03*
X117475000Y-99554600D03*
%TD*%
D22*
%TO.C,R55*%
X132600000Y-71882000D03*
X134100000Y-71882000D03*
%TD*%
%TO.C,R56*%
X135648000Y-71882000D03*
X137148000Y-71882000D03*
%TD*%
%TO.C,R61*%
X141490000Y-71882000D03*
X142990000Y-71882000D03*
%TD*%
%TO.C,R62*%
X144538000Y-71882000D03*
X146038000Y-71882000D03*
%TD*%
%TO.C,R67*%
X150380000Y-71882000D03*
X151880000Y-71882000D03*
%TD*%
%TO.C,R68*%
X153428000Y-71882000D03*
X154928000Y-71882000D03*
%TD*%
D31*
%TO.C,C17*%
X122386000Y-68834000D03*
X123486000Y-68834000D03*
%TD*%
%TO.C,C15*%
X116416000Y-66294000D03*
X115316000Y-66294000D03*
%TD*%
%TO.C,C16*%
X116374000Y-69342000D03*
X115274000Y-69342000D03*
%TD*%
D24*
%TO.C,R2*%
X113599000Y-76073000D03*
X111699000Y-76073000D03*
%TD*%
D21*
%TO.C,R74*%
X117602000Y-90920000D03*
X117602000Y-89420000D03*
%TD*%
%TO.C,R73*%
X117602000Y-93968000D03*
X117602000Y-92468000D03*
%TD*%
%TO.C,R70*%
X112522000Y-90920000D03*
X112522000Y-89420000D03*
%TD*%
%TO.C,R69*%
X112522000Y-93968000D03*
X112522000Y-92468000D03*
%TD*%
D22*
%TO.C,R72*%
X115812000Y-90678000D03*
X114312000Y-90678000D03*
%TD*%
%TO.C,R71*%
X115812000Y-92710000D03*
X114312000Y-92710000D03*
%TD*%
D24*
%TO.C,R16*%
X127574000Y-51054000D03*
X129474000Y-51054000D03*
%TD*%
D31*
%TO.C,C14*%
X122386000Y-66802000D03*
X123486000Y-66802000D03*
%TD*%
D23*
%TO.C,R12*%
X125984000Y-137348000D03*
X125984000Y-135448000D03*
%TD*%
%TO.C,R15*%
X122682000Y-137348000D03*
X122682000Y-135448000D03*
%TD*%
%TO.C,R13*%
X125730000Y-128590000D03*
X125730000Y-130490000D03*
%TD*%
D28*
%TO.C,JP2*%
X112014000Y-58674000D03*
D29*
X112014000Y-61214000D03*
%TD*%
D28*
%TO.C,JP3*%
X128524000Y-67564000D03*
D29*
X128524000Y-70104000D03*
%TD*%
D27*
%TO.C,C38*%
X92710000Y-127974000D03*
X92710000Y-129074000D03*
%TD*%
D23*
%TO.C,R28*%
X133858000Y-86426000D03*
X133858000Y-88326000D03*
%TD*%
D32*
%TO.C,TP1*%
X141427200Y-109423200D03*
%TD*%
D28*
%TO.C,J3*%
X147066000Y-52451000D03*
D29*
X149606000Y-52451000D03*
X147066000Y-54991000D03*
X149606000Y-54991000D03*
X147066000Y-57531000D03*
X149606000Y-57531000D03*
X147066000Y-60071000D03*
X149606000Y-60071000D03*
%TD*%
D32*
%TO.C,TP2*%
X107315000Y-107137200D03*
%TD*%
D33*
%TO.C,J2*%
X147830540Y-93030040D03*
X147830540Y-131505960D03*
%TD*%
D34*
%TO.C,J1*%
X156476700Y-41884600D03*
D35*
X152158700Y-42926000D03*
X97777300Y-39878000D03*
D34*
X93477334Y-41884600D03*
%TD*%
M02*
