%TF.GenerationSoftware,KiCad,Pcbnew,(6.0.9)*%
%TF.CreationDate,2022-12-19T19:37:01+02:00*%
%TF.ProjectId,FMC_MIPI_v2,464d435f-4d49-4504-995f-76322e6b6963,rev?*%
%TF.SameCoordinates,Original*%
%TF.FileFunction,Soldermask,Top*%
%TF.FilePolarity,Negative*%
%FSLAX46Y46*%
G04 Gerber Fmt 4.6, Leading zero omitted, Abs format (unit mm)*
G04 Created by KiCad (PCBNEW (6.0.9)) date 2022-12-19 19:37:01*
%MOMM*%
%LPD*%
G01*
G04 APERTURE LIST*
G04 Aperture macros list*
%AMRoundRect*
0 Rectangle with rounded corners*
0 $1 Rounding radius*
0 $2 $3 $4 $5 $6 $7 $8 $9 X,Y pos of 4 corners*
0 Add a 4 corners polygon primitive as box body*
4,1,4,$2,$3,$4,$5,$6,$7,$8,$9,$2,$3,0*
0 Add four circle primitives for the rounded corners*
1,1,$1+$1,$2,$3*
1,1,$1+$1,$4,$5*
1,1,$1+$1,$6,$7*
1,1,$1+$1,$8,$9*
0 Add four rect primitives between the rounded corners*
20,1,$1+$1,$2,$3,$4,$5,0*
20,1,$1+$1,$4,$5,$6,$7,0*
20,1,$1+$1,$6,$7,$8,$9,0*
20,1,$1+$1,$8,$9,$2,$3,0*%
G04 Aperture macros list end*
%ADD10R,1.475000X0.300000*%
%ADD11R,0.420000X0.750000*%
%ADD12R,0.299720X0.848360*%
%ADD13R,0.848360X0.299720*%
%ADD14RoundRect,0.500000X3.774440X-1.024890X3.774440X1.024890X-3.774440X1.024890X-3.774440X-1.024890X0*%
%ADD15R,0.900000X0.500000*%
%ADD16R,0.500000X0.900000*%
%ADD17R,1.300000X0.700000*%
%ADD18R,0.700000X1.300000*%
%ADD19R,1.000000X1.250000*%
%ADD20RoundRect,0.500000X1.024890X3.774440X-1.024890X3.774440X-1.024890X-3.774440X1.024890X-3.774440X0*%
%ADD21R,0.500000X0.600000*%
%ADD22R,1.700000X1.700000*%
%ADD23O,1.700000X1.700000*%
%ADD24R,1.250000X1.000000*%
%ADD25R,0.600000X0.500000*%
%ADD26C,2.800000*%
%ADD27C,1.018540*%
%ADD28C,2.565400*%
%ADD29C,1.270000*%
G04 APERTURE END LIST*
D10*
%TO.C,U3*%
X131594000Y-119472000D03*
X131594000Y-119972000D03*
X131594000Y-120472000D03*
X131594000Y-120972000D03*
X131594000Y-121472000D03*
X131594000Y-121972000D03*
X131594000Y-122472000D03*
X131594000Y-122972000D03*
X131594000Y-123472000D03*
X131594000Y-123972000D03*
X131594000Y-124472000D03*
X131594000Y-124972000D03*
X131594000Y-125472000D03*
X131594000Y-125972000D03*
X131594000Y-126472000D03*
X131594000Y-126972000D03*
X131594000Y-127472000D03*
X131594000Y-127972000D03*
X131594000Y-128472000D03*
X131594000Y-128972000D03*
X131594000Y-129472000D03*
X131594000Y-129972000D03*
X131594000Y-130472000D03*
X131594000Y-130972000D03*
X139170000Y-130972000D03*
X139170000Y-130472000D03*
X139170000Y-129972000D03*
X139170000Y-129472000D03*
X139170000Y-128972000D03*
X139170000Y-128472000D03*
X139170000Y-127972000D03*
X139170000Y-127472000D03*
X139170000Y-126972000D03*
X139170000Y-126472000D03*
X139170000Y-125972000D03*
X139170000Y-125472000D03*
X139170000Y-124972000D03*
X139170000Y-124472000D03*
X139170000Y-123972000D03*
X139170000Y-123472000D03*
X139170000Y-122972000D03*
X139170000Y-122472000D03*
X139170000Y-121972000D03*
X139170000Y-121472000D03*
X139170000Y-120972000D03*
X139170000Y-120472000D03*
X139170000Y-119972000D03*
X139170000Y-119472000D03*
%TD*%
D11*
%TO.C,D2*%
X119634000Y-135698000D03*
X119634000Y-137098000D03*
%TD*%
%TO.C,D1*%
X113792000Y-131380000D03*
X113792000Y-132780000D03*
%TD*%
D12*
%TO.C,U6*%
X142306040Y-87170260D03*
X142806420Y-87170260D03*
X143304260Y-87170260D03*
X143804640Y-87170260D03*
X144305020Y-87170260D03*
X144805400Y-87170260D03*
X145305780Y-87170260D03*
X145806160Y-87170260D03*
X146304000Y-87170260D03*
X146801840Y-87170260D03*
X147302220Y-87170260D03*
X147802600Y-87170260D03*
X148302980Y-87170260D03*
X148803360Y-87170260D03*
X149303740Y-87170260D03*
X149801580Y-87170260D03*
X150301960Y-87170260D03*
D13*
X150776940Y-86194900D03*
X150776940Y-85694520D03*
X150776940Y-85196680D03*
X150776940Y-84696300D03*
D12*
X150301960Y-83720940D03*
X149801580Y-83720940D03*
X149303740Y-83720940D03*
X148803360Y-83720940D03*
X148302980Y-83720940D03*
X147802600Y-83720940D03*
X147302220Y-83720940D03*
X146801840Y-83720940D03*
X146304000Y-83720940D03*
X145806160Y-83720940D03*
X145305780Y-83720940D03*
X144805400Y-83720940D03*
X144305020Y-83720940D03*
X143804640Y-83720940D03*
X143304260Y-83720940D03*
X142806420Y-83720940D03*
X142306040Y-83720940D03*
D13*
X141831060Y-84696300D03*
X141831060Y-85196680D03*
X141831060Y-85694520D03*
X141831060Y-86194900D03*
D14*
X146304000Y-85445600D03*
%TD*%
D15*
%TO.C,R54*%
X135890000Y-70092000D03*
X135890000Y-68592000D03*
%TD*%
D16*
%TO.C,R52*%
X135648000Y-66802000D03*
X137148000Y-66802000D03*
%TD*%
%TO.C,R48*%
X115685000Y-100812600D03*
X114185000Y-100812600D03*
%TD*%
%TO.C,R51*%
X132600000Y-66802000D03*
X134100000Y-66802000D03*
%TD*%
D15*
%TO.C,R53*%
X133858000Y-70092000D03*
X133858000Y-68592000D03*
%TD*%
D16*
%TO.C,R47*%
X115685000Y-102844600D03*
X114185000Y-102844600D03*
%TD*%
D15*
%TO.C,R45*%
X112395000Y-104102600D03*
X112395000Y-102602600D03*
%TD*%
%TO.C,R46*%
X112395000Y-101054600D03*
X112395000Y-99554600D03*
%TD*%
D17*
%TO.C,R1*%
X137160000Y-86426000D03*
X137160000Y-88326000D03*
%TD*%
%TO.C,R38*%
X153924000Y-81468000D03*
X153924000Y-79568000D03*
%TD*%
D16*
%TO.C,R63*%
X150380000Y-66802000D03*
X151880000Y-66802000D03*
%TD*%
%TO.C,R64*%
X153428000Y-66802000D03*
X154928000Y-66802000D03*
%TD*%
D15*
%TO.C,R65*%
X151638000Y-70092000D03*
X151638000Y-68592000D03*
%TD*%
%TO.C,R66*%
X153670000Y-70092000D03*
X153670000Y-68592000D03*
%TD*%
D17*
%TO.C,R5*%
X117094000Y-123764000D03*
X117094000Y-125664000D03*
%TD*%
%TO.C,R7*%
X119888000Y-128590000D03*
X119888000Y-130490000D03*
%TD*%
%TO.C,R14*%
X133604000Y-134808000D03*
X133604000Y-132908000D03*
%TD*%
D18*
%TO.C,R18*%
X136718000Y-36576000D03*
X138618000Y-36576000D03*
%TD*%
D17*
%TO.C,R9*%
X122682000Y-130490000D03*
X122682000Y-128590000D03*
%TD*%
%TO.C,R6*%
X117094000Y-128590000D03*
X117094000Y-130490000D03*
%TD*%
%TO.C,R11*%
X125730000Y-123764000D03*
X125730000Y-125664000D03*
%TD*%
%TO.C,R8*%
X116332000Y-137348000D03*
X116332000Y-135448000D03*
%TD*%
D19*
%TO.C,C27*%
X133334000Y-76708000D03*
X131334000Y-76708000D03*
%TD*%
D17*
%TO.C,R17*%
X128016000Y-78806000D03*
X128016000Y-80706000D03*
%TD*%
%TO.C,R27*%
X133858000Y-92390000D03*
X133858000Y-90490000D03*
%TD*%
D16*
%TO.C,R58*%
X144538000Y-66802000D03*
X146038000Y-66802000D03*
%TD*%
%TO.C,R57*%
X141490000Y-66802000D03*
X142990000Y-66802000D03*
%TD*%
D15*
%TO.C,R60*%
X144780000Y-70092000D03*
X144780000Y-68592000D03*
%TD*%
%TO.C,R59*%
X142748000Y-70092000D03*
X142748000Y-68592000D03*
%TD*%
D13*
%TO.C,U5*%
X136344660Y-104327960D03*
X136344660Y-103827580D03*
X136344660Y-103329740D03*
X136344660Y-102829360D03*
X136344660Y-102328980D03*
X136344660Y-101828600D03*
X136344660Y-101328220D03*
X136344660Y-100827840D03*
X136344660Y-100330000D03*
X136344660Y-99832160D03*
X136344660Y-99331780D03*
X136344660Y-98831400D03*
X136344660Y-98331020D03*
X136344660Y-97830640D03*
X136344660Y-97330260D03*
X136344660Y-96832420D03*
X136344660Y-96332040D03*
D12*
X135369300Y-95857060D03*
X134868920Y-95857060D03*
X134371080Y-95857060D03*
X133870700Y-95857060D03*
D13*
X132895340Y-96332040D03*
X132895340Y-96832420D03*
X132895340Y-97330260D03*
X132895340Y-97830640D03*
X132895340Y-98331020D03*
X132895340Y-98831400D03*
X132895340Y-99331780D03*
X132895340Y-99832160D03*
X132895340Y-100330000D03*
X132895340Y-100827840D03*
X132895340Y-101328220D03*
X132895340Y-101828600D03*
X132895340Y-102328980D03*
X132895340Y-102829360D03*
X132895340Y-103329740D03*
X132895340Y-103827580D03*
X132895340Y-104327960D03*
D12*
X133870700Y-104802940D03*
X134371080Y-104802940D03*
X134868920Y-104802940D03*
X135369300Y-104802940D03*
D20*
X134620000Y-100330000D03*
%TD*%
D21*
%TO.C,C19*%
X137414000Y-106722000D03*
X137414000Y-105622000D03*
%TD*%
D17*
%TO.C,R75*%
X137160000Y-92390000D03*
X137160000Y-90490000D03*
%TD*%
%TO.C,R29*%
X104902000Y-137348000D03*
X104902000Y-135448000D03*
%TD*%
%TO.C,R30*%
X108204000Y-135448000D03*
X108204000Y-137348000D03*
%TD*%
%TO.C,R32*%
X98298000Y-137348000D03*
X98298000Y-135448000D03*
%TD*%
%TO.C,R33*%
X101600000Y-137348000D03*
X101600000Y-135448000D03*
%TD*%
%TO.C,R34*%
X94996000Y-137348000D03*
X94996000Y-135448000D03*
%TD*%
%TO.C,R35*%
X111506000Y-135448000D03*
X111506000Y-137348000D03*
%TD*%
%TO.C,R36*%
X137160000Y-132908000D03*
X137160000Y-134808000D03*
%TD*%
D21*
%TO.C,C37*%
X106934000Y-126958000D03*
X106934000Y-128058000D03*
%TD*%
D15*
%TO.C,R40*%
X112395000Y-111748000D03*
X112395000Y-110248000D03*
%TD*%
D16*
%TO.C,R42*%
X115685000Y-111506000D03*
X114185000Y-111506000D03*
%TD*%
D15*
%TO.C,R39*%
X112395000Y-114796000D03*
X112395000Y-113296000D03*
%TD*%
D17*
%TO.C,R37*%
X140716000Y-92390000D03*
X140716000Y-90490000D03*
%TD*%
%TO.C,R3*%
X122682000Y-123764000D03*
X122682000Y-125664000D03*
%TD*%
D22*
%TO.C,JP1*%
X113030000Y-123698000D03*
D23*
X110490000Y-123698000D03*
X107950000Y-123698000D03*
%TD*%
D17*
%TO.C,R20*%
X94996000Y-120584000D03*
X94996000Y-118684000D03*
%TD*%
%TO.C,R22*%
X98933000Y-118684000D03*
X98933000Y-120584000D03*
%TD*%
%TO.C,R21*%
X106426000Y-118684000D03*
X106426000Y-120584000D03*
%TD*%
%TO.C,R19*%
X110363000Y-120584000D03*
X110363000Y-118684000D03*
%TD*%
%TO.C,R26*%
X108204000Y-131130000D03*
X108204000Y-133030000D03*
%TD*%
%TO.C,R25*%
X101600000Y-131130000D03*
X101600000Y-133030000D03*
%TD*%
%TO.C,R23*%
X94996000Y-133030000D03*
X94996000Y-131130000D03*
%TD*%
%TO.C,R24*%
X98298000Y-133030000D03*
X98298000Y-131130000D03*
%TD*%
D24*
%TO.C,C4*%
X111506000Y-133080000D03*
X111506000Y-131080000D03*
%TD*%
D16*
%TO.C,R41*%
X115685000Y-113538000D03*
X114185000Y-113538000D03*
%TD*%
D17*
%TO.C,R4*%
X119888000Y-123764000D03*
X119888000Y-125664000D03*
%TD*%
D18*
%TO.C,R31*%
X133162000Y-115062000D03*
X135062000Y-115062000D03*
%TD*%
D25*
%TO.C,C41*%
X111718000Y-128778000D03*
X112818000Y-128778000D03*
%TD*%
D15*
%TO.C,R43*%
X117475000Y-114796000D03*
X117475000Y-113296000D03*
%TD*%
%TO.C,R44*%
X117475000Y-111748000D03*
X117475000Y-110248000D03*
%TD*%
%TO.C,R49*%
X117475000Y-104102600D03*
X117475000Y-102602600D03*
%TD*%
%TO.C,R50*%
X117475000Y-101054600D03*
X117475000Y-99554600D03*
%TD*%
D16*
%TO.C,R55*%
X132600000Y-71882000D03*
X134100000Y-71882000D03*
%TD*%
%TO.C,R56*%
X135648000Y-71882000D03*
X137148000Y-71882000D03*
%TD*%
%TO.C,R61*%
X141490000Y-71882000D03*
X142990000Y-71882000D03*
%TD*%
%TO.C,R62*%
X144538000Y-71882000D03*
X146038000Y-71882000D03*
%TD*%
%TO.C,R67*%
X150380000Y-71882000D03*
X151880000Y-71882000D03*
%TD*%
%TO.C,R68*%
X153428000Y-71882000D03*
X154928000Y-71882000D03*
%TD*%
D25*
%TO.C,C17*%
X122386000Y-68834000D03*
X123486000Y-68834000D03*
%TD*%
%TO.C,C15*%
X116416000Y-66294000D03*
X115316000Y-66294000D03*
%TD*%
%TO.C,C16*%
X116374000Y-69342000D03*
X115274000Y-69342000D03*
%TD*%
D18*
%TO.C,R2*%
X113599000Y-76073000D03*
X111699000Y-76073000D03*
%TD*%
D15*
%TO.C,R74*%
X117602000Y-90920000D03*
X117602000Y-89420000D03*
%TD*%
%TO.C,R73*%
X117602000Y-93968000D03*
X117602000Y-92468000D03*
%TD*%
%TO.C,R70*%
X112522000Y-90920000D03*
X112522000Y-89420000D03*
%TD*%
%TO.C,R69*%
X112522000Y-93968000D03*
X112522000Y-92468000D03*
%TD*%
D16*
%TO.C,R72*%
X115812000Y-90678000D03*
X114312000Y-90678000D03*
%TD*%
%TO.C,R71*%
X115812000Y-92710000D03*
X114312000Y-92710000D03*
%TD*%
D18*
%TO.C,R16*%
X127574000Y-51054000D03*
X129474000Y-51054000D03*
%TD*%
D25*
%TO.C,C14*%
X122386000Y-66802000D03*
X123486000Y-66802000D03*
%TD*%
D17*
%TO.C,R12*%
X125984000Y-137348000D03*
X125984000Y-135448000D03*
%TD*%
%TO.C,R15*%
X122682000Y-137348000D03*
X122682000Y-135448000D03*
%TD*%
%TO.C,R13*%
X125730000Y-128590000D03*
X125730000Y-130490000D03*
%TD*%
D22*
%TO.C,JP2*%
X112014000Y-58674000D03*
D23*
X112014000Y-61214000D03*
%TD*%
D22*
%TO.C,JP3*%
X128524000Y-67564000D03*
D23*
X128524000Y-70104000D03*
%TD*%
D21*
%TO.C,C38*%
X92710000Y-127974000D03*
X92710000Y-129074000D03*
%TD*%
D17*
%TO.C,R28*%
X133858000Y-86426000D03*
X133858000Y-88326000D03*
%TD*%
D26*
%TO.C,TP1*%
X141427200Y-109423200D03*
%TD*%
D22*
%TO.C,J3*%
X147066000Y-52451000D03*
D23*
X149606000Y-52451000D03*
X147066000Y-54991000D03*
X149606000Y-54991000D03*
X147066000Y-57531000D03*
X149606000Y-57531000D03*
X147066000Y-60071000D03*
X149606000Y-60071000D03*
%TD*%
D26*
%TO.C,TP2*%
X107315000Y-107137200D03*
%TD*%
D27*
%TO.C,J2*%
X147830540Y-93030040D03*
X147830540Y-131505960D03*
%TD*%
D28*
%TO.C,J1*%
X156476700Y-41884600D03*
D29*
X152158700Y-42926000D03*
X97777300Y-39878000D03*
D28*
X93477334Y-41884600D03*
%TD*%
M02*
