M48
; DRILL file {KiCad (6.0.9)} date Mon Dec 19 19:37:01 2022
; FORMAT={-:-/ absolute / inch / decimal}
; #@! TF.CreationDate,2022-12-19T19:37:01+02:00
; #@! TF.GenerationSoftware,Kicad,Pcbnew,(6.0.9)
; #@! TF.FileFunction,Plated,1,6,PTH
FMAT,2
INCH
; #@! TA.AperFunction,Plated,PTH,ViaDrill
T1C0.0080
; #@! TA.AperFunction,Plated,PTH,ViaDrill
T2C0.0120
; #@! TA.AperFunction,Plated,PTH,ViaDrill
T3C0.0160
; #@! TA.AperFunction,Plated,PTH,ComponentDrill
T4C0.0394
; #@! TA.AperFunction,Plated,PTH,ViaDrill
T5C0.0400
; #@! TA.AperFunction,Plated,PTH,ComponentDrill
T6C0.0630
%
G90
G05
T1
X3.9465Y-3.48
X3.9465Y-3.73
X3.9735Y-3.48
X3.9735Y-3.73
X4.0865Y-3.48
X4.0865Y-3.73
X4.1135Y-3.48
X4.1135Y-3.73
X4.22Y-1.62
X4.22Y-1.67
X4.42Y-1.67
X4.57Y-1.67
X4.57Y-1.72
X5.151Y-3.97
X5.19Y-3.792
X5.19Y-3.832
X5.19Y-4.048
X5.19Y-4.088
X5.197Y-4.009
X5.475Y-3.8479
X5.475Y-3.875
X5.598Y-4.0965
X5.598Y-4.1235
X5.622Y-3.26
X5.661Y-3.26
X5.7Y-3.26
X5.702Y-3.9144
X5.702Y-3.9415
X5.74Y-3.26
X5.878Y-3.26
X5.917Y-3.26
X6.1025Y-3.9585
X6.1145Y-4.1045
X6.1215Y-3.9395
X6.1335Y-4.0855
X6.1725Y-4.0515
X6.1915Y-4.0325
T2
X3.615Y-5.035
X3.655Y-5.175
X3.68Y-5.28
X3.685Y-1.905
X3.685Y-5.015
X3.685Y-5.09
X3.69Y-2.015
X3.695Y-1.28
X3.704Y-4.606
X3.71Y-1.465
X3.71Y-4.8
X3.715Y-2.445
X3.715Y-2.895
X3.715Y-3.605
X3.715Y-4.93
X3.73Y-4.49
X3.75Y-5.46
X3.76Y-4.785
X3.77Y-4.58
X3.775Y-1.92
X3.7775Y-1.8675
X3.78Y-4.93
X3.79Y-4.72
X3.8Y-4.755
X3.8Y-5.28
X3.81Y-1.97
X3.82Y-4.85
X3.825Y-4.99
X3.85Y-4.8
X3.86Y-5.46
X3.8625Y-4.3625
X3.87Y-4.45
X3.88Y-5.28
X3.884Y-4.956
X3.9056Y-1.6056
X3.914Y-1.516
X3.915Y-1.915
X3.94Y-5.28
X3.945Y-2.015
X3.95Y-2.2
X3.95Y-5.12
X3.965Y-1.765
X3.97Y-4.99
X3.971Y-1.573
X3.985Y-4.785
X3.99Y-4.545
X4.011Y-4.819
X4.02Y-1.77
X4.045Y-2.83
X4.045Y-2.96
X4.05Y-4.79
X4.05Y-5.45
X4.055Y-2.275
X4.055Y-4.98
X4.063Y-4.945
X4.065Y-1.775
X4.067Y-5.368
X4.07Y-1.57
X4.07Y-1.72
X4.07Y-5.28
X4.075Y-4.6
X4.1Y-5.13
X4.12Y-1.52
X4.12Y-1.57
X4.12Y-1.62
X4.12Y-1.67
X4.12Y-1.72
X4.12Y-1.77
X4.135Y-4.98
X4.145Y-4.805
X4.16Y-2.89
X4.17Y-1.62
X4.17Y-1.72
X4.17Y-3.35
X4.175Y-5.275
X4.18Y-2.365
X4.188Y-3.292
X4.2Y-4.62
X4.2Y-5.09
X4.2Y-5.37
X4.22Y-1.72
X4.22Y-1.77
X4.22Y-3.46
X4.25Y-4.99
X4.255Y-1.9
X4.27Y-1.47
X4.27Y-1.57
X4.27Y-1.675
X4.27Y-1.72
X4.27Y-3.3
X4.275Y-1.22
X4.275Y-4.71
X4.305Y-2.35
X4.31Y-5.12
X4.315Y-3.027
X4.32Y-1.52
X4.32Y-1.57
X4.325Y-2.88
X4.33Y-2.205
X4.33Y-5.19
X4.33Y-5.28
X4.33Y-5.37
X4.335Y-3.37
X4.34Y-3.49
X4.345Y-4.605
X4.35Y-2.778
X4.36Y-4.98
X4.37Y-1.62
X4.37Y-1.67
X4.37Y-1.72
X4.37Y-1.77
X4.38Y-3.18
X4.4Y-4.17
X4.4Y-4.28
X4.405Y-2.185
X4.405Y-4.975
X4.41Y-3.76
X4.41Y-3.86
X4.415Y-2.56
X4.42Y-1.52
X4.42Y-1.57
X4.42Y-1.62
X4.42Y-1.72
X4.42Y-1.77
X4.425Y-2.833
X4.44Y-4.6
X4.44Y-4.99
X4.44Y-5.29
X4.45Y-1.875
X4.46Y-2.095
X4.465Y-5.385
X4.47Y-1.57
X4.47Y-1.62
X4.475Y-2.015
X4.48Y-3.145
X4.49Y-2.93
X4.49Y-5.42
X4.5Y-5.09
X4.51Y-1.975
X4.51Y-5.35
X4.52Y-1.62
X4.52Y-1.72
X4.52Y-1.77
X4.525Y-3.445
X4.539Y-2.769
X4.54Y-5.17
X4.543Y-2.646
X4.546Y-3.03
X4.55Y-3.389
X4.55Y-4.99
X4.55Y-5.21
X4.56Y-4.875
X4.57Y-1.52
X4.57Y-1.62
X4.57Y-1.77
X4.59Y-3.3
X4.59Y-5.28
X4.595Y-1.94
X4.595Y-1.865
X4.605Y-5.0
X4.619Y-3.099
X4.62Y-1.52
X4.62Y-1.57
X4.62Y-1.62
X4.62Y-2.61
X4.62Y-2.73
X4.62Y-3.15
X4.62Y-3.22
X4.625Y-3.87
X4.625Y-4.145
X4.625Y-4.29
X4.625Y-4.565
X4.63Y-3.471
X4.63Y-3.745
X4.645Y-3.4
X4.651Y-5.448
X4.655Y-3.255
X4.66Y-4.99
X4.661Y-2.628
X4.663Y-2.726
X4.664Y-5.119
X4.665Y-3.157
X4.67Y-1.52
X4.67Y-1.62
X4.67Y-1.72
X4.67Y-1.77
X4.685Y-4.76
X4.695Y-5.0
X4.695Y-5.22
X4.7Y-1.92
X4.715Y-2.9
X4.72Y-1.52
X4.72Y-1.67
X4.72Y-1.72
X4.72Y-1.77
X4.734Y-2.473
X4.737Y-2.614
X4.74Y-5.445
X4.741Y-2.736
X4.76Y-5.32
X4.769Y-2.473
X4.77Y-1.57
X4.77Y-1.62
X4.77Y-1.67
X4.77Y-1.72
X4.77Y-1.93
X4.77Y-2.63
X4.77Y-4.98
X4.78Y-1.875
X4.78Y-2.16
X4.781Y-2.428
X4.794Y-5.28
X4.8Y-5.2
X4.81Y-5.465
X4.82Y-1.62
X4.82Y-5.0
X4.842Y-2.758
X4.846Y-2.396
X4.846Y-2.45
X4.86Y-4.78
X4.865Y-5.465
X4.87Y-1.52
X4.88Y-2.96
X4.88Y-3.05
X4.88Y-5.0
X4.89Y-4.92
X4.89Y-5.04
X4.89Y-5.32
X4.916Y-2.432
X4.918Y-2.76
X4.919Y-1.62
X4.92Y-1.67
X4.92Y-1.72
X4.92Y-4.755
X4.925Y-2.709
X4.927Y-2.63
X4.94Y-3.22
X4.948Y-2.4
X4.95Y-1.895
X4.95Y-4.65
X4.96Y-2.442
X4.963Y-5.489
X4.969Y-1.619
X4.97Y-1.565
X4.97Y-1.67
X4.97Y-1.825
X4.97Y-2.04
X4.98Y-1.925
X5.001Y-2.876
X5.015Y-5.435
X5.019Y-5.332
X5.02Y-1.57
X5.02Y-1.67
X5.02Y-1.72
X5.025Y-3.36
X5.03Y-4.895
X5.034Y-2.864
X5.06Y-4.97
X5.06Y-5.15
X5.065Y-1.725
X5.07Y-1.42
X5.07Y-1.57
X5.07Y-1.62
X5.07Y-1.665
X5.075Y-1.875
X5.085Y-3.03
X5.09Y-2.495
X5.09Y-4.82
X5.09Y-5.095
X5.093Y-4.876
X5.095Y-5.06
X5.097Y-4.783
X5.1Y-4.735
X5.11Y-3.14
X5.11Y-4.69
X5.11Y-4.985
X5.115Y-4.915
X5.115Y-5.125
X5.115Y-5.455
X5.12Y-1.62
X5.12Y-4.76
X5.12Y-5.205
X5.123Y-3.682
X5.13Y-3.08
X5.145Y-2.775
X5.145Y-4.215
X5.15Y-5.3
X5.156Y-3.908
X5.16Y-3.87
X5.1626Y-5.2326
X5.17Y-1.52
X5.171Y-1.467
X5.174Y-4.532
X5.175Y-2.125
X5.179Y-2.04
X5.18Y-2.83
X5.181Y-2.283
X5.2Y-5.29
X5.205Y-3.429
X5.22Y-1.52
X5.22Y-1.72
X5.22Y-2.54
X5.22Y-3.13
X5.23Y-2.415
X5.24Y-5.44
X5.25Y-4.87
X5.25Y-4.915
X5.26Y-2.005
X5.26Y-5.05
X5.265Y-1.215
X5.265Y-2.23
X5.27Y-1.57
X5.27Y-1.62
X5.27Y-1.825
X5.27Y-3.69
X5.28Y-3.825
X5.28Y-3.86
X5.28Y-3.895
X5.28Y-3.93
X5.28Y-3.965
X5.28Y-4.0
X5.28Y-4.035
X5.28Y-4.07
X5.285Y-4.315
X5.2883Y-4.7883
X5.295Y-3.32
X5.295Y-4.455
X5.305Y-5.11
X5.3083Y-5.3583
X5.31Y-3.02
X5.315Y-3.825
X5.315Y-3.86
X5.315Y-3.895
X5.315Y-3.93
X5.315Y-3.965
X5.315Y-4.0
X5.315Y-4.035
X5.315Y-4.07
X5.32Y-1.57
X5.32Y-1.62
X5.32Y-1.72
X5.33Y-3.23
X5.33Y-5.28
X5.335Y-4.725
X5.35Y-2.0
X5.35Y-4.87
X5.35Y-5.05
X5.355Y-2.345
X5.37Y-1.52
X5.37Y-1.575
X5.37Y-1.67
X5.37Y-1.77
X5.37Y-4.2
X5.38Y-4.613
X5.39Y-5.09
X5.41Y-3.7
X5.4126Y-4.1074
X5.42Y-1.52
X5.42Y-1.62
X5.43Y-3.8
X5.43Y-3.9
X5.435Y-2.83
X5.435Y-3.835
X5.46Y-3.92
X5.46Y-5.31
X5.469Y-1.62
X5.47Y-1.67
X5.47Y-1.72
X5.495Y-3.44
X5.498Y-2.573
X5.5Y-2.67
X5.5Y-3.38
X5.515Y-1.725
X5.515Y-1.975
X5.52Y-1.57
X5.52Y-1.62
X5.52Y-1.67
X5.52Y-1.82
X5.52Y-2.83
X5.535Y-4.89
X5.54Y-3.71
X5.54Y-4.68
X5.545Y-4.98
X5.545Y-5.23
X5.55Y-4.92
X5.56Y-4.866
X5.57Y-1.57
X5.57Y-4.44
X5.58Y-3.471
X5.585Y-1.885
X5.59Y-3.88
X5.591Y-4.954
X5.61Y-3.57
X5.62Y-1.57
X5.62Y-1.62
X5.62Y-1.67
X5.62Y-1.72
X5.64Y-3.345
X5.64Y-3.38
X5.645Y-5.37
X5.665Y-1.625
X5.665Y-4.855
X5.665Y-4.985
X5.67Y-1.52
X5.67Y-1.67
X5.67Y-1.83
X5.67Y-4.795
X5.675Y-4.17
X5.68Y-3.345
X5.68Y-3.38
X5.69Y-5.07
X5.695Y-4.895
X5.7Y-3.78
X5.7Y-3.84
X5.7Y-4.66
X5.705Y-4.255
X5.705Y-5.13
X5.71Y-4.74
X5.71Y-4.78
X5.72Y-3.345
X5.72Y-3.38
X5.741Y-3.482
X5.769Y-1.569
X5.77Y-1.62
X5.77Y-1.67
X5.77Y-1.72
X5.77Y-1.77
X5.77Y-3.345
X5.77Y-3.38
X5.775Y-3.245
X5.776Y-3.49
X5.79Y-2.83
X5.805Y-3.345
X5.805Y-3.38
X5.81Y-2.56
X5.81Y-3.49
X5.82Y-1.42
X5.82Y-1.47
X5.82Y-1.57
X5.82Y-1.67
X5.82Y-1.72
X5.82Y-1.77
X5.825Y-3.245
X5.83Y-2.955
X5.835Y-2.71
X5.845Y-2.635
X5.845Y-4.125
X5.845Y-4.195
X5.845Y-4.805
X5.848Y-4.159
X5.85Y-3.345
X5.85Y-3.38
X5.85Y-4.085
X5.85Y-4.95
X5.85Y-5.0
X5.855Y-3.71
X5.855Y-4.32
X5.855Y-4.36
X5.855Y-4.395
X5.855Y-4.445
X5.855Y-4.48
X5.855Y-4.515
X5.855Y-4.61
X5.855Y-4.67
X5.855Y-4.74
X5.855Y-4.86
X5.855Y-4.9
X5.86Y-3.84
X5.86Y-3.905
X5.86Y-3.97
X5.865Y-5.135
X5.87Y-1.52
X5.87Y-1.57
X5.87Y-1.67
X5.88Y-2.56
X5.88Y-2.83
X5.885Y-3.345
X5.885Y-3.38
X5.895Y-5.485
X5.91Y-1.955
X5.92Y-1.57
X5.925Y-1.68
X5.93Y-1.635
X5.94Y-5.13
X5.94Y-5.18
X5.945Y-4.74
X5.945Y-4.86
X5.945Y-4.905
X5.945Y-4.95
X5.945Y-4.995
X5.95Y-3.84
X5.95Y-3.88
X5.95Y-3.975
X5.95Y-4.125
X5.95Y-4.165
X5.95Y-4.22
X5.95Y-4.32
X5.95Y-4.36
X5.95Y-4.395
X5.95Y-4.445
X5.95Y-4.48
X5.95Y-4.515
X5.95Y-4.61
X5.95Y-4.67
X5.95Y-3.46
X5.955Y-4.085
X5.96Y-3.06
X5.96Y-5.09
X5.965Y-1.23
X5.97Y-1.585
X5.975Y-1.459
X5.975Y-1.785
X5.985Y-1.525
X6.01Y-5.41
X6.03Y-3.4
X6.03Y-3.535
X6.059Y-3.059
X6.06Y-1.885
X6.06Y-3.26
X6.08Y-2.235
X6.085Y-2.975
X6.09Y-4.98
X6.095Y-3.35
X6.095Y-3.87
X6.095Y-4.255
X6.095Y-4.605
X6.1Y-2.56
X6.1Y-2.885
X6.1Y-4.91
X6.11Y-4.74
X6.11Y-5.02
X6.115Y-5.065
X6.135Y-4.425
X6.14Y-1.75
X6.145Y-5.39
X6.155Y-1.545
X6.185Y-3.665
X6.185Y-4.29
X6.19Y-4.6
X6.195Y-4.15
X6.205Y-4.91
X6.205Y-5.21
X6.225Y-2.065
X6.225Y-3.88
X6.23Y-1.83
T3
X6.085Y-2.365
T4
X4.25Y-4.87
X4.35Y-4.87
X4.41Y-2.31
X4.41Y-2.41
X4.45Y-4.87
X5.06Y-2.66
X5.06Y-2.76
X5.79Y-2.065
X5.79Y-2.165
X5.79Y-2.265
X5.79Y-2.365
X5.89Y-2.065
X5.89Y-2.165
X5.89Y-2.265
X5.89Y-2.365
T5
X5.72Y-5.31
T6
X4.225Y-4.218
X5.568Y-4.308
T0
M30
