%TF.GenerationSoftware,KiCad,Pcbnew,(6.0.9)*%
%TF.CreationDate,2022-12-19T19:37:01+02:00*%
%TF.ProjectId,FMC_MIPI_v2,464d435f-4d49-4504-995f-76322e6b6963,rev?*%
%TF.SameCoordinates,Original*%
%TF.FileFunction,Copper,L6,Bot*%
%TF.FilePolarity,Positive*%
%FSLAX46Y46*%
G04 Gerber Fmt 4.6, Leading zero omitted, Abs format (unit mm)*
G04 Created by KiCad (PCBNEW (6.0.9)) date 2022-12-19 19:37:01*
%MOMM*%
%LPD*%
G01*
G04 APERTURE LIST*
G04 Aperture macros list*
%AMRoundRect*
0 Rectangle with rounded corners*
0 $1 Rounding radius*
0 $2 $3 $4 $5 $6 $7 $8 $9 X,Y pos of 4 corners*
0 Add a 4 corners polygon primitive as box body*
4,1,4,$2,$3,$4,$5,$6,$7,$8,$9,$2,$3,0*
0 Add four circle primitives for the rounded corners*
1,1,$1+$1,$2,$3*
1,1,$1+$1,$4,$5*
1,1,$1+$1,$6,$7*
1,1,$1+$1,$8,$9*
0 Add four rect primitives between the rounded corners*
20,1,$1+$1,$2,$3,$4,$5,0*
20,1,$1+$1,$4,$5,$6,$7,0*
20,1,$1+$1,$6,$7,$8,$9,0*
20,1,$1+$1,$8,$9,$2,$3,0*%
G04 Aperture macros list end*
%TA.AperFunction,SMDPad,CuDef*%
%ADD10R,1.200000X0.400000*%
%TD*%
%TA.AperFunction,SMDPad,CuDef*%
%ADD11R,0.300000X1.475000*%
%TD*%
%TA.AperFunction,SMDPad,CuDef*%
%ADD12R,0.850000X0.300000*%
%TD*%
%TA.AperFunction,SMDPad,CuDef*%
%ADD13R,0.750000X0.420000*%
%TD*%
%TA.AperFunction,ComponentPad*%
%ADD14R,1.700000X1.700000*%
%TD*%
%TA.AperFunction,ComponentPad*%
%ADD15O,1.700000X1.700000*%
%TD*%
%TA.AperFunction,ComponentPad*%
%ADD16C,2.800000*%
%TD*%
%TA.AperFunction,SMDPad,CuDef*%
%ADD17R,0.637540X2.540000*%
%TD*%
%TA.AperFunction,SMDPad,CuDef*%
%ADD18R,0.637540X4.699000*%
%TD*%
%TA.AperFunction,SMDPad,CuDef*%
%ADD19R,1.447800X0.299720*%
%TD*%
%TA.AperFunction,SMDPad,CuDef*%
%ADD20R,0.600000X0.500000*%
%TD*%
%TA.AperFunction,SMDPad,CuDef*%
%ADD21R,0.500000X0.600000*%
%TD*%
%TA.AperFunction,SMDPad,CuDef*%
%ADD22R,1.000000X1.250000*%
%TD*%
%TA.AperFunction,SMDPad,CuDef*%
%ADD23R,1.250000X1.000000*%
%TD*%
%TA.AperFunction,SMDPad,CuDef*%
%ADD24R,1.168400X0.254000*%
%TD*%
%TA.AperFunction,SMDPad,CuDef*%
%ADD25R,0.800000X0.300000*%
%TD*%
%TA.AperFunction,SMDPad,CuDef*%
%ADD26R,1.400000X1.600000*%
%TD*%
%TA.AperFunction,SMDPad,CuDef*%
%ADD27RoundRect,0.150000X0.150000X-0.512500X0.150000X0.512500X-0.150000X0.512500X-0.150000X-0.512500X0*%
%TD*%
%TA.AperFunction,SMDPad,CuDef*%
%ADD28R,1.300000X0.700000*%
%TD*%
%TA.AperFunction,SMDPad,CuDef*%
%ADD29R,1.475000X0.450000*%
%TD*%
%TA.AperFunction,SMDPad,CuDef*%
%ADD30C,0.635000*%
%TD*%
%TA.AperFunction,SMDPad,CuDef*%
%ADD31C,0.558800*%
%TD*%
%TA.AperFunction,SMDPad,CuDef*%
%ADD32R,0.650000X1.060000*%
%TD*%
%TA.AperFunction,SMDPad,CuDef*%
%ADD33RoundRect,0.150000X-0.150000X0.512500X-0.150000X-0.512500X0.150000X-0.512500X0.150000X0.512500X0*%
%TD*%
%TA.AperFunction,ViaPad*%
%ADD34C,0.355600*%
%TD*%
%TA.AperFunction,ViaPad*%
%ADD35C,0.406400*%
%TD*%
%TA.AperFunction,ViaPad*%
%ADD36C,1.143000*%
%TD*%
%TA.AperFunction,ViaPad*%
%ADD37C,0.508000*%
%TD*%
%TA.AperFunction,ViaPad*%
%ADD38C,0.635000*%
%TD*%
%TA.AperFunction,Conductor*%
%ADD39C,0.101600*%
%TD*%
%TA.AperFunction,Conductor*%
%ADD40C,0.152400*%
%TD*%
%TA.AperFunction,Conductor*%
%ADD41C,0.254000*%
%TD*%
%TA.AperFunction,Conductor*%
%ADD42C,0.381000*%
%TD*%
%TA.AperFunction,Conductor*%
%ADD43C,0.508000*%
%TD*%
%TA.AperFunction,Conductor*%
%ADD44C,0.635000*%
%TD*%
G04 APERTURE END LIST*
D10*
%TO.P,IC7,1,VCCA*%
%TO.N,/VDD_VADJ*%
X110810000Y-129174000D03*
%TO.P,IC7,2,GND*%
%TO.N,Earth*%
X110810000Y-128524000D03*
%TO.P,IC7,3,A*%
%TO.N,FMC_ENN_JT_GPIO_INPUT*%
X110810000Y-127874000D03*
%TO.P,IC7,4,B*%
%TO.N,/Slow_signals_level_shifters/ENN_JETSON_GPIO*%
X112710000Y-127874000D03*
%TO.P,IC7,5,DIR*%
%TO.N,Net-(IC7-Pad5)*%
X112710000Y-128524000D03*
%TO.P,IC7,6,VCCB*%
%TO.N,/VOLT_1P8*%
X112710000Y-129174000D03*
%TD*%
%TO.P,IC6,1,VCCA*%
%TO.N,/VOLT_1P2*%
X103190000Y-129174000D03*
%TO.P,IC6,2,GND*%
%TO.N,Earth*%
X103190000Y-128524000D03*
%TO.P,IC6,3,A*%
%TO.N,Net-(IC6-Pad3)*%
X103190000Y-127874000D03*
%TO.P,IC6,4,B*%
%TO.N,FMC_1P2V_MONITOR*%
X105090000Y-127874000D03*
%TO.P,IC6,5,DIR*%
%TO.N,Net-(IC6-Pad5)*%
X105090000Y-128524000D03*
%TO.P,IC6,6,VCCB*%
%TO.N,/VDD_VADJ*%
X105090000Y-129174000D03*
%TD*%
D11*
%TO.P,U8,1,1DIR*%
%TO.N,/LVDS_to_Jetson_lines/DIR_U8*%
X114442800Y-64538000D03*
%TO.P,U8,2,1B1*%
%TO.N,FMC_CSI_LP_C_D1_N*%
X114942800Y-64538000D03*
%TO.P,U8,3,1B2*%
%TO.N,FMC_CSI_LP_C_D1_P*%
X115442800Y-64538000D03*
%TO.P,U8,4,GND_1*%
%TO.N,Earth*%
X115942800Y-64538000D03*
%TO.P,U8,5,1B3*%
%TO.N,FMC_CSI_LP_C_D0_N*%
X116442800Y-64538000D03*
%TO.P,U8,6,1B4*%
%TO.N,FMC_CSI_LP_C_D0_P*%
X116942800Y-64538000D03*
%TO.P,U8,7,VCCB_1*%
%TO.N,/VDD_VADJ*%
X117442800Y-64538000D03*
%TO.P,U8,8,1B5*%
%TO.N,FMC_CSI_LP_C_CLK_N*%
X117942800Y-64538000D03*
%TO.P,U8,9,1B6*%
%TO.N,FMC_CSI_LP_C_CLK_P*%
X118442800Y-64538000D03*
%TO.P,U8,10,GND_2*%
%TO.N,Earth*%
X118942800Y-64538000D03*
%TO.P,U8,11,1B7*%
X119442800Y-64538000D03*
%TO.P,U8,12,1B8*%
X119942800Y-64538000D03*
%TO.P,U8,13,2B1*%
X120442800Y-64538000D03*
%TO.P,U8,14,2B2*%
X120942800Y-64538000D03*
%TO.P,U8,15,GND_3*%
X121442800Y-64538000D03*
%TO.P,U8,16,2B3*%
%TO.N,FMC_CSI_LP_D_D1_N*%
X121942800Y-64538000D03*
%TO.P,U8,17,2B4*%
%TO.N,FMC_CSI_LP_D_D1_P*%
X122442800Y-64538000D03*
%TO.P,U8,18,VCCB_2*%
%TO.N,/VDD_VADJ*%
X122942800Y-64538000D03*
%TO.P,U8,19,2B5*%
%TO.N,FMC_CSI_LP_D_D0_N*%
X123442800Y-64538000D03*
%TO.P,U8,20,2B6*%
%TO.N,FMC_CSI_LP_D_D0_P*%
X123942800Y-64538000D03*
%TO.P,U8,21,GND_4*%
%TO.N,Earth*%
X124442800Y-64538000D03*
%TO.P,U8,22,2B7*%
%TO.N,FMC_CSI_LP_D_CLK_N*%
X124942800Y-64538000D03*
%TO.P,U8,23,2B8*%
%TO.N,FMC_CSI_LP_D_CLK_P*%
X125442800Y-64538000D03*
%TO.P,U8,24,2DIR*%
%TO.N,/LVDS_to_Jetson_lines/DIR_U8*%
X125942800Y-64538000D03*
%TO.P,U8,25,2~{OE}*%
%TO.N,Earth*%
X125942800Y-72114000D03*
%TO.P,U8,26,2A8*%
%TO.N,/LVDS_to_Jetson_lines/CSI_LP_D_CLK_P*%
X125442800Y-72114000D03*
%TO.P,U8,27,2A7*%
%TO.N,/LVDS_to_Jetson_lines/CSI_LP_D_CLK_N*%
X124942800Y-72114000D03*
%TO.P,U8,28,GND_5*%
%TO.N,Earth*%
X124442800Y-72114000D03*
%TO.P,U8,29,2A6*%
%TO.N,/LVDS_to_Jetson_lines/CSI_LP_D_D0_P*%
X123942800Y-72114000D03*
%TO.P,U8,30,2A5*%
%TO.N,/LVDS_to_Jetson_lines/CSI_LP_D_D0_N*%
X123442800Y-72114000D03*
%TO.P,U8,31,VCCA_1*%
%TO.N,/VOLT_1P2*%
X122942800Y-72114000D03*
%TO.P,U8,32,2A4*%
%TO.N,/LVDS_to_Jetson_lines/CSI_LP_D_D1_P*%
X122442800Y-72114000D03*
%TO.P,U8,33,2A3*%
%TO.N,/LVDS_to_Jetson_lines/CSI_LP_D_D1_N*%
X121942800Y-72114000D03*
%TO.P,U8,34,GND_6*%
%TO.N,Earth*%
X121442800Y-72114000D03*
%TO.P,U8,35,2A2*%
X120942800Y-72114000D03*
%TO.P,U8,36,2A1*%
X120442800Y-72114000D03*
%TO.P,U8,37,1A8*%
X119942800Y-72114000D03*
%TO.P,U8,38,1A7*%
X119442800Y-72114000D03*
%TO.P,U8,39,GND_7*%
X118942800Y-72114000D03*
%TO.P,U8,40,1A6*%
%TO.N,/LVDS_to_Jetson_lines/CSI_LP_C_CLK_P*%
X118442800Y-72114000D03*
%TO.P,U8,41,1A5*%
%TO.N,/LVDS_to_Jetson_lines/CSI_LP_C_CLK_N*%
X117942800Y-72114000D03*
%TO.P,U8,42,VCCA_2*%
%TO.N,/VOLT_1P2*%
X117442800Y-72114000D03*
%TO.P,U8,43,1A4*%
%TO.N,/LVDS_to_Jetson_lines/CSI_LP_C_D0_P*%
X116942800Y-72114000D03*
%TO.P,U8,44,1A3*%
%TO.N,/LVDS_to_Jetson_lines/CSI_LP_C_D0_N*%
X116442800Y-72114000D03*
%TO.P,U8,45,GND_8*%
%TO.N,Earth*%
X115942800Y-72114000D03*
%TO.P,U8,46,1A2*%
%TO.N,/LVDS_to_Jetson_lines/CSI_LP_C_D1_P*%
X115442800Y-72114000D03*
%TO.P,U8,47,1A1*%
%TO.N,/LVDS_to_Jetson_lines/CSI_LP_C_D1_N*%
X114942800Y-72114000D03*
%TO.P,U8,48,1~{OE}*%
%TO.N,Earth*%
X114442800Y-72114000D03*
%TD*%
D12*
%TO.P,IC5,1,SDA_B*%
%TO.N,Net-(IC5-Pad1)*%
X99111000Y-122948000D03*
%TO.P,IC5,2,GND*%
%TO.N,Earth*%
X99111000Y-123448000D03*
%TO.P,IC5,3,VCCA*%
%TO.N,/VOLT_1P8*%
X99111000Y-123948000D03*
%TO.P,IC5,4,SDA_A*%
%TO.N,Net-(IC5-Pad4)*%
X99111000Y-124448000D03*
%TO.P,IC5,5,SCL_A*%
%TO.N,Net-(IC5-Pad5)*%
X95961000Y-124448000D03*
%TO.P,IC5,6,OE*%
%TO.N,/VOLT_1P8*%
X95961000Y-123948000D03*
%TO.P,IC5,7,VCCB*%
%TO.N,/VDD_VADJ*%
X95961000Y-123448000D03*
%TO.P,IC5,8,SCL_B*%
%TO.N,Net-(IC5-Pad8)*%
X95961000Y-122948000D03*
%TD*%
%TO.P,IC4,1,SDA_B*%
%TO.N,Net-(IC4-Pad1)*%
X97739000Y-119114000D03*
%TO.P,IC4,2,GND*%
%TO.N,Earth*%
X97739000Y-118614000D03*
%TO.P,IC4,3,VCCA*%
%TO.N,/VOLT_1P8*%
X97739000Y-118114000D03*
%TO.P,IC4,4,SDA_A*%
%TO.N,Net-(IC4-Pad4)*%
X97739000Y-117614000D03*
%TO.P,IC4,5,SCL_A*%
%TO.N,Net-(IC4-Pad5)*%
X100889000Y-117614000D03*
%TO.P,IC4,6,OE*%
%TO.N,/VOLT_1P8*%
X100889000Y-118114000D03*
%TO.P,IC4,7,VCCB*%
%TO.N,/VDD_VADJ*%
X100889000Y-118614000D03*
%TO.P,IC4,8,SCL_B*%
%TO.N,Net-(IC4-Pad8)*%
X100889000Y-119114000D03*
%TD*%
%TO.P,IC3,1,SDA_B*%
%TO.N,Net-(IC3-Pad1)*%
X128666040Y-137402000D03*
%TO.P,IC3,2,GND*%
%TO.N,Earth*%
X128666040Y-136902000D03*
%TO.P,IC3,3,VCCA*%
%TO.N,/VOLT_1P8*%
X128666040Y-136402000D03*
%TO.P,IC3,4,SDA_A*%
%TO.N,Net-(IC3-Pad4)*%
X128666040Y-135902000D03*
%TO.P,IC3,5,SCL_A*%
%TO.N,Net-(IC3-Pad5)*%
X131816040Y-135902000D03*
%TO.P,IC3,6,OE*%
%TO.N,/VOLT_1P8*%
X131816040Y-136402000D03*
%TO.P,IC3,7,VCCB*%
%TO.N,/VDD_VADJ*%
X131816040Y-136902000D03*
%TO.P,IC3,8,SCL_B*%
%TO.N,Net-(IC3-Pad8)*%
X131816040Y-137402000D03*
%TD*%
D13*
%TO.P,D3,1*%
%TO.N,/VOLT_1P2*%
X131634000Y-84785200D03*
%TO.P,D3,2*%
%TO.N,Earth*%
X133034000Y-84785200D03*
%TD*%
%TO.P,D4,1*%
%TO.N,/VOLT_2P5*%
X127824000Y-62230000D03*
%TO.P,D4,2*%
%TO.N,Earth*%
X129224000Y-62230000D03*
%TD*%
D14*
%TO.P,JP1,1,A*%
%TO.N,/VOLT_1P8*%
X113030000Y-123698000D03*
D15*
%TO.P,JP1,2,C*%
%TO.N,/Jetson_connector/VCC_1V8_EEPROM*%
X110490000Y-123698000D03*
%TO.P,JP1,3,B*%
%TO.N,JT_VDD_1V8*%
X107950000Y-123698000D03*
%TD*%
D14*
%TO.P,JP2,1,1*%
%TO.N,/VOLT_2P5*%
X112014000Y-58674000D03*
D15*
%TO.P,JP2,2,2*%
%TO.N,/LVDS_to_Jetson_lines/VOLT_2P5_CSI_C*%
X112014000Y-61214000D03*
%TD*%
D14*
%TO.P,JP3,1,1*%
%TO.N,/VOLT_2P5*%
X128524000Y-67564000D03*
D15*
%TO.P,JP3,2,2*%
%TO.N,/LVDS_to_Jetson_lines/VOLT_2P5_CSI_D*%
X128524000Y-70104000D03*
%TD*%
D16*
%TO.P,TP1,1,1*%
%TO.N,Earth*%
X141427200Y-109423200D03*
%TD*%
D14*
%TO.P,J3,1,Pin_1*%
%TO.N,/FMC_Connector/DBG_IO_1*%
X147066000Y-52451000D03*
D15*
%TO.P,J3,2,Pin_2*%
%TO.N,/FMC_Connector/DBG_IO_2*%
X149606000Y-52451000D03*
%TO.P,J3,3,Pin_3*%
%TO.N,/FMC_Connector/DBG_IO_3*%
X147066000Y-54991000D03*
%TO.P,J3,4,Pin_4*%
%TO.N,/FMC_Connector/DBG_IO_4*%
X149606000Y-54991000D03*
%TO.P,J3,5,Pin_5*%
%TO.N,/FMC_Connector/DBG_IO_5*%
X147066000Y-57531000D03*
%TO.P,J3,6,Pin_6*%
%TO.N,/FMC_Connector/DBG_IO_6*%
X149606000Y-57531000D03*
%TO.P,J3,7,Pin_7*%
%TO.N,Earth*%
X147066000Y-60071000D03*
%TO.P,J3,8,Pin_8*%
X149606000Y-60071000D03*
%TD*%
D16*
%TO.P,TP2,1,1*%
%TO.N,Earth*%
X107315000Y-107137200D03*
%TD*%
D17*
%TO.P,J2,G8,G8*%
%TO.N,Earth*%
X149860000Y-130710940D03*
D18*
%TO.P,J2,G7,G7*%
X149860000Y-125442980D03*
%TO.P,J2,G6,G6*%
X149860000Y-119092980D03*
D17*
%TO.P,J2,G5,G5*%
X149860000Y-113822480D03*
%TO.P,J2,G4,G4*%
X149860000Y-110713520D03*
D18*
%TO.P,J2,G3,G3*%
X149860000Y-105443020D03*
%TO.P,J2,G2,G2*%
X149860000Y-99093020D03*
D17*
%TO.P,J2,G1,G1*%
X149860000Y-93825060D03*
D19*
%TO.P,J2,120,VDD_5V*%
%TO.N,/Jetson_connector/JT_VDD_5V*%
X152948640Y-129517140D03*
%TO.P,J2,119,VDD_SYS_EN*%
%TO.N,unconnected-(J2-Pad119)*%
X146771360Y-129517140D03*
%TO.P,J2,118,VDD_5V*%
%TO.N,/Jetson_connector/JT_VDD_5V*%
X152948640Y-129016760D03*
%TO.P,J2,117,CAM_INTR*%
%TO.N,JT_1p8V_GPIO17_IN*%
X146771360Y-129016760D03*
%TO.P,J2,116,GND*%
%TO.N,Earth*%
X152948640Y-128516380D03*
%TO.P,J2,115,GND*%
X146771360Y-128516380D03*
%TO.P,J2,114,114*%
%TO.N,unconnected-(J2-Pad114)*%
X152948640Y-128016000D03*
%TO.P,J2,113,IR_TRIGGER*%
%TO.N,unconnected-(J2-Pad113)*%
X146771360Y-128016000D03*
%TO.P,J2,112,112*%
%TO.N,JT_1p8V_GPIO9_IN*%
X152948640Y-127515620D03*
%TO.P,J2,111,IR_READY*%
%TO.N,unconnected-(J2-Pad111)*%
X146771360Y-127515620D03*
%TO.P,J2,110,VDD_3V3_SLP2*%
%TO.N,/Jetson_connector/JT_VDD_3V3*%
X152948640Y-127017780D03*
%TO.P,J2,109,VDD_5V*%
%TO.N,/Jetson_connector/JT_VDD_5V*%
X146771360Y-127017780D03*
%TO.P,J2,108,VDD_3V3_SLP1*%
%TO.N,/Jetson_connector/JT_VDD_3V3*%
X152948640Y-126517400D03*
%TO.P,J2,107,I2C_GP0_DAT_1V8*%
%TO.N,JT_1p8V_I2C3_CAM_DAT*%
X146771360Y-126517400D03*
%TO.P,J2,106,106*%
%TO.N,unconnected-(J2-Pad106)*%
X152948640Y-126017020D03*
%TO.P,J2,105,I2C_GP0_CLK_1V8*%
%TO.N,JT_1p8V_I2C3_CAM_CLK*%
X146771360Y-126017020D03*
%TO.P,J2,104,104*%
%TO.N,unconnected-(J2-Pad104)*%
X152948640Y-125516640D03*
%TO.P,J2,103,SNN_FLASH_MASK*%
%TO.N,unconnected-(J2-Pad103)*%
X146771360Y-125516640D03*
%TO.P,J2,102,DVDD_CAM_IO_1V8*%
%TO.N,JT_VDD_1V8*%
X152948640Y-125016260D03*
%TO.P,J2,101,DVDD_CAM_IO_1V2*%
%TO.N,/Jetson_connector/JT_VDD_1V2*%
X146771360Y-125016260D03*
%TO.P,J2,100,GND*%
%TO.N,Earth*%
X152948640Y-124515880D03*
%TO.P,J2,99,GND*%
X146771360Y-124515880D03*
%TO.P,J2,98,CAM2_RST*%
%TO.N,unconnected-(J2-Pad98)*%
X152948640Y-124015500D03*
%TO.P,J2,97,GPIO5_CAM_FLASH_EN*%
%TO.N,unconnected-(J2-Pad97)*%
X146771360Y-124015500D03*
%TO.P,J2,96,CAM2_PWDN*%
%TO.N,unconnected-(J2-Pad96)*%
X152948640Y-123517660D03*
%TO.P,J2,95,GPIO2_CAM0_RST*%
%TO.N,JT_1p8V_CAM0_RST*%
X146771360Y-123517660D03*
%TO.P,J2,94,CAM2_MCLK*%
%TO.N,unconnected-(J2-Pad94)*%
X152948640Y-123017280D03*
%TO.P,J2,93,GPIO0_CAM0_PWR*%
%TO.N,JT_1p8V_CAM0_PWR*%
X146771360Y-123017280D03*
%TO.P,J2,92,CAM1_RST_L*%
%TO.N,unconnected-(J2-Pad92)*%
X152948640Y-122516900D03*
%TO.P,J2,91,CAM0_MCLK*%
%TO.N,JT_1p8V_CAM0_MCLK*%
X146771360Y-122516900D03*
%TO.P,J2,90,CAM1_PWDN*%
%TO.N,unconnected-(J2-Pad90)*%
X152948640Y-122016520D03*
%TO.P,J2,89,CAM_I2C2_SDA*%
%TO.N,JT_1p8V_I2C2_CAM_DAT*%
X146771360Y-122016520D03*
%TO.P,J2,88,CAM1_MCLK*%
%TO.N,unconnected-(J2-Pad88)*%
X152948640Y-121516140D03*
%TO.P,J2,87,CAM_I2C2_SCL*%
%TO.N,JT_1p8V_I2C2_CAM_CLK*%
X146771360Y-121516140D03*
%TO.P,J2,86,CAM_VSYNC*%
%TO.N,unconnected-(J2-Pad86)*%
X152948640Y-121015760D03*
%TO.P,J2,85,CAM_AF_PWDN*%
%TO.N,unconnected-(J2-Pad85)*%
X146771360Y-121015760D03*
%TO.P,J2,84,VDD_AF*%
%TO.N,unconnected-(J2-Pad84)*%
X152948640Y-120517920D03*
%TO.P,J2,83,AVDD_CAM*%
%TO.N,/Jetson_connector/JT_VDD_2V8*%
X146771360Y-120517920D03*
%TO.P,J2,82,AVDD_CAM*%
X152948640Y-120017540D03*
%TO.P,J2,81,AVDD_CAM*%
X146771360Y-120017540D03*
%TO.P,J2,80,GND*%
%TO.N,Earth*%
X152948640Y-119517160D03*
%TO.P,J2,79,GND*%
X146771360Y-119517160D03*
%TO.P,J2,78,I2S3_SDOUT*%
%TO.N,unconnected-(J2-Pad78)*%
X152948640Y-119016780D03*
%TO.P,J2,77,I2C_CAM_DAT*%
%TO.N,JT_1p8V_I2C_CAM_DAT*%
X146771360Y-119016780D03*
%TO.P,J2,76,I2S3_SDIN*%
%TO.N,unconnected-(J2-Pad76)*%
X152948640Y-118516400D03*
%TO.P,J2,75,I2C_CAM_CLK*%
%TO.N,JT_1p8V_I2C_CAM_CLK*%
X146771360Y-118516400D03*
%TO.P,J2,74,I2S3_LRCLK*%
%TO.N,unconnected-(J2-Pad74)*%
X152948640Y-118016020D03*
%TO.P,J2,73,73*%
%TO.N,unconnected-(J2-Pad73)*%
X146771360Y-118016020D03*
%TO.P,J2,72,I2S3_CLK*%
%TO.N,unconnected-(J2-Pad72)*%
X152948640Y-117515640D03*
%TO.P,J2,71,71*%
%TO.N,unconnected-(J2-Pad71)*%
X146771360Y-117515640D03*
%TO.P,J2,70,GND*%
%TO.N,Earth*%
X152948640Y-117017800D03*
%TO.P,J2,69,69*%
%TO.N,unconnected-(J2-Pad69)*%
X146771360Y-117017800D03*
%TO.P,J2,68,68*%
%TO.N,unconnected-(J2-Pad68)*%
X152948640Y-116517420D03*
%TO.P,J2,67,67*%
%TO.N,unconnected-(J2-Pad67)*%
X146771360Y-116517420D03*
%TO.P,J2,66,66*%
%TO.N,unconnected-(J2-Pad66)*%
X152948640Y-116017040D03*
%TO.P,J2,65,65*%
%TO.N,unconnected-(J2-Pad65)*%
X146771360Y-116017040D03*
%TO.P,J2,64,64*%
%TO.N,unconnected-(J2-Pad64)*%
X152948640Y-115516660D03*
%TO.P,J2,63,63*%
%TO.N,unconnected-(J2-Pad63)*%
X146771360Y-115516660D03*
%TO.P,J2,62,62*%
%TO.N,unconnected-(J2-Pad62)*%
X152948640Y-115016280D03*
%TO.P,J2,61,61*%
%TO.N,unconnected-(J2-Pad61)*%
X146771360Y-115016280D03*
%TO.P,J2,60,60*%
%TO.N,unconnected-(J2-Pad60)*%
X152948640Y-109519720D03*
%TO.P,J2,59,59*%
%TO.N,unconnected-(J2-Pad59)*%
X146771360Y-109519720D03*
%TO.P,J2,58,DVDD_CAM_LV2*%
%TO.N,unconnected-(J2-Pad58)*%
X152948640Y-109019340D03*
%TO.P,J2,57,DVDD_CAM_LV2*%
%TO.N,unconnected-(J2-Pad57)*%
X146771360Y-109019340D03*
%TO.P,J2,56,DVDD_CAM_LV1*%
%TO.N,unconnected-(J2-Pad56)*%
X152948640Y-108518960D03*
%TO.P,J2,55,DVDD_CAM_LV1*%
%TO.N,unconnected-(J2-Pad55)*%
X146771360Y-108518960D03*
%TO.P,J2,54,GND*%
%TO.N,Earth*%
X152948640Y-108018580D03*
%TO.P,J2,53,GND*%
X146771360Y-108018580D03*
%TO.P,J2,52,CSI5_D1\u2013*%
%TO.N,unconnected-(J2-Pad52)*%
X152948640Y-107518200D03*
%TO.P,J2,51,CSI4_D1\u2013*%
%TO.N,unconnected-(J2-Pad51)*%
X146771360Y-107518200D03*
%TO.P,J2,50,CSI5_D1+*%
%TO.N,unconnected-(J2-Pad50)*%
X152948640Y-107020360D03*
%TO.P,J2,49,CSI4_D1+*%
%TO.N,unconnected-(J2-Pad49)*%
X146771360Y-107020360D03*
%TO.P,J2,48,GND*%
%TO.N,Earth*%
X152948640Y-106519980D03*
%TO.P,J2,47,GND*%
X146771360Y-106519980D03*
%TO.P,J2,46,CSI5_CLK\u2013*%
%TO.N,unconnected-(J2-Pad46)*%
X152948640Y-106019600D03*
%TO.P,J2,45,CSI4_CLK\u2013*%
%TO.N,unconnected-(J2-Pad45)*%
X146771360Y-106019600D03*
%TO.P,J2,44,CSI5_CLK+*%
%TO.N,unconnected-(J2-Pad44)*%
X152948640Y-105519220D03*
%TO.P,J2,43,CSI4_CLK+*%
%TO.N,unconnected-(J2-Pad43)*%
X146771360Y-105519220D03*
%TO.P,J2,42,GND*%
%TO.N,Earth*%
X152948640Y-105018840D03*
%TO.P,J2,41,GND*%
X146771360Y-105018840D03*
%TO.P,J2,40,CSI5_D0\u2013*%
%TO.N,unconnected-(J2-Pad40)*%
X152948640Y-104518460D03*
%TO.P,J2,39,CSI4_D0\u2013*%
%TO.N,unconnected-(J2-Pad39)*%
X146771360Y-104518460D03*
%TO.P,J2,38,CSI5_D0+*%
%TO.N,unconnected-(J2-Pad38)*%
X152948640Y-104018080D03*
%TO.P,J2,37,CSI4_D0+*%
%TO.N,unconnected-(J2-Pad37)*%
X146771360Y-104018080D03*
%TO.P,J2,36,GND*%
%TO.N,Earth*%
X152948640Y-103520240D03*
%TO.P,J2,35,GND*%
X146771360Y-103520240D03*
%TO.P,J2,34,CSI3_D1\u2013*%
%TO.N,CSI_D_D1_N*%
X152948640Y-103019860D03*
%TO.P,J2,33,CSI2_D1\u2013*%
%TO.N,CSI_C_D1_N*%
X146771360Y-103019860D03*
%TO.P,J2,32,CSI3_D1+*%
%TO.N,CSI_D_D1_P*%
X152948640Y-102519480D03*
%TO.P,J2,31,CSI2_D1+*%
%TO.N,CSI_C_D1_P*%
X146771360Y-102519480D03*
%TO.P,J2,30,GND*%
%TO.N,Earth*%
X152948640Y-102019100D03*
%TO.P,J2,29,GND*%
X146771360Y-102019100D03*
%TO.P,J2,28,CSI3_CLK\u2013*%
%TO.N,CSI_D_CLK_N*%
X152948640Y-101518720D03*
%TO.P,J2,27,CSI2_CLK\u2013*%
%TO.N,CSI_C_CLK_N*%
X146771360Y-101518720D03*
%TO.P,J2,26,CSI3_CLK+*%
%TO.N,CSI_D_CLK_P*%
X152948640Y-101018340D03*
%TO.P,J2,25,CSI2_CLK+*%
%TO.N,CSI_C_CLK_P*%
X146771360Y-101018340D03*
%TO.P,J2,24,GND*%
%TO.N,Earth*%
X152948640Y-100520500D03*
%TO.P,J2,23,GND*%
X146771360Y-100520500D03*
%TO.P,J2,22,CSI3_D0\u2013*%
%TO.N,CSI_D_D0_N*%
X152948640Y-100020120D03*
%TO.P,J2,21,CSI2_D0\u2013*%
%TO.N,CSI_C_D0_N*%
X146771360Y-100020120D03*
%TO.P,J2,20,CSI3_D0+*%
%TO.N,CSI_D_D0_P*%
X152948640Y-99519740D03*
%TO.P,J2,19,CSI2_D0+*%
%TO.N,CSI_C_D0_P*%
X146771360Y-99519740D03*
%TO.P,J2,18,GND*%
%TO.N,Earth*%
X152948640Y-99019360D03*
%TO.P,J2,17,GND*%
X146771360Y-99019360D03*
%TO.P,J2,16,CSI1_D1_N*%
%TO.N,unconnected-(J2-Pad16)*%
X152948640Y-98518980D03*
%TO.P,J2,15,CSI0_D1\u2013*%
%TO.N,unconnected-(J2-Pad15)*%
X146771360Y-98518980D03*
%TO.P,J2,14,CSI1_D1_P*%
%TO.N,unconnected-(J2-Pad14)*%
X152948640Y-98018600D03*
%TO.P,J2,13,CSI0_D1+*%
%TO.N,unconnected-(J2-Pad13)*%
X146771360Y-98018600D03*
%TO.P,J2,12,GND*%
%TO.N,Earth*%
X152948640Y-97518220D03*
%TO.P,J2,11,GND*%
X146771360Y-97518220D03*
%TO.P,J2,10,CSI1_CLK_N*%
%TO.N,unconnected-(J2-Pad10)*%
X152948640Y-97020380D03*
%TO.P,J2,9,CSI0_CLK\u2013*%
%TO.N,unconnected-(J2-Pad9)*%
X146771360Y-97020380D03*
%TO.P,J2,8,CSI1_CLK_P*%
%TO.N,unconnected-(J2-Pad8)*%
X152948640Y-96520000D03*
%TO.P,J2,7,CSI0_CLK+*%
%TO.N,unconnected-(J2-Pad7)*%
X146771360Y-96520000D03*
%TO.P,J2,6,GND*%
%TO.N,Earth*%
X152948640Y-96019620D03*
%TO.P,J2,5,GND*%
X146771360Y-96019620D03*
%TO.P,J2,4,CSI1_D0_N*%
%TO.N,unconnected-(J2-Pad4)*%
X152948640Y-95519240D03*
%TO.P,J2,3,CSI0_D0\u2013*%
%TO.N,unconnected-(J2-Pad3)*%
X146771360Y-95519240D03*
%TO.P,J2,2,CSI1_D0_P*%
%TO.N,unconnected-(J2-Pad2)*%
X152948640Y-95018860D03*
%TO.P,J2,1,CSI0_D0+*%
%TO.N,unconnected-(J2-Pad1)*%
X146771360Y-95018860D03*
%TD*%
D20*
%TO.P,C21,1*%
%TO.N,Earth*%
X147997000Y-81407000D03*
%TO.P,C21,2*%
%TO.N,/VOLT_3P3*%
X146897000Y-81407000D03*
%TD*%
D21*
%TO.P,C22,1*%
%TO.N,Earth*%
X152146000Y-86318000D03*
%TO.P,C22,2*%
%TO.N,/VOLT_3P3*%
X152146000Y-87418000D03*
%TD*%
%TO.P,C23,1*%
%TO.N,Earth*%
X140716000Y-87080000D03*
%TO.P,C23,2*%
%TO.N,/VOLT_3P3*%
X140716000Y-88180000D03*
%TD*%
%TO.P,C11,1*%
%TO.N,/VOLT_1P8*%
X126746000Y-136102000D03*
%TO.P,C11,2*%
%TO.N,Earth*%
X126746000Y-137202000D03*
%TD*%
%TO.P,C12,1*%
%TO.N,/VDD_VADJ*%
X133858000Y-137202000D03*
%TO.P,C12,2*%
%TO.N,Earth*%
X133858000Y-136102000D03*
%TD*%
%TO.P,C9,1*%
%TO.N,/VDD_VADJ*%
X133350000Y-122724000D03*
%TO.P,C9,2*%
%TO.N,Earth*%
X133350000Y-121624000D03*
%TD*%
%TO.P,C10,1*%
%TO.N,/VDD_VADJ*%
X133604000Y-129244000D03*
%TO.P,C10,2*%
%TO.N,Earth*%
X133604000Y-130344000D03*
%TD*%
%TO.P,C13,1*%
%TO.N,/VOLT_1P8*%
X135890000Y-129244000D03*
%TO.P,C13,2*%
%TO.N,Earth*%
X135890000Y-130344000D03*
%TD*%
%TO.P,C24,1*%
%TO.N,/VOLT_1P8*%
X135890000Y-122724000D03*
%TO.P,C24,2*%
%TO.N,Earth*%
X135890000Y-121624000D03*
%TD*%
%TO.P,C6,1*%
%TO.N,Earth*%
X102870000Y-123148000D03*
%TO.P,C6,2*%
%TO.N,JT_VDD_1V8*%
X102870000Y-124248000D03*
%TD*%
D22*
%TO.P,C28,1*%
%TO.N,Earth*%
X133651500Y-82702400D03*
%TO.P,C28,2*%
%TO.N,/VOLT_1P2*%
X131651500Y-82702400D03*
%TD*%
D21*
%TO.P,C20,1*%
%TO.N,Earth*%
X136906000Y-97578000D03*
%TO.P,C20,2*%
%TO.N,/VOLT_3P3*%
X136906000Y-96478000D03*
%TD*%
D23*
%TO.P,C30,1*%
%TO.N,Earth*%
X129222500Y-84667600D03*
%TO.P,C30,2*%
%TO.N,/VOLT_1P2*%
X129222500Y-82667600D03*
%TD*%
D21*
%TO.P,C18,1*%
%TO.N,Earth*%
X132334000Y-98510000D03*
%TO.P,C18,2*%
%TO.N,/VOLT_3P3*%
X132334000Y-99610000D03*
%TD*%
%TO.P,C39,1*%
%TO.N,Earth*%
X99568000Y-127974000D03*
%TO.P,C39,2*%
%TO.N,/VDD_VADJ*%
X99568000Y-129074000D03*
%TD*%
D24*
%TO.P,U2,1,VCCA*%
%TO.N,/VOLT_3P3*%
X94894400Y-129274001D03*
%TO.P,U2,2,A1*%
%TO.N,Net-(R32-Pad2)*%
X94894400Y-128774000D03*
%TO.P,U2,3,A2*%
%TO.N,Net-(R34-Pad2)*%
X94894400Y-128274000D03*
%TO.P,U2,4,GND*%
%TO.N,Earth*%
X94894400Y-127773999D03*
%TO.P,U2,5,DIR*%
%TO.N,Net-(R33-Pad2)*%
X97637600Y-127773999D03*
%TO.P,U2,6,B2*%
%TO.N,FMC_3P3V_MONITOR*%
X97637600Y-128274000D03*
%TO.P,U2,7,B1*%
%TO.N,FMC_2P8V_MONITOR*%
X97637600Y-128774000D03*
%TO.P,U2,8,VCCB*%
%TO.N,/VDD_VADJ*%
X97637600Y-129274001D03*
%TD*%
D21*
%TO.P,C40,1*%
%TO.N,Earth*%
X108712000Y-127974000D03*
%TO.P,C40,2*%
%TO.N,/VDD_VADJ*%
X108712000Y-129074000D03*
%TD*%
%TO.P,C3,1*%
%TO.N,/Jetson_connector/VCC_1V8_EEPROM*%
X117348000Y-123148000D03*
%TO.P,C3,2*%
%TO.N,Earth*%
X117348000Y-124248000D03*
%TD*%
%TO.P,C33,1*%
%TO.N,/VDD_VADJ*%
X102870000Y-118914000D03*
%TO.P,C33,2*%
%TO.N,Earth*%
X102870000Y-117814000D03*
%TD*%
%TO.P,C32,1*%
%TO.N,/VOLT_1P8*%
X95758000Y-117814000D03*
%TO.P,C32,2*%
%TO.N,Earth*%
X95758000Y-118914000D03*
%TD*%
%TO.P,C35,1*%
%TO.N,/VDD_VADJ*%
X94234000Y-123148000D03*
%TO.P,C35,2*%
%TO.N,Earth*%
X94234000Y-124248000D03*
%TD*%
D25*
%TO.P,IC2,1,A0*%
%TO.N,/Jetson_connector/EEPROM_A0*%
X122100000Y-122948000D03*
%TO.P,IC2,2,A1*%
%TO.N,/Jetson_connector/EEPROM_A1*%
X122100000Y-123448000D03*
%TO.P,IC2,3,A2*%
%TO.N,/Jetson_connector/EEPROM_A2*%
X122100000Y-123948000D03*
%TO.P,IC2,4,GND*%
%TO.N,Earth*%
X122100000Y-124448000D03*
%TO.P,IC2,5,SDA*%
%TO.N,/Jetson_connector/EEPROM_SDA*%
X119200000Y-124448000D03*
%TO.P,IC2,6,SCL*%
%TO.N,/Jetson_connector/EEPROM_SCL*%
X119200000Y-123948000D03*
%TO.P,IC2,7,WP*%
%TO.N,Earth*%
X119200000Y-123448000D03*
%TO.P,IC2,8,VCC*%
%TO.N,/Jetson_connector/VCC_1V8_EEPROM*%
X119200000Y-122948000D03*
D26*
%TO.P,IC2,9,EP*%
%TO.N,Earth*%
X120650000Y-123698000D03*
%TD*%
D21*
%TO.P,C5,1*%
%TO.N,Earth*%
X104648000Y-123148000D03*
%TO.P,C5,2*%
%TO.N,JT_VDD_1V8*%
X104648000Y-124248000D03*
%TD*%
%TO.P,C34,1*%
%TO.N,/VOLT_1P8*%
X100838000Y-124248000D03*
%TO.P,C34,2*%
%TO.N,Earth*%
X100838000Y-123148000D03*
%TD*%
D23*
%TO.P,C29,1*%
%TO.N,Earth*%
X123698000Y-133588000D03*
%TO.P,C29,2*%
%TO.N,/VOLT_1P8*%
X123698000Y-131588000D03*
%TD*%
D27*
%TO.P,U1,1,IN*%
%TO.N,/VOLT_3P3*%
X120330000Y-133725500D03*
%TO.P,U1,2,GND*%
%TO.N,Earth*%
X119380000Y-133725500D03*
%TO.P,U1,3,EN*%
%TO.N,Net-(R8-Pad2)*%
X118430000Y-133725500D03*
%TO.P,U1,4,NC*%
%TO.N,unconnected-(U1-Pad4)*%
X118430000Y-131450500D03*
%TO.P,U1,5,OUT*%
%TO.N,/VOLT_1P8*%
X120330000Y-131450500D03*
%TD*%
D22*
%TO.P,C8,1*%
%TO.N,Earth*%
X118380000Y-128524000D03*
%TO.P,C8,2*%
%TO.N,/VOLT_1P8*%
X120380000Y-128524000D03*
%TD*%
%TO.P,C7,1*%
%TO.N,Earth*%
X118380000Y-136652000D03*
%TO.P,C7,2*%
%TO.N,/VOLT_3P3*%
X120380000Y-136652000D03*
%TD*%
D21*
%TO.P,C2,1*%
%TO.N,Earth*%
X115570000Y-84878000D03*
%TO.P,C2,2*%
%TO.N,/VOLT_3P3*%
X115570000Y-83778000D03*
%TD*%
D20*
%TO.P,C1,1*%
%TO.N,Earth*%
X106384000Y-82550000D03*
%TO.P,C1,2*%
%TO.N,/VDD_VADJ*%
X107484000Y-82550000D03*
%TD*%
D28*
%TO.P,R10,1*%
%TO.N,/LVDS_to_Jetson_lines/DIR_U8*%
X111252000Y-67056000D03*
%TO.P,R10,2*%
%TO.N,Earth*%
X111252000Y-68956000D03*
%TD*%
D29*
%TO.P,IC1,1,VCCA*%
%TO.N,/VDD_VADJ*%
X109596700Y-82602500D03*
%TO.P,IC1,2,1DIR*%
%TO.N,/LVDS_to_Jetson_lines/DIR_IC1*%
X109596700Y-81952500D03*
%TO.P,IC1,3,2DIR*%
X109596700Y-81302500D03*
%TO.P,IC1,4,1A1*%
%TO.N,FMC_SWITCH_DATA_LANES_VADJ*%
X109596700Y-80652500D03*
%TO.P,IC1,5,1A2*%
%TO.N,FMC_SWITCH_CLOCK_LANES_VADJ*%
X109596700Y-80002500D03*
%TO.P,IC1,6,2A1*%
%TO.N,FMC_EN_MIPI_OUT_DATA_VADJ*%
X109596700Y-79352500D03*
%TO.P,IC1,7,2A2*%
%TO.N,FMC_EN_MIPI_OUT_CLOCK_VADJ*%
X109596700Y-78702500D03*
%TO.P,IC1,8,GND*%
%TO.N,Earth*%
X109596700Y-78052500D03*
%TO.P,IC1,9,GND*%
X115472700Y-78052500D03*
%TO.P,IC1,10,2B2*%
%TO.N,/LVDS_to_Jetson_lines/EN_MIPI_OUT_CSI_D*%
X115472700Y-78702500D03*
%TO.P,IC1,11,2B1*%
%TO.N,/LVDS_to_Jetson_lines/EN_MIPI_OUT_CSI_C*%
X115472700Y-79352500D03*
%TO.P,IC1,12,1B2*%
%TO.N,/LVDS_to_Jetson_lines/SWITCH_CLOCK_LANES_CSI_CD*%
X115472700Y-80002500D03*
%TO.P,IC1,13,1B1*%
%TO.N,/LVDS_to_Jetson_lines/SWITCH_DATA_LANES_CSI_CD*%
X115472700Y-80652500D03*
%TO.P,IC1,14,2~{OE}*%
%TO.N,Earth*%
X115472700Y-81302500D03*
%TO.P,IC1,15,1~{OE}*%
X115472700Y-81952500D03*
%TO.P,IC1,16,VCCB*%
%TO.N,/VOLT_3P3*%
X115472700Y-82602500D03*
%TD*%
D30*
%TO.P,J1,K40,VIO_B_M2C*%
%TO.N,unconnected-(J1-PadK40)*%
X149733000Y-45593000D03*
%TO.P,J1,K39,GND*%
%TO.N,Earth*%
X148463000Y-45593000D03*
%TO.P,J1,K38,HB17_N_CC*%
%TO.N,unconnected-(J1-PadK38)*%
X147193000Y-45593000D03*
%TO.P,J1,K37,HB17_P_CC*%
%TO.N,unconnected-(J1-PadK37)*%
X145923000Y-45593000D03*
%TO.P,J1,K36,GND*%
%TO.N,Earth*%
X144653000Y-45593000D03*
%TO.P,J1,K35,HB14_N*%
%TO.N,unconnected-(J1-PadK35)*%
X143383000Y-45593000D03*
%TO.P,J1,K34,HB14_P*%
%TO.N,unconnected-(J1-PadK34)*%
X142113000Y-45593000D03*
%TO.P,J1,K33,GND*%
%TO.N,Earth*%
X140843000Y-45593000D03*
%TO.P,J1,K32,HB10_N*%
%TO.N,unconnected-(J1-PadK32)*%
X139573000Y-45593000D03*
%TO.P,J1,K31,HB10_P*%
%TO.N,unconnected-(J1-PadK31)*%
X138303000Y-45593000D03*
D31*
%TO.P,J1,K30,GND*%
%TO.N,Earth*%
X137033000Y-45593000D03*
D30*
%TO.P,J1,K29,HB06_N_CC*%
%TO.N,unconnected-(J1-PadK29)*%
X135763000Y-45593000D03*
%TO.P,J1,K28,HB06_P_CC*%
%TO.N,unconnected-(J1-PadK28)*%
X134493000Y-45593000D03*
%TO.P,J1,K27,GND*%
%TO.N,Earth*%
X133223000Y-45593000D03*
D31*
%TO.P,J1,K26,HB00_N_CC*%
%TO.N,unconnected-(J1-PadK26)*%
X131953000Y-45593000D03*
D30*
%TO.P,J1,K25,HB00_P_CC*%
%TO.N,unconnected-(J1-PadK25)*%
X130683000Y-45593000D03*
%TO.P,J1,K24,GND*%
%TO.N,Earth*%
X129413000Y-45593000D03*
D31*
%TO.P,J1,K23,HA23_N*%
%TO.N,unconnected-(J1-PadK23)*%
X128143000Y-45593000D03*
D30*
%TO.P,J1,K22,HA23_P*%
%TO.N,unconnected-(J1-PadK22)*%
X126873000Y-45593000D03*
%TO.P,J1,K21,GND*%
%TO.N,Earth*%
X125603000Y-45593000D03*
%TO.P,J1,K20,HA21_N*%
%TO.N,unconnected-(J1-PadK20)*%
X124333000Y-45593000D03*
%TO.P,J1,K19,HA21_P*%
%TO.N,unconnected-(J1-PadK19)*%
X123063000Y-45593000D03*
%TO.P,J1,K18,GND*%
%TO.N,Earth*%
X121793000Y-45593000D03*
%TO.P,J1,K17,HA17_N_CC*%
%TO.N,unconnected-(J1-PadK17)*%
X120523000Y-45593000D03*
%TO.P,J1,K16,HA17_P_CC*%
%TO.N,unconnected-(J1-PadK16)*%
X119253000Y-45593000D03*
%TO.P,J1,K15,GND*%
%TO.N,Earth*%
X117983000Y-45593000D03*
%TO.P,J1,K14,HA10_N*%
%TO.N,unconnected-(J1-PadK14)*%
X116713000Y-45593000D03*
%TO.P,J1,K13,HA10_P*%
%TO.N,unconnected-(J1-PadK13)*%
X115443000Y-45593000D03*
%TO.P,J1,K12,GND*%
%TO.N,Earth*%
X114173000Y-45593000D03*
%TO.P,J1,K11,HA06_N*%
%TO.N,unconnected-(J1-PadK11)*%
X112903000Y-45593000D03*
%TO.P,J1,K10,HA06_P*%
%TO.N,unconnected-(J1-PadK10)*%
X111633000Y-45593000D03*
%TO.P,J1,K9,GND*%
%TO.N,Earth*%
X110363000Y-45593000D03*
%TO.P,J1,K8,HA02_N*%
%TO.N,unconnected-(J1-PadK8)*%
X109093000Y-45593000D03*
%TO.P,J1,K7,HA02_P*%
%TO.N,unconnected-(J1-PadK7)*%
X107823000Y-45593000D03*
%TO.P,J1,K6,GND*%
%TO.N,Earth*%
X106553000Y-45593000D03*
%TO.P,J1,K5,CLK2_M2C_N*%
%TO.N,unconnected-(J1-PadK5)*%
X105283000Y-45593000D03*
%TO.P,J1,K4,CLK2_M2C_P*%
%TO.N,unconnected-(J1-PadK4)*%
X104013000Y-45593000D03*
D31*
%TO.P,J1,K3,GND*%
%TO.N,Earth*%
X102743000Y-45593000D03*
D30*
%TO.P,J1,K2,GND*%
X101473000Y-45593000D03*
%TO.P,J1,K1,VREF_B_M2C*%
%TO.N,unconnected-(J1-PadK1)*%
X100203000Y-45593000D03*
%TO.P,J1,J40,GND*%
%TO.N,Earth*%
X149733000Y-44323000D03*
%TO.P,J1,J39,VIO_B_M2C*%
%TO.N,unconnected-(J1-PadJ39)*%
X148463000Y-44323000D03*
%TO.P,J1,J38,GND*%
%TO.N,Earth*%
X147193000Y-44323000D03*
%TO.P,J1,J37,HB18_N*%
%TO.N,unconnected-(J1-PadJ37)*%
X145923000Y-44323000D03*
%TO.P,J1,J36,HB18_P*%
%TO.N,unconnected-(J1-PadJ36)*%
X144653000Y-44323000D03*
%TO.P,J1,J35,GND*%
%TO.N,Earth*%
X143383000Y-44323000D03*
%TO.P,J1,J34,HB15_N*%
%TO.N,unconnected-(J1-PadJ34)*%
X142113000Y-44323000D03*
%TO.P,J1,J33,HB15_P*%
%TO.N,unconnected-(J1-PadJ33)*%
X140843000Y-44323000D03*
%TO.P,J1,J32,GND*%
%TO.N,Earth*%
X139573000Y-44323000D03*
%TO.P,J1,J31,HB11_N*%
%TO.N,unconnected-(J1-PadJ31)*%
X138303000Y-44323000D03*
D31*
%TO.P,J1,J30,HB11_P*%
%TO.N,unconnected-(J1-PadJ30)*%
X137033000Y-44323000D03*
D30*
%TO.P,J1,J29,GND*%
%TO.N,Earth*%
X135763000Y-44323000D03*
%TO.P,J1,J28,HB07_N*%
%TO.N,unconnected-(J1-PadJ28)*%
X134493000Y-44323000D03*
%TO.P,J1,J27,HB07_P*%
%TO.N,unconnected-(J1-PadJ27)*%
X133223000Y-44323000D03*
D31*
%TO.P,J1,J26,GND*%
%TO.N,Earth*%
X131953000Y-44323000D03*
D30*
%TO.P,J1,J25,HB01_N*%
%TO.N,unconnected-(J1-PadJ25)*%
X130683000Y-44323000D03*
%TO.P,J1,J24,HB01_P*%
%TO.N,unconnected-(J1-PadJ24)*%
X129413000Y-44323000D03*
D31*
%TO.P,J1,J23,GND*%
%TO.N,Earth*%
X128143000Y-44323000D03*
D30*
%TO.P,J1,J22,HA22_N*%
%TO.N,unconnected-(J1-PadJ22)*%
X126873000Y-44323000D03*
%TO.P,J1,J21,HA22_P*%
%TO.N,unconnected-(J1-PadJ21)*%
X125603000Y-44323000D03*
%TO.P,J1,J20,GND*%
%TO.N,Earth*%
X124333000Y-44323000D03*
%TO.P,J1,J19,HA18_N*%
%TO.N,unconnected-(J1-PadJ19)*%
X123063000Y-44323000D03*
%TO.P,J1,J18,HA18_P*%
%TO.N,unconnected-(J1-PadJ18)*%
X121793000Y-44323000D03*
%TO.P,J1,J17,GND*%
%TO.N,Earth*%
X120523000Y-44323000D03*
%TO.P,J1,J16,HA14_N*%
%TO.N,unconnected-(J1-PadJ16)*%
X119253000Y-44323000D03*
%TO.P,J1,J15,HA14_P*%
%TO.N,unconnected-(J1-PadJ15)*%
X117983000Y-44323000D03*
%TO.P,J1,J14,GND*%
%TO.N,Earth*%
X116713000Y-44323000D03*
%TO.P,J1,J13,HA11_N*%
%TO.N,unconnected-(J1-PadJ13)*%
X115443000Y-44323000D03*
%TO.P,J1,J12,HA11_P*%
%TO.N,unconnected-(J1-PadJ12)*%
X114173000Y-44323000D03*
%TO.P,J1,J11,GND*%
%TO.N,Earth*%
X112903000Y-44323000D03*
%TO.P,J1,J10,HA07_N*%
%TO.N,unconnected-(J1-PadJ10)*%
X111633000Y-44323000D03*
%TO.P,J1,J9,HA07_P*%
%TO.N,unconnected-(J1-PadJ9)*%
X110363000Y-44323000D03*
%TO.P,J1,J8,GND*%
%TO.N,Earth*%
X109093000Y-44323000D03*
%TO.P,J1,J7,HA03_N*%
%TO.N,unconnected-(J1-PadJ7)*%
X107823000Y-44323000D03*
%TO.P,J1,J6,HA03_P*%
%TO.N,unconnected-(J1-PadJ6)*%
X106553000Y-44323000D03*
%TO.P,J1,J5,GND*%
%TO.N,Earth*%
X105283000Y-44323000D03*
%TO.P,J1,J4,GND*%
X104013000Y-44323000D03*
D31*
%TO.P,J1,J3,CLK3_M2C_N*%
%TO.N,unconnected-(J1-PadJ3)*%
X102743000Y-44323000D03*
D30*
%TO.P,J1,J2,CLK3_M2C_P*%
%TO.N,unconnected-(J1-PadJ2)*%
X101473000Y-44323000D03*
%TO.P,J1,J1,GND*%
%TO.N,Earth*%
X100203000Y-44323000D03*
%TO.P,J1,H40,VADJ*%
%TO.N,/VDD_VADJ*%
X149733000Y-43053000D03*
%TO.P,J1,H39,GND*%
%TO.N,Earth*%
X148463000Y-43053000D03*
%TO.P,J1,H38,LA32_N*%
%TO.N,FMC_HS_CSI_D_CLK_N*%
X147193000Y-43053000D03*
%TO.P,J1,H37,LA32_P*%
%TO.N,FMC_HS_CSI_D_CLK_P*%
X145923000Y-43053000D03*
%TO.P,J1,H36,GND*%
%TO.N,Earth*%
X144653000Y-43053000D03*
%TO.P,J1,H35,LA30_N*%
%TO.N,FMC_HS_CSI_D_D0_N*%
X143383000Y-43053000D03*
%TO.P,J1,H34,LA30_P*%
%TO.N,FMC_HS_CSI_D_D0_P*%
X142113000Y-43053000D03*
%TO.P,J1,H33,GND*%
%TO.N,Earth*%
X140843000Y-43053000D03*
%TO.P,J1,H32,LA28_N*%
%TO.N,FMC_HS_CSI_D_D1_N*%
X139573000Y-43053000D03*
%TO.P,J1,H31,LA28_P*%
%TO.N,FMC_HS_CSI_D_D1_P*%
X138303000Y-43053000D03*
D31*
%TO.P,J1,H30,GND*%
%TO.N,Earth*%
X137033000Y-43053000D03*
D30*
%TO.P,J1,H29,LA24_N*%
%TO.N,unconnected-(J1-PadH29)*%
X135763000Y-43053000D03*
%TO.P,J1,H28,LA24_P*%
%TO.N,unconnected-(J1-PadH28)*%
X134493000Y-43053000D03*
%TO.P,J1,H27,GND*%
%TO.N,Earth*%
X133223000Y-43053000D03*
D31*
%TO.P,J1,H26,LA21_N*%
%TO.N,unconnected-(J1-PadH26)*%
X131953000Y-43053000D03*
D30*
%TO.P,J1,H25,LA21_P*%
%TO.N,unconnected-(J1-PadH25)*%
X130683000Y-43053000D03*
%TO.P,J1,H24,GND*%
%TO.N,Earth*%
X129413000Y-43053000D03*
D31*
%TO.P,J1,H23,LA19_N*%
%TO.N,FMC_CSI_LP_C_CLK_N*%
X128143000Y-43053000D03*
D30*
%TO.P,J1,H22,LA19_P*%
%TO.N,FMC_CSI_LP_C_CLK_P*%
X126873000Y-43053000D03*
%TO.P,J1,H21,GND*%
%TO.N,Earth*%
X125603000Y-43053000D03*
%TO.P,J1,H20,LA15_N*%
%TO.N,FMC_CSI_LP_C_D0_N*%
X124333000Y-43053000D03*
%TO.P,J1,H19,LA15_P*%
%TO.N,FMC_CSI_LP_C_D0_P*%
X123063000Y-43053000D03*
%TO.P,J1,H18,GND*%
%TO.N,Earth*%
X121793000Y-43053000D03*
%TO.P,J1,H17,LA11_N*%
%TO.N,FMC_CSI_LP_C_D1_N*%
X120523000Y-43053000D03*
%TO.P,J1,H16,LA11_P*%
%TO.N,FMC_CSI_LP_C_D1_P*%
X119253000Y-43053000D03*
%TO.P,J1,H15,GND*%
%TO.N,Earth*%
X117983000Y-43053000D03*
%TO.P,J1,H14,LA07_N*%
%TO.N,FMC_HS_CSI_C_D0_N*%
X116713000Y-43053000D03*
%TO.P,J1,H13,LA07_P*%
%TO.N,FMC_HS_CSI_C_D0_P*%
X115443000Y-43053000D03*
%TO.P,J1,H12,GND*%
%TO.N,Earth*%
X114173000Y-43053000D03*
%TO.P,J1,H11,LA04_N*%
%TO.N,FMC_HS_CSI_C_D1_N*%
X112903000Y-43053000D03*
%TO.P,J1,H10,LA04_P*%
%TO.N,FMC_HS_CSI_C_D1_P*%
X111633000Y-43053000D03*
%TO.P,J1,H9,GND*%
%TO.N,Earth*%
X110363000Y-43053000D03*
%TO.P,J1,H8,LA02_N*%
%TO.N,FMC_1P2V_MONITOR*%
X109093000Y-43053000D03*
%TO.P,J1,H7,LA02_P*%
%TO.N,FMC_I2C3_CAM_CLK*%
X107823000Y-43053000D03*
%TO.P,J1,H6,GND*%
%TO.N,Earth*%
X106553000Y-43053000D03*
%TO.P,J1,H5,CLK0_M2C_N*%
%TO.N,unconnected-(J1-PadH5)*%
X105283000Y-43053000D03*
%TO.P,J1,H4,CLK0_M2C_P*%
%TO.N,unconnected-(J1-PadH4)*%
X104013000Y-43053000D03*
D31*
%TO.P,J1,H3,GND*%
%TO.N,Earth*%
X102743000Y-43053000D03*
D30*
%TO.P,J1,H2,PRSNT_M2C_L*%
%TO.N,unconnected-(J1-PadH2)*%
X101473000Y-43053000D03*
%TO.P,J1,H1,VREF_A_M2C*%
%TO.N,unconnected-(J1-PadH1)*%
X100203000Y-43053000D03*
%TO.P,J1,G40,GND*%
%TO.N,Earth*%
X149733000Y-41783000D03*
%TO.P,J1,G39,VADJ*%
%TO.N,/VDD_VADJ*%
X148463000Y-41783000D03*
%TO.P,J1,G38,GND*%
%TO.N,Earth*%
X147193000Y-41783000D03*
%TO.P,J1,G37,LA33_N*%
%TO.N,/FMC_Connector/DBG_IO_2*%
X145923000Y-41783000D03*
%TO.P,J1,G36,LA33_P*%
%TO.N,/FMC_Connector/DBG_IO_3*%
X144653000Y-41783000D03*
%TO.P,J1,G35,GND*%
%TO.N,Earth*%
X143383000Y-41783000D03*
%TO.P,J1,G34,LA31_N*%
%TO.N,/FMC_Connector/DBG_IO_1*%
X142113000Y-41783000D03*
%TO.P,J1,G33,LA31_P*%
%TO.N,FMC_CAM0_MCLK*%
X140843000Y-41783000D03*
%TO.P,J1,G32,GND*%
%TO.N,Earth*%
X139573000Y-41783000D03*
%TO.P,J1,G31,LA29_N*%
%TO.N,/FMC_Connector/DBG_IO_4*%
X138303000Y-41783000D03*
D31*
%TO.P,J1,G30,LA29_P*%
%TO.N,FMC_CAM0_PWR*%
X137033000Y-41783000D03*
D30*
%TO.P,J1,G29,GND*%
%TO.N,Earth*%
X135763000Y-41783000D03*
%TO.P,J1,G28,LA25_N*%
%TO.N,FMC_CAM0_RST*%
X134493000Y-41783000D03*
%TO.P,J1,G27,LA25_P*%
%TO.N,FMC_1P8V_MONITOR*%
X133223000Y-41783000D03*
D31*
%TO.P,J1,G26,GND*%
%TO.N,Earth*%
X131953000Y-41783000D03*
D30*
%TO.P,J1,G25,LA22_N*%
%TO.N,FMC_I2C_CAM_CLK*%
X130683000Y-41783000D03*
%TO.P,J1,G24,LA22_P*%
%TO.N,FMC_I2C_CAM_DAT*%
X129413000Y-41783000D03*
D31*
%TO.P,J1,G23,GND*%
%TO.N,Earth*%
X128143000Y-41783000D03*
D30*
%TO.P,J1,G22,LA20_N*%
%TO.N,FMC_CSI_LP_D_CLK_N*%
X126873000Y-41783000D03*
%TO.P,J1,G21,LA20_P*%
%TO.N,FMC_CSI_LP_D_CLK_P*%
X125603000Y-41783000D03*
%TO.P,J1,G20,GND*%
%TO.N,unconnected-(J1-PadG20)*%
X124333000Y-41783000D03*
%TO.P,J1,G19,LA16_N*%
%TO.N,FMC_CSI_LP_D_D0_N*%
X123063000Y-41783000D03*
%TO.P,J1,G18,LA16_P*%
%TO.N,FMC_CSI_LP_D_D0_P*%
X121793000Y-41783000D03*
%TO.P,J1,G17,GND*%
%TO.N,Earth*%
X120523000Y-41783000D03*
%TO.P,J1,G16,LA12_N*%
%TO.N,FMC_CSI_LP_D_D1_N*%
X119253000Y-41783000D03*
%TO.P,J1,G15,LA12_P*%
%TO.N,FMC_CSI_LP_D_D1_P*%
X117983000Y-41783000D03*
%TO.P,J1,G14,GND*%
%TO.N,Earth*%
X116713000Y-41783000D03*
%TO.P,J1,G13,LA08_N*%
%TO.N,FMC_SWITCH_CLOCK_LANES_VADJ*%
X115443000Y-41783000D03*
%TO.P,J1,G12,LA08_P*%
%TO.N,FMC_SWITCH_DATA_LANES_VADJ*%
X114173000Y-41783000D03*
%TO.P,J1,G11,GND*%
%TO.N,Earth*%
X112903000Y-41783000D03*
%TO.P,J1,G10,LA03_N*%
%TO.N,FMC_I2C3_CAM_DAT*%
X111633000Y-41783000D03*
%TO.P,J1,G9,LA03_P*%
%TO.N,FMC_I2C2_CAM_CLK*%
X110363000Y-41783000D03*
%TO.P,J1,G8,GND*%
%TO.N,Earth*%
X109093000Y-41783000D03*
%TO.P,J1,G7,LA00_N_CC*%
%TO.N,FMC_HS_CSI_C_CLK_N*%
X107823000Y-41783000D03*
%TO.P,J1,G6,LA00_P_CC*%
%TO.N,FMC_HS_CSI_C_CLK_P*%
X106553000Y-41783000D03*
%TO.P,J1,G5,GND*%
%TO.N,Earth*%
X105283000Y-41783000D03*
%TO.P,J1,G4,GND*%
X104013000Y-41783000D03*
D31*
%TO.P,J1,G3,CLK1_M2C_N*%
%TO.N,unconnected-(J1-PadG3)*%
X102743000Y-41783000D03*
D30*
%TO.P,J1,G2,CLK1_M2C_P*%
%TO.N,unconnected-(J1-PadG2)*%
X101473000Y-41783000D03*
%TO.P,J1,G1,GND*%
%TO.N,Earth*%
X100203000Y-41783000D03*
%TO.P,J1,F40,VADJ*%
%TO.N,/VDD_VADJ*%
X149733000Y-40513000D03*
%TO.P,J1,F39,GND*%
%TO.N,Earth*%
X148463000Y-40513000D03*
%TO.P,J1,F38,HB20_N*%
%TO.N,unconnected-(J1-PadF38)*%
X147193000Y-40513000D03*
%TO.P,J1,F37,HB20_P*%
%TO.N,unconnected-(J1-PadF37)*%
X145923000Y-40513000D03*
%TO.P,J1,F36,GND*%
%TO.N,Earth*%
X144653000Y-40513000D03*
%TO.P,J1,F35,HB16_N*%
%TO.N,unconnected-(J1-PadF35)*%
X143383000Y-40513000D03*
%TO.P,J1,F34,HB16_P*%
%TO.N,unconnected-(J1-PadF34)*%
X142113000Y-40513000D03*
%TO.P,J1,F33,GND*%
%TO.N,Earth*%
X140843000Y-40513000D03*
%TO.P,J1,F32,HB12_N*%
%TO.N,unconnected-(J1-PadF32)*%
X139573000Y-40513000D03*
%TO.P,J1,F31,HB12_P*%
%TO.N,unconnected-(J1-PadF31)*%
X138303000Y-40513000D03*
D31*
%TO.P,J1,F30,GND*%
%TO.N,Earth*%
X137033000Y-40513000D03*
D30*
%TO.P,J1,F29,HB08_N*%
%TO.N,unconnected-(J1-PadF29)*%
X135763000Y-40513000D03*
%TO.P,J1,F28,HB08_P*%
%TO.N,unconnected-(J1-PadF28)*%
X134493000Y-40513000D03*
%TO.P,J1,F27,GND*%
%TO.N,Earth*%
X133223000Y-40513000D03*
D31*
%TO.P,J1,F26,HB04_N*%
%TO.N,unconnected-(J1-PadF26)*%
X131953000Y-40513000D03*
D30*
%TO.P,J1,F25,HB04_P*%
%TO.N,unconnected-(J1-PadF25)*%
X130683000Y-40513000D03*
%TO.P,J1,F24,GND*%
%TO.N,Earth*%
X129413000Y-40513000D03*
D31*
%TO.P,J1,F23,HB02_N*%
%TO.N,unconnected-(J1-PadF23)*%
X128143000Y-40513000D03*
D30*
%TO.P,J1,F22,HB02_P*%
%TO.N,unconnected-(J1-PadF22)*%
X126873000Y-40513000D03*
%TO.P,J1,F21,GND*%
%TO.N,Earth*%
X125603000Y-40513000D03*
%TO.P,J1,F20,HA19_N*%
%TO.N,unconnected-(J1-PadF20)*%
X124333000Y-40513000D03*
%TO.P,J1,F19,HA19_P*%
%TO.N,unconnected-(J1-PadF19)*%
X123063000Y-40513000D03*
%TO.P,J1,F18,GND*%
%TO.N,Earth*%
X121793000Y-40513000D03*
%TO.P,J1,F17,HA15_N*%
%TO.N,unconnected-(J1-PadF17)*%
X120523000Y-40513000D03*
%TO.P,J1,F16,HA15_P*%
%TO.N,unconnected-(J1-PadF16)*%
X119253000Y-40513000D03*
%TO.P,J1,F15,GND*%
%TO.N,Earth*%
X117983000Y-40513000D03*
%TO.P,J1,F14,HA12_N*%
%TO.N,unconnected-(J1-PadF14)*%
X116713000Y-40513000D03*
%TO.P,J1,F13,HA12_P*%
%TO.N,unconnected-(J1-PadF13)*%
X115443000Y-40513000D03*
%TO.P,J1,F12,GND*%
%TO.N,Earth*%
X114173000Y-40513000D03*
%TO.P,J1,F11,HA08_N*%
%TO.N,unconnected-(J1-PadF11)*%
X112903000Y-40513000D03*
%TO.P,J1,F10,HA08_P*%
%TO.N,unconnected-(J1-PadF10)*%
X111633000Y-40513000D03*
%TO.P,J1,F9,GND*%
%TO.N,Earth*%
X110363000Y-40513000D03*
%TO.P,J1,F8,HA04_N*%
%TO.N,unconnected-(J1-PadF8)*%
X109093000Y-40513000D03*
%TO.P,J1,F7,HA04_P*%
%TO.N,unconnected-(J1-PadF7)*%
X107823000Y-40513000D03*
%TO.P,J1,F6,GND*%
%TO.N,Earth*%
X106553000Y-40513000D03*
%TO.P,J1,F5,HA00_N_CC*%
%TO.N,unconnected-(J1-PadF5)*%
X105283000Y-40513000D03*
%TO.P,J1,F4,HA00_P_CC*%
%TO.N,unconnected-(J1-PadF4)*%
X104013000Y-40513000D03*
D31*
%TO.P,J1,F3,GND*%
%TO.N,Earth*%
X102743000Y-40513000D03*
D30*
%TO.P,J1,F2,GND*%
X101473000Y-40513000D03*
%TO.P,J1,F1,PG_M2C*%
%TO.N,unconnected-(J1-PadF1)*%
X100203000Y-40513000D03*
%TO.P,J1,E40,GND*%
%TO.N,Earth*%
X149733000Y-39243000D03*
%TO.P,J1,E39,VADJ*%
%TO.N,/VDD_VADJ*%
X148463000Y-39243000D03*
%TO.P,J1,E38,GND*%
%TO.N,Earth*%
X147193000Y-39243000D03*
%TO.P,J1,E37,HB21_N*%
%TO.N,unconnected-(J1-PadE37)*%
X145923000Y-39243000D03*
%TO.P,J1,E36,HB21_P*%
%TO.N,unconnected-(J1-PadE36)*%
X144653000Y-39243000D03*
%TO.P,J1,E35,GND*%
%TO.N,Earth*%
X143383000Y-39243000D03*
%TO.P,J1,E34,HB19_N*%
%TO.N,unconnected-(J1-PadE34)*%
X142113000Y-39243000D03*
%TO.P,J1,E33,HB19_P*%
%TO.N,unconnected-(J1-PadE33)*%
X140843000Y-39243000D03*
%TO.P,J1,E32,GND*%
%TO.N,Earth*%
X139573000Y-39243000D03*
%TO.P,J1,E31,HB13_N*%
%TO.N,unconnected-(J1-PadE31)*%
X138303000Y-39243000D03*
D31*
%TO.P,J1,E30,HB13_P*%
%TO.N,unconnected-(J1-PadE30)*%
X137033000Y-39243000D03*
D30*
%TO.P,J1,E29,GND*%
%TO.N,Earth*%
X135763000Y-39243000D03*
%TO.P,J1,E28,HB09_N*%
%TO.N,unconnected-(J1-PadE28)*%
X134493000Y-39243000D03*
%TO.P,J1,E27,HB09_P*%
%TO.N,unconnected-(J1-PadE27)*%
X133223000Y-39243000D03*
D31*
%TO.P,J1,E26,GND*%
%TO.N,Earth*%
X131953000Y-39243000D03*
D30*
%TO.P,J1,E25,HB05_N*%
%TO.N,unconnected-(J1-PadE25)*%
X130683000Y-39243000D03*
%TO.P,J1,E24,HB05_P*%
%TO.N,unconnected-(J1-PadE24)*%
X129413000Y-39243000D03*
D31*
%TO.P,J1,E23,GND*%
%TO.N,Earth*%
X128143000Y-39243000D03*
D30*
%TO.P,J1,E22,HB03_N*%
%TO.N,unconnected-(J1-PadE22)*%
X126873000Y-39243000D03*
%TO.P,J1,E21,HB03_P*%
%TO.N,unconnected-(J1-PadE21)*%
X125603000Y-39243000D03*
%TO.P,J1,E20,GND*%
%TO.N,Earth*%
X124333000Y-39243000D03*
%TO.P,J1,E19,HA20_N*%
%TO.N,unconnected-(J1-PadE19)*%
X123063000Y-39243000D03*
%TO.P,J1,E18,HA20_P*%
%TO.N,unconnected-(J1-PadE18)*%
X121793000Y-39243000D03*
%TO.P,J1,E17,GND*%
%TO.N,Earth*%
X120523000Y-39243000D03*
%TO.P,J1,E16,HA16_N*%
%TO.N,unconnected-(J1-PadE16)*%
X119253000Y-39243000D03*
%TO.P,J1,E15,HA16_P*%
%TO.N,unconnected-(J1-PadE15)*%
X117983000Y-39243000D03*
%TO.P,J1,E14,GND*%
%TO.N,Earth*%
X116713000Y-39243000D03*
%TO.P,J1,E13,HA13_N*%
%TO.N,unconnected-(J1-PadE13)*%
X115443000Y-39243000D03*
%TO.P,J1,E12,HA13_P*%
%TO.N,unconnected-(J1-PadE12)*%
X114173000Y-39243000D03*
%TO.P,J1,E11,GND*%
%TO.N,Earth*%
X112903000Y-39243000D03*
%TO.P,J1,E10,HA09_N*%
%TO.N,unconnected-(J1-PadE10)*%
X111633000Y-39243000D03*
%TO.P,J1,E9,HA09_P*%
%TO.N,unconnected-(J1-PadE9)*%
X110363000Y-39243000D03*
%TO.P,J1,E8,GND*%
%TO.N,Earth*%
X109093000Y-39243000D03*
%TO.P,J1,E7,HA05_N*%
%TO.N,unconnected-(J1-PadE7)*%
X107823000Y-39243000D03*
%TO.P,J1,E6,HA05_P*%
%TO.N,unconnected-(J1-PadE6)*%
X106553000Y-39243000D03*
%TO.P,J1,E5,GND*%
%TO.N,Earth*%
X105283000Y-39243000D03*
%TO.P,J1,E4,GND*%
X104013000Y-39243000D03*
D31*
%TO.P,J1,E3,HA01_N_CC*%
%TO.N,unconnected-(J1-PadE3)*%
X102743000Y-39243000D03*
D30*
%TO.P,J1,E2,HA01_P_CC*%
%TO.N,unconnected-(J1-PadE2)*%
X101473000Y-39243000D03*
%TO.P,J1,E1,GND*%
%TO.N,Earth*%
X100203000Y-39243000D03*
%TO.P,J1,D40,3P3V*%
%TO.N,/VOLT_3P3*%
X149733000Y-37973000D03*
%TO.P,J1,D39,GND*%
%TO.N,unconnected-(J1-PadD39)*%
X148463000Y-37973000D03*
%TO.P,J1,D38,3P3V*%
%TO.N,/VOLT_3P3*%
X147193000Y-37973000D03*
%TO.P,J1,D37,GND*%
%TO.N,unconnected-(J1-PadD37)*%
X145923000Y-37973000D03*
%TO.P,J1,D36,3P3V*%
%TO.N,/VOLT_3P3*%
X144653000Y-37973000D03*
%TO.P,J1,D35,GA1*%
%TO.N,unconnected-(J1-PadD35)*%
X143383000Y-37973000D03*
%TO.P,J1,D34,TRST_L*%
%TO.N,unconnected-(J1-PadD34)*%
X142113000Y-37973000D03*
%TO.P,J1,D33,TMS*%
%TO.N,unconnected-(J1-PadD33)*%
X140843000Y-37973000D03*
%TO.P,J1,D32,3P3VAUX*%
%TO.N,unconnected-(J1-PadD32)*%
X139573000Y-37973000D03*
%TO.P,J1,D31,TDO*%
%TO.N,/FMC_Connector/TDO*%
X138303000Y-37973000D03*
D31*
%TO.P,J1,D30,TDI*%
%TO.N,/FMC_Connector/TDI*%
X137033000Y-37973000D03*
D30*
%TO.P,J1,D29,TCK*%
%TO.N,unconnected-(J1-PadD29)*%
X135763000Y-37973000D03*
%TO.P,J1,D28,GND*%
%TO.N,unconnected-(J1-PadD28)*%
X134493000Y-37973000D03*
%TO.P,J1,D27,LA26_N*%
%TO.N,FMC_GPIO9_OUT*%
X133223000Y-37973000D03*
D31*
%TO.P,J1,D26,LA26_P*%
%TO.N,FMC_GPIO17_OUT*%
X131953000Y-37973000D03*
D30*
%TO.P,J1,D25,GND*%
%TO.N,unconnected-(J1-PadD25)*%
X130683000Y-37973000D03*
%TO.P,J1,D24,LA23_N*%
%TO.N,/FMC_Connector/DBG_IO_5*%
X129413000Y-37973000D03*
D31*
%TO.P,J1,D23,LA23_P*%
%TO.N,/FMC_Connector/DBG_IO_6*%
X128143000Y-37973000D03*
D30*
%TO.P,J1,D22,GND*%
%TO.N,unconnected-(J1-PadD22)*%
X126873000Y-37973000D03*
%TO.P,J1,D21,LA17_N_CC*%
%TO.N,unconnected-(J1-PadD21)*%
X125603000Y-37973000D03*
%TO.P,J1,D20,LA17_P_CC*%
%TO.N,unconnected-(J1-PadD20)*%
X124333000Y-37973000D03*
%TO.P,J1,D19,GND*%
%TO.N,unconnected-(J1-PadD19)*%
X123063000Y-37973000D03*
%TO.P,J1,D18,LA13_N*%
%TO.N,unconnected-(J1-PadD18)*%
X121793000Y-37973000D03*
%TO.P,J1,D17,LA13_P*%
%TO.N,FMC_ENN_JT_GPIO_INPUT*%
X120523000Y-37973000D03*
%TO.P,J1,D16,GND*%
%TO.N,unconnected-(J1-PadD16)*%
X119253000Y-37973000D03*
%TO.P,J1,D15,LA09_N*%
%TO.N,FMC_EN_MIPI_OUT_CLOCK_VADJ*%
X117983000Y-37973000D03*
%TO.P,J1,D14,LA09_P*%
%TO.N,FMC_EN_MIPI_OUT_DATA_VADJ*%
X116713000Y-37973000D03*
%TO.P,J1,D13,GND*%
%TO.N,unconnected-(J1-PadD13)*%
X115443000Y-37973000D03*
%TO.P,J1,D12,LA05_N*%
%TO.N,unconnected-(J1-PadD12)*%
X114173000Y-37973000D03*
%TO.P,J1,D11,LA05_P*%
%TO.N,FMC_I2C2_CAM_DAT*%
X112903000Y-37973000D03*
%TO.P,J1,D10,GND*%
%TO.N,unconnected-(J1-PadD10)*%
X111633000Y-37973000D03*
%TO.P,J1,D9,LA01_N_CC*%
%TO.N,FMC_3P3V_MONITOR*%
X110363000Y-37973000D03*
%TO.P,J1,D8,LA01_P_CC*%
%TO.N,FMC_2P8V_MONITOR*%
X109093000Y-37973000D03*
%TO.P,J1,D7,GND*%
%TO.N,unconnected-(J1-PadD7)*%
X107823000Y-37973000D03*
%TO.P,J1,D6,GND*%
%TO.N,unconnected-(J1-PadD6)*%
X106553000Y-37973000D03*
%TO.P,J1,D5,GBTCLK0_M2C_N*%
%TO.N,unconnected-(J1-PadD5)*%
X105283000Y-37973000D03*
%TO.P,J1,D4,GBTCLK0_M2C_P*%
%TO.N,unconnected-(J1-PadD4)*%
X104013000Y-37973000D03*
D31*
%TO.P,J1,D3,GND*%
%TO.N,unconnected-(J1-PadD3)*%
X102743000Y-37973000D03*
D30*
%TO.P,J1,D2,GND*%
%TO.N,unconnected-(J1-PadD2)*%
X101473000Y-37973000D03*
%TO.P,J1,D1,PG_C2M*%
%TO.N,unconnected-(J1-PadD1)*%
X100203000Y-37973000D03*
%TO.P,J1,C40,GND*%
%TO.N,unconnected-(J1-PadC40)*%
X149733000Y-36703000D03*
%TO.P,J1,C39,3PV3*%
%TO.N,/VOLT_3P3*%
X148463000Y-36703000D03*
%TO.P,J1,C38,GND*%
%TO.N,unconnected-(J1-PadC38)*%
X147193000Y-36703000D03*
%TO.P,J1,C37,12P0V*%
%TO.N,unconnected-(J1-PadC37)*%
X145923000Y-36703000D03*
%TO.P,J1,C36,GND*%
%TO.N,unconnected-(J1-PadC36)*%
X144653000Y-36703000D03*
%TO.P,J1,C35,12P0V*%
%TO.N,unconnected-(J1-PadC35)*%
X143383000Y-36703000D03*
%TO.P,J1,C34,GA0*%
%TO.N,unconnected-(J1-PadC34)*%
X142113000Y-36703000D03*
%TO.P,J1,C33,GND*%
%TO.N,unconnected-(J1-PadC33)*%
X140843000Y-36703000D03*
%TO.P,J1,C32,GND*%
%TO.N,unconnected-(J1-PadC32)*%
X139573000Y-36703000D03*
%TO.P,J1,C31,SDA*%
%TO.N,unconnected-(J1-PadC31)*%
X138303000Y-36703000D03*
D31*
%TO.P,J1,C30,SCL*%
%TO.N,unconnected-(J1-PadC30)*%
X137033000Y-36703000D03*
D30*
%TO.P,J1,C29,GND*%
%TO.N,unconnected-(J1-PadC29)*%
X135763000Y-36703000D03*
%TO.P,J1,C28,GND*%
%TO.N,unconnected-(J1-PadC28)*%
X134493000Y-36703000D03*
%TO.P,J1,C27,LA27_N*%
%TO.N,unconnected-(J1-PadC27)*%
X133223000Y-36703000D03*
D31*
%TO.P,J1,C26,LA27_P*%
%TO.N,unconnected-(J1-PadC26)*%
X131953000Y-36703000D03*
D30*
%TO.P,J1,C25,GND*%
%TO.N,unconnected-(J1-PadC25)*%
X130683000Y-36703000D03*
%TO.P,J1,C24,GND*%
%TO.N,unconnected-(J1-PadC24)*%
X129413000Y-36703000D03*
D31*
%TO.P,J1,C23,LA18_N_CC*%
%TO.N,unconnected-(J1-PadC23)*%
X128143000Y-36703000D03*
D30*
%TO.P,J1,C22,LA18_P_CC*%
%TO.N,unconnected-(J1-PadC22)*%
X126873000Y-36703000D03*
%TO.P,J1,C21,GND*%
%TO.N,unconnected-(J1-PadC21)*%
X125603000Y-36703000D03*
%TO.P,J1,C20,GND*%
%TO.N,unconnected-(J1-PadC20)*%
X124333000Y-36703000D03*
%TO.P,J1,C19,LA14_N*%
%TO.N,unconnected-(J1-PadC19)*%
X123063000Y-36703000D03*
%TO.P,J1,C18,LA14_P*%
%TO.N,unconnected-(J1-PadC18)*%
X121793000Y-36703000D03*
%TO.P,J1,C17,GND*%
%TO.N,unconnected-(J1-PadC17)*%
X120523000Y-36703000D03*
%TO.P,J1,C16,GND*%
%TO.N,unconnected-(J1-PadC16)*%
X119253000Y-36703000D03*
%TO.P,J1,C15,LA10_N*%
%TO.N,unconnected-(J1-PadC15)*%
X117983000Y-36703000D03*
%TO.P,J1,C14,LA10_P*%
%TO.N,unconnected-(J1-PadC14)*%
X116713000Y-36703000D03*
%TO.P,J1,C13,GND*%
%TO.N,unconnected-(J1-PadC13)*%
X115443000Y-36703000D03*
%TO.P,J1,C12,GND*%
%TO.N,unconnected-(J1-PadC12)*%
X114173000Y-36703000D03*
%TO.P,J1,C11,LA06_N*%
%TO.N,unconnected-(J1-PadC11)*%
X112903000Y-36703000D03*
%TO.P,J1,C10,LA06_P*%
%TO.N,unconnected-(J1-PadC10)*%
X111633000Y-36703000D03*
%TO.P,J1,C9,GND*%
%TO.N,unconnected-(J1-PadC9)*%
X110363000Y-36703000D03*
%TO.P,J1,C8,GND*%
%TO.N,unconnected-(J1-PadC8)*%
X109093000Y-36703000D03*
%TO.P,J1,C7,DP0_M2C_N*%
%TO.N,unconnected-(J1-PadC7)*%
X107823000Y-36703000D03*
%TO.P,J1,C6,DP0_M2C_P*%
%TO.N,unconnected-(J1-PadC6)*%
X106553000Y-36703000D03*
%TO.P,J1,C5,GND*%
%TO.N,unconnected-(J1-PadC5)*%
X105283000Y-36703000D03*
%TO.P,J1,C4,GND*%
%TO.N,unconnected-(J1-PadC4)*%
X104013000Y-36703000D03*
%TO.P,J1,C3,DP0_C2M_N*%
%TO.N,unconnected-(J1-PadC3)*%
X102743000Y-36703000D03*
%TO.P,J1,C2,DP0_C2M_P*%
%TO.N,unconnected-(J1-PadC2)*%
X101473000Y-36703000D03*
%TO.P,J1,C1,GND*%
%TO.N,unconnected-(J1-PadC1)*%
X100203000Y-36703000D03*
%TO.P,J1,B40,40*%
%TO.N,unconnected-(J1-PadB40)*%
X149733000Y-35433000D03*
%TO.P,J1,B39,39*%
%TO.N,unconnected-(J1-PadB39)*%
X148463000Y-35433000D03*
%TO.P,J1,B38,38*%
%TO.N,unconnected-(J1-PadB38)*%
X147193000Y-35433000D03*
%TO.P,J1,B37,37*%
%TO.N,unconnected-(J1-PadB37)*%
X145923000Y-35433000D03*
%TO.P,J1,B36,36*%
%TO.N,unconnected-(J1-PadB36)*%
X144653000Y-35433000D03*
%TO.P,J1,B35,35*%
%TO.N,unconnected-(J1-PadB35)*%
X143383000Y-35433000D03*
%TO.P,J1,B34,34*%
%TO.N,unconnected-(J1-PadB34)*%
X142113000Y-35433000D03*
%TO.P,J1,B33,33*%
%TO.N,unconnected-(J1-PadB33)*%
X140843000Y-35433000D03*
%TO.P,J1,B32,32*%
%TO.N,unconnected-(J1-PadB32)*%
X139573000Y-35433000D03*
%TO.P,J1,B31,31*%
%TO.N,unconnected-(J1-PadB31)*%
X138303000Y-35433000D03*
D31*
%TO.P,J1,B30,30*%
%TO.N,unconnected-(J1-PadB30)*%
X137033000Y-35433000D03*
D30*
%TO.P,J1,B29,29*%
%TO.N,unconnected-(J1-PadB29)*%
X135763000Y-35433000D03*
%TO.P,J1,B28,28*%
%TO.N,unconnected-(J1-PadB28)*%
X134493000Y-35433000D03*
%TO.P,J1,B27,27*%
%TO.N,unconnected-(J1-PadB27)*%
X133223000Y-35433000D03*
D31*
%TO.P,J1,B26,26*%
%TO.N,unconnected-(J1-PadB26)*%
X131953000Y-35433000D03*
D30*
%TO.P,J1,B25,25*%
%TO.N,unconnected-(J1-PadB25)*%
X130683000Y-35433000D03*
%TO.P,J1,B24,24*%
%TO.N,unconnected-(J1-PadB24)*%
X129413000Y-35433000D03*
D31*
%TO.P,J1,B23,23*%
%TO.N,unconnected-(J1-PadB23)*%
X128143000Y-35433000D03*
D30*
%TO.P,J1,B22,22*%
%TO.N,unconnected-(J1-PadB22)*%
X126873000Y-35433000D03*
%TO.P,J1,B21,21*%
%TO.N,unconnected-(J1-PadB21)*%
X125603000Y-35433000D03*
%TO.P,J1,B20,20*%
%TO.N,unconnected-(J1-PadB20)*%
X124333000Y-35433000D03*
%TO.P,J1,B19,19*%
%TO.N,unconnected-(J1-PadB19)*%
X123063000Y-35433000D03*
%TO.P,J1,B18,18*%
%TO.N,unconnected-(J1-PadB18)*%
X121793000Y-35433000D03*
%TO.P,J1,B17,17*%
%TO.N,unconnected-(J1-PadB17)*%
X120523000Y-35433000D03*
%TO.P,J1,B16,16*%
%TO.N,unconnected-(J1-PadB16)*%
X119253000Y-35433000D03*
%TO.P,J1,B15,15*%
%TO.N,unconnected-(J1-PadB15)*%
X117983000Y-35433000D03*
%TO.P,J1,B14,14*%
%TO.N,unconnected-(J1-PadB14)*%
X116713000Y-35433000D03*
%TO.P,J1,B13,13*%
%TO.N,unconnected-(J1-PadB13)*%
X115443000Y-35433000D03*
%TO.P,J1,B12,12*%
%TO.N,unconnected-(J1-PadB12)*%
X114173000Y-35433000D03*
%TO.P,J1,B11,11*%
%TO.N,unconnected-(J1-PadB11)*%
X112903000Y-35433000D03*
%TO.P,J1,B10,10*%
%TO.N,unconnected-(J1-PadB10)*%
X111633000Y-35433000D03*
%TO.P,J1,B9,9*%
%TO.N,unconnected-(J1-PadB9)*%
X110363000Y-35433000D03*
%TO.P,J1,B8,8*%
%TO.N,unconnected-(J1-PadB8)*%
X109093000Y-35433000D03*
%TO.P,J1,B7,7*%
%TO.N,unconnected-(J1-PadB7)*%
X107823000Y-35433000D03*
%TO.P,J1,B6,6*%
%TO.N,unconnected-(J1-PadB6)*%
X106553000Y-35433000D03*
%TO.P,J1,B5,5*%
%TO.N,unconnected-(J1-PadB5)*%
X105283000Y-35433000D03*
%TO.P,J1,B4,4*%
%TO.N,unconnected-(J1-PadB4)*%
X104013000Y-35433000D03*
%TO.P,J1,B3,3*%
%TO.N,unconnected-(J1-PadB3)*%
X102743000Y-35433000D03*
%TO.P,J1,B2,2*%
%TO.N,unconnected-(J1-PadB2)*%
X101473000Y-35433000D03*
%TO.P,J1,B1,1*%
%TO.N,unconnected-(J1-PadB1)*%
X100203000Y-35433000D03*
%TO.P,J1,A40,40*%
%TO.N,unconnected-(J1-PadA40)*%
X149733000Y-34163000D03*
%TO.P,J1,A39,39*%
%TO.N,unconnected-(J1-PadA39)*%
X148463000Y-34163000D03*
%TO.P,J1,A38,38*%
%TO.N,unconnected-(J1-PadA38)*%
X147193000Y-34163000D03*
%TO.P,J1,A37,37*%
%TO.N,unconnected-(J1-PadA37)*%
X145923000Y-34163000D03*
%TO.P,J1,A36,36*%
%TO.N,unconnected-(J1-PadA36)*%
X144653000Y-34163000D03*
%TO.P,J1,A35,35*%
%TO.N,unconnected-(J1-PadA35)*%
X143383000Y-34163000D03*
%TO.P,J1,A34,34*%
%TO.N,unconnected-(J1-PadA34)*%
X142113000Y-34163000D03*
%TO.P,J1,A33,33*%
%TO.N,unconnected-(J1-PadA33)*%
X140843000Y-34163000D03*
%TO.P,J1,A32,32*%
%TO.N,unconnected-(J1-PadA32)*%
X139573000Y-34163000D03*
%TO.P,J1,A31,31*%
%TO.N,unconnected-(J1-PadA31)*%
X138303000Y-34163000D03*
%TO.P,J1,A30,30*%
%TO.N,unconnected-(J1-PadA30)*%
X137033000Y-34163000D03*
%TO.P,J1,A29,29*%
%TO.N,unconnected-(J1-PadA29)*%
X135763000Y-34163000D03*
%TO.P,J1,A28,28*%
%TO.N,unconnected-(J1-PadA28)*%
X134493000Y-34163000D03*
%TO.P,J1,A27,27*%
%TO.N,unconnected-(J1-PadA27)*%
X133223000Y-34163000D03*
%TO.P,J1,A26,26*%
%TO.N,unconnected-(J1-PadA26)*%
X131953000Y-34163000D03*
%TO.P,J1,A25,25*%
%TO.N,unconnected-(J1-PadA25)*%
X130683000Y-34163000D03*
%TO.P,J1,A24,24*%
%TO.N,unconnected-(J1-PadA24)*%
X129413000Y-34163000D03*
%TO.P,J1,A23,23*%
%TO.N,unconnected-(J1-PadA23)*%
X128143000Y-34163000D03*
%TO.P,J1,A22,22*%
%TO.N,unconnected-(J1-PadA22)*%
X126873000Y-34163000D03*
%TO.P,J1,A21,21*%
%TO.N,unconnected-(J1-PadA21)*%
X125603000Y-34163000D03*
%TO.P,J1,A20,20*%
%TO.N,unconnected-(J1-PadA20)*%
X124333000Y-34163000D03*
%TO.P,J1,A19,19*%
%TO.N,unconnected-(J1-PadA19)*%
X123063000Y-34163000D03*
%TO.P,J1,A18,18*%
%TO.N,unconnected-(J1-PadA18)*%
X121793000Y-34163000D03*
%TO.P,J1,A17,17*%
%TO.N,unconnected-(J1-PadA17)*%
X120523000Y-34163000D03*
%TO.P,J1,A16,16*%
%TO.N,unconnected-(J1-PadA16)*%
X119253000Y-34163000D03*
%TO.P,J1,A15,15*%
%TO.N,unconnected-(J1-PadA15)*%
X117983000Y-34163000D03*
%TO.P,J1,A14,14*%
%TO.N,unconnected-(J1-PadA14)*%
X116713000Y-34163000D03*
%TO.P,J1,A13,13*%
%TO.N,unconnected-(J1-PadA13)*%
X115443000Y-34163000D03*
%TO.P,J1,A12,12*%
%TO.N,unconnected-(J1-PadA12)*%
X114173000Y-34163000D03*
%TO.P,J1,A11,11*%
%TO.N,unconnected-(J1-PadA11)*%
X112903000Y-34163000D03*
%TO.P,J1,A10,10*%
%TO.N,unconnected-(J1-PadA10)*%
X111633000Y-34163000D03*
%TO.P,J1,A9,9*%
%TO.N,unconnected-(J1-PadA9)*%
X110363000Y-34163000D03*
%TO.P,J1,A8,8*%
%TO.N,unconnected-(J1-PadA8)*%
X109093000Y-34163000D03*
%TO.P,J1,A7,7*%
%TO.N,unconnected-(J1-PadA7)*%
X107823000Y-34163000D03*
%TO.P,J1,A6,6*%
%TO.N,unconnected-(J1-PadA6)*%
X106553000Y-34163000D03*
%TO.P,J1,A5,5*%
%TO.N,unconnected-(J1-PadA5)*%
X105283000Y-34163000D03*
%TO.P,J1,A4,4*%
%TO.N,unconnected-(J1-PadA4)*%
X104013000Y-34163000D03*
%TO.P,J1,A3,3*%
%TO.N,unconnected-(J1-PadA3)*%
X102743000Y-34163000D03*
%TO.P,J1,A2,2*%
%TO.N,unconnected-(J1-PadA2)*%
X101473000Y-34163000D03*
%TO.P,J1,A1,1*%
%TO.N,unconnected-(J1-PadA1)*%
X100203000Y-34163000D03*
%TD*%
D22*
%TO.P,C26,1*%
%TO.N,Earth*%
X129778000Y-58928000D03*
%TO.P,C26,2*%
%TO.N,/VOLT_2P5*%
X127778000Y-58928000D03*
%TD*%
D32*
%TO.P,U4,1,IN*%
%TO.N,/VOLT_3P3*%
X127828000Y-54018000D03*
%TO.P,U4,2,GND*%
%TO.N,Earth*%
X128778000Y-54018000D03*
%TO.P,U4,3,EN*%
%TO.N,Net-(R16-Pad2)*%
X129728000Y-54018000D03*
%TO.P,U4,4,NC*%
%TO.N,unconnected-(U4-Pad4)*%
X129728000Y-56218000D03*
%TO.P,U4,5,OUT*%
%TO.N,/VOLT_2P5*%
X127828000Y-56218000D03*
%TD*%
D23*
%TO.P,C31,1*%
%TO.N,Earth*%
X125222000Y-59420000D03*
%TO.P,C31,2*%
%TO.N,/VOLT_2P5*%
X125222000Y-57420000D03*
%TD*%
D22*
%TO.P,C25,1*%
%TO.N,Earth*%
X129524000Y-51816000D03*
%TO.P,C25,2*%
%TO.N,/VOLT_3P3*%
X127524000Y-51816000D03*
%TD*%
D21*
%TO.P,C36,1*%
%TO.N,Earth*%
X101346000Y-127974000D03*
%TO.P,C36,2*%
%TO.N,/VOLT_1P2*%
X101346000Y-129074000D03*
%TD*%
D33*
%TO.P,U7,1,IN*%
%TO.N,/VOLT_3P3*%
X131672301Y-78217499D03*
%TO.P,U7,2,GND*%
%TO.N,Earth*%
X132622301Y-78217499D03*
%TO.P,U7,3,EN*%
%TO.N,Net-(R17-Pad2)*%
X133572301Y-78217499D03*
%TO.P,U7,4,NC*%
%TO.N,unconnected-(U7-Pad4)*%
X133572301Y-80492499D03*
%TO.P,U7,5,OUT*%
%TO.N,/VOLT_1P2*%
X131672301Y-80492499D03*
%TD*%
D34*
%TO.N,CSI_C_D0_P*%
X144830800Y-99427030D03*
%TO.N,CSI_C_D0_N*%
X144830800Y-100112830D03*
%TO.N,CSI_C_D1_P*%
X142189200Y-104051100D03*
%TO.N,CSI_C_D1_N*%
X142189200Y-104736900D03*
%TO.N,CSI_D_D0_P*%
X155487267Y-100062133D03*
%TO.N,CSI_D_D0_N*%
X155002333Y-100547067D03*
%TO.N,CSI_C_CLK_P*%
X139065000Y-97737930D03*
%TO.N,CSI_D_CLK_P*%
X157265267Y-102424333D03*
%TO.N,CSI_C_CLK_N*%
X139065000Y-98423730D03*
%TO.N,CSI_D_CLK_N*%
X156780333Y-102909267D03*
%TO.N,CSI_D_D1_P*%
X155792067Y-103770533D03*
%TO.N,CSI_D_D1_N*%
X155307133Y-104255467D03*
%TO.N,/LVDS_to_Jetson_lines/CSI_LP_C_CLK_P*%
X131826000Y-96316800D03*
%TO.N,/LVDS_to_Jetson_lines/CSI_LP_C_CLK_N*%
X131826000Y-97332800D03*
%TO.N,/LVDS_to_Jetson_lines/CSI_LP_C_D0_P*%
X130835400Y-100838000D03*
%TO.N,/LVDS_to_Jetson_lines/CSI_LP_C_D0_N*%
X132003800Y-101828600D03*
%TO.N,/LVDS_to_Jetson_lines/CSI_LP_C_D1_P*%
X131826000Y-102819200D03*
%TO.N,/LVDS_to_Jetson_lines/CSI_LP_C_D1_N*%
X131826000Y-103835200D03*
%TO.N,/LVDS_to_Jetson_lines/CSI_LP_D_CLK_P*%
X150291800Y-82804000D03*
D35*
%TO.N,/LVDS_to_Jetson_lines/CSI_LP_D_CLK_N*%
X127863600Y-72745600D03*
D34*
X149301200Y-82804000D03*
D35*
X124917200Y-70104000D03*
D34*
%TO.N,/LVDS_to_Jetson_lines/CSI_LP_D_D0_P*%
X145796000Y-82804000D03*
%TO.N,/LVDS_to_Jetson_lines/CSI_LP_D_D0_N*%
X144780000Y-82804000D03*
%TO.N,/LVDS_to_Jetson_lines/CSI_LP_D_D1_P*%
X143789400Y-82804000D03*
%TO.N,/LVDS_to_Jetson_lines/CSI_LP_D_D1_N*%
X142798800Y-82804000D03*
D35*
%TO.N,/Jetson_connector/EEPROM_SCL*%
X118364000Y-126746000D03*
%TO.N,/Jetson_connector/EEPROM_SDA*%
X121158010Y-126492000D03*
%TO.N,/Jetson_connector/EEPROM_A2*%
X124206000Y-124968000D03*
%TO.N,/Jetson_connector/EEPROM_A1*%
X124968000Y-120777000D03*
%TO.N,/Jetson_connector/EEPROM_A0*%
X123444000Y-121412000D03*
D34*
%TO.N,/Jetson_connector/JT_VDD_3V3*%
X95250000Y-138684000D03*
X154686000Y-126492000D03*
D36*
%TO.N,/Jetson_connector/JT_VDD_5V*%
X145288000Y-134874000D03*
D34*
X148590000Y-127000000D03*
X151384000Y-129286000D03*
D35*
%TO.N,Net-(R8-Pad2)*%
X116586000Y-134112000D03*
%TO.N,JT_1p8V_GPIO9_IN*%
X155194000Y-127508000D03*
%TO.N,JT_1p8V_GPIO17_IN*%
X144907000Y-130302000D03*
%TO.N,JT_1p8V_I2C_CAM_CLK*%
X126060200Y-139420600D03*
X144780000Y-118364000D03*
%TO.N,JT_1p8V_I2C_CAM_DAT*%
X128524000Y-126238000D03*
%TO.N,JT_1p8V_CAM0_MCLK*%
X144018000Y-121793000D03*
%TO.N,JT_1p8V_CAM0_PWR*%
X143891000Y-123317000D03*
%TO.N,JT_1p8V_CAM0_RST*%
X144653000Y-124333000D03*
%TO.N,Net-(IC3-Pad8)*%
X133096000Y-138176000D03*
%TO.N,Net-(IC3-Pad5)*%
X130810000Y-134620000D03*
%TO.N,Net-(IC3-Pad4)*%
X128524000Y-130810000D03*
%TO.N,Net-(IC3-Pad1)*%
X123571000Y-138811000D03*
%TO.N,/Slow_signals_level_shifters/1DIR_U3*%
X127762000Y-124333000D03*
X129794000Y-119126000D03*
%TO.N,Net-(R16-Pad2)*%
X131445000Y-53975000D03*
D34*
%TO.N,/Jetson_connector/VCC_1V8_EEPROM*%
X115570000Y-126746000D03*
D35*
%TO.N,Net-(R17-Pad2)*%
X132588000Y-79502000D03*
D34*
%TO.N,/VDD_VADJ*%
X97028000Y-123190000D03*
D35*
X108458000Y-83820000D03*
D34*
X100330000Y-130048000D03*
X133604000Y-128270000D03*
X149098000Y-39878000D03*
X106680000Y-129286000D03*
X133350000Y-123698000D03*
X121158000Y-66802000D03*
X117348000Y-66294000D03*
X149098000Y-42418000D03*
D35*
X135382000Y-134112000D03*
D34*
X106680000Y-117348000D03*
X109982000Y-134112000D03*
X109474000Y-130048000D03*
X114046000Y-74422000D03*
X150495000Y-42672000D03*
X150368000Y-39878000D03*
%TO.N,/VOLT_3P3*%
X126238000Y-51816000D03*
X130302000Y-78232000D03*
X147828000Y-37338000D03*
X114046000Y-137668000D03*
X151130008Y-87884000D03*
X102870000Y-138430000D03*
X144018000Y-38608000D03*
X93599000Y-129286000D03*
X130962400Y-99263200D03*
X137480032Y-104327960D03*
D37*
X146685000Y-82423000D03*
D34*
X116586000Y-83820000D03*
X137922000Y-96520000D03*
X120904000Y-135128000D03*
X149098000Y-38608000D03*
X141732000Y-88163400D03*
X147828000Y-36068000D03*
%TO.N,/VOLT_1P8*%
X132080000Y-134366000D03*
X118465600Y-130022600D03*
X127482600Y-135432800D03*
X94081600Y-116992400D03*
X118135400Y-138379200D03*
X114300000Y-129286000D03*
X135890000Y-128270000D03*
X135890000Y-123698000D03*
X123952000Y-127000008D03*
X103200200Y-125603000D03*
X101879400Y-122402600D03*
%TO.N,/VOLT_1P2*%
X104140000Y-130302000D03*
X117348000Y-69342000D03*
D35*
X109982000Y-136398000D03*
D34*
X123952000Y-75184000D03*
D35*
X129794000Y-79756000D03*
%TO.N,/VOLT_2P5*%
X121412000Y-54864000D03*
X111887000Y-55499000D03*
%TO.N,/FMC_Connector/TDI*%
X136398000Y-38608000D03*
%TO.N,/FMC_Connector/TDO*%
X137668000Y-38608000D03*
%TO.N,/LVDS_to_Jetson_lines/DIR_IC1*%
X111252000Y-80772000D03*
%TO.N,/LVDS_to_Jetson_lines/EN_U5*%
X141986000Y-98552000D03*
X140716000Y-94234000D03*
%TO.N,/LVDS_to_Jetson_lines/EN_U6*%
X153924000Y-82804000D03*
X145821400Y-88442800D03*
%TO.N,Net-(IC4-Pad8)*%
X108585000Y-119634000D03*
%TO.N,Net-(IC4-Pad5)*%
X110363000Y-116967000D03*
%TO.N,Net-(IC4-Pad4)*%
X95757966Y-116332000D03*
%TO.N,Net-(IC4-Pad1)*%
X96520000Y-120777000D03*
%TO.N,JT_1p8V_I2C2_CAM_CLK*%
X145034000Y-121412000D03*
%TO.N,JT_1p8V_I2C2_CAM_DAT*%
X136652000Y-117170200D03*
X148463000Y-122047000D03*
X95504000Y-121539000D03*
%TO.N,JT_1p8V_I2C3_CAM_CLK*%
X96520000Y-134112000D03*
X114554000Y-135890000D03*
X143891000Y-126619000D03*
X115570000Y-132334000D03*
%TO.N,JT_1p8V_I2C3_CAM_DAT*%
X122174000Y-138811000D03*
X100076000Y-134112000D03*
%TO.N,Net-(IC5-Pad8)*%
X94234000Y-121920000D03*
%TO.N,Net-(IC5-Pad5)*%
X92837000Y-131445000D03*
X96012000Y-125222000D03*
%TO.N,Net-(IC5-Pad4)*%
X98653600Y-125882400D03*
%TO.N,Net-(IC5-Pad1)*%
X109982000Y-131826000D03*
X97790000Y-121920000D03*
%TO.N,/LVDS_to_Jetson_lines/SWITCH_DATA_LANES_CSI_CD*%
X118491000Y-80187800D03*
%TO.N,/LVDS_to_Jetson_lines/SWITCH_CLOCK_LANES_CSI_CD*%
X117348000Y-80010000D03*
%TO.N,/LVDS_to_Jetson_lines/EN_MIPI_OUT_CSI_C*%
X142494000Y-90678000D03*
X113792000Y-79883000D03*
X130124200Y-93522800D03*
%TO.N,/LVDS_to_Jetson_lines/EN_MIPI_OUT_CSI_D*%
X130683000Y-70485000D03*
X117322600Y-78714600D03*
X153898600Y-77698600D03*
%TO.N,/LVDS_to_Jetson_lines/SWITCH1_U6*%
X146710400Y-88646000D03*
X139700000Y-85852000D03*
%TO.N,/LVDS_to_Jetson_lines/SWITCH2_U5*%
X137922004Y-99060000D03*
X133858000Y-93726000D03*
%TO.N,/LVDS_to_Jetson_lines/SWITCH2_U6*%
X132207000Y-87096600D03*
X147574000Y-88646000D03*
%TO.N,/LVDS_to_Jetson_lines/SWITCH1_U5*%
X138684000Y-99568000D03*
X137414000Y-93980000D03*
D34*
%TO.N,JT_VDD_1V8*%
X115316000Y-131318000D03*
X154940000Y-124714000D03*
X125730000Y-118110000D03*
X134493000Y-113156998D03*
D35*
%TO.N,Net-(IC6-Pad5)*%
X106680000Y-136398000D03*
%TO.N,Net-(IC6-Pad3)*%
X102997000Y-126492000D03*
D34*
%TO.N,/Jetson_connector/JT_VDD_2V8*%
X155194000Y-120396000D03*
X98044000Y-138684000D03*
X145034000Y-120396000D03*
%TO.N,/Jetson_connector/JT_VDD_1V2*%
X142011400Y-125831600D03*
X121767600Y-134112000D03*
X103301800Y-136347200D03*
D35*
%TO.N,Net-(R31-Pad1)*%
X131419600Y-115112800D03*
X141224000Y-123596400D03*
%TO.N,Net-(R32-Pad2)*%
X98552000Y-134112000D03*
%TO.N,Net-(R33-Pad2)*%
X97155000Y-126746000D03*
X103378000Y-134112000D03*
%TO.N,Net-(R34-Pad2)*%
X93472000Y-134112000D03*
%TO.N,Net-(IC7-Pad5)*%
X113411000Y-136779000D03*
%TO.N,/Slow_signals_level_shifters/ENN_JETSON_GPIO*%
X138684000Y-134874000D03*
X112776000Y-126746000D03*
%TO.N,FMC_HS_CSI_C_D1_N*%
X112268000Y-43688000D03*
D34*
X100241100Y-88392000D03*
X100241100Y-94742000D03*
%TO.N,FMC_HS_CSI_C_D1_P*%
X100926900Y-88392000D03*
X112268000Y-42418000D03*
X100926900Y-94742000D03*
%TO.N,FMC_HS_CSI_C_D0_N*%
X103797100Y-94742000D03*
X116078000Y-43688000D03*
X103797100Y-88392000D03*
%TO.N,FMC_HS_CSI_C_D0_P*%
X104482900Y-88392000D03*
X116078000Y-42418000D03*
X104482900Y-94742000D03*
D35*
%TO.N,FMC_HS_CSI_D_D1_N*%
X138938000Y-42418000D03*
%TO.N,FMC_HS_CSI_D_D1_P*%
X138938000Y-43688000D03*
%TO.N,FMC_HS_CSI_D_D0_N*%
X142748000Y-42418000D03*
%TO.N,FMC_HS_CSI_D_D0_P*%
X142748000Y-43688000D03*
%TO.N,FMC_HS_CSI_D_CLK_N*%
X146558000Y-42418000D03*
%TO.N,FMC_HS_CSI_D_CLK_P*%
X146558000Y-43688000D03*
D34*
%TO.N,FMC_HS_CSI_C_CLK_N*%
X107188000Y-42418000D03*
%TO.N,FMC_HS_CSI_C_CLK_P*%
X107188000Y-41148000D03*
D35*
%TO.N,FMC_CSI_LP_C_D1_N*%
X119888000Y-42418000D03*
X116713000Y-49276000D03*
%TO.N,FMC_CSI_LP_C_D1_P*%
X119380000Y-48768000D03*
X119888000Y-43688000D03*
%TO.N,FMC_CSI_LP_C_D0_N*%
X124968000Y-42418000D03*
X121412000Y-47625000D03*
%TO.N,FMC_CSI_LP_C_D0_P*%
X121158000Y-49022000D03*
X124968000Y-43688000D03*
%TO.N,FMC_CSI_LP_C_CLK_N*%
X127508000Y-42418000D03*
X125730000Y-48133000D03*
%TO.N,FMC_CSI_LP_C_CLK_P*%
X126492000Y-48895000D03*
X127508000Y-43688000D03*
%TO.N,FMC_CSI_LP_D_D1_N*%
X118618000Y-41148000D03*
X121132600Y-62814200D03*
%TO.N,FMC_CSI_LP_D_D1_P*%
X117348000Y-41148000D03*
X121437400Y-61671200D03*
%TO.N,FMC_CSI_LP_D_D0_N*%
X122428000Y-41148000D03*
X123088400Y-62230000D03*
%TO.N,FMC_CSI_LP_D_D0_P*%
X123088400Y-60858400D03*
X121158000Y-41148000D03*
%TO.N,FMC_CSI_LP_D_CLK_N*%
X124866400Y-61772800D03*
X126212600Y-41122600D03*
%TO.N,FMC_CSI_LP_D_CLK_P*%
X124942600Y-41148000D03*
X125984000Y-62026800D03*
%TO.N,FMC_I2C_CAM_CLK*%
X130048000Y-41148000D03*
X131130000Y-132908000D03*
%TO.N,FMC_I2C_CAM_DAT*%
X128778000Y-41148000D03*
X121920000Y-132080000D03*
%TO.N,FMC_I2C2_CAM_CLK*%
X95885000Y-48768000D03*
X110998000Y-41148000D03*
X98298000Y-113030000D03*
%TO.N,FMC_I2C2_CAM_DAT*%
X112268000Y-38608000D03*
X94742000Y-114046000D03*
X95948500Y-47434500D03*
%TO.N,FMC_I2C3_CAM_CLK*%
X96774000Y-50038000D03*
X98107500Y-110807500D03*
X107188000Y-43688000D03*
%TO.N,FMC_I2C3_CAM_DAT*%
X101346000Y-115443000D03*
X110998000Y-42418000D03*
%TO.N,FMC_CAM0_RST*%
X129286000Y-122428000D03*
X135128000Y-41148000D03*
%TO.N,FMC_CAM0_PWR*%
X137668000Y-41148000D03*
X129463799Y-121488201D03*
%TO.N,FMC_CAM0_MCLK*%
X140208000Y-41148000D03*
X129540000Y-120269000D03*
%TO.N,FMC_EN_MIPI_OUT_CLOCK_VADJ*%
X114554000Y-50165000D03*
X118618000Y-38608000D03*
%TO.N,FMC_EN_MIPI_OUT_DATA_VADJ*%
X116713001Y-47370999D03*
X117348000Y-38608000D03*
%TO.N,FMC_SWITCH_CLOCK_LANES_VADJ*%
X113030000Y-47625000D03*
X114808000Y-41148000D03*
%TO.N,FMC_SWITCH_DATA_LANES_VADJ*%
X108077000Y-48260000D03*
X113538000Y-41148000D03*
%TO.N,FMC_1P2V_MONITOR*%
X108458000Y-43688000D03*
X105029000Y-126492000D03*
%TO.N,FMC_ENN_JT_GPIO_INPUT*%
X113665000Y-51181000D03*
X119888000Y-38608000D03*
X110744000Y-126492000D03*
%TO.N,FMC_2P8V_MONITOR*%
X108458000Y-37338000D03*
X99201477Y-40781477D03*
%TO.N,FMC_3P3V_MONITOR*%
X109728000Y-38608000D03*
X93599000Y-48387000D03*
%TO.N,FMC_GPIO17_OUT*%
X129286000Y-129413000D03*
X131318000Y-38608000D03*
%TO.N,FMC_GPIO9_OUT*%
X129413000Y-128524000D03*
X132588000Y-38607998D03*
%TO.N,FMC_1P8V_MONITOR*%
X129362200Y-123850400D03*
X133858000Y-41148000D03*
D34*
%TO.N,/LVDS_to_Jetson_lines/VOLT_2P5_CSI_C*%
X112014000Y-98044000D03*
X112014000Y-95504000D03*
D35*
X105918000Y-85090000D03*
D34*
X111760000Y-105918000D03*
X112776000Y-116840000D03*
D35*
X110236000Y-88646000D03*
D34*
X111760000Y-108712000D03*
%TO.N,/LVDS_to_Jetson_lines/VOLT_2P5_CSI_D*%
X147574000Y-65024000D03*
X139649200Y-65354200D03*
X154940000Y-65024000D03*
X149352000Y-65024000D03*
X132588000Y-64516000D03*
X139700000Y-67818000D03*
D35*
%TO.N,/FMC_Connector/DBG_IO_5*%
X131343400Y-37261800D03*
X153924000Y-47879000D03*
%TO.N,/FMC_Connector/DBG_IO_6*%
X128778000Y-36068000D03*
%TO.N,/FMC_Connector/DBG_IO_1*%
X142748000Y-41148000D03*
%TO.N,/FMC_Connector/DBG_IO_2*%
X146558000Y-41148000D03*
%TO.N,/FMC_Connector/DBG_IO_3*%
X146532600Y-39852600D03*
X150114000Y-49657000D03*
%TO.N,/FMC_Connector/DBG_IO_4*%
X151765000Y-37058600D03*
X138912600Y-41148000D03*
%TO.N,Earth*%
X151384000Y-77724000D03*
X142748000Y-39878000D03*
X120243600Y-62814200D03*
X156337000Y-39243000D03*
X135382000Y-82042000D03*
X144907000Y-108077000D03*
X135001000Y-97155000D03*
X125145800Y-66802000D03*
X113284000Y-53213000D03*
X111887000Y-126365000D03*
X148844000Y-97536000D03*
X118440200Y-69240400D03*
X144018000Y-42418000D03*
X155321000Y-128651000D03*
X141478000Y-112776000D03*
X144018000Y-46482000D03*
X148971000Y-130429000D03*
X115824000Y-123825000D03*
X144272000Y-84963000D03*
X151003000Y-125730000D03*
X94234000Y-37211000D03*
X108585000Y-30988000D03*
X135001000Y-100711000D03*
X106045000Y-133985000D03*
X148463000Y-106553000D03*
X117475000Y-115951000D03*
X110490000Y-70561200D03*
X157099000Y-108966000D03*
X101219000Y-121539000D03*
X115570000Y-86080600D03*
X96266000Y-119888000D03*
X116078000Y-41148000D03*
X151130000Y-118618000D03*
X151638000Y-40259000D03*
X109855000Y-73152000D03*
X154432000Y-56769000D03*
X149352000Y-71882000D03*
X135001000Y-102489000D03*
X103378000Y-43688000D03*
X151130000Y-100965000D03*
X115392200Y-67208400D03*
X121158000Y-39878000D03*
X118999000Y-120904000D03*
X149733000Y-139319000D03*
X120396000Y-138303000D03*
X129921000Y-124841000D03*
X94361000Y-91567000D03*
X135001000Y-101600000D03*
X136398000Y-44958000D03*
X144272000Y-85852000D03*
X151130000Y-110744000D03*
X148463000Y-66929000D03*
X116078000Y-38608000D03*
X155956000Y-44450000D03*
X123698000Y-38608000D03*
X112268000Y-39878000D03*
X140589000Y-124206000D03*
X112395000Y-71958200D03*
X148717000Y-112903000D03*
X147828000Y-42418000D03*
X129159000Y-76962000D03*
X135001000Y-99822000D03*
X144780000Y-97536000D03*
X116967000Y-127000000D03*
X102743000Y-75184000D03*
X117602000Y-88163400D03*
X133858000Y-46355000D03*
X109601000Y-76885800D03*
X148717000Y-118618000D03*
X147828000Y-39878000D03*
X140081000Y-43815000D03*
X148717000Y-110744000D03*
X138049000Y-97409000D03*
X103378000Y-39878000D03*
X151130000Y-105791000D03*
X112268000Y-41148000D03*
X118618000Y-43688000D03*
X104648000Y-39878000D03*
X91821000Y-127889000D03*
X107950000Y-126746000D03*
X122428000Y-127000000D03*
X148717000Y-94234000D03*
X117475000Y-105283000D03*
X133858000Y-39878000D03*
X151130000Y-97536000D03*
X151130000Y-107188000D03*
X140208000Y-46228000D03*
X133604000Y-50927000D03*
X134832000Y-136102000D03*
X151003000Y-126873000D03*
X144145000Y-105918000D03*
X151130000Y-113792000D03*
X148717000Y-111633000D03*
X148844000Y-99187000D03*
X153162000Y-89789000D03*
X131597400Y-57988200D03*
X140208000Y-39878000D03*
X109347000Y-59690000D03*
X106375200Y-83616800D03*
X140716000Y-118872000D03*
X148590000Y-103759000D03*
X140843000Y-132842000D03*
X157226000Y-116840000D03*
X147828000Y-43688000D03*
X132842000Y-61341000D03*
X108458000Y-39878000D03*
X100838000Y-126746000D03*
X140208000Y-42418000D03*
X156083000Y-136906000D03*
X128778000Y-42291000D03*
X135509000Y-120015000D03*
X114808000Y-44958000D03*
X129794000Y-126619000D03*
X130048000Y-132207000D03*
X153162000Y-86360000D03*
X148717000Y-109728000D03*
X147447000Y-84963000D03*
X117348000Y-81788000D03*
X150876000Y-130302000D03*
X117475000Y-98298000D03*
X119761000Y-73660000D03*
X151511000Y-31242000D03*
X122986800Y-70053200D03*
X109982000Y-56007000D03*
X136906000Y-129286000D03*
X107188000Y-44958000D03*
X120319800Y-66395600D03*
X135001000Y-98044000D03*
X113538000Y-39878000D03*
X117475000Y-108966000D03*
X119888000Y-44958000D03*
X94361000Y-62103000D03*
X93853000Y-32512000D03*
X106172000Y-60071000D03*
X152654000Y-137414000D03*
X148209000Y-68834000D03*
X134112000Y-101600000D03*
X128651000Y-43815000D03*
X102997000Y-57785000D03*
X119253000Y-127000000D03*
X148717000Y-123444000D03*
X143383000Y-136398000D03*
X109728000Y-39878000D03*
X114808000Y-43688000D03*
X119253000Y-132588000D03*
X151130000Y-111633000D03*
X105918000Y-41148000D03*
X147955000Y-82423000D03*
X104648000Y-43688000D03*
X143891000Y-41275000D03*
X148717000Y-120396000D03*
X126238000Y-39751000D03*
X136398000Y-40005000D03*
X131064000Y-98298000D03*
X125095000Y-68808600D03*
X102108000Y-44958000D03*
X110109000Y-85598000D03*
X140843000Y-126492000D03*
X140970000Y-124968000D03*
X102870000Y-121666000D03*
X158242000Y-46482000D03*
X134874000Y-76708000D03*
X120421400Y-69494400D03*
X129921000Y-130175000D03*
X115290600Y-70332600D03*
X140081000Y-50165000D03*
X148539200Y-105638600D03*
X135128000Y-43688000D03*
D38*
X154559000Y-60071000D03*
D35*
X118389400Y-66751200D03*
X154813000Y-108077000D03*
X148590000Y-125730000D03*
X94361000Y-73533000D03*
X139573000Y-87376000D03*
X100203000Y-51181000D03*
X151130000Y-109728000D03*
X143256000Y-85852000D03*
X154813000Y-116967000D03*
X157607000Y-124714000D03*
X145288000Y-85852000D03*
X146558000Y-85852000D03*
X147447000Y-85852000D03*
X133350000Y-124841000D03*
X129286000Y-63373000D03*
X149479000Y-85852000D03*
X155829000Y-112395000D03*
X118618000Y-44958000D03*
X104648000Y-41148000D03*
X126238000Y-46355000D03*
X134112000Y-103378000D03*
X141478000Y-39878000D03*
X105664000Y-73406000D03*
X151130000Y-104775000D03*
X125679200Y-60960000D03*
X151130000Y-112903000D03*
X147066000Y-71882000D03*
X94361000Y-125222000D03*
X148717000Y-114681000D03*
X105283000Y-122047000D03*
X135001000Y-98933000D03*
X112268000Y-44958000D03*
X158115000Y-98552000D03*
X133731000Y-30861000D03*
X148590000Y-85852000D03*
X110998000Y-43688000D03*
X132588000Y-43688000D03*
X146558000Y-84963000D03*
X128778000Y-39878000D03*
X104648000Y-42418000D03*
X148717000Y-124460000D03*
X154813000Y-98298000D03*
X126238000Y-42418000D03*
X107188000Y-87884000D03*
X144526000Y-128778000D03*
X127635000Y-85344000D03*
X100330000Y-55880000D03*
X112776000Y-134366000D03*
X148590000Y-84963000D03*
X148717000Y-117094000D03*
X134493000Y-84328000D03*
X141859000Y-47879000D03*
X121158000Y-43688000D03*
X136398000Y-42418000D03*
X151130000Y-98552000D03*
X134112000Y-97155000D03*
X108458000Y-42545000D03*
X129921000Y-138557000D03*
X135001000Y-103378000D03*
X134747000Y-129794000D03*
X134324000Y-121624000D03*
X158115000Y-52451000D03*
X136017000Y-59563000D03*
X151130000Y-114681000D03*
X104648000Y-44958000D03*
X114935000Y-87503000D03*
X151003000Y-124587000D03*
X123952000Y-77470000D03*
X100863400Y-39954200D03*
X157607000Y-132334000D03*
X143256000Y-84963000D03*
X131546600Y-51816000D03*
X103251000Y-45085000D03*
X105918000Y-43688000D03*
X110998000Y-44958000D03*
X99415600Y-38506400D03*
X135128000Y-39878000D03*
X134112000Y-98933000D03*
X151130000Y-117094000D03*
X146558000Y-44958000D03*
X131572000Y-71882000D03*
X140208000Y-71882000D03*
X150622000Y-41529000D03*
X103505000Y-116840000D03*
X118237000Y-82677000D03*
X148463000Y-104775000D03*
X136398000Y-106680000D03*
X157099000Y-93091000D03*
X144780000Y-96012000D03*
X115468400Y-76962000D03*
X134112000Y-100711000D03*
X93599000Y-127381000D03*
X148082000Y-75057000D03*
X128905000Y-47625000D03*
X157353000Y-105410000D03*
X130683000Y-107061000D03*
X154813000Y-85090000D03*
X154559000Y-75565000D03*
X125476000Y-81788000D03*
X134239000Y-109601000D03*
X121158000Y-42418000D03*
X116078000Y-44958000D03*
X135890000Y-50800000D03*
X134112000Y-102489000D03*
X112141000Y-65024000D03*
X134112000Y-98044000D03*
X151765000Y-45339000D03*
X134112000Y-99822000D03*
X150876000Y-131572000D03*
X154940000Y-73279000D03*
X151257000Y-103759000D03*
X151003000Y-120396000D03*
X102743000Y-71882000D03*
X104648000Y-38608000D03*
X127381000Y-138049000D03*
X100711000Y-44831000D03*
X149479000Y-84963000D03*
X148844000Y-100838000D03*
X152019000Y-38735000D03*
X147828000Y-44958000D03*
X145288000Y-84963000D03*
X133731000Y-56642000D03*
X117983000Y-86360000D03*
X117602000Y-95123000D03*
X127508000Y-39878000D03*
X124206000Y-128016000D03*
X130048000Y-120904000D03*
X138049000Y-71882000D03*
X99441000Y-48641000D03*
X117348000Y-39878000D03*
X127025400Y-73050400D03*
X151003000Y-123444000D03*
X148717000Y-113792000D03*
X93726000Y-51181000D03*
X124206000Y-135128000D03*
%TD*%
D39*
%TO.N,CSI_C_D0_P*%
X145021299Y-99617529D02*
X144830800Y-99427030D01*
X145587719Y-99617530D02*
X145021299Y-99617529D01*
X146771360Y-99519740D02*
X145685509Y-99519740D01*
X145685509Y-99519740D02*
X145587719Y-99617530D01*
%TO.N,CSI_C_D0_N*%
X146771360Y-100020120D02*
X145685509Y-100020120D01*
X145685509Y-100020120D02*
X145587719Y-99922330D01*
X145021299Y-99922331D02*
X144830800Y-100112830D01*
X145587719Y-99922330D02*
X145021299Y-99922331D01*
%TO.N,CSI_C_D1_P*%
X142379699Y-104241599D02*
X143065873Y-104241599D01*
X145587719Y-102617270D02*
X145685509Y-102519480D01*
X145685509Y-102519480D02*
X146771360Y-102519480D01*
X144690202Y-102617270D02*
X145587719Y-102617270D01*
X142189200Y-104051100D02*
X142379699Y-104241599D01*
X143065873Y-104241599D02*
X144690202Y-102617270D01*
%TO.N,CSI_C_D1_N*%
X144816458Y-102922070D02*
X145587719Y-102922070D01*
X142189200Y-104736900D02*
X142379699Y-104546401D01*
X142379699Y-104546401D02*
X143192127Y-104546401D01*
X143192127Y-104546401D02*
X144816458Y-102922070D01*
X145685509Y-103019860D02*
X146771360Y-103019860D01*
X145587719Y-102922070D02*
X145685509Y-103019860D01*
%TO.N,CSI_D_D0_P*%
X155487267Y-100062133D02*
X155217860Y-100062133D01*
X154034491Y-99519740D02*
X152948640Y-99519740D01*
X154773257Y-99617530D02*
X154132281Y-99617530D01*
X155217860Y-100062133D02*
X154773257Y-99617530D01*
X154132281Y-99617530D02*
X154034491Y-99519740D01*
%TO.N,CSI_D_D0_N*%
X154132281Y-99922330D02*
X154034491Y-100020120D01*
X155002333Y-100277660D02*
X154647003Y-99922330D01*
X154647003Y-99922330D02*
X154132281Y-99922330D01*
X155002333Y-100547067D02*
X155002333Y-100277660D01*
X154034491Y-100020120D02*
X152948640Y-100020120D01*
%TO.N,CSI_C_CLK_P*%
X139255499Y-97928429D02*
X140206357Y-97928429D01*
X139065000Y-97737930D02*
X139255499Y-97928429D01*
X145685509Y-101018340D02*
X146771360Y-101018340D01*
X143394058Y-101116130D02*
X145587719Y-101116130D01*
X140206357Y-97928429D02*
X143394058Y-101116130D01*
X145587719Y-101116130D02*
X145685509Y-101018340D01*
%TO.N,CSI_D_CLK_P*%
X154132281Y-101116130D02*
X154034491Y-101018340D01*
X155687657Y-101116130D02*
X154132281Y-101116130D01*
X157265267Y-102424333D02*
X156995860Y-102424333D01*
X154034491Y-101018340D02*
X152948640Y-101018340D01*
X156995860Y-102424333D02*
X155687657Y-101116130D01*
%TO.N,CSI_C_CLK_N*%
X139065000Y-98423730D02*
X139255499Y-98233231D01*
X143267802Y-101420930D02*
X145587719Y-101420930D01*
X140080103Y-98233231D02*
X143267802Y-101420930D01*
X139255499Y-98233231D02*
X140080103Y-98233231D01*
X145587719Y-101420930D02*
X145685509Y-101518720D01*
X145685509Y-101518720D02*
X146771360Y-101518720D01*
%TO.N,CSI_D_CLK_N*%
X154034491Y-101518720D02*
X152948640Y-101518720D01*
X156780333Y-102639860D02*
X155561403Y-101420930D01*
X155561403Y-101420930D02*
X154132281Y-101420930D01*
X156780333Y-102909267D02*
X156780333Y-102639860D01*
X154132281Y-101420930D02*
X154034491Y-101518720D01*
%TO.N,CSI_D_D1_P*%
X155792067Y-103770533D02*
X155522660Y-103770533D01*
X154369397Y-102617270D02*
X154132281Y-102617270D01*
X154034491Y-102519480D02*
X152948640Y-102519480D01*
X154132281Y-102617270D02*
X154034491Y-102519480D01*
X155522660Y-103770533D02*
X154369397Y-102617270D01*
%TO.N,CSI_D_D1_N*%
X155307133Y-103986060D02*
X154243143Y-102922070D01*
X154132281Y-102922070D02*
X154034491Y-103019860D01*
X154034491Y-103019860D02*
X152948640Y-103019860D01*
X154243143Y-102922070D02*
X154132281Y-102922070D01*
X155307133Y-104255467D02*
X155307133Y-103986060D01*
D40*
%TO.N,/LVDS_to_Jetson_lines/CSI_LP_C_CLK_P*%
X130987800Y-96316800D02*
X128625600Y-93954600D01*
X128625600Y-93192600D02*
X124206000Y-88773000D01*
X124206000Y-88773000D02*
X124206000Y-79171800D01*
X128625600Y-93954600D02*
X128625600Y-93192600D01*
X131826000Y-96316800D02*
X130987800Y-96316800D01*
X118491000Y-73456800D02*
X118491000Y-72161400D01*
X124206000Y-79171800D02*
X118491000Y-73456800D01*
%TO.N,/LVDS_to_Jetson_lines/CSI_LP_C_CLK_N*%
X122423643Y-78532443D02*
X122423643Y-89547329D01*
X117942800Y-72114000D02*
X117942800Y-74051600D01*
X130209114Y-97332800D02*
X131826000Y-97332800D01*
X122423643Y-89547329D02*
X130209114Y-97332800D01*
X117942800Y-74051600D02*
X122423643Y-78532443D01*
%TO.N,/LVDS_to_Jetson_lines/CSI_LP_C_D0_P*%
X116942800Y-72114000D02*
X116942800Y-74889114D01*
X120650000Y-78596314D02*
X120650000Y-90652600D01*
X116942800Y-74889114D02*
X120650000Y-78596314D01*
X120650000Y-90652600D02*
X130835400Y-100838000D01*
%TO.N,/LVDS_to_Jetson_lines/CSI_LP_C_D0_N*%
X119278400Y-78994000D02*
X116078000Y-75793600D01*
X119278400Y-86614000D02*
X119278400Y-78994000D01*
X119278400Y-86588600D02*
X119278400Y-91694000D01*
X129413000Y-101828600D02*
X132003800Y-101828600D01*
X119278400Y-91694000D02*
X129413000Y-101828600D01*
X116078000Y-73837800D02*
X116442800Y-73473000D01*
X116078000Y-75793600D02*
X116078000Y-73837800D01*
X116442800Y-73473000D02*
X116442800Y-72114000D01*
%TO.N,/LVDS_to_Jetson_lines/CSI_LP_C_D1_P*%
X115442800Y-72114000D02*
X115442800Y-74396800D01*
X113080800Y-78324886D02*
X113080800Y-87579200D01*
X114371843Y-75467757D02*
X114371843Y-77033843D01*
X113080800Y-87579200D02*
X128320800Y-102819200D01*
X114371843Y-77033843D02*
X113080800Y-78324886D01*
X128320800Y-102819200D02*
X131826000Y-102819200D01*
X115442800Y-74396800D02*
X114371843Y-75467757D01*
%TO.N,/LVDS_to_Jetson_lines/CSI_LP_C_D1_N*%
X127406400Y-103835200D02*
X111887000Y-88315800D01*
X112268000Y-83185000D02*
X112268000Y-77571600D01*
X112725200Y-77114400D02*
X112725200Y-74345800D01*
X131826000Y-103835200D02*
X127406400Y-103835200D01*
X111887000Y-88315800D02*
X111887000Y-83566000D01*
X112268000Y-77571600D02*
X112725200Y-77114400D01*
X114942800Y-73372800D02*
X114942800Y-72114000D01*
X112725200Y-74345800D02*
X113411000Y-73660000D01*
X114655600Y-73660000D02*
X114942800Y-73372800D01*
X113411000Y-73660000D02*
X114655600Y-73660000D01*
X111887000Y-83566000D02*
X112268000Y-83185000D01*
%TO.N,/LVDS_to_Jetson_lines/CSI_LP_D_CLK_P*%
X125603000Y-70612000D02*
X126517400Y-70612000D01*
X125442800Y-70772200D02*
X125603000Y-70612000D01*
X126517400Y-70612000D02*
X126669800Y-70764400D01*
X131318000Y-70993000D02*
X142494000Y-70993000D01*
X126669800Y-71602600D02*
X127101600Y-72034400D01*
X150291800Y-78790800D02*
X150291800Y-82804000D01*
X142494000Y-70993000D02*
X150291800Y-78790800D01*
X127101600Y-72034400D02*
X130276600Y-72034400D01*
X126669800Y-70764400D02*
X126669800Y-71602600D01*
X125442800Y-72114000D02*
X125442800Y-70772200D01*
X130276600Y-72034400D02*
X131318000Y-70993000D01*
%TO.N,/LVDS_to_Jetson_lines/CSI_LP_D_CLK_N*%
X149301200Y-82804000D02*
X149301200Y-79451200D01*
D39*
X124917200Y-70104000D02*
X124942800Y-70129600D01*
X124942800Y-70129600D02*
X124942800Y-72114000D01*
D40*
X149301200Y-79451200D02*
X142595600Y-72745600D01*
X142595600Y-72745600D02*
X127863600Y-72745600D01*
%TO.N,/LVDS_to_Jetson_lines/CSI_LP_D_D0_P*%
X140589000Y-73634600D02*
X124155200Y-73634600D01*
X124155200Y-73634600D02*
X123942800Y-73422200D01*
X145796000Y-82804000D02*
X145796000Y-78841600D01*
X145796000Y-78841600D02*
X140589000Y-73634600D01*
X123942800Y-73422200D02*
X123942800Y-72114000D01*
%TO.N,/LVDS_to_Jetson_lines/CSI_LP_D_D0_N*%
X144780000Y-81407000D02*
X144780000Y-82804000D01*
X123442800Y-72114000D02*
X123442800Y-74039800D01*
X123698000Y-74295000D02*
X137668000Y-74295000D01*
X137668000Y-74295000D02*
X144780000Y-81407000D01*
X123442800Y-74039800D02*
X123698000Y-74295000D01*
%TO.N,/LVDS_to_Jetson_lines/CSI_LP_D_D1_P*%
X143789400Y-81813400D02*
X143789400Y-82804000D01*
X126644400Y-76047600D02*
X127762000Y-74930000D01*
X122442800Y-74686600D02*
X123803800Y-76047600D01*
X123803800Y-76047600D02*
X126644400Y-76047600D01*
D39*
X122481340Y-72069960D02*
X122488960Y-72069960D01*
D40*
X122442800Y-72114000D02*
X122442800Y-74686600D01*
X136906000Y-74930000D02*
X143789400Y-81813400D01*
X127762000Y-74930000D02*
X136906000Y-74930000D01*
X122488960Y-72069960D02*
X122488960Y-72146160D01*
%TO.N,/LVDS_to_Jetson_lines/CSI_LP_D_D1_N*%
X121942800Y-73408600D02*
X121767600Y-73583800D01*
X123012200Y-76708000D02*
X127635000Y-76708000D01*
X121767600Y-73583800D02*
X121767600Y-75463400D01*
X121942800Y-72114000D02*
X121942800Y-73408600D01*
X142798800Y-82346800D02*
X142798800Y-82778600D01*
X136042400Y-75590400D02*
X142798800Y-82346800D01*
X128752600Y-75590400D02*
X136042400Y-75590400D01*
X121767600Y-75463400D02*
X123012200Y-76708000D01*
X127635000Y-76708000D02*
X128752600Y-75590400D01*
%TO.N,/Jetson_connector/EEPROM_SCL*%
X119200000Y-123948000D02*
X118622000Y-123948000D01*
X118364000Y-124206000D02*
X118364000Y-126746000D01*
X118622000Y-123948000D02*
X118364000Y-124206000D01*
%TO.N,/Jetson_connector/EEPROM_SDA*%
X119200000Y-125296000D02*
X120396000Y-126492000D01*
X119200000Y-124448000D02*
X119200000Y-125296000D01*
X120396000Y-126492000D02*
X121158010Y-126492000D01*
%TO.N,/Jetson_connector/EEPROM_A2*%
X122100000Y-123948000D02*
X123186000Y-123948000D01*
X123186000Y-123948000D02*
X124206000Y-124968000D01*
%TO.N,/Jetson_connector/EEPROM_A1*%
X124968000Y-121983500D02*
X124968000Y-120777000D01*
X122100000Y-123448000D02*
X123503500Y-123448000D01*
X123503500Y-123448000D02*
X124968000Y-121983500D01*
%TO.N,/Jetson_connector/EEPROM_A0*%
X122100000Y-122756000D02*
X123444000Y-121412000D01*
X122100000Y-122948000D02*
X122100000Y-122756000D01*
D41*
%TO.N,/Jetson_connector/JT_VDD_3V3*%
X152948640Y-127017780D02*
X154414220Y-127017780D01*
X154414220Y-127017780D02*
X154686000Y-126746000D01*
X154686000Y-126492000D02*
X154686000Y-126746000D01*
X154660600Y-126517400D02*
X154686000Y-126492000D01*
X152948640Y-126517400D02*
X154660600Y-126517400D01*
%TO.N,/Jetson_connector/JT_VDD_5V*%
X148572220Y-127017780D02*
X148590000Y-127000000D01*
X152948640Y-129016760D02*
X151653240Y-129016760D01*
X151615140Y-129517140D02*
X151384000Y-129286000D01*
X152948640Y-129517140D02*
X151615140Y-129517140D01*
X146771360Y-127017780D02*
X148572220Y-127017780D01*
X151653240Y-129016760D02*
X151384000Y-129286000D01*
D40*
%TO.N,Net-(R8-Pad2)*%
X116586000Y-134112000D02*
X117010000Y-133688000D01*
X117010000Y-133688000D02*
X118430000Y-133688000D01*
%TO.N,JT_1p8V_GPIO9_IN*%
X155194000Y-127508000D02*
X152956260Y-127508000D01*
X152956260Y-127508000D02*
X152948640Y-127515620D01*
%TO.N,JT_1p8V_GPIO17_IN*%
X144907000Y-130014632D02*
X145904872Y-129016760D01*
X145904872Y-129016760D02*
X146771360Y-129016760D01*
X144907000Y-130302000D02*
X144907000Y-130014632D01*
%TO.N,JT_1p8V_I2C_CAM_CLK*%
X144932400Y-118516400D02*
X144780000Y-118364000D01*
X146771360Y-118516400D02*
X144932400Y-118516400D01*
%TO.N,JT_1p8V_I2C_CAM_DAT*%
X136271000Y-125603000D02*
X142857220Y-119016780D01*
X128524000Y-126238000D02*
X128905000Y-126238000D01*
X129540000Y-125603000D02*
X136271000Y-125603000D01*
X142857220Y-119016780D02*
X146771360Y-119016780D01*
X128905000Y-126238000D02*
X129540000Y-125603000D01*
%TO.N,JT_1p8V_CAM0_MCLK*%
X146771360Y-122516900D02*
X145122900Y-122516900D01*
X144399000Y-121793000D02*
X144018000Y-121793000D01*
X145122900Y-122516900D02*
X144399000Y-121793000D01*
%TO.N,JT_1p8V_CAM0_PWR*%
X144190720Y-123017280D02*
X146771360Y-123017280D01*
X143891000Y-123317000D02*
X144190720Y-123017280D01*
%TO.N,JT_1p8V_CAM0_RST*%
X144653000Y-124333000D02*
X145468340Y-123517660D01*
X145468340Y-123517660D02*
X146771360Y-123517660D01*
%TO.N,Net-(IC3-Pad8)*%
X131816040Y-137402000D02*
X132590040Y-138176000D01*
X132590040Y-138176000D02*
X133096000Y-138176000D01*
%TO.N,Net-(IC3-Pad5)*%
X131816040Y-135902000D02*
X131816040Y-135372040D01*
X131816040Y-135372040D02*
X131064000Y-134620000D01*
X131064000Y-134620000D02*
X130810000Y-134620000D01*
%TO.N,Net-(IC3-Pad4)*%
X128666040Y-130952040D02*
X128524000Y-130810000D01*
X128666040Y-135902000D02*
X128666040Y-130952040D01*
%TO.N,Net-(IC3-Pad1)*%
X128371600Y-138709400D02*
X123672600Y-138709400D01*
X128666040Y-137402000D02*
X128666040Y-138414960D01*
X123672600Y-138709400D02*
X123571000Y-138811000D01*
X128666040Y-138414960D02*
X128371600Y-138709400D01*
%TO.N,/LVDS_to_Jetson_lines/DIR_U8*%
X125942800Y-67173400D02*
X125145800Y-67970400D01*
X125942800Y-64538000D02*
X125942800Y-67173400D01*
X125145800Y-67970400D02*
X114198400Y-67970400D01*
X113284000Y-67056000D02*
X114442800Y-65897200D01*
X114442800Y-65897200D02*
X114442800Y-64538000D01*
X114198400Y-67970400D02*
X113284000Y-67056000D01*
X111252000Y-67056000D02*
X113284000Y-67056000D01*
%TO.N,/Slow_signals_level_shifters/1DIR_U3*%
X129413000Y-119126000D02*
X129794000Y-119126000D01*
X127762000Y-120777000D02*
X129413000Y-119126000D01*
X127762000Y-124333000D02*
X127762000Y-120777000D01*
%TO.N,Net-(R16-Pad2)*%
X129728000Y-54018000D02*
X131402000Y-54018000D01*
X131402000Y-54018000D02*
X131445000Y-53975000D01*
D41*
%TO.N,/Jetson_connector/VCC_1V8_EEPROM*%
X118068000Y-122428000D02*
X117348000Y-123148000D01*
X119200000Y-122948000D02*
X118680000Y-122428000D01*
X110490000Y-123698000D02*
X110490000Y-122478800D01*
X118680000Y-122428000D02*
X118068000Y-122428000D01*
X114833400Y-126009400D02*
X114833400Y-121437400D01*
X116814600Y-121437400D02*
X117348000Y-121970800D01*
X111531400Y-121437400D02*
X114833400Y-121437400D01*
X115570000Y-126746000D02*
X114833400Y-126009400D01*
X117348000Y-121970800D02*
X117348000Y-123148000D01*
X110490000Y-122478800D02*
X111531400Y-121437400D01*
X114833400Y-121437400D02*
X116814600Y-121437400D01*
D40*
%TO.N,Net-(R17-Pad2)*%
X133572301Y-78771699D02*
X133572301Y-78254999D01*
X132842000Y-79502000D02*
X133572301Y-78771699D01*
X132588000Y-79502000D02*
X132842000Y-79502000D01*
D41*
%TO.N,/VDD_VADJ*%
X105114000Y-118914000D02*
X106680000Y-117348000D01*
X108812000Y-129174000D02*
X108712000Y-129074000D01*
X117442800Y-66199200D02*
X117348000Y-66294000D01*
X122942800Y-64538000D02*
X122942800Y-65753800D01*
X132838000Y-136902000D02*
X133138000Y-137202000D01*
X108887200Y-83312000D02*
X109596700Y-82602500D01*
X107696000Y-82550000D02*
X108458000Y-83312000D01*
X109586000Y-129174000D02*
X108812000Y-129174000D01*
X121894600Y-66802000D02*
X121158000Y-66802000D01*
X149733000Y-43053000D02*
X150114000Y-42672000D01*
X109474000Y-130048000D02*
X109474000Y-129286000D01*
X107484000Y-82550000D02*
X107696000Y-82550000D01*
X109586000Y-129174000D02*
X109474000Y-129286000D01*
X94234000Y-123148000D02*
X94954000Y-123148000D01*
D42*
X135898800Y-137202000D02*
X136194800Y-136906000D01*
D41*
X97637600Y-129274001D02*
X99367999Y-129274001D01*
X106568000Y-129174000D02*
X106680000Y-129286000D01*
D42*
X133858000Y-137202000D02*
X135898800Y-137202000D01*
D41*
X148463000Y-41783000D02*
X149733000Y-40513000D01*
X110810000Y-129174000D02*
X109586000Y-129174000D01*
D42*
X136194800Y-136906000D02*
X136194800Y-134924800D01*
D41*
X108458000Y-83312000D02*
X108887200Y-83312000D01*
X133138000Y-137202000D02*
X133858000Y-137202000D01*
X95961000Y-123448000D02*
X96770000Y-123448000D01*
X108458000Y-83820000D02*
X108458000Y-83312000D01*
D42*
X136194800Y-134924800D02*
X135382000Y-134112000D01*
D41*
X133604000Y-128270000D02*
X133604000Y-129244000D01*
X102870000Y-118914000D02*
X105114000Y-118914000D01*
X105090000Y-129174000D02*
X106568000Y-129174000D01*
X122942800Y-65753800D02*
X121894600Y-66802000D01*
X99568000Y-129286000D02*
X100330000Y-130048000D01*
X150114000Y-42672000D02*
X150495000Y-42672000D01*
X95254000Y-123448000D02*
X95961000Y-123448000D01*
X101850000Y-118614000D02*
X102150000Y-118914000D01*
X99568000Y-129074000D02*
X99568000Y-129286000D01*
X133350000Y-123698000D02*
X133350000Y-122724000D01*
X117442800Y-64538000D02*
X117442800Y-66199200D01*
X99367999Y-129274001D02*
X99568000Y-129074000D01*
X100889000Y-118614000D02*
X101850000Y-118614000D01*
X94954000Y-123148000D02*
X95254000Y-123448000D01*
X96770000Y-123448000D02*
X97028000Y-123190000D01*
X131816040Y-136902000D02*
X132838000Y-136902000D01*
X148463000Y-39243000D02*
X149098000Y-39878000D01*
X102150000Y-118914000D02*
X102870000Y-118914000D01*
X148463000Y-41783000D02*
X149098000Y-42418000D01*
X149733000Y-40513000D02*
X150368000Y-39878000D01*
%TO.N,/VOLT_3P3*%
X93864999Y-129274001D02*
X94894400Y-129274001D01*
X127828000Y-53152000D02*
X127828000Y-54018000D01*
X93853000Y-129286000D02*
X93864999Y-129274001D01*
X136906000Y-96478000D02*
X137880000Y-96478000D01*
X152146000Y-87418000D02*
X151596008Y-87418000D01*
X140716000Y-88180000D02*
X141715400Y-88180000D01*
X127524000Y-51816000D02*
X127524000Y-52848000D01*
X149733000Y-37973000D02*
X149098000Y-38608000D01*
X130302000Y-78232000D02*
X131018002Y-78232000D01*
X146812000Y-82296000D02*
X146812000Y-81492000D01*
X132334000Y-99610000D02*
X131309200Y-99610000D01*
X120904000Y-135128000D02*
X120904000Y-136128000D01*
X141715400Y-88180000D02*
X141732000Y-88163400D01*
X120904000Y-135128000D02*
X120904000Y-134262000D01*
X151596008Y-87418000D02*
X151130008Y-87884000D01*
X131672301Y-78254999D02*
X131041001Y-78254999D01*
X148463000Y-36703000D02*
X147828000Y-36068000D01*
X120904000Y-134262000D02*
X120330000Y-133688000D01*
X127524000Y-52848000D02*
X127828000Y-53152000D01*
X126238000Y-51816000D02*
X127524000Y-51816000D01*
X115570000Y-82699800D02*
X115472700Y-82602500D01*
X146685000Y-82423000D02*
X146812000Y-82296000D01*
X131018002Y-78232000D02*
X131041001Y-78254999D01*
X146812000Y-81492000D02*
X146897000Y-81407000D01*
X93599000Y-129286000D02*
X93853000Y-129286000D01*
X93726009Y-129274001D02*
X93864999Y-129274001D01*
X137880000Y-96478000D02*
X137922000Y-96520000D01*
X115570000Y-83778000D02*
X115570000Y-82699800D01*
X147193000Y-37973000D02*
X147828000Y-37338000D01*
X116586000Y-83820000D02*
X115612000Y-83820000D01*
X131309200Y-99610000D02*
X130962400Y-99263200D01*
X120904000Y-136128000D02*
X120380000Y-136652000D01*
X115612000Y-83820000D02*
X115570000Y-83778000D01*
X144653000Y-37973000D02*
X144018000Y-38608000D01*
%TO.N,/VOLT_1P8*%
X100838000Y-124248000D02*
X101481800Y-124248000D01*
X114188000Y-129174000D02*
X114300000Y-129286000D01*
X94081600Y-116992400D02*
X94903200Y-117814000D01*
X101481800Y-124248000D02*
X101879400Y-123850400D01*
X94903200Y-117814000D02*
X95758000Y-117814000D01*
X131857001Y-136402000D02*
X131816040Y-136402000D01*
X98327400Y-123948000D02*
X99111000Y-123948000D01*
X112710000Y-129174000D02*
X114188000Y-129174000D01*
X95961000Y-123948000D02*
X96820800Y-123948000D01*
X99111000Y-123948000D02*
X100072000Y-123948000D01*
X126746000Y-136102000D02*
X126813400Y-136102000D01*
X96478000Y-117814000D02*
X96778000Y-118114000D01*
X130048000Y-133858000D02*
X129794000Y-134112000D01*
X96778000Y-118114000D02*
X97739000Y-118114000D01*
X132080000Y-134366000D02*
X131572000Y-133858000D01*
X97967800Y-124307600D02*
X98327400Y-123948000D01*
X120380000Y-128524000D02*
X122428008Y-128524000D01*
X122428008Y-128524000D02*
X123952000Y-127000008D01*
X126746000Y-136102000D02*
X127466000Y-136102000D01*
X120330000Y-131488000D02*
X121038800Y-131488000D01*
X100072000Y-123948000D02*
X100372000Y-124248000D01*
X95758000Y-117814000D02*
X96478000Y-117814000D01*
X100372000Y-124248000D02*
X100838000Y-124248000D01*
X129794000Y-134112000D02*
X129794000Y-136144000D01*
X96820800Y-123948000D02*
X97180400Y-124307600D01*
X120330000Y-131488000D02*
X120330000Y-130022600D01*
X102539800Y-125603000D02*
X103200200Y-125603000D01*
X129794000Y-136144000D02*
X130052000Y-136402000D01*
X97739000Y-118114000D02*
X100889000Y-118114000D01*
X135890000Y-128270000D02*
X135890000Y-129244000D01*
X128666040Y-136402000D02*
X130052000Y-136402000D01*
X127466000Y-136102000D02*
X127766000Y-136402000D01*
X97180400Y-124307600D02*
X97967800Y-124307600D01*
X101481800Y-124545000D02*
X102539800Y-125603000D01*
X123047000Y-130937000D02*
X123698000Y-131588000D01*
X120380000Y-128524000D02*
X120380000Y-131438000D01*
X101481800Y-124248000D02*
X101481800Y-124545000D01*
X130052000Y-136402000D02*
X131857001Y-136402000D01*
X101879400Y-123850400D02*
X101879400Y-122402600D01*
X127766000Y-136402000D02*
X128666040Y-136402000D01*
X135890000Y-122724000D02*
X135890000Y-123698000D01*
X120330000Y-130022600D02*
X118465600Y-130022600D01*
X120380000Y-131438000D02*
X120330000Y-131488000D01*
X131572000Y-133858000D02*
X130048000Y-133858000D01*
X126813400Y-136102000D02*
X127482600Y-135432800D01*
X121589800Y-130937000D02*
X123047000Y-130937000D01*
X121038800Y-131488000D02*
X121589800Y-130937000D01*
%TO.N,/VOLT_1P2*%
X117442800Y-72114000D02*
X117442800Y-69436800D01*
X122942800Y-72114000D02*
X122942800Y-74174800D01*
X103190000Y-129174000D02*
X101446000Y-129174000D01*
X131651500Y-80475800D02*
X131672301Y-80454999D01*
X131616700Y-82667600D02*
X131651500Y-82702400D01*
X131576800Y-84536000D02*
X131826000Y-84785200D01*
X101446000Y-129174000D02*
X101346000Y-129074000D01*
X122942800Y-74174800D02*
X123952000Y-75184000D01*
D43*
X131651500Y-82702400D02*
X131651500Y-80475800D01*
D41*
X103190000Y-129174000D02*
X103190000Y-129860000D01*
D43*
X129222500Y-82667600D02*
X131616700Y-82667600D01*
D41*
X117442800Y-69436800D02*
X117348000Y-69342000D01*
X103190000Y-129860000D02*
X103632000Y-130302000D01*
D43*
X131651500Y-82702400D02*
X131651500Y-84536000D01*
D41*
X103632000Y-130302000D02*
X104140000Y-130302000D01*
D42*
X131672301Y-80454999D02*
X130492999Y-80454999D01*
X130492999Y-80454999D02*
X129794000Y-79756000D01*
D43*
%TO.N,/VOLT_2P5*%
X125222000Y-57420000D02*
X125714000Y-57420000D01*
X127778000Y-58928000D02*
X127778000Y-62184000D01*
X125714000Y-57420000D02*
X126916000Y-56218000D01*
X127828000Y-58878000D02*
X127778000Y-58928000D01*
X121412000Y-54864000D02*
X122666000Y-54864000D01*
X112014000Y-55626000D02*
X111887000Y-55499000D01*
X127824000Y-66864000D02*
X128524000Y-67564000D01*
X127824000Y-62230000D02*
X127824000Y-66864000D01*
X127778000Y-62184000D02*
X127824000Y-62230000D01*
X112014000Y-58674000D02*
X112014000Y-55626000D01*
X122666000Y-54864000D02*
X125222000Y-57420000D01*
X126916000Y-56218000D02*
X127828000Y-56218000D01*
X127828000Y-56218000D02*
X127828000Y-58878000D01*
D40*
%TO.N,/FMC_Connector/TDI*%
X137033000Y-37973000D02*
X136398000Y-38608000D01*
%TO.N,/FMC_Connector/TDO*%
X138303000Y-37973000D02*
X137668000Y-38608000D01*
%TO.N,/LVDS_to_Jetson_lines/DIR_IC1*%
X109596700Y-81952500D02*
X109596700Y-81302500D01*
X109596700Y-81302500D02*
X110721500Y-81302500D01*
X110721500Y-81302500D02*
X111252000Y-80772000D01*
%TO.N,Net-(IC4-Pad8)*%
X101854000Y-119888000D02*
X103124000Y-119888000D01*
X108331000Y-119888000D02*
X108585000Y-119634000D01*
X103124000Y-119888000D02*
X108331000Y-119888000D01*
X100889000Y-119114000D02*
X101080000Y-119114000D01*
X101080000Y-119114000D02*
X101854000Y-119888000D01*
%TO.N,Net-(IC4-Pad5)*%
X109347000Y-115951000D02*
X110363000Y-116967000D01*
X102616000Y-115951000D02*
X109347000Y-115951000D01*
X100889000Y-117614000D02*
X100953000Y-117614000D01*
X100953000Y-117614000D02*
X102616000Y-115951000D01*
%TO.N,Net-(IC4-Pad4)*%
X97739000Y-117614000D02*
X97548000Y-117614000D01*
X96266000Y-116332000D02*
X95757966Y-116332000D01*
X97548000Y-117614000D02*
X96266000Y-116332000D01*
%TO.N,Net-(IC4-Pad1)*%
X97739000Y-119114000D02*
X97739000Y-119558000D01*
X97739000Y-119558000D02*
X96520000Y-120777000D01*
%TO.N,JT_1p8V_I2C2_CAM_CLK*%
X146771360Y-121516140D02*
X145138140Y-121516140D01*
X145138140Y-121516140D02*
X145034000Y-121412000D01*
%TO.N,JT_1p8V_I2C2_CAM_DAT*%
X97155000Y-121539000D02*
X98044000Y-120650000D01*
X146771360Y-122016520D02*
X148432520Y-122016520D01*
X120510300Y-118452900D02*
X121793000Y-117170200D01*
X121793000Y-117170200D02*
X136652000Y-117170200D01*
X148432520Y-122016520D02*
X148463000Y-122047000D01*
X95504000Y-121539000D02*
X97155000Y-121539000D01*
X98044000Y-120650000D02*
X110032800Y-120650000D01*
X112229900Y-118452900D02*
X120510300Y-118452900D01*
X110032800Y-120650000D02*
X112229900Y-118452900D01*
%TO.N,JT_1p8V_I2C3_CAM_CLK*%
X115570000Y-132334000D02*
X114554000Y-133350000D01*
X114554000Y-133350000D02*
X114554000Y-135890000D01*
X144492980Y-126017020D02*
X143891000Y-126619000D01*
X146771360Y-126017020D02*
X144492980Y-126017020D01*
%TO.N,JT_1p8V_I2C3_CAM_DAT*%
X122174000Y-138811000D02*
X126428500Y-134556500D01*
X126428500Y-129730500D02*
X128651000Y-127508000D01*
X126428500Y-134556500D02*
X126428500Y-129730500D01*
X132842000Y-127508000D02*
X133019800Y-127330200D01*
X145516600Y-126517400D02*
X146771360Y-126517400D01*
X128651000Y-127508000D02*
X132842000Y-127508000D01*
X144526000Y-127508000D02*
X145516600Y-126517400D01*
X141935200Y-127508000D02*
X144526000Y-127508000D01*
X133019800Y-127330200D02*
X141757400Y-127330200D01*
X141757400Y-127330200D02*
X141935200Y-127508000D01*
%TO.N,Net-(IC5-Pad8)*%
X95897000Y-122948000D02*
X95961000Y-122948000D01*
X94869000Y-121920000D02*
X95897000Y-122948000D01*
X94234000Y-121920000D02*
X94869000Y-121920000D01*
%TO.N,Net-(IC5-Pad5)*%
X95961000Y-124448000D02*
X95961000Y-125171000D01*
X95961000Y-125171000D02*
X96012000Y-125222000D01*
%TO.N,Net-(IC5-Pad4)*%
X99111000Y-124448000D02*
X99111000Y-125425000D01*
X99111000Y-125425000D02*
X98653600Y-125882400D01*
%TO.N,Net-(IC5-Pad1)*%
X99111000Y-122948000D02*
X98818000Y-122948000D01*
X98818000Y-122948000D02*
X97790000Y-121920000D01*
%TO.N,/LVDS_to_Jetson_lines/SWITCH_DATA_LANES_CSI_CD*%
X118178700Y-80652500D02*
X118491000Y-80340200D01*
X118491000Y-80340200D02*
X118491000Y-80187800D01*
X115472700Y-80652500D02*
X118178700Y-80652500D01*
%TO.N,/LVDS_to_Jetson_lines/SWITCH_CLOCK_LANES_CSI_CD*%
X117340500Y-80002500D02*
X117348000Y-80010000D01*
X115472700Y-80002500D02*
X117340500Y-80002500D01*
%TO.N,/LVDS_to_Jetson_lines/EN_MIPI_OUT_CSI_C*%
X115472700Y-79352500D02*
X114322500Y-79352500D01*
X114322500Y-79352500D02*
X113792000Y-79883000D01*
%TO.N,/LVDS_to_Jetson_lines/EN_MIPI_OUT_CSI_D*%
X148336000Y-73660000D02*
X149225000Y-74549000D01*
X148336000Y-70866000D02*
X148336000Y-73660000D01*
X149225000Y-74549000D02*
X150749000Y-74549000D01*
X130683000Y-70485000D02*
X131191000Y-70485000D01*
X117310500Y-78702500D02*
X117322600Y-78714600D01*
X150749000Y-74549000D02*
X153898600Y-77698600D01*
X132334000Y-69342000D02*
X146812000Y-69342000D01*
X115472700Y-78702500D02*
X117310500Y-78702500D01*
X146812000Y-69342000D02*
X148336000Y-70866000D01*
X131191000Y-70485000D02*
X132334000Y-69342000D01*
%TO.N,/LVDS_to_Jetson_lines/SWITCH1_U6*%
X139446000Y-89154000D02*
X138303000Y-88011000D01*
X146202400Y-89154000D02*
X139446000Y-89154000D01*
X146710400Y-88646000D02*
X146202400Y-89154000D01*
X138303000Y-87249000D02*
X139700000Y-85852000D01*
X138303000Y-88011000D02*
X138303000Y-87249000D01*
%TO.N,/LVDS_to_Jetson_lines/SWITCH2_U6*%
X135026400Y-89916000D02*
X132207000Y-87096600D01*
X146304000Y-89916000D02*
X135026400Y-89916000D01*
X147574000Y-88646000D02*
X146304000Y-89916000D01*
D41*
%TO.N,JT_VDD_1V8*%
X152948640Y-125016260D02*
X154637740Y-125016260D01*
X107400000Y-124248000D02*
X107950000Y-123698000D01*
X104648000Y-124248000D02*
X107400000Y-124248000D01*
X104648000Y-124248000D02*
X102870000Y-124248000D01*
X154637740Y-125016260D02*
X154940000Y-124714000D01*
D40*
%TO.N,Net-(IC6-Pad5)*%
X105090000Y-128524000D02*
X106172000Y-128524000D01*
X108204000Y-134874000D02*
X106680000Y-136398000D01*
X108204000Y-129286000D02*
X108204000Y-134874000D01*
X107442000Y-128524000D02*
X108204000Y-129286000D01*
X106172000Y-128524000D02*
X107442000Y-128524000D01*
%TO.N,Net-(IC6-Pad3)*%
X103190000Y-127874000D02*
X103190000Y-126685000D01*
X103190000Y-126685000D02*
X102997000Y-126492000D01*
D41*
%TO.N,/Jetson_connector/JT_VDD_2V8*%
X145412460Y-120017540D02*
X145034000Y-120396000D01*
X152948640Y-120017540D02*
X154815540Y-120017540D01*
X146771360Y-120517920D02*
X145155920Y-120517920D01*
X154815540Y-120017540D02*
X155194000Y-120396000D01*
X145155920Y-120517920D02*
X145034000Y-120396000D01*
X146771360Y-120017540D02*
X145412460Y-120017540D01*
%TO.N,/Jetson_connector/JT_VDD_1V2*%
X146771360Y-125016260D02*
X142826740Y-125016260D01*
X142826740Y-125016260D02*
X142011400Y-125831600D01*
D40*
%TO.N,Net-(R32-Pad2)*%
X95754000Y-128774000D02*
X98552000Y-131572000D01*
X94894400Y-128774000D02*
X95754000Y-128774000D01*
X98552000Y-131572000D02*
X98552000Y-134112000D01*
%TO.N,Net-(R33-Pad2)*%
X97637600Y-127228600D02*
X97155000Y-126746000D01*
X97637600Y-127773999D02*
X97637600Y-127228600D01*
%TO.N,Net-(R34-Pad2)*%
X94894400Y-128274000D02*
X93341000Y-128274000D01*
X92710000Y-129921000D02*
X94107000Y-131318000D01*
X93341000Y-128274000D02*
X92710000Y-128905000D01*
X94107000Y-131318000D02*
X94107000Y-133477000D01*
X94107000Y-133477000D02*
X93472000Y-134112000D01*
X92710000Y-128905000D02*
X92710000Y-129921000D01*
%TO.N,Net-(IC7-Pad5)*%
X111887000Y-135255000D02*
X113411000Y-136779000D01*
X115316000Y-128778000D02*
X115316000Y-129794000D01*
X115062000Y-128524000D02*
X115316000Y-128778000D01*
X112710000Y-128524000D02*
X115062000Y-128524000D01*
X115316000Y-129794000D02*
X111887000Y-133223000D01*
X111887000Y-133223000D02*
X111887000Y-135255000D01*
%TO.N,/Slow_signals_level_shifters/ENN_JETSON_GPIO*%
X112776000Y-126746000D02*
X112776000Y-127808000D01*
X112776000Y-127808000D02*
X112710000Y-127874000D01*
%TO.N,FMC_HS_CSI_C_D1_N*%
X112903000Y-43053000D02*
X112268000Y-43688000D01*
D39*
X100431599Y-88582499D02*
X100241100Y-88392000D01*
X100241100Y-94742000D02*
X100431599Y-94551501D01*
X100431599Y-94551501D02*
X100431599Y-88582499D01*
D40*
%TO.N,FMC_HS_CSI_C_D1_P*%
X111633000Y-43053000D02*
X112268000Y-42418000D01*
D39*
X100736401Y-88582499D02*
X100926900Y-88392000D01*
X100926900Y-94742000D02*
X100736401Y-94551501D01*
X100736401Y-94551501D02*
X100736401Y-88582499D01*
%TO.N,FMC_HS_CSI_C_D0_N*%
X103987599Y-94551501D02*
X103797100Y-94742000D01*
X103797100Y-88392000D02*
X103987599Y-88582499D01*
D40*
X116713000Y-43053000D02*
X116078000Y-43688000D01*
D39*
X103987599Y-88582499D02*
X103987599Y-94551501D01*
%TO.N,FMC_HS_CSI_C_D0_P*%
X104292401Y-94551501D02*
X104482900Y-94742000D01*
X104292401Y-88582499D02*
X104292401Y-94551501D01*
D40*
X115443000Y-43053000D02*
X116078000Y-42418000D01*
D39*
X104482900Y-88392000D02*
X104292401Y-88582499D01*
D40*
%TO.N,FMC_HS_CSI_D_D1_N*%
X139573000Y-43053000D02*
X138938000Y-42418000D01*
%TO.N,FMC_HS_CSI_D_D1_P*%
X138303000Y-43053000D02*
X138938000Y-43688000D01*
%TO.N,FMC_HS_CSI_D_D0_N*%
X143383000Y-43053000D02*
X142748000Y-42418000D01*
%TO.N,FMC_HS_CSI_D_D0_P*%
X142113000Y-43053000D02*
X142748000Y-43688000D01*
%TO.N,FMC_HS_CSI_D_CLK_N*%
X147193000Y-43053000D02*
X146558000Y-42418000D01*
%TO.N,FMC_HS_CSI_D_CLK_P*%
X145923000Y-43053000D02*
X146558000Y-43688000D01*
%TO.N,FMC_HS_CSI_C_CLK_N*%
X107823000Y-41783000D02*
X107188000Y-42418000D01*
%TO.N,FMC_HS_CSI_C_CLK_P*%
X106553000Y-41783000D02*
X107188000Y-41148000D01*
%TO.N,FMC_CSI_LP_C_D1_N*%
X114942800Y-63177600D02*
X114942800Y-64538000D01*
X115282980Y-51595020D02*
X114173000Y-52705000D01*
X114173000Y-52705000D02*
X114173000Y-55753000D01*
X120523000Y-43053000D02*
X119888000Y-42418000D01*
X115282980Y-50706020D02*
X115282980Y-51595020D01*
X116713000Y-49276000D02*
X115282980Y-50706020D01*
X114173000Y-55753000D02*
X114477800Y-56057800D01*
X114477800Y-62712600D02*
X114942800Y-63177600D01*
X114477800Y-56057800D02*
X114477800Y-62712600D01*
%TO.N,FMC_CSI_LP_C_D1_P*%
X115442800Y-64538000D02*
X115442800Y-52705200D01*
X115442800Y-52705200D02*
X119380000Y-48768000D01*
X119253000Y-43053000D02*
X119888000Y-43688000D01*
%TO.N,FMC_CSI_LP_C_D0_N*%
X120396000Y-49403000D02*
X120396000Y-48641000D01*
X116433600Y-64528800D02*
X116433600Y-53365400D01*
X124333000Y-43053000D02*
X124968000Y-42418000D01*
X116442800Y-64538000D02*
X116433600Y-64528800D01*
X120396000Y-48641000D02*
X121412000Y-47625000D01*
X116433600Y-53365400D02*
X120396000Y-49403000D01*
%TO.N,FMC_CSI_LP_C_D0_P*%
X118618000Y-59817000D02*
X116941600Y-61493400D01*
X123698000Y-43688000D02*
X123063000Y-43053000D01*
X123698000Y-43688000D02*
X124968000Y-43688000D01*
X116941600Y-61493400D02*
X116941600Y-64536800D01*
X121158000Y-50292000D02*
X117856000Y-53594000D01*
X116941600Y-64536800D02*
X116942800Y-64538000D01*
X121158000Y-49022000D02*
X121158000Y-50292000D01*
X117856000Y-53594000D02*
X117856000Y-56769000D01*
X117856000Y-56769000D02*
X118618000Y-57531000D01*
X118618000Y-57531000D02*
X118618000Y-59817000D01*
%TO.N,FMC_CSI_LP_C_CLK_N*%
X120015000Y-57404000D02*
X118872000Y-56261000D01*
X118872000Y-56261000D02*
X118872000Y-53975000D01*
X122768615Y-50840385D02*
X122768615Y-49235615D01*
X117957600Y-64523200D02*
X117957600Y-62001400D01*
X128143000Y-43053000D02*
X127508000Y-42418000D01*
X118872000Y-53975000D02*
X120650000Y-52197000D01*
X120015000Y-59944000D02*
X120015000Y-57404000D01*
X117957600Y-62001400D02*
X120015000Y-59944000D01*
X121412000Y-52197000D02*
X122768615Y-50840385D01*
X123871230Y-48133000D02*
X125730000Y-48133000D01*
X117942800Y-64538000D02*
X117957600Y-64523200D01*
X122768615Y-49235615D02*
X123871230Y-48133000D01*
X120650000Y-52197000D02*
X121412000Y-52197000D01*
%TO.N,FMC_CSI_LP_C_CLK_P*%
X124015500Y-51625500D02*
X124015500Y-49974500D01*
X121031000Y-53086000D02*
X122555000Y-53086000D01*
X119888000Y-54229000D02*
X121031000Y-53086000D01*
X122555000Y-53086000D02*
X124015500Y-51625500D01*
X126365000Y-49022000D02*
X126492000Y-48895000D01*
X121539000Y-60325000D02*
X121539000Y-57150000D01*
X119888000Y-55499000D02*
X119888000Y-54229000D01*
X124968000Y-49022000D02*
X126365000Y-49022000D01*
X124015500Y-49974500D02*
X124968000Y-49022000D01*
X118465600Y-64515200D02*
X118465600Y-63398400D01*
X126873000Y-43053000D02*
X127508000Y-43688000D01*
X118465600Y-63398400D02*
X121539000Y-60325000D01*
X118442800Y-64538000D02*
X118465600Y-64515200D01*
X121539000Y-57150000D02*
X119888000Y-55499000D01*
%TO.N,FMC_CSI_LP_D_D1_N*%
X121132600Y-62814200D02*
X121462800Y-62814200D01*
X121462800Y-62814200D02*
X121942800Y-63294200D01*
X119253000Y-41783000D02*
X118618000Y-41148000D01*
X121942800Y-63294200D02*
X121942800Y-64538000D01*
%TO.N,FMC_CSI_LP_D_D1_P*%
X122442800Y-64538000D02*
X122442800Y-62676600D01*
X122442800Y-62676600D02*
X121437400Y-61671200D01*
X117983000Y-41783000D02*
X117348000Y-41148000D01*
%TO.N,FMC_CSI_LP_D_D0_N*%
X123063000Y-41783000D02*
X122428000Y-41148000D01*
X123442800Y-64538000D02*
X123442800Y-62584400D01*
X123442800Y-62584400D02*
X123088400Y-62230000D01*
%TO.N,FMC_CSI_LP_D_D0_P*%
X123942800Y-64538000D02*
X123942800Y-61712800D01*
X121793000Y-41783000D02*
X121158000Y-41148000D01*
X123942800Y-61712800D02*
X123088400Y-60858400D01*
%TO.N,FMC_CSI_LP_D_CLK_N*%
X124891800Y-61798200D02*
X124891800Y-64487000D01*
X126873000Y-41783000D02*
X126212600Y-41122600D01*
X124866400Y-61772800D02*
X124891800Y-61798200D01*
X124891800Y-64487000D02*
X124942800Y-64538000D01*
%TO.N,FMC_CSI_LP_D_CLK_P*%
X125603000Y-41783000D02*
X125577600Y-41783000D01*
X125577600Y-41783000D02*
X124942600Y-41148000D01*
X125442800Y-62568000D02*
X125984000Y-62026800D01*
X125442800Y-64538000D02*
X125442800Y-62568000D01*
%TO.N,FMC_I2C_CAM_CLK*%
X130683000Y-41783000D02*
X130048000Y-41148000D01*
%TO.N,FMC_I2C_CAM_DAT*%
X129413000Y-41783000D02*
X128778000Y-41148000D01*
%TO.N,FMC_I2C2_CAM_CLK*%
X96647000Y-110236000D02*
X96647000Y-112395000D01*
X110363000Y-41783000D02*
X110998000Y-41148000D01*
X97282000Y-113030000D02*
X98298000Y-113030000D01*
X95787400Y-51210400D02*
X97282000Y-52705000D01*
X95787400Y-48865600D02*
X95787400Y-51210400D01*
X96647000Y-112395000D02*
X97282000Y-113030000D01*
X95885000Y-48768000D02*
X95787400Y-48865600D01*
X97282000Y-52705000D02*
X97282000Y-109601000D01*
X97282000Y-109601000D02*
X96647000Y-110236000D01*
%TO.N,FMC_I2C2_CAM_DAT*%
X94742000Y-48641000D02*
X95948500Y-47434500D01*
X94742000Y-114046000D02*
X94742000Y-109347000D01*
X94742000Y-52705000D02*
X94742000Y-48641000D01*
X95377000Y-108712000D02*
X95377000Y-53340000D01*
X95377000Y-53340000D02*
X94742000Y-52705000D01*
X112903000Y-37973000D02*
X112268000Y-38608000D01*
X94742000Y-109347000D02*
X95377000Y-108712000D01*
%TO.N,FMC_I2C3_CAM_CLK*%
X99314000Y-52578000D02*
X99314000Y-109601000D01*
X96774000Y-50038000D02*
X99314000Y-52578000D01*
X107823000Y-43053000D02*
X107188000Y-43688000D01*
X99314000Y-109601000D02*
X98107500Y-110807500D01*
%TO.N,FMC_I2C3_CAM_DAT*%
X111633000Y-41783000D02*
X110998000Y-42418000D01*
%TO.N,FMC_CAM0_RST*%
X134493000Y-41783000D02*
X135128000Y-41148000D01*
%TO.N,FMC_CAM0_PWR*%
X137033000Y-41783000D02*
X137668000Y-41148000D01*
%TO.N,FMC_CAM0_MCLK*%
X140843000Y-41783000D02*
X140208000Y-41148000D01*
%TO.N,FMC_EN_MIPI_OUT_CLOCK_VADJ*%
X109596700Y-78702500D02*
X108706800Y-78702500D01*
X108706800Y-78702500D02*
X108254800Y-78250500D01*
X108254800Y-78250500D02*
X108254800Y-55575200D01*
X108254800Y-55575200D02*
X113665000Y-50165000D01*
X117983000Y-37973000D02*
X118618000Y-38608000D01*
X113665000Y-50165000D02*
X114554000Y-50165000D01*
%TO.N,FMC_EN_MIPI_OUT_DATA_VADJ*%
X108308500Y-79352500D02*
X109596700Y-79352500D01*
X107188000Y-78232000D02*
X108308500Y-79352500D01*
X116713000Y-37973000D02*
X117348000Y-38608000D01*
X107188000Y-78232000D02*
X107188000Y-55118000D01*
X107188000Y-55118000D02*
X114935001Y-47370999D01*
X114935001Y-47370999D02*
X116713001Y-47370999D01*
%TO.N,FMC_SWITCH_CLOCK_LANES_VADJ*%
X115443000Y-41783000D02*
X114808000Y-41148000D01*
X109596700Y-80002500D02*
X106926500Y-80002500D01*
X104267000Y-55626000D02*
X112268000Y-47625000D01*
X104267000Y-77343000D02*
X104267000Y-55626000D01*
X106926500Y-80002500D02*
X104267000Y-77343000D01*
X112268000Y-47625000D02*
X113030000Y-47625000D01*
%TO.N,FMC_SWITCH_DATA_LANES_VADJ*%
X103639500Y-80652500D02*
X101727000Y-78740000D01*
X114173000Y-41783000D02*
X113538000Y-41148000D01*
X101727000Y-78740000D02*
X101727000Y-54610000D01*
X109596700Y-80652500D02*
X103639500Y-80652500D01*
X101727000Y-54610000D02*
X108077000Y-48260000D01*
%TO.N,FMC_1P2V_MONITOR*%
X109093000Y-43053000D02*
X108458000Y-43688000D01*
X105090000Y-126553000D02*
X105029000Y-126492000D01*
X105090000Y-127874000D02*
X105090000Y-126553000D01*
%TO.N,FMC_ENN_JT_GPIO_INPUT*%
X110810000Y-127874000D02*
X110810000Y-126558000D01*
X110810000Y-126558000D02*
X110744000Y-126492000D01*
X120523000Y-37973000D02*
X119888000Y-38608000D01*
%TO.N,FMC_2P8V_MONITOR*%
X99201477Y-40781477D02*
X91783602Y-48199352D01*
X96367600Y-128185800D02*
X96955800Y-128774000D01*
X96955800Y-128774000D02*
X97637600Y-128774000D01*
X91783602Y-125438602D02*
X93065600Y-126720600D01*
X109093000Y-37973000D02*
X108458000Y-37338000D01*
X93065600Y-126720600D02*
X96062800Y-126720600D01*
X96367600Y-127025400D02*
X96367600Y-128185800D01*
X96062800Y-126720600D02*
X96367600Y-127025400D01*
X91783602Y-48199352D02*
X91783602Y-125438602D01*
%TO.N,FMC_3P3V_MONITOR*%
X93472000Y-109982000D02*
X92964000Y-110490000D01*
X92964000Y-110490000D02*
X92964000Y-125222000D01*
X93472000Y-53721000D02*
X93472000Y-109982000D01*
X93776800Y-126034800D02*
X97358200Y-126034800D01*
X92710000Y-49276000D02*
X92710000Y-52959000D01*
X110363000Y-37973000D02*
X109728000Y-38608000D01*
X92710000Y-52959000D02*
X93472000Y-53721000D01*
X98573400Y-127250000D02*
X98573400Y-128074800D01*
X97358200Y-126034800D02*
X98573400Y-127250000D01*
X98374200Y-128274000D02*
X97637600Y-128274000D01*
X98573400Y-128074800D02*
X98374200Y-128274000D01*
X92964000Y-125222000D02*
X93776800Y-126034800D01*
X93599000Y-48387000D02*
X92710000Y-49276000D01*
%TO.N,FMC_GPIO17_OUT*%
X131953000Y-37973000D02*
X131318000Y-38608000D01*
%TO.N,FMC_GPIO9_OUT*%
X133223000Y-37973000D02*
X132588000Y-38607998D01*
%TO.N,FMC_1P8V_MONITOR*%
X133223000Y-41783000D02*
X133858000Y-41148000D01*
D42*
%TO.N,/LVDS_to_Jetson_lines/VOLT_2P5_CSI_D*%
X131318000Y-63754000D02*
X132080000Y-62992000D01*
X132334000Y-62992000D02*
X139446000Y-62992000D01*
D41*
X139700000Y-67818000D02*
X140208000Y-67818000D01*
X141986000Y-66040000D02*
X141986000Y-62992000D01*
X139623800Y-65328800D02*
X139649200Y-65354200D01*
D42*
X141986000Y-62992000D02*
X148082000Y-62992000D01*
D41*
X132588000Y-64516000D02*
X132588000Y-63246000D01*
X139446000Y-62992000D02*
X139623800Y-63169800D01*
X139623800Y-63169800D02*
X139623800Y-65328800D01*
X149352000Y-65024000D02*
X149352000Y-63246000D01*
D42*
X132080000Y-62992000D02*
X132334000Y-62992000D01*
X129540000Y-70104000D02*
X131318000Y-68326000D01*
D41*
X132588000Y-63246000D02*
X132334000Y-62992000D01*
X147574000Y-65024000D02*
X147574000Y-63500000D01*
D42*
X139446000Y-62992000D02*
X141986000Y-62992000D01*
D41*
X147574000Y-63500000D02*
X147574000Y-62992000D01*
D42*
X149098000Y-62992000D02*
X154432000Y-62992000D01*
D41*
X149352000Y-63500000D02*
X149352000Y-62992000D01*
X154940000Y-65024000D02*
X154940000Y-63500000D01*
X140208000Y-67818000D02*
X141986000Y-66040000D01*
D42*
X148082000Y-62992000D02*
X149098000Y-62992000D01*
X128524000Y-70104000D02*
X129540000Y-70104000D01*
D41*
X154940000Y-63500000D02*
X154432000Y-62992000D01*
D42*
X131318000Y-68326000D02*
X131318000Y-63754000D01*
D40*
%TO.N,/FMC_Connector/DBG_IO_5*%
X129413000Y-37973000D02*
X130124200Y-37261800D01*
X142367000Y-56007000D02*
X143891000Y-57531000D01*
X153543000Y-48514000D02*
X143510000Y-48514000D01*
X130124200Y-37261800D02*
X131343400Y-37261800D01*
X143510000Y-48514000D02*
X142367000Y-49657000D01*
X142367000Y-49657000D02*
X142367000Y-56007000D01*
X153924000Y-47879000D02*
X153924000Y-48133000D01*
X143891000Y-57531000D02*
X147066000Y-57531000D01*
X153924000Y-48133000D02*
X153543000Y-48514000D01*
%TO.N,/FMC_Connector/DBG_IO_6*%
X128143000Y-37973000D02*
X128778000Y-37338000D01*
X128778000Y-37338000D02*
X128778000Y-36068000D01*
%TO.N,/FMC_Connector/DBG_IO_1*%
X142113000Y-41783000D02*
X142748000Y-41148000D01*
%TO.N,/FMC_Connector/DBG_IO_2*%
X145923000Y-41783000D02*
X146558000Y-41148000D01*
%TO.N,/FMC_Connector/DBG_IO_3*%
X144653000Y-41783000D02*
X145313400Y-41122600D01*
X150114000Y-49657000D02*
X144780000Y-49657000D01*
X144780000Y-49657000D02*
X143637000Y-50800000D01*
X143637000Y-50800000D02*
X143637000Y-54229000D01*
X145415000Y-39852600D02*
X146532600Y-39852600D01*
X144399000Y-54991000D02*
X147066000Y-54991000D01*
X143637000Y-54229000D02*
X144399000Y-54991000D01*
X145313400Y-39954200D02*
X145415000Y-39852600D01*
X145313400Y-41122600D02*
X145313400Y-39954200D01*
%TO.N,/FMC_Connector/DBG_IO_4*%
X151765000Y-37058600D02*
X154051000Y-39344600D01*
X150876000Y-54991000D02*
X149606000Y-54991000D01*
X154051000Y-44831000D02*
X155448000Y-46228000D01*
X155448000Y-50419000D02*
X150876000Y-54991000D01*
X138303000Y-41757600D02*
X138912600Y-41148000D01*
X155448000Y-46228000D02*
X155448000Y-50419000D01*
X154051000Y-39344600D02*
X154051000Y-44831000D01*
X138303000Y-41783000D02*
X138303000Y-41757600D01*
D41*
%TO.N,Earth*%
X122986800Y-70053200D02*
X123647200Y-70053200D01*
D40*
X129224000Y-62230000D02*
X129224000Y-63311000D01*
D41*
X146771360Y-106519980D02*
X148429980Y-106519980D01*
X120442800Y-69515800D02*
X120421400Y-69494400D01*
X136906000Y-40513000D02*
X136398000Y-40005000D01*
D40*
X130657600Y-58928000D02*
X131597400Y-57988200D01*
D41*
X120650000Y-123698000D02*
X120650000Y-122555000D01*
X115472700Y-78052500D02*
X115472700Y-76966300D01*
X146771360Y-99019360D02*
X148676360Y-99019360D01*
X152948640Y-102019100D02*
X151549100Y-102019100D01*
X119942800Y-73224200D02*
X119942800Y-72114000D01*
X149766020Y-99187000D02*
X149860000Y-99093020D01*
X109326000Y-127974000D02*
X108712000Y-127974000D01*
X120442800Y-72114000D02*
X120442800Y-69515800D01*
X154813000Y-98044000D02*
X154813000Y-98298000D01*
X133034000Y-84785200D02*
X133491200Y-84328000D01*
X148844000Y-99187000D02*
X149766020Y-99187000D01*
X125603000Y-45720000D02*
X126238000Y-46355000D01*
X132622301Y-78217499D02*
X132622301Y-76927699D01*
X147805140Y-102019100D02*
X148590000Y-102803960D01*
D40*
X115472700Y-76966300D02*
X115468400Y-76962000D01*
D41*
X106553000Y-40513000D02*
X105918000Y-41148000D01*
X152146000Y-86318000D02*
X153120000Y-86318000D01*
X123698000Y-133588000D02*
X123809000Y-133588000D01*
X146771360Y-100520500D02*
X148526500Y-100520500D01*
X151099520Y-110713520D02*
X151130000Y-110744000D01*
X124333000Y-44323000D02*
X125603000Y-45593000D01*
X108712000Y-127974000D02*
X108712000Y-127508000D01*
X137033000Y-40513000D02*
X136906000Y-40513000D01*
X114173000Y-40513000D02*
X113538000Y-39878000D01*
X148676360Y-99019360D02*
X148844000Y-99187000D01*
X100838000Y-123148000D02*
X100838000Y-121920000D01*
X101422200Y-40513000D02*
X100863400Y-39954200D01*
D40*
X118942800Y-64538000D02*
X119442800Y-64538000D01*
D41*
X128143000Y-39243000D02*
X127508000Y-39878000D01*
X108712000Y-127508000D02*
X107950000Y-126746000D01*
X152948640Y-108018580D02*
X154754580Y-108018580D01*
X132334000Y-98510000D02*
X131276000Y-98510000D01*
D40*
X119442800Y-64538000D02*
X119942800Y-64538000D01*
D41*
X120400000Y-123448000D02*
X120650000Y-123698000D01*
X140843000Y-45593000D02*
X140208000Y-46228000D01*
X120523000Y-41783000D02*
X121158000Y-42418000D01*
X148346160Y-119517160D02*
X148717000Y-119888000D01*
X128143000Y-44323000D02*
X128651000Y-43815000D01*
X106384000Y-82550000D02*
X106384000Y-83608000D01*
X125603000Y-40386000D02*
X126238000Y-39751000D01*
X124206000Y-133985000D02*
X124206000Y-135128000D01*
X116713000Y-39243000D02*
X116078000Y-38608000D01*
X131953000Y-41783000D02*
X133223000Y-40513000D01*
X135890000Y-121624000D02*
X135890000Y-120396000D01*
X125603000Y-40513000D02*
X125603000Y-40386000D01*
X128311400Y-84667600D02*
X127635000Y-85344000D01*
X105283000Y-39243000D02*
X104648000Y-38608000D01*
X96647000Y-118970600D02*
X97003600Y-118614000D01*
X116247000Y-124248000D02*
X115824000Y-123825000D01*
X99111000Y-123448000D02*
X100538000Y-123448000D01*
X100538000Y-123448000D02*
X100838000Y-123148000D01*
X133223000Y-45720000D02*
X133858000Y-46355000D01*
X118380000Y-128413000D02*
X116967000Y-127000000D01*
X143383000Y-44323000D02*
X144653000Y-43053000D01*
X112903000Y-39243000D02*
X112268000Y-39878000D01*
X148844000Y-97536000D02*
X151130000Y-97536000D01*
X150495000Y-106553000D02*
X151130000Y-107188000D01*
X148717000Y-117094000D02*
X151130000Y-117094000D01*
D40*
X109596700Y-76890100D02*
X109601000Y-76885800D01*
D41*
X148463000Y-104775000D02*
X151130000Y-104775000D01*
X136906000Y-129794000D02*
X136906000Y-129286000D01*
X152948640Y-100520500D02*
X151574500Y-100520500D01*
X151130000Y-113792000D02*
X149479000Y-113792000D01*
X151574500Y-100520500D02*
X151130000Y-100965000D01*
X151003000Y-126873000D02*
X151003000Y-126585980D01*
X117983000Y-45593000D02*
X118618000Y-44958000D01*
X151373840Y-105018840D02*
X151130000Y-104775000D01*
X136906000Y-97578000D02*
X137880000Y-97578000D01*
X119442800Y-72114000D02*
X119942800Y-72114000D01*
D40*
X111252000Y-69799200D02*
X110490000Y-70561200D01*
D41*
X135763000Y-41783000D02*
X136398000Y-42418000D01*
X140843000Y-40513000D02*
X141478000Y-39878000D01*
X129413000Y-45593000D02*
X128905000Y-46101000D01*
X148661120Y-124515880D02*
X146771360Y-124515880D01*
X117983000Y-40513000D02*
X117348000Y-39878000D01*
X109596700Y-78052500D02*
X109596700Y-76890100D01*
X148717000Y-120396000D02*
X151003000Y-120396000D01*
D40*
X119942800Y-64538000D02*
X120442800Y-64538000D01*
D41*
X147193000Y-39243000D02*
X147828000Y-39878000D01*
X154287220Y-97518220D02*
X154813000Y-98044000D01*
X144653000Y-40513000D02*
X143383000Y-39243000D01*
X118942800Y-69743000D02*
X118942800Y-72114000D01*
X95758000Y-119380000D02*
X96266000Y-119888000D01*
D40*
X118942800Y-66197800D02*
X118389400Y-66751200D01*
D41*
X149733000Y-41783000D02*
X150114000Y-41402000D01*
X137033000Y-43053000D02*
X136398000Y-42418000D01*
X139573000Y-41783000D02*
X140208000Y-42418000D01*
X151130000Y-112903000D02*
X148717000Y-112903000D01*
X153120000Y-86318000D02*
X153162000Y-86360000D01*
X120942800Y-72114000D02*
X120442800Y-72114000D01*
X148590000Y-125730000D02*
X151003000Y-125730000D01*
D40*
X129778000Y-58928000D02*
X130657600Y-58928000D01*
D41*
X94234000Y-124248000D02*
X94234000Y-125095000D01*
X112903000Y-41783000D02*
X112268000Y-41148000D01*
X110363000Y-43053000D02*
X110998000Y-43688000D01*
X121793000Y-40513000D02*
X121158000Y-39878000D01*
D40*
X120942800Y-64538000D02*
X121442800Y-64538000D01*
D41*
X109093000Y-39243000D02*
X108458000Y-39878000D01*
D40*
X125222000Y-59420000D02*
X125222000Y-60502800D01*
D41*
X132842000Y-76708000D02*
X134874000Y-76708000D01*
X149733000Y-39243000D02*
X150114000Y-38862000D01*
X115570000Y-84878000D02*
X115570000Y-86080600D01*
X119380000Y-132715000D02*
X119253000Y-132588000D01*
X151003000Y-124587000D02*
X151074120Y-124515880D01*
X123809000Y-133588000D02*
X124206000Y-133985000D01*
X151003000Y-126585980D02*
X149860000Y-125442980D01*
X148971000Y-130429000D02*
X150749000Y-130429000D01*
X121400000Y-124448000D02*
X122100000Y-124448000D01*
X146771360Y-119517160D02*
X148346160Y-119517160D01*
X146771360Y-103520240D02*
X148351240Y-103520240D01*
X120650000Y-122555000D02*
X118999000Y-120904000D01*
X147997000Y-81407000D02*
X147955000Y-81449000D01*
X117983000Y-43053000D02*
X118618000Y-43688000D01*
D40*
X128778000Y-54018000D02*
X128778000Y-52562000D01*
D41*
X140716000Y-87080000D02*
X139869000Y-87080000D01*
X152948640Y-128516380D02*
X155186380Y-128516380D01*
X137033000Y-45593000D02*
X136398000Y-44958000D01*
X122097800Y-70053200D02*
X122986800Y-70053200D01*
X148351240Y-103520240D02*
X148590000Y-103759000D01*
X128270000Y-41783000D02*
X128778000Y-42291000D01*
X139573000Y-44323000D02*
X140081000Y-43815000D01*
X124442800Y-70848800D02*
X124442800Y-72114000D01*
X100838000Y-121920000D02*
X101219000Y-121539000D01*
D44*
X149606000Y-60071000D02*
X154559000Y-60071000D01*
D40*
X120442800Y-64538000D02*
X120942800Y-64538000D01*
D41*
X148747480Y-110713520D02*
X148717000Y-110744000D01*
X135890000Y-130344000D02*
X136356000Y-130344000D01*
X151130000Y-105791000D02*
X148691600Y-105791000D01*
X126746000Y-137414000D02*
X127381000Y-138049000D01*
X114173000Y-43053000D02*
X114808000Y-43688000D01*
X151074120Y-124515880D02*
X152948640Y-124515880D01*
X117348000Y-124248000D02*
X116247000Y-124248000D01*
X149860000Y-109728000D02*
X151130000Y-109728000D01*
X126923800Y-73050400D02*
X127025400Y-73050400D01*
X116713000Y-44323000D02*
X116078000Y-44958000D01*
X148590000Y-102803960D02*
X148590000Y-103759000D01*
D40*
X115942800Y-72114000D02*
X115942800Y-70984800D01*
X124442800Y-64538000D02*
X124442800Y-66099000D01*
D41*
X149829520Y-113792000D02*
X149860000Y-113822480D01*
X151798020Y-106519980D02*
X151130000Y-107188000D01*
X116862500Y-81302500D02*
X117348000Y-81788000D01*
X133604000Y-130344000D02*
X134197000Y-130344000D01*
X129401440Y-136902000D02*
X129921000Y-137421560D01*
X128666040Y-136902000D02*
X129401440Y-136902000D01*
X110363000Y-40513000D02*
X109728000Y-39878000D01*
X152948640Y-106519980D02*
X151798020Y-106519980D01*
X129413000Y-42926000D02*
X128778000Y-42291000D01*
X119442800Y-72114000D02*
X118942800Y-72114000D01*
X150721060Y-131572000D02*
X149860000Y-130710940D01*
D40*
X111252000Y-68956000D02*
X111252000Y-69799200D01*
D41*
X133651500Y-82702400D02*
X134721600Y-82702400D01*
X135763000Y-44323000D02*
X135128000Y-43688000D01*
X115472700Y-81952500D02*
X117183500Y-81952500D01*
X120523000Y-44323000D02*
X121793000Y-45593000D01*
X146771360Y-102019100D02*
X147805140Y-102019100D01*
X152948640Y-103520240D02*
X151495760Y-103520240D01*
X148717000Y-124460000D02*
X150876000Y-124460000D01*
X119253000Y-138303000D02*
X120396000Y-138303000D01*
X126746000Y-137287000D02*
X126746000Y-137414000D01*
X137880000Y-97578000D02*
X138049000Y-97409000D01*
X102743000Y-45593000D02*
X103251000Y-45085000D01*
X144965420Y-108018580D02*
X144907000Y-108077000D01*
X144787620Y-96019620D02*
X144780000Y-96012000D01*
X149479000Y-109728000D02*
X149860000Y-110109000D01*
X149860000Y-120269000D02*
X149860000Y-119092980D01*
X146771360Y-96019620D02*
X144787620Y-96019620D01*
X150749000Y-130429000D02*
X150876000Y-130302000D01*
X148717000Y-118618000D02*
X151130000Y-118618000D01*
X133858000Y-136102000D02*
X134832000Y-136102000D01*
D40*
X119942800Y-64538000D02*
X119942800Y-66018600D01*
D41*
X139573000Y-39243000D02*
X140208000Y-39878000D01*
D40*
X129524000Y-51816000D02*
X131546600Y-51816000D01*
D41*
X102870000Y-123148000D02*
X102870000Y-121666000D01*
X120650000Y-123698000D02*
X121400000Y-124448000D01*
X117183500Y-81952500D02*
X117348000Y-81788000D01*
X133223000Y-40513000D02*
X133858000Y-39878000D01*
X120523000Y-39243000D02*
X121158000Y-39878000D01*
X128143000Y-41783000D02*
X128270000Y-41783000D01*
X135890000Y-120396000D02*
X135509000Y-120015000D01*
X148463000Y-106553000D02*
X150495000Y-106553000D01*
X150241000Y-38735000D02*
X152019000Y-38735000D01*
X106553000Y-43053000D02*
X105918000Y-43688000D01*
X148463000Y-40513000D02*
X147828000Y-39878000D01*
X99568000Y-127974000D02*
X100372000Y-127974000D01*
X151495760Y-103520240D02*
X151257000Y-103759000D01*
D40*
X119942800Y-66018600D02*
X120319800Y-66395600D01*
D41*
X116713000Y-41783000D02*
X116078000Y-41148000D01*
X109093000Y-41910000D02*
X108458000Y-42545000D01*
X151003000Y-100838000D02*
X151130000Y-100965000D01*
X150114000Y-38862000D02*
X150241000Y-38735000D01*
X152948640Y-96019620D02*
X151914860Y-96019620D01*
X133223000Y-45593000D02*
X133223000Y-45720000D01*
X152948640Y-105018840D02*
X151373840Y-105018840D01*
X144653000Y-45593000D02*
X144653000Y-45847000D01*
X148717000Y-124460000D02*
X148661120Y-124515880D01*
D40*
X112550800Y-72114000D02*
X112395000Y-71958200D01*
D41*
X93991999Y-127773999D02*
X93599000Y-127381000D01*
X105283000Y-41783000D02*
X104648000Y-41148000D01*
X148717000Y-113792000D02*
X149479000Y-113792000D01*
X123647200Y-70053200D02*
X124442800Y-70848800D01*
X121793000Y-43053000D02*
X121158000Y-43688000D01*
X94234000Y-125095000D02*
X94361000Y-125222000D01*
X102108000Y-128524000D02*
X101558000Y-127974000D01*
X100203000Y-39243000D02*
X100152200Y-39243000D01*
X118380000Y-128524000D02*
X118380000Y-128413000D01*
X109876000Y-128524000D02*
X109326000Y-127974000D01*
X102870000Y-117814000D02*
X102870000Y-117475000D01*
X103190000Y-128524000D02*
X102108000Y-128524000D01*
X144653000Y-45847000D02*
X144018000Y-46482000D01*
X129413000Y-43053000D02*
X129413000Y-42926000D01*
X148691600Y-105791000D02*
X148539200Y-105638600D01*
X155186380Y-128516380D02*
X155321000Y-128651000D01*
X100372000Y-127212000D02*
X100838000Y-126746000D01*
X140843000Y-43053000D02*
X140208000Y-42418000D01*
X104648000Y-122682000D02*
X105283000Y-122047000D01*
X121442800Y-70708200D02*
X122097800Y-70053200D01*
X125603000Y-43053000D02*
X126238000Y-42418000D01*
X104013000Y-39243000D02*
X104648000Y-39878000D01*
X151549100Y-102019100D02*
X151130000Y-101600000D01*
D40*
X120442800Y-64538000D02*
X120442800Y-63013400D01*
D41*
X118380000Y-137430000D02*
X119253000Y-138303000D01*
D40*
X115942800Y-64538000D02*
X115942800Y-65523800D01*
D41*
X148717000Y-119888000D02*
X148717000Y-120396000D01*
X126746000Y-137202000D02*
X126746000Y-137287000D01*
X96647000Y-119507000D02*
X96647000Y-118970600D01*
X104013000Y-44323000D02*
X104648000Y-44958000D01*
X152948640Y-97518220D02*
X154287220Y-97518220D01*
X106553000Y-45593000D02*
X107188000Y-44958000D01*
X110363000Y-45593000D02*
X110998000Y-44958000D01*
X95758000Y-118914000D02*
X95758000Y-119380000D01*
D40*
X115942800Y-65523800D02*
X115942800Y-66657800D01*
D41*
X144653000Y-43053000D02*
X144018000Y-42418000D01*
X105283000Y-44323000D02*
X104648000Y-43688000D01*
X139869000Y-87080000D02*
X139573000Y-87376000D01*
X114173000Y-45593000D02*
X114808000Y-44958000D01*
X102870000Y-117475000D02*
X103505000Y-116840000D01*
X100203000Y-44323000D02*
X100711000Y-44831000D01*
X96266000Y-119888000D02*
X96647000Y-119507000D01*
X128905000Y-46101000D02*
X128905000Y-47625000D01*
X148526500Y-100520500D02*
X148844000Y-100838000D01*
X148463000Y-45593000D02*
X147828000Y-44958000D01*
X152948640Y-117017800D02*
X154762200Y-117017800D01*
X148463000Y-43053000D02*
X147828000Y-43688000D01*
X115472700Y-81302500D02*
X116862500Y-81302500D01*
D40*
X115942800Y-66657800D02*
X115392200Y-67208400D01*
X125222000Y-60502800D02*
X125679200Y-60960000D01*
D41*
X94894400Y-127773999D02*
X93991999Y-127773999D01*
X150876000Y-131572000D02*
X150721060Y-131572000D01*
X100203000Y-41783000D02*
X101473000Y-40513000D01*
X148717000Y-109728000D02*
X149479000Y-109728000D01*
X109093000Y-41783000D02*
X109093000Y-41910000D01*
X152948640Y-99019360D02*
X151597360Y-99019360D01*
X143383000Y-39243000D02*
X142748000Y-39878000D01*
X150284180Y-119517160D02*
X149860000Y-119092980D01*
X148429980Y-106519980D02*
X148463000Y-106553000D01*
X132622301Y-76927699D02*
X132842000Y-76708000D01*
X119380000Y-133725500D02*
X119380000Y-132715000D01*
X119761000Y-73406000D02*
X119942800Y-73224200D01*
D40*
X120442800Y-63013400D02*
X120243600Y-62814200D01*
D41*
X120942800Y-72114000D02*
X121442800Y-72114000D01*
D40*
X128778000Y-52562000D02*
X129524000Y-51816000D01*
D41*
X133350000Y-121624000D02*
X134324000Y-121624000D01*
X115472700Y-81952500D02*
X115472700Y-81302500D01*
X129921000Y-137421560D02*
X129921000Y-138557000D01*
X100152200Y-39243000D02*
X99415600Y-38506400D01*
X118380000Y-136652000D02*
X118380000Y-137430000D01*
X149860000Y-110713520D02*
X149860000Y-109728000D01*
X133223000Y-43053000D02*
X132588000Y-43688000D01*
X152948640Y-119517160D02*
X150284180Y-119517160D01*
X149860000Y-110713520D02*
X148747480Y-110713520D01*
X149125940Y-93825060D02*
X148717000Y-94234000D01*
D40*
X124442800Y-66099000D02*
X125145800Y-66802000D01*
D41*
X119200000Y-123448000D02*
X120400000Y-123448000D01*
X102743000Y-40513000D02*
X103378000Y-39878000D01*
X131953000Y-39243000D02*
X133223000Y-40513000D01*
X101473000Y-45593000D02*
X102108000Y-44958000D01*
X151597360Y-99019360D02*
X151130000Y-98552000D01*
X150401020Y-98552000D02*
X149860000Y-99093020D01*
X147193000Y-41783000D02*
X147828000Y-42418000D01*
X150495000Y-41402000D02*
X150622000Y-41529000D01*
X151003000Y-123444000D02*
X148717000Y-123444000D01*
X150876000Y-124460000D02*
X151003000Y-124587000D01*
X110810000Y-128524000D02*
X109876000Y-128524000D01*
X149860000Y-110713520D02*
X151099520Y-110713520D01*
X149733000Y-44323000D02*
X148463000Y-45593000D01*
X148844000Y-100838000D02*
X151003000Y-100838000D01*
X148219160Y-105018840D02*
X148463000Y-104775000D01*
X131953000Y-44323000D02*
X132588000Y-43688000D01*
X131276000Y-98510000D02*
X131064000Y-98298000D01*
X97003600Y-118614000D02*
X97739000Y-118614000D01*
X125603000Y-45593000D02*
X125603000Y-45720000D01*
D40*
X115942800Y-70984800D02*
X115290600Y-70332600D01*
D41*
X133491200Y-84328000D02*
X134493000Y-84328000D01*
X146771360Y-108018580D02*
X144965420Y-108018580D01*
X100372000Y-127974000D02*
X101346000Y-127974000D01*
X119942800Y-72114000D02*
X120442800Y-72114000D01*
X151130000Y-101600000D02*
X151130000Y-100965000D01*
X121442800Y-72114000D02*
X121442800Y-70708200D01*
X151130000Y-114681000D02*
X148717000Y-114681000D01*
X154754580Y-108018580D02*
X154813000Y-108077000D01*
D40*
X129224000Y-63311000D02*
X129286000Y-63373000D01*
D41*
X154762200Y-117017800D02*
X154813000Y-116967000D01*
X125942800Y-72114000D02*
X125987400Y-72114000D01*
X146771360Y-105018840D02*
X148219160Y-105018840D01*
X134197000Y-130344000D02*
X134747000Y-129794000D01*
X143383000Y-41783000D02*
X143891000Y-41275000D01*
X129413000Y-40513000D02*
X128778000Y-39878000D01*
X149860000Y-93825060D02*
X149125940Y-93825060D01*
X129222500Y-84667600D02*
X128311400Y-84667600D01*
X151914860Y-96019620D02*
X151130000Y-96804480D01*
X118440200Y-69240400D02*
X118942800Y-69743000D01*
X144797780Y-97518220D02*
X144780000Y-97536000D01*
X119761000Y-73660000D02*
X119761000Y-73406000D01*
X104013000Y-41783000D02*
X104648000Y-42418000D01*
X151130000Y-96804480D02*
X151130000Y-97536000D01*
X106384000Y-83608000D02*
X106375200Y-83616800D01*
X100372000Y-127974000D02*
X100372000Y-127212000D01*
X134721600Y-82702400D02*
X135382000Y-82042000D01*
X150114000Y-41402000D02*
X150495000Y-41402000D01*
X124333000Y-39243000D02*
X123698000Y-38608000D01*
X125987400Y-72114000D02*
X126923800Y-73050400D01*
X104648000Y-123148000D02*
X104648000Y-122682000D01*
X120523000Y-44323000D02*
X119888000Y-44958000D01*
X112903000Y-44323000D02*
X112268000Y-44958000D01*
X149479000Y-113792000D02*
X149829520Y-113792000D01*
X101558000Y-127974000D02*
X101346000Y-127974000D01*
X136356000Y-130344000D02*
X136906000Y-129794000D01*
X110363000Y-43053000D02*
X109093000Y-44323000D01*
X146771360Y-97518220D02*
X144797780Y-97518220D01*
X146771360Y-128516380D02*
X144787620Y-128516380D01*
X147193000Y-44323000D02*
X146558000Y-44958000D01*
X147955000Y-81449000D02*
X147955000Y-82423000D01*
D40*
X118942800Y-64538000D02*
X118942800Y-66197800D01*
D41*
X102743000Y-43053000D02*
X103378000Y-43688000D01*
D40*
X114442800Y-72114000D02*
X112550800Y-72114000D01*
D41*
X144787620Y-128516380D02*
X144526000Y-128778000D01*
X151130000Y-98552000D02*
X150401020Y-98552000D01*
X135763000Y-39243000D02*
X135128000Y-39878000D01*
X149860000Y-110109000D02*
X149860000Y-110713520D01*
%TD*%
M02*
