%TF.GenerationSoftware,KiCad,Pcbnew,(6.0.9)*%
%TF.CreationDate,2022-12-19T19:37:01+02:00*%
%TF.ProjectId,FMC_MIPI_v2,464d435f-4d49-4504-995f-76322e6b6963,rev?*%
%TF.SameCoordinates,Original*%
%TF.FileFunction,Copper,L1,Top*%
%TF.FilePolarity,Positive*%
%FSLAX46Y46*%
G04 Gerber Fmt 4.6, Leading zero omitted, Abs format (unit mm)*
G04 Created by KiCad (PCBNEW (6.0.9)) date 2022-12-19 19:37:01*
%MOMM*%
%LPD*%
G01*
G04 APERTURE LIST*
%TA.AperFunction,SMDPad,CuDef*%
%ADD10R,1.475000X0.300000*%
%TD*%
%TA.AperFunction,SMDPad,CuDef*%
%ADD11R,0.420000X0.750000*%
%TD*%
%TA.AperFunction,SMDPad,CuDef*%
%ADD12R,0.299720X0.848360*%
%TD*%
%TA.AperFunction,SMDPad,CuDef*%
%ADD13R,0.848360X0.299720*%
%TD*%
%TA.AperFunction,SMDPad,CuDef*%
%ADD14R,7.548880X2.049780*%
%TD*%
%TA.AperFunction,SMDPad,CuDef*%
%ADD15R,0.900000X0.500000*%
%TD*%
%TA.AperFunction,SMDPad,CuDef*%
%ADD16R,0.500000X0.900000*%
%TD*%
%TA.AperFunction,SMDPad,CuDef*%
%ADD17R,1.300000X0.700000*%
%TD*%
%TA.AperFunction,SMDPad,CuDef*%
%ADD18R,0.700000X1.300000*%
%TD*%
%TA.AperFunction,SMDPad,CuDef*%
%ADD19R,1.000000X1.250000*%
%TD*%
%TA.AperFunction,SMDPad,CuDef*%
%ADD20R,2.049780X7.548880*%
%TD*%
%TA.AperFunction,SMDPad,CuDef*%
%ADD21R,0.500000X0.600000*%
%TD*%
%TA.AperFunction,ComponentPad*%
%ADD22R,1.700000X1.700000*%
%TD*%
%TA.AperFunction,ComponentPad*%
%ADD23O,1.700000X1.700000*%
%TD*%
%TA.AperFunction,SMDPad,CuDef*%
%ADD24R,1.250000X1.000000*%
%TD*%
%TA.AperFunction,SMDPad,CuDef*%
%ADD25R,0.600000X0.500000*%
%TD*%
%TA.AperFunction,ComponentPad*%
%ADD26C,2.800000*%
%TD*%
%TA.AperFunction,ViaPad*%
%ADD27C,0.355600*%
%TD*%
%TA.AperFunction,ViaPad*%
%ADD28C,0.406400*%
%TD*%
%TA.AperFunction,ViaPad*%
%ADD29C,1.143000*%
%TD*%
%TA.AperFunction,ViaPad*%
%ADD30C,0.508000*%
%TD*%
%TA.AperFunction,ViaPad*%
%ADD31C,0.635000*%
%TD*%
%TA.AperFunction,Conductor*%
%ADD32C,0.101600*%
%TD*%
%TA.AperFunction,Conductor*%
%ADD33C,0.152400*%
%TD*%
%TA.AperFunction,Conductor*%
%ADD34C,0.254000*%
%TD*%
%TA.AperFunction,Conductor*%
%ADD35C,0.381000*%
%TD*%
%TA.AperFunction,Conductor*%
%ADD36C,0.508000*%
%TD*%
G04 APERTURE END LIST*
D10*
%TO.P,U3,1,1DIR*%
%TO.N,/Slow_signals_level_shifters/1DIR_U3*%
X131594000Y-119472000D03*
%TO.P,U3,2,1B1*%
%TO.N,FMC_CAM0_MCLK*%
X131594000Y-119972000D03*
%TO.P,U3,3,1B2*%
%TO.N,unconnected-(U3-Pad3)*%
X131594000Y-120472000D03*
%TO.P,U3,4,GND_1*%
%TO.N,Earth*%
X131594000Y-120972000D03*
%TO.P,U3,5,1B3*%
%TO.N,FMC_CAM0_PWR*%
X131594000Y-121472000D03*
%TO.P,U3,6,1B4*%
%TO.N,FMC_CAM0_RST*%
X131594000Y-121972000D03*
%TO.P,U3,7,VCCB_1*%
%TO.N,/VDD_VADJ*%
X131594000Y-122472000D03*
%TO.P,U3,8,1B5*%
%TO.N,FMC_1P8V_MONITOR*%
X131594000Y-122972000D03*
%TO.P,U3,9,1B6*%
%TO.N,unconnected-(U3-Pad9)*%
X131594000Y-123472000D03*
%TO.P,U3,10,GND_2*%
%TO.N,Earth*%
X131594000Y-123972000D03*
%TO.P,U3,11,1B7*%
X131594000Y-124472000D03*
%TO.P,U3,12,1B8*%
X131594000Y-124972000D03*
%TO.P,U3,13,2B1*%
X131594000Y-125472000D03*
%TO.P,U3,14,2B2*%
X131594000Y-125972000D03*
%TO.P,U3,15,GND_3*%
X131594000Y-126472000D03*
%TO.P,U3,16,2B3*%
%TO.N,unconnected-(U3-Pad16)*%
X131594000Y-126972000D03*
%TO.P,U3,17,2B4*%
%TO.N,unconnected-(U3-Pad17)*%
X131594000Y-127472000D03*
%TO.P,U3,18,VCCB_2*%
%TO.N,/VDD_VADJ*%
X131594000Y-127972000D03*
%TO.P,U3,19,2B5*%
%TO.N,FMC_GPIO9_OUT*%
X131594000Y-128472000D03*
%TO.P,U3,20,2B6*%
%TO.N,FMC_GPIO17_OUT*%
X131594000Y-128972000D03*
%TO.P,U3,21,GND_4*%
%TO.N,Earth*%
X131594000Y-129472000D03*
%TO.P,U3,22,2B7*%
%TO.N,unconnected-(U3-Pad22)*%
X131594000Y-129972000D03*
%TO.P,U3,23,2B8*%
%TO.N,unconnected-(U3-Pad23)*%
X131594000Y-130472000D03*
%TO.P,U3,24,2DIR*%
%TO.N,/Slow_signals_level_shifters/2DIR_U3*%
X131594000Y-130972000D03*
%TO.P,U3,25,2~{OE}*%
%TO.N,Net-(R36-Pad1)*%
X139170000Y-130972000D03*
%TO.P,U3,26,2A8*%
%TO.N,unconnected-(U3-Pad26)*%
X139170000Y-130472000D03*
%TO.P,U3,27,2A7*%
%TO.N,unconnected-(U3-Pad27)*%
X139170000Y-129972000D03*
%TO.P,U3,28,GND_5*%
%TO.N,Earth*%
X139170000Y-129472000D03*
%TO.P,U3,29,2A6*%
%TO.N,JT_1p8V_GPIO17_IN*%
X139170000Y-128972000D03*
%TO.P,U3,30,2A5*%
%TO.N,JT_1p8V_GPIO9_IN*%
X139170000Y-128472000D03*
%TO.P,U3,31,VCCA_1*%
%TO.N,/VOLT_1P8*%
X139170000Y-127972000D03*
%TO.P,U3,32,2A4*%
%TO.N,unconnected-(U3-Pad32)*%
X139170000Y-127472000D03*
%TO.P,U3,33,2A3*%
%TO.N,unconnected-(U3-Pad33)*%
X139170000Y-126972000D03*
%TO.P,U3,34,GND_6*%
%TO.N,Earth*%
X139170000Y-126472000D03*
%TO.P,U3,35,2A2*%
X139170000Y-125972000D03*
%TO.P,U3,36,2A1*%
X139170000Y-125472000D03*
%TO.P,U3,37,1A8*%
X139170000Y-124972000D03*
%TO.P,U3,38,1A7*%
X139170000Y-124472000D03*
%TO.P,U3,39,GND_7*%
X139170000Y-123972000D03*
%TO.P,U3,40,1A6*%
%TO.N,unconnected-(U3-Pad40)*%
X139170000Y-123472000D03*
%TO.P,U3,41,1A5*%
%TO.N,Net-(R31-Pad1)*%
X139170000Y-122972000D03*
%TO.P,U3,42,VCCA_2*%
%TO.N,/VOLT_1P8*%
X139170000Y-122472000D03*
%TO.P,U3,43,1A4*%
%TO.N,JT_1p8V_CAM0_RST*%
X139170000Y-121972000D03*
%TO.P,U3,44,1A3*%
%TO.N,JT_1p8V_CAM0_PWR*%
X139170000Y-121472000D03*
%TO.P,U3,45,GND_8*%
%TO.N,Earth*%
X139170000Y-120972000D03*
%TO.P,U3,46,1A2*%
%TO.N,unconnected-(U3-Pad46)*%
X139170000Y-120472000D03*
%TO.P,U3,47,1A1*%
%TO.N,JT_1p8V_CAM0_MCLK*%
X139170000Y-119972000D03*
%TO.P,U3,48,1~{OE}*%
%TO.N,Earth*%
X139170000Y-119472000D03*
%TD*%
D11*
%TO.P,D2,1*%
%TO.N,/VOLT_1P8*%
X119634000Y-135698000D03*
%TO.P,D2,2*%
%TO.N,Earth*%
X119634000Y-137098000D03*
%TD*%
%TO.P,D1,1*%
%TO.N,JT_VDD_1V8*%
X113792000Y-131380000D03*
%TO.P,D1,2*%
%TO.N,Earth*%
X113792000Y-132780000D03*
%TD*%
D12*
%TO.P,U6,1,VCC*%
%TO.N,/VOLT_3P3*%
X142306040Y-87170260D03*
%TO.P,U6,2,A0*%
%TO.N,unconnected-(U6-Pad2)*%
X142806420Y-87170260D03*
%TO.P,U6,3,A1*%
%TO.N,unconnected-(U6-Pad3)*%
X143304260Y-87170260D03*
%TO.P,U6,4,A2*%
%TO.N,CSI_D_D1_N*%
X143804640Y-87170260D03*
%TO.P,U6,5,A3*%
%TO.N,CSI_D_D1_P*%
X144305020Y-87170260D03*
%TO.P,U6,6,A4*%
%TO.N,CSI_D_D0_N*%
X144805400Y-87170260D03*
%TO.P,U6,7,A5*%
%TO.N,CSI_D_D0_P*%
X145305780Y-87170260D03*
%TO.P,U6,8,EN*%
%TO.N,/LVDS_to_Jetson_lines/EN_U6*%
X145806160Y-87170260D03*
%TO.P,U6,9,SEL1*%
%TO.N,/LVDS_to_Jetson_lines/SWITCH1_U6*%
X146304000Y-87170260D03*
%TO.P,U6,10,SEL2*%
%TO.N,/LVDS_to_Jetson_lines/SWITCH2_U6*%
X146801840Y-87170260D03*
%TO.P,U6,11,A6*%
%TO.N,unconnected-(U6-Pad11)*%
X147302220Y-87170260D03*
%TO.P,U6,12,A7*%
%TO.N,unconnected-(U6-Pad12)*%
X147802600Y-87170260D03*
%TO.P,U6,13,A8*%
%TO.N,CSI_D_CLK_N*%
X148302980Y-87170260D03*
%TO.P,U6,14,A9*%
%TO.N,CSI_D_CLK_P*%
X148803360Y-87170260D03*
%TO.P,U6,15,A10*%
%TO.N,unconnected-(U6-Pad15)*%
X149303740Y-87170260D03*
%TO.P,U6,16,A11*%
%TO.N,unconnected-(U6-Pad16)*%
X149801580Y-87170260D03*
%TO.P,U6,17,VCC*%
%TO.N,/VOLT_3P3*%
X150301960Y-87170260D03*
D13*
%TO.P,U6,18,C11*%
%TO.N,unconnected-(U6-Pad18)*%
X150776940Y-86194900D03*
%TO.P,U6,19,B11*%
%TO.N,unconnected-(U6-Pad19)*%
X150776940Y-85694520D03*
%TO.P,U6,20,C10*%
%TO.N,unconnected-(U6-Pad20)*%
X150776940Y-85196680D03*
%TO.P,U6,21,B10*%
%TO.N,unconnected-(U6-Pad21)*%
X150776940Y-84696300D03*
D12*
%TO.P,U6,22,C9*%
%TO.N,/LVDS_to_Jetson_lines/CSI_LP_D_CLK_P*%
X150301960Y-83720940D03*
%TO.P,U6,23,B9*%
%TO.N,/LVDS_to_Jetson_lines/HS_CSI_D_CLK_P*%
X149801580Y-83720940D03*
%TO.P,U6,24,C8*%
%TO.N,/LVDS_to_Jetson_lines/CSI_LP_D_CLK_N*%
X149303740Y-83720940D03*
%TO.P,U6,25,B8*%
%TO.N,/LVDS_to_Jetson_lines/HS_CSI_D_CLK_N*%
X148803360Y-83720940D03*
%TO.P,U6,26,C7*%
%TO.N,unconnected-(U6-Pad26)*%
X148302980Y-83720940D03*
%TO.P,U6,27,B7*%
%TO.N,unconnected-(U6-Pad27)*%
X147802600Y-83720940D03*
%TO.P,U6,28,C6*%
%TO.N,unconnected-(U6-Pad28)*%
X147302220Y-83720940D03*
%TO.P,U6,29,B6*%
%TO.N,unconnected-(U6-Pad29)*%
X146801840Y-83720940D03*
%TO.P,U6,30,VCC*%
%TO.N,/VOLT_3P3*%
X146304000Y-83720940D03*
%TO.P,U6,31,C5*%
%TO.N,/LVDS_to_Jetson_lines/CSI_LP_D_D0_P*%
X145806160Y-83720940D03*
%TO.P,U6,32,B5*%
%TO.N,/LVDS_to_Jetson_lines/HS_CSI_D_D0_P*%
X145305780Y-83720940D03*
%TO.P,U6,33,C4*%
%TO.N,/LVDS_to_Jetson_lines/CSI_LP_D_D0_N*%
X144805400Y-83720940D03*
%TO.P,U6,34,B4*%
%TO.N,/LVDS_to_Jetson_lines/HS_CSI_D_D0_N*%
X144305020Y-83720940D03*
%TO.P,U6,35,C3*%
%TO.N,/LVDS_to_Jetson_lines/CSI_LP_D_D1_P*%
X143804640Y-83720940D03*
%TO.P,U6,36,B3*%
%TO.N,/LVDS_to_Jetson_lines/HS_CSI_D_D1_P*%
X143304260Y-83720940D03*
%TO.P,U6,37,C2*%
%TO.N,/LVDS_to_Jetson_lines/CSI_LP_D_D1_N*%
X142806420Y-83720940D03*
%TO.P,U6,38,B2*%
%TO.N,/LVDS_to_Jetson_lines/HS_CSI_D_D1_N*%
X142306040Y-83720940D03*
D13*
%TO.P,U6,39,B1*%
%TO.N,unconnected-(U6-Pad39)*%
X141831060Y-84696300D03*
%TO.P,U6,40,C1*%
%TO.N,unconnected-(U6-Pad40)*%
X141831060Y-85196680D03*
%TO.P,U6,41,B0*%
%TO.N,unconnected-(U6-Pad41)*%
X141831060Y-85694520D03*
%TO.P,U6,42,C0*%
%TO.N,unconnected-(U6-Pad42)*%
X141831060Y-86194900D03*
D14*
%TO.P,U6,43,EPAD*%
%TO.N,Earth*%
X146304000Y-85445600D03*
%TD*%
D15*
%TO.P,R54,1*%
%TO.N,/LVDS_to_Jetson_lines/HS_CSI_D_D1_P*%
X135890000Y-70092000D03*
%TO.P,R54,2*%
%TO.N,FMC_HS_CSI_D_D1_P*%
X135890000Y-68592000D03*
%TD*%
D16*
%TO.P,R52,1*%
%TO.N,FMC_HS_CSI_D_D1_P*%
X135648000Y-66802000D03*
%TO.P,R52,2*%
%TO.N,/LVDS_to_Jetson_lines/VOLT_2P5_CSI_D*%
X137148000Y-66802000D03*
%TD*%
%TO.P,R48,1*%
%TO.N,/LVDS_to_Jetson_lines/HS_CSI_C_D0_P*%
X115685000Y-100812600D03*
%TO.P,R48,2*%
%TO.N,FMC_HS_CSI_C_D0_P*%
X114185000Y-100812600D03*
%TD*%
%TO.P,R51,1*%
%TO.N,/LVDS_to_Jetson_lines/VOLT_2P5_CSI_D*%
X132600000Y-66802000D03*
%TO.P,R51,2*%
%TO.N,FMC_HS_CSI_D_D1_N*%
X134100000Y-66802000D03*
%TD*%
D15*
%TO.P,R53,1*%
%TO.N,/LVDS_to_Jetson_lines/HS_CSI_D_D1_N*%
X133858000Y-70092000D03*
%TO.P,R53,2*%
%TO.N,FMC_HS_CSI_D_D1_N*%
X133858000Y-68592000D03*
%TD*%
D16*
%TO.P,R47,1*%
%TO.N,/LVDS_to_Jetson_lines/HS_CSI_C_D0_N*%
X115685000Y-102844600D03*
%TO.P,R47,2*%
%TO.N,FMC_HS_CSI_C_D0_N*%
X114185000Y-102844600D03*
%TD*%
D15*
%TO.P,R45,1*%
%TO.N,/LVDS_to_Jetson_lines/VOLT_2P5_CSI_C*%
X112395000Y-104102600D03*
%TO.P,R45,2*%
%TO.N,FMC_HS_CSI_C_D0_N*%
X112395000Y-102602600D03*
%TD*%
%TO.P,R46,1*%
%TO.N,FMC_HS_CSI_C_D0_P*%
X112395000Y-101054600D03*
%TO.P,R46,2*%
%TO.N,/LVDS_to_Jetson_lines/VOLT_2P5_CSI_C*%
X112395000Y-99554600D03*
%TD*%
D17*
%TO.P,R1,1*%
%TO.N,/LVDS_to_Jetson_lines/SWITCH1_U6*%
X137160000Y-86426000D03*
%TO.P,R1,2*%
%TO.N,/LVDS_to_Jetson_lines/SWITCH_DATA_LANES_CSI_CD*%
X137160000Y-88326000D03*
%TD*%
%TO.P,R38,1*%
%TO.N,/LVDS_to_Jetson_lines/EN_U6*%
X153924000Y-81468000D03*
%TO.P,R38,2*%
%TO.N,/LVDS_to_Jetson_lines/EN_MIPI_OUT_CSI_D*%
X153924000Y-79568000D03*
%TD*%
D16*
%TO.P,R63,1*%
%TO.N,/LVDS_to_Jetson_lines/VOLT_2P5_CSI_D*%
X150380000Y-66802000D03*
%TO.P,R63,2*%
%TO.N,FMC_HS_CSI_D_CLK_N*%
X151880000Y-66802000D03*
%TD*%
%TO.P,R64,1*%
%TO.N,FMC_HS_CSI_D_CLK_P*%
X153428000Y-66802000D03*
%TO.P,R64,2*%
%TO.N,/LVDS_to_Jetson_lines/VOLT_2P5_CSI_D*%
X154928000Y-66802000D03*
%TD*%
D15*
%TO.P,R65,1*%
%TO.N,/LVDS_to_Jetson_lines/HS_CSI_D_CLK_N*%
X151638000Y-70092000D03*
%TO.P,R65,2*%
%TO.N,FMC_HS_CSI_D_CLK_N*%
X151638000Y-68592000D03*
%TD*%
%TO.P,R66,1*%
%TO.N,/LVDS_to_Jetson_lines/HS_CSI_D_CLK_P*%
X153670000Y-70092000D03*
%TO.P,R66,2*%
%TO.N,FMC_HS_CSI_D_CLK_P*%
X153670000Y-68592000D03*
%TD*%
D17*
%TO.P,R5,1*%
%TO.N,/Jetson_connector/EEPROM_A2*%
X117094000Y-123764000D03*
%TO.P,R5,2*%
%TO.N,/Jetson_connector/VCC_1V8_EEPROM*%
X117094000Y-125664000D03*
%TD*%
%TO.P,R7,1*%
%TO.N,/Jetson_connector/EEPROM_SDA*%
X119888000Y-128590000D03*
%TO.P,R7,2*%
%TO.N,JT_1p8V_I2C_CAM_DAT*%
X119888000Y-130490000D03*
%TD*%
%TO.P,R14,1*%
%TO.N,Net-(IC3-Pad8)*%
X133604000Y-134808000D03*
%TO.P,R14,2*%
%TO.N,FMC_I2C_CAM_CLK*%
X133604000Y-132908000D03*
%TD*%
D18*
%TO.P,R18,1*%
%TO.N,/FMC_Connector/TDI*%
X136718000Y-36576000D03*
%TO.P,R18,2*%
%TO.N,/FMC_Connector/TDO*%
X138618000Y-36576000D03*
%TD*%
D17*
%TO.P,R9,1*%
%TO.N,/Slow_signals_level_shifters/2DIR_U3*%
X122682000Y-130490000D03*
%TO.P,R9,2*%
%TO.N,Earth*%
X122682000Y-128590000D03*
%TD*%
%TO.P,R6,1*%
%TO.N,/Jetson_connector/EEPROM_SCL*%
X117094000Y-128590000D03*
%TO.P,R6,2*%
%TO.N,JT_1p8V_I2C_CAM_CLK*%
X117094000Y-130490000D03*
%TD*%
%TO.P,R11,1*%
%TO.N,/Slow_signals_level_shifters/1DIR_U3*%
X125730000Y-123764000D03*
%TO.P,R11,2*%
%TO.N,/VOLT_1P8*%
X125730000Y-125664000D03*
%TD*%
%TO.P,R8,1*%
%TO.N,/VOLT_3P3*%
X116332000Y-137348000D03*
%TO.P,R8,2*%
%TO.N,Net-(R8-Pad2)*%
X116332000Y-135448000D03*
%TD*%
D19*
%TO.P,C27,1*%
%TO.N,Earth*%
X133334000Y-76708000D03*
%TO.P,C27,2*%
%TO.N,/VOLT_3P3*%
X131334000Y-76708000D03*
%TD*%
D17*
%TO.P,R17,1*%
%TO.N,/VOLT_3P3*%
X128016000Y-78806000D03*
%TO.P,R17,2*%
%TO.N,Net-(R17-Pad2)*%
X128016000Y-80706000D03*
%TD*%
%TO.P,R27,1*%
%TO.N,/LVDS_to_Jetson_lines/SWITCH2_U5*%
X133858000Y-92390000D03*
%TO.P,R27,2*%
%TO.N,/LVDS_to_Jetson_lines/SWITCH_CLOCK_LANES_CSI_CD*%
X133858000Y-90490000D03*
%TD*%
D16*
%TO.P,R58,1*%
%TO.N,FMC_HS_CSI_D_D0_P*%
X144538000Y-66802000D03*
%TO.P,R58,2*%
%TO.N,/LVDS_to_Jetson_lines/VOLT_2P5_CSI_D*%
X146038000Y-66802000D03*
%TD*%
%TO.P,R57,1*%
%TO.N,/LVDS_to_Jetson_lines/VOLT_2P5_CSI_D*%
X141490000Y-66802000D03*
%TO.P,R57,2*%
%TO.N,FMC_HS_CSI_D_D0_N*%
X142990000Y-66802000D03*
%TD*%
D15*
%TO.P,R60,1*%
%TO.N,/LVDS_to_Jetson_lines/HS_CSI_D_D0_P*%
X144780000Y-70092000D03*
%TO.P,R60,2*%
%TO.N,FMC_HS_CSI_D_D0_P*%
X144780000Y-68592000D03*
%TD*%
%TO.P,R59,1*%
%TO.N,/LVDS_to_Jetson_lines/HS_CSI_D_D0_N*%
X142748000Y-70092000D03*
%TO.P,R59,2*%
%TO.N,FMC_HS_CSI_D_D0_N*%
X142748000Y-68592000D03*
%TD*%
D13*
%TO.P,U5,1,VCC*%
%TO.N,/VOLT_3P3*%
X136344660Y-104327960D03*
%TO.P,U5,2,A0*%
%TO.N,unconnected-(U5-Pad2)*%
X136344660Y-103827580D03*
%TO.P,U5,3,A1*%
%TO.N,unconnected-(U5-Pad3)*%
X136344660Y-103329740D03*
%TO.P,U5,4,A2*%
%TO.N,CSI_C_D1_N*%
X136344660Y-102829360D03*
%TO.P,U5,5,A3*%
%TO.N,CSI_C_D1_P*%
X136344660Y-102328980D03*
%TO.P,U5,6,A4*%
%TO.N,CSI_C_D0_N*%
X136344660Y-101828600D03*
%TO.P,U5,7,A5*%
%TO.N,CSI_C_D0_P*%
X136344660Y-101328220D03*
%TO.P,U5,8,EN*%
%TO.N,/LVDS_to_Jetson_lines/EN_U5*%
X136344660Y-100827840D03*
%TO.P,U5,9,SEL1*%
%TO.N,/LVDS_to_Jetson_lines/SWITCH1_U5*%
X136344660Y-100330000D03*
%TO.P,U5,10,SEL2*%
%TO.N,/LVDS_to_Jetson_lines/SWITCH2_U5*%
X136344660Y-99832160D03*
%TO.P,U5,11,A6*%
%TO.N,unconnected-(U5-Pad11)*%
X136344660Y-99331780D03*
%TO.P,U5,12,A7*%
%TO.N,unconnected-(U5-Pad12)*%
X136344660Y-98831400D03*
%TO.P,U5,13,A8*%
%TO.N,CSI_C_CLK_N*%
X136344660Y-98331020D03*
%TO.P,U5,14,A9*%
%TO.N,CSI_C_CLK_P*%
X136344660Y-97830640D03*
%TO.P,U5,15,A10*%
%TO.N,unconnected-(U5-Pad15)*%
X136344660Y-97330260D03*
%TO.P,U5,16,A11*%
%TO.N,unconnected-(U5-Pad16)*%
X136344660Y-96832420D03*
%TO.P,U5,17,VCC*%
%TO.N,/VOLT_3P3*%
X136344660Y-96332040D03*
D12*
%TO.P,U5,18,C11*%
%TO.N,unconnected-(U5-Pad18)*%
X135369300Y-95857060D03*
%TO.P,U5,19,B11*%
%TO.N,unconnected-(U5-Pad19)*%
X134868920Y-95857060D03*
%TO.P,U5,20,C10*%
%TO.N,unconnected-(U5-Pad20)*%
X134371080Y-95857060D03*
%TO.P,U5,21,B10*%
%TO.N,unconnected-(U5-Pad21)*%
X133870700Y-95857060D03*
D13*
%TO.P,U5,22,C9*%
%TO.N,/LVDS_to_Jetson_lines/CSI_LP_C_CLK_P*%
X132895340Y-96332040D03*
%TO.P,U5,23,B9*%
%TO.N,/LVDS_to_Jetson_lines/HS_CSI_C_CLK_P*%
X132895340Y-96832420D03*
%TO.P,U5,24,C8*%
%TO.N,/LVDS_to_Jetson_lines/CSI_LP_C_CLK_N*%
X132895340Y-97330260D03*
%TO.P,U5,25,B8*%
%TO.N,/LVDS_to_Jetson_lines/HS_CSI_C_CLK_N*%
X132895340Y-97830640D03*
%TO.P,U5,26,C7*%
%TO.N,unconnected-(U5-Pad26)*%
X132895340Y-98331020D03*
%TO.P,U5,27,B7*%
%TO.N,unconnected-(U5-Pad27)*%
X132895340Y-98831400D03*
%TO.P,U5,28,C6*%
%TO.N,unconnected-(U5-Pad28)*%
X132895340Y-99331780D03*
%TO.P,U5,29,B6*%
%TO.N,unconnected-(U5-Pad29)*%
X132895340Y-99832160D03*
%TO.P,U5,30,VCC*%
%TO.N,/VOLT_3P3*%
X132895340Y-100330000D03*
%TO.P,U5,31,C5*%
%TO.N,/LVDS_to_Jetson_lines/CSI_LP_C_D0_P*%
X132895340Y-100827840D03*
%TO.P,U5,32,B5*%
%TO.N,/LVDS_to_Jetson_lines/HS_CSI_C_D0_P*%
X132895340Y-101328220D03*
%TO.P,U5,33,C4*%
%TO.N,/LVDS_to_Jetson_lines/CSI_LP_C_D0_N*%
X132895340Y-101828600D03*
%TO.P,U5,34,B4*%
%TO.N,/LVDS_to_Jetson_lines/HS_CSI_C_D0_N*%
X132895340Y-102328980D03*
%TO.P,U5,35,C3*%
%TO.N,/LVDS_to_Jetson_lines/CSI_LP_C_D1_P*%
X132895340Y-102829360D03*
%TO.P,U5,36,B3*%
%TO.N,/LVDS_to_Jetson_lines/HS_CSI_C_D1_P*%
X132895340Y-103329740D03*
%TO.P,U5,37,C2*%
%TO.N,/LVDS_to_Jetson_lines/CSI_LP_C_D1_N*%
X132895340Y-103827580D03*
%TO.P,U5,38,B2*%
%TO.N,/LVDS_to_Jetson_lines/HS_CSI_C_D1_N*%
X132895340Y-104327960D03*
D12*
%TO.P,U5,39,B1*%
%TO.N,unconnected-(U5-Pad39)*%
X133870700Y-104802940D03*
%TO.P,U5,40,C1*%
%TO.N,unconnected-(U5-Pad40)*%
X134371080Y-104802940D03*
%TO.P,U5,41,B0*%
%TO.N,unconnected-(U5-Pad41)*%
X134868920Y-104802940D03*
%TO.P,U5,42,C0*%
%TO.N,unconnected-(U5-Pad42)*%
X135369300Y-104802940D03*
D20*
%TO.P,U5,43,EPAD*%
%TO.N,Earth*%
X134620000Y-100330000D03*
%TD*%
D21*
%TO.P,C19,1*%
%TO.N,Earth*%
X137414000Y-106722000D03*
%TO.P,C19,2*%
%TO.N,/VOLT_3P3*%
X137414000Y-105622000D03*
%TD*%
D17*
%TO.P,R75,1*%
%TO.N,/LVDS_to_Jetson_lines/SWITCH1_U5*%
X137160000Y-92390000D03*
%TO.P,R75,2*%
%TO.N,/LVDS_to_Jetson_lines/SWITCH_DATA_LANES_CSI_CD*%
X137160000Y-90490000D03*
%TD*%
%TO.P,R29,1*%
%TO.N,/Jetson_connector/JT_VDD_1V2*%
X104902000Y-137348000D03*
%TO.P,R29,2*%
%TO.N,Net-(IC6-Pad3)*%
X104902000Y-135448000D03*
%TD*%
%TO.P,R30,1*%
%TO.N,/VOLT_1P2*%
X108204000Y-135448000D03*
%TO.P,R30,2*%
%TO.N,Net-(IC6-Pad5)*%
X108204000Y-137348000D03*
%TD*%
%TO.P,R32,1*%
%TO.N,/Jetson_connector/JT_VDD_2V8*%
X98298000Y-137348000D03*
%TO.P,R32,2*%
%TO.N,Net-(R32-Pad2)*%
X98298000Y-135448000D03*
%TD*%
%TO.P,R33,1*%
%TO.N,/VOLT_3P3*%
X101600000Y-137348000D03*
%TO.P,R33,2*%
%TO.N,Net-(R33-Pad2)*%
X101600000Y-135448000D03*
%TD*%
%TO.P,R34,1*%
%TO.N,/Jetson_connector/JT_VDD_3V3*%
X94996000Y-137348000D03*
%TO.P,R34,2*%
%TO.N,Net-(R34-Pad2)*%
X94996000Y-135448000D03*
%TD*%
%TO.P,R35,1*%
%TO.N,/VDD_VADJ*%
X111506000Y-135448000D03*
%TO.P,R35,2*%
%TO.N,Net-(IC7-Pad5)*%
X111506000Y-137348000D03*
%TD*%
%TO.P,R36,1*%
%TO.N,Net-(R36-Pad1)*%
X137160000Y-132908000D03*
%TO.P,R36,2*%
%TO.N,/Slow_signals_level_shifters/ENN_JETSON_GPIO*%
X137160000Y-134808000D03*
%TD*%
D21*
%TO.P,C37,1*%
%TO.N,Earth*%
X106934000Y-126958000D03*
%TO.P,C37,2*%
%TO.N,/VDD_VADJ*%
X106934000Y-128058000D03*
%TD*%
D15*
%TO.P,R40,1*%
%TO.N,FMC_HS_CSI_C_D1_P*%
X112395000Y-111748000D03*
%TO.P,R40,2*%
%TO.N,/LVDS_to_Jetson_lines/VOLT_2P5_CSI_C*%
X112395000Y-110248000D03*
%TD*%
D16*
%TO.P,R42,1*%
%TO.N,/LVDS_to_Jetson_lines/HS_CSI_C_D1_P*%
X115685000Y-111506000D03*
%TO.P,R42,2*%
%TO.N,FMC_HS_CSI_C_D1_P*%
X114185000Y-111506000D03*
%TD*%
D15*
%TO.P,R39,1*%
%TO.N,/LVDS_to_Jetson_lines/VOLT_2P5_CSI_C*%
X112395000Y-114796000D03*
%TO.P,R39,2*%
%TO.N,FMC_HS_CSI_C_D1_N*%
X112395000Y-113296000D03*
%TD*%
D17*
%TO.P,R37,1*%
%TO.N,/LVDS_to_Jetson_lines/EN_U5*%
X140716000Y-92390000D03*
%TO.P,R37,2*%
%TO.N,/LVDS_to_Jetson_lines/EN_MIPI_OUT_CSI_C*%
X140716000Y-90490000D03*
%TD*%
%TO.P,R3,1*%
%TO.N,/Jetson_connector/EEPROM_A0*%
X122682000Y-123764000D03*
%TO.P,R3,2*%
%TO.N,Earth*%
X122682000Y-125664000D03*
%TD*%
D22*
%TO.P,JP1,1,A*%
%TO.N,/VOLT_1P8*%
X113030000Y-123698000D03*
D23*
%TO.P,JP1,2,C*%
%TO.N,/Jetson_connector/VCC_1V8_EEPROM*%
X110490000Y-123698000D03*
%TO.P,JP1,3,B*%
%TO.N,JT_VDD_1V8*%
X107950000Y-123698000D03*
%TD*%
D17*
%TO.P,R20,1*%
%TO.N,JT_1p8V_I2C2_CAM_DAT*%
X94996000Y-120584000D03*
%TO.P,R20,2*%
%TO.N,Net-(IC4-Pad4)*%
X94996000Y-118684000D03*
%TD*%
%TO.P,R22,1*%
%TO.N,Net-(IC4-Pad1)*%
X98933000Y-118684000D03*
%TO.P,R22,2*%
%TO.N,FMC_I2C2_CAM_DAT*%
X98933000Y-120584000D03*
%TD*%
%TO.P,R21,1*%
%TO.N,Net-(IC4-Pad8)*%
X106426000Y-118684000D03*
%TO.P,R21,2*%
%TO.N,FMC_I2C2_CAM_CLK*%
X106426000Y-120584000D03*
%TD*%
%TO.P,R19,1*%
%TO.N,JT_1p8V_I2C2_CAM_CLK*%
X110363000Y-120584000D03*
%TO.P,R19,2*%
%TO.N,Net-(IC4-Pad5)*%
X110363000Y-118684000D03*
%TD*%
%TO.P,R26,1*%
%TO.N,Net-(IC5-Pad1)*%
X108204000Y-131130000D03*
%TO.P,R26,2*%
%TO.N,FMC_I2C3_CAM_DAT*%
X108204000Y-133030000D03*
%TD*%
%TO.P,R25,1*%
%TO.N,Net-(IC5-Pad8)*%
X101600000Y-131130000D03*
%TO.P,R25,2*%
%TO.N,FMC_I2C3_CAM_CLK*%
X101600000Y-133030000D03*
%TD*%
%TO.P,R23,1*%
%TO.N,JT_1p8V_I2C3_CAM_CLK*%
X94996000Y-133030000D03*
%TO.P,R23,2*%
%TO.N,Net-(IC5-Pad5)*%
X94996000Y-131130000D03*
%TD*%
%TO.P,R24,1*%
%TO.N,JT_1p8V_I2C3_CAM_DAT*%
X98298000Y-133030000D03*
%TO.P,R24,2*%
%TO.N,Net-(IC5-Pad4)*%
X98298000Y-131130000D03*
%TD*%
D24*
%TO.P,C4,1*%
%TO.N,Earth*%
X111506000Y-133080000D03*
%TO.P,C4,2*%
%TO.N,JT_VDD_1V8*%
X111506000Y-131080000D03*
%TD*%
D16*
%TO.P,R41,1*%
%TO.N,/LVDS_to_Jetson_lines/HS_CSI_C_D1_N*%
X115685000Y-113538000D03*
%TO.P,R41,2*%
%TO.N,FMC_HS_CSI_C_D1_N*%
X114185000Y-113538000D03*
%TD*%
D17*
%TO.P,R4,1*%
%TO.N,/Jetson_connector/EEPROM_A1*%
X119888000Y-123764000D03*
%TO.P,R4,2*%
%TO.N,Earth*%
X119888000Y-125664000D03*
%TD*%
D18*
%TO.P,R31,1*%
%TO.N,Net-(R31-Pad1)*%
X133162000Y-115062000D03*
%TO.P,R31,2*%
%TO.N,JT_VDD_1V8*%
X135062000Y-115062000D03*
%TD*%
D25*
%TO.P,C41,1*%
%TO.N,Earth*%
X111718000Y-128778000D03*
%TO.P,C41,2*%
%TO.N,/VOLT_1P8*%
X112818000Y-128778000D03*
%TD*%
D15*
%TO.P,R43,1*%
%TO.N,Earth*%
X117475000Y-114796000D03*
%TO.P,R43,2*%
%TO.N,/LVDS_to_Jetson_lines/HS_CSI_C_D1_N*%
X117475000Y-113296000D03*
%TD*%
%TO.P,R44,1*%
%TO.N,/LVDS_to_Jetson_lines/HS_CSI_C_D1_P*%
X117475000Y-111748000D03*
%TO.P,R44,2*%
%TO.N,Earth*%
X117475000Y-110248000D03*
%TD*%
%TO.P,R49,1*%
%TO.N,Earth*%
X117475000Y-104102600D03*
%TO.P,R49,2*%
%TO.N,/LVDS_to_Jetson_lines/HS_CSI_C_D0_N*%
X117475000Y-102602600D03*
%TD*%
%TO.P,R50,1*%
%TO.N,/LVDS_to_Jetson_lines/HS_CSI_C_D0_P*%
X117475000Y-101054600D03*
%TO.P,R50,2*%
%TO.N,Earth*%
X117475000Y-99554600D03*
%TD*%
D16*
%TO.P,R55,1*%
%TO.N,Earth*%
X132600000Y-71882000D03*
%TO.P,R55,2*%
%TO.N,/LVDS_to_Jetson_lines/HS_CSI_D_D1_N*%
X134100000Y-71882000D03*
%TD*%
%TO.P,R56,1*%
%TO.N,/LVDS_to_Jetson_lines/HS_CSI_D_D1_P*%
X135648000Y-71882000D03*
%TO.P,R56,2*%
%TO.N,Earth*%
X137148000Y-71882000D03*
%TD*%
%TO.P,R61,1*%
%TO.N,Earth*%
X141490000Y-71882000D03*
%TO.P,R61,2*%
%TO.N,/LVDS_to_Jetson_lines/HS_CSI_D_D0_N*%
X142990000Y-71882000D03*
%TD*%
%TO.P,R62,1*%
%TO.N,/LVDS_to_Jetson_lines/HS_CSI_D_D0_P*%
X144538000Y-71882000D03*
%TO.P,R62,2*%
%TO.N,Earth*%
X146038000Y-71882000D03*
%TD*%
%TO.P,R67,1*%
%TO.N,Earth*%
X150380000Y-71882000D03*
%TO.P,R67,2*%
%TO.N,/LVDS_to_Jetson_lines/HS_CSI_D_CLK_N*%
X151880000Y-71882000D03*
%TD*%
%TO.P,R68,1*%
%TO.N,/LVDS_to_Jetson_lines/HS_CSI_D_CLK_P*%
X153428000Y-71882000D03*
%TO.P,R68,2*%
%TO.N,Earth*%
X154928000Y-71882000D03*
%TD*%
D25*
%TO.P,C17,1*%
%TO.N,/VOLT_1P2*%
X122386000Y-68834000D03*
%TO.P,C17,2*%
%TO.N,Earth*%
X123486000Y-68834000D03*
%TD*%
%TO.P,C15,1*%
%TO.N,/VDD_VADJ*%
X116416000Y-66294000D03*
%TO.P,C15,2*%
%TO.N,Earth*%
X115316000Y-66294000D03*
%TD*%
%TO.P,C16,1*%
%TO.N,/VOLT_1P2*%
X116374000Y-69342000D03*
%TO.P,C16,2*%
%TO.N,Earth*%
X115274000Y-69342000D03*
%TD*%
D18*
%TO.P,R2,1*%
%TO.N,/VDD_VADJ*%
X113599000Y-76073000D03*
%TO.P,R2,2*%
%TO.N,/LVDS_to_Jetson_lines/DIR_IC1*%
X111699000Y-76073000D03*
%TD*%
D15*
%TO.P,R74,1*%
%TO.N,/LVDS_to_Jetson_lines/HS_CSI_C_CLK_P*%
X117602000Y-90920000D03*
%TO.P,R74,2*%
%TO.N,Earth*%
X117602000Y-89420000D03*
%TD*%
%TO.P,R73,1*%
%TO.N,Earth*%
X117602000Y-93968000D03*
%TO.P,R73,2*%
%TO.N,/LVDS_to_Jetson_lines/HS_CSI_C_CLK_N*%
X117602000Y-92468000D03*
%TD*%
%TO.P,R70,1*%
%TO.N,FMC_HS_CSI_C_CLK_P*%
X112522000Y-90920000D03*
%TO.P,R70,2*%
%TO.N,/LVDS_to_Jetson_lines/VOLT_2P5_CSI_C*%
X112522000Y-89420000D03*
%TD*%
%TO.P,R69,1*%
%TO.N,/LVDS_to_Jetson_lines/VOLT_2P5_CSI_C*%
X112522000Y-93968000D03*
%TO.P,R69,2*%
%TO.N,FMC_HS_CSI_C_CLK_N*%
X112522000Y-92468000D03*
%TD*%
D16*
%TO.P,R72,1*%
%TO.N,/LVDS_to_Jetson_lines/HS_CSI_C_CLK_P*%
X115812000Y-90678000D03*
%TO.P,R72,2*%
%TO.N,FMC_HS_CSI_C_CLK_P*%
X114312000Y-90678000D03*
%TD*%
%TO.P,R71,1*%
%TO.N,/LVDS_to_Jetson_lines/HS_CSI_C_CLK_N*%
X115812000Y-92710000D03*
%TO.P,R71,2*%
%TO.N,FMC_HS_CSI_C_CLK_N*%
X114312000Y-92710000D03*
%TD*%
D18*
%TO.P,R16,1*%
%TO.N,/VOLT_3P3*%
X127574000Y-51054000D03*
%TO.P,R16,2*%
%TO.N,Net-(R16-Pad2)*%
X129474000Y-51054000D03*
%TD*%
D25*
%TO.P,C14,1*%
%TO.N,/VDD_VADJ*%
X122386000Y-66802000D03*
%TO.P,C14,2*%
%TO.N,Earth*%
X123486000Y-66802000D03*
%TD*%
D17*
%TO.P,R12,1*%
%TO.N,JT_1p8V_I2C_CAM_CLK*%
X125984000Y-137348000D03*
%TO.P,R12,2*%
%TO.N,Net-(IC3-Pad5)*%
X125984000Y-135448000D03*
%TD*%
%TO.P,R15,1*%
%TO.N,Net-(IC3-Pad1)*%
X122682000Y-137348000D03*
%TO.P,R15,2*%
%TO.N,FMC_I2C_CAM_DAT*%
X122682000Y-135448000D03*
%TD*%
%TO.P,R13,1*%
%TO.N,JT_1p8V_I2C_CAM_DAT*%
X125730000Y-128590000D03*
%TO.P,R13,2*%
%TO.N,Net-(IC3-Pad4)*%
X125730000Y-130490000D03*
%TD*%
D22*
%TO.P,JP2,1,1*%
%TO.N,/VOLT_2P5*%
X112014000Y-58674000D03*
D23*
%TO.P,JP2,2,2*%
%TO.N,/LVDS_to_Jetson_lines/VOLT_2P5_CSI_C*%
X112014000Y-61214000D03*
%TD*%
D22*
%TO.P,JP3,1,1*%
%TO.N,/VOLT_2P5*%
X128524000Y-67564000D03*
D23*
%TO.P,JP3,2,2*%
%TO.N,/LVDS_to_Jetson_lines/VOLT_2P5_CSI_D*%
X128524000Y-70104000D03*
%TD*%
D21*
%TO.P,C38,1*%
%TO.N,Earth*%
X92710000Y-127974000D03*
%TO.P,C38,2*%
%TO.N,/VOLT_3P3*%
X92710000Y-129074000D03*
%TD*%
D17*
%TO.P,R28,1*%
%TO.N,/LVDS_to_Jetson_lines/SWITCH2_U6*%
X133858000Y-86426000D03*
%TO.P,R28,2*%
%TO.N,/LVDS_to_Jetson_lines/SWITCH_CLOCK_LANES_CSI_CD*%
X133858000Y-88326000D03*
%TD*%
D26*
%TO.P,TP1,1,1*%
%TO.N,Earth*%
X141427200Y-109423200D03*
%TD*%
D22*
%TO.P,J3,1,Pin_1*%
%TO.N,/FMC_Connector/DBG_IO_1*%
X147066000Y-52451000D03*
D23*
%TO.P,J3,2,Pin_2*%
%TO.N,/FMC_Connector/DBG_IO_2*%
X149606000Y-52451000D03*
%TO.P,J3,3,Pin_3*%
%TO.N,/FMC_Connector/DBG_IO_3*%
X147066000Y-54991000D03*
%TO.P,J3,4,Pin_4*%
%TO.N,/FMC_Connector/DBG_IO_4*%
X149606000Y-54991000D03*
%TO.P,J3,5,Pin_5*%
%TO.N,/FMC_Connector/DBG_IO_5*%
X147066000Y-57531000D03*
%TO.P,J3,6,Pin_6*%
%TO.N,/FMC_Connector/DBG_IO_6*%
X149606000Y-57531000D03*
%TO.P,J3,7,Pin_7*%
%TO.N,Earth*%
X147066000Y-60071000D03*
%TO.P,J3,8,Pin_8*%
X149606000Y-60071000D03*
%TD*%
D26*
%TO.P,TP2,1,1*%
%TO.N,Earth*%
X107315000Y-107137200D03*
%TD*%
D27*
%TO.N,CSI_C_D0_P*%
X144830800Y-99427030D03*
%TO.N,CSI_C_D0_N*%
X144830800Y-100112830D03*
%TO.N,CSI_C_D1_P*%
X142189200Y-104051100D03*
%TO.N,CSI_C_D1_N*%
X142189200Y-104736900D03*
%TO.N,CSI_D_D0_P*%
X155487267Y-100062133D03*
%TO.N,CSI_D_D0_N*%
X155002333Y-100547067D03*
%TO.N,CSI_C_CLK_P*%
X139065000Y-97737930D03*
%TO.N,CSI_D_CLK_P*%
X157265267Y-102424333D03*
%TO.N,CSI_C_CLK_N*%
X139065000Y-98423730D03*
%TO.N,CSI_D_CLK_N*%
X156780333Y-102909267D03*
%TO.N,CSI_D_D1_P*%
X155792067Y-103770533D03*
%TO.N,CSI_D_D1_N*%
X155307133Y-104255467D03*
%TO.N,/LVDS_to_Jetson_lines/CSI_LP_C_CLK_P*%
X131826000Y-96316800D03*
%TO.N,/LVDS_to_Jetson_lines/CSI_LP_C_CLK_N*%
X131826000Y-97332800D03*
%TO.N,/LVDS_to_Jetson_lines/CSI_LP_C_D0_P*%
X130835400Y-100838000D03*
%TO.N,/LVDS_to_Jetson_lines/CSI_LP_C_D0_N*%
X132003800Y-101828600D03*
%TO.N,/LVDS_to_Jetson_lines/CSI_LP_C_D1_P*%
X131826000Y-102819200D03*
%TO.N,/LVDS_to_Jetson_lines/CSI_LP_C_D1_N*%
X131826000Y-103835200D03*
%TO.N,/LVDS_to_Jetson_lines/CSI_LP_D_CLK_P*%
X150291800Y-82804000D03*
D28*
%TO.N,/LVDS_to_Jetson_lines/CSI_LP_D_CLK_N*%
X127863600Y-72745600D03*
D27*
X149301200Y-82804000D03*
D28*
X124917200Y-70104000D03*
D27*
%TO.N,/LVDS_to_Jetson_lines/CSI_LP_D_D0_P*%
X145796000Y-82804000D03*
%TO.N,/LVDS_to_Jetson_lines/CSI_LP_D_D0_N*%
X144780000Y-82804000D03*
%TO.N,/LVDS_to_Jetson_lines/CSI_LP_D_D1_P*%
X143789400Y-82804000D03*
%TO.N,/LVDS_to_Jetson_lines/CSI_LP_D_D1_N*%
X142798800Y-82804000D03*
D28*
%TO.N,/Jetson_connector/EEPROM_SCL*%
X118364000Y-126746000D03*
%TO.N,/Jetson_connector/EEPROM_SDA*%
X121158010Y-126492000D03*
%TO.N,/Jetson_connector/EEPROM_A2*%
X124206000Y-124968000D03*
%TO.N,/Jetson_connector/EEPROM_A1*%
X124968000Y-120777000D03*
%TO.N,/Jetson_connector/EEPROM_A0*%
X123444000Y-121412000D03*
D27*
%TO.N,/Jetson_connector/JT_VDD_3V3*%
X95250000Y-138684000D03*
X154686000Y-126492000D03*
D29*
%TO.N,/Jetson_connector/JT_VDD_5V*%
X145288000Y-134874000D03*
D27*
X148590000Y-127000000D03*
X151384000Y-129286000D03*
D28*
%TO.N,Net-(R8-Pad2)*%
X116586000Y-134112000D03*
%TO.N,JT_1p8V_GPIO9_IN*%
X155194000Y-127508000D03*
%TO.N,JT_1p8V_GPIO17_IN*%
X144907000Y-130302000D03*
%TO.N,JT_1p8V_I2C_CAM_CLK*%
X126060200Y-139420600D03*
X144780000Y-118364000D03*
%TO.N,JT_1p8V_I2C_CAM_DAT*%
X128524000Y-126238000D03*
%TO.N,JT_1p8V_CAM0_MCLK*%
X144018000Y-121793000D03*
%TO.N,JT_1p8V_CAM0_PWR*%
X143891000Y-123317000D03*
%TO.N,JT_1p8V_CAM0_RST*%
X144653000Y-124333000D03*
%TO.N,Net-(IC3-Pad8)*%
X133096000Y-138176000D03*
%TO.N,Net-(IC3-Pad5)*%
X130810000Y-134620000D03*
%TO.N,Net-(IC3-Pad4)*%
X128524000Y-130810000D03*
%TO.N,Net-(IC3-Pad1)*%
X123571000Y-138811000D03*
%TO.N,/Slow_signals_level_shifters/1DIR_U3*%
X127762000Y-124333000D03*
X129794000Y-119126000D03*
%TO.N,Net-(R16-Pad2)*%
X131445000Y-53975000D03*
D27*
%TO.N,/Jetson_connector/VCC_1V8_EEPROM*%
X115570000Y-126746000D03*
D28*
%TO.N,Net-(R17-Pad2)*%
X132588000Y-79502000D03*
D27*
%TO.N,/VDD_VADJ*%
X97028000Y-123190000D03*
D28*
X108458000Y-83820000D03*
D27*
X100330000Y-130048000D03*
X133604000Y-128270000D03*
X149098000Y-39878000D03*
X106680000Y-129286000D03*
X133350000Y-123698000D03*
X121158000Y-66802000D03*
X117348000Y-66294000D03*
X149098000Y-42418000D03*
D28*
X135382000Y-134112000D03*
D27*
X106680000Y-117348000D03*
X109982000Y-134112000D03*
X109474000Y-130048000D03*
X114046000Y-74422000D03*
X150495000Y-42672000D03*
X150368000Y-39878000D03*
%TO.N,/VOLT_3P3*%
X126238000Y-51816000D03*
X130302000Y-78232000D03*
X147828000Y-37338000D03*
X114046000Y-137668000D03*
X151130008Y-87884000D03*
X102870000Y-138430000D03*
X144018000Y-38608000D03*
X93599000Y-129286000D03*
X130962400Y-99263200D03*
X137480032Y-104327960D03*
D30*
X146685000Y-82423000D03*
D27*
X116586000Y-83820000D03*
X137922000Y-96520000D03*
X120904000Y-135128000D03*
X149098000Y-38608000D03*
X141732000Y-88163400D03*
X147828000Y-36068000D03*
%TO.N,/VOLT_1P8*%
X132080000Y-134366000D03*
X118465600Y-130022600D03*
X127482600Y-135432800D03*
X94081600Y-116992400D03*
X118135400Y-138379200D03*
X114300000Y-129286000D03*
X135890000Y-128270000D03*
X135890000Y-123698000D03*
X123952000Y-127000008D03*
X103200200Y-125603000D03*
X101879400Y-122402600D03*
%TO.N,/VOLT_1P2*%
X104140000Y-130302000D03*
X117348000Y-69342000D03*
D28*
X109982000Y-136398000D03*
D27*
X123952000Y-75184000D03*
D28*
X129794000Y-79756000D03*
%TO.N,/VOLT_2P5*%
X121412000Y-54864000D03*
X111887000Y-55499000D03*
%TO.N,/FMC_Connector/TDI*%
X136398000Y-38608000D03*
%TO.N,/FMC_Connector/TDO*%
X137668000Y-38608000D03*
%TO.N,/LVDS_to_Jetson_lines/DIR_IC1*%
X111252000Y-80772000D03*
%TO.N,/LVDS_to_Jetson_lines/EN_U5*%
X141986000Y-98552000D03*
X140716000Y-94234000D03*
%TO.N,/LVDS_to_Jetson_lines/EN_U6*%
X153924000Y-82804000D03*
X145821400Y-88442800D03*
%TO.N,Net-(IC4-Pad8)*%
X108585000Y-119634000D03*
%TO.N,Net-(IC4-Pad5)*%
X110363000Y-116967000D03*
%TO.N,Net-(IC4-Pad4)*%
X95757966Y-116332000D03*
%TO.N,Net-(IC4-Pad1)*%
X96520000Y-120777000D03*
%TO.N,JT_1p8V_I2C2_CAM_CLK*%
X145034000Y-121412000D03*
%TO.N,JT_1p8V_I2C2_CAM_DAT*%
X136652000Y-117170200D03*
X148463000Y-122047000D03*
X95504000Y-121539000D03*
%TO.N,JT_1p8V_I2C3_CAM_CLK*%
X96520000Y-134112000D03*
X114554000Y-135890000D03*
X143891000Y-126619000D03*
X115570000Y-132334000D03*
%TO.N,JT_1p8V_I2C3_CAM_DAT*%
X122174000Y-138811000D03*
X100076000Y-134112000D03*
%TO.N,Net-(IC5-Pad8)*%
X94234000Y-121920000D03*
%TO.N,Net-(IC5-Pad5)*%
X92837000Y-131445000D03*
X96012000Y-125222000D03*
%TO.N,Net-(IC5-Pad4)*%
X98653600Y-125882400D03*
%TO.N,Net-(IC5-Pad1)*%
X109982000Y-131826000D03*
X97790000Y-121920000D03*
%TO.N,/LVDS_to_Jetson_lines/SWITCH_DATA_LANES_CSI_CD*%
X118491000Y-80187800D03*
%TO.N,/LVDS_to_Jetson_lines/SWITCH_CLOCK_LANES_CSI_CD*%
X117348000Y-80010000D03*
%TO.N,/LVDS_to_Jetson_lines/EN_MIPI_OUT_CSI_C*%
X142494000Y-90678000D03*
X113792000Y-79883000D03*
X130124200Y-93522800D03*
%TO.N,/LVDS_to_Jetson_lines/EN_MIPI_OUT_CSI_D*%
X130683000Y-70485000D03*
X117322600Y-78714600D03*
X153898600Y-77698600D03*
%TO.N,/LVDS_to_Jetson_lines/SWITCH1_U6*%
X146710400Y-88646000D03*
X139700000Y-85852000D03*
%TO.N,/LVDS_to_Jetson_lines/SWITCH2_U5*%
X137922004Y-99060000D03*
X133858000Y-93726000D03*
%TO.N,/LVDS_to_Jetson_lines/SWITCH2_U6*%
X132207000Y-87096600D03*
X147574000Y-88646000D03*
%TO.N,/LVDS_to_Jetson_lines/SWITCH1_U5*%
X138684000Y-99568000D03*
X137414000Y-93980000D03*
D27*
%TO.N,JT_VDD_1V8*%
X115316000Y-131318000D03*
X154940000Y-124714000D03*
X125730000Y-118110000D03*
X134493000Y-113156998D03*
D28*
%TO.N,Net-(IC6-Pad5)*%
X106680000Y-136398000D03*
%TO.N,Net-(IC6-Pad3)*%
X102997000Y-126492000D03*
D27*
%TO.N,/Jetson_connector/JT_VDD_2V8*%
X155194000Y-120396000D03*
X98044000Y-138684000D03*
X145034000Y-120396000D03*
%TO.N,/Jetson_connector/JT_VDD_1V2*%
X142011400Y-125831600D03*
X121767600Y-134112000D03*
X103301800Y-136347200D03*
D28*
%TO.N,Net-(R31-Pad1)*%
X131419600Y-115112800D03*
X141224000Y-123596400D03*
%TO.N,Net-(R32-Pad2)*%
X98552000Y-134112000D03*
%TO.N,Net-(R33-Pad2)*%
X97155000Y-126746000D03*
X103378000Y-134112000D03*
%TO.N,Net-(R34-Pad2)*%
X93472000Y-134112000D03*
%TO.N,Net-(IC7-Pad5)*%
X113411000Y-136779000D03*
%TO.N,/Slow_signals_level_shifters/ENN_JETSON_GPIO*%
X138684000Y-134874000D03*
X112776000Y-126746000D03*
%TO.N,FMC_HS_CSI_C_D1_N*%
X112268000Y-43688000D03*
D27*
X100241100Y-88392000D03*
X100241100Y-94742000D03*
%TO.N,FMC_HS_CSI_C_D1_P*%
X100926900Y-88392000D03*
X112268000Y-42418000D03*
X100926900Y-94742000D03*
%TO.N,FMC_HS_CSI_C_D0_N*%
X103797100Y-94742000D03*
X116078000Y-43688000D03*
X103797100Y-88392000D03*
%TO.N,FMC_HS_CSI_C_D0_P*%
X104482900Y-88392000D03*
X116078000Y-42418000D03*
X104482900Y-94742000D03*
D28*
%TO.N,FMC_HS_CSI_D_D1_N*%
X138938000Y-42418000D03*
%TO.N,FMC_HS_CSI_D_D1_P*%
X138938000Y-43688000D03*
%TO.N,FMC_HS_CSI_D_D0_N*%
X142748000Y-42418000D03*
%TO.N,FMC_HS_CSI_D_D0_P*%
X142748000Y-43688000D03*
%TO.N,FMC_HS_CSI_D_CLK_N*%
X146558000Y-42418000D03*
%TO.N,FMC_HS_CSI_D_CLK_P*%
X146558000Y-43688000D03*
D27*
%TO.N,FMC_HS_CSI_C_CLK_N*%
X107188000Y-42418000D03*
%TO.N,FMC_HS_CSI_C_CLK_P*%
X107188000Y-41148000D03*
D28*
%TO.N,FMC_CSI_LP_C_D1_N*%
X119888000Y-42418000D03*
X116713000Y-49276000D03*
%TO.N,FMC_CSI_LP_C_D1_P*%
X119380000Y-48768000D03*
X119888000Y-43688000D03*
%TO.N,FMC_CSI_LP_C_D0_N*%
X124968000Y-42418000D03*
X121412000Y-47625000D03*
%TO.N,FMC_CSI_LP_C_D0_P*%
X121158000Y-49022000D03*
X124968000Y-43688000D03*
%TO.N,FMC_CSI_LP_C_CLK_N*%
X127508000Y-42418000D03*
X125730000Y-48133000D03*
%TO.N,FMC_CSI_LP_C_CLK_P*%
X126492000Y-48895000D03*
X127508000Y-43688000D03*
%TO.N,FMC_CSI_LP_D_D1_N*%
X118618000Y-41148000D03*
X121132600Y-62814200D03*
%TO.N,FMC_CSI_LP_D_D1_P*%
X117348000Y-41148000D03*
X121437400Y-61671200D03*
%TO.N,FMC_CSI_LP_D_D0_N*%
X122428000Y-41148000D03*
X123088400Y-62230000D03*
%TO.N,FMC_CSI_LP_D_D0_P*%
X123088400Y-60858400D03*
X121158000Y-41148000D03*
%TO.N,FMC_CSI_LP_D_CLK_N*%
X124866400Y-61772800D03*
X126212600Y-41122600D03*
%TO.N,FMC_CSI_LP_D_CLK_P*%
X124942600Y-41148000D03*
X125984000Y-62026800D03*
%TO.N,FMC_I2C_CAM_CLK*%
X130048000Y-41148000D03*
X131130000Y-132908000D03*
%TO.N,FMC_I2C_CAM_DAT*%
X128778000Y-41148000D03*
X121920000Y-132080000D03*
%TO.N,FMC_I2C2_CAM_CLK*%
X95885000Y-48768000D03*
X110998000Y-41148000D03*
X98298000Y-113030000D03*
%TO.N,FMC_I2C2_CAM_DAT*%
X112268000Y-38608000D03*
X94742000Y-114046000D03*
X95948500Y-47434500D03*
%TO.N,FMC_I2C3_CAM_CLK*%
X96774000Y-50038000D03*
X98107500Y-110807500D03*
X107188000Y-43688000D03*
%TO.N,FMC_I2C3_CAM_DAT*%
X101346000Y-115443000D03*
X110998000Y-42418000D03*
%TO.N,FMC_CAM0_RST*%
X129286000Y-122428000D03*
X135128000Y-41148000D03*
%TO.N,FMC_CAM0_PWR*%
X137668000Y-41148000D03*
X129463799Y-121488201D03*
%TO.N,FMC_CAM0_MCLK*%
X140208000Y-41148000D03*
X129540000Y-120269000D03*
%TO.N,FMC_EN_MIPI_OUT_CLOCK_VADJ*%
X114554000Y-50165000D03*
X118618000Y-38608000D03*
%TO.N,FMC_EN_MIPI_OUT_DATA_VADJ*%
X116713001Y-47370999D03*
X117348000Y-38608000D03*
%TO.N,FMC_SWITCH_CLOCK_LANES_VADJ*%
X113030000Y-47625000D03*
X114808000Y-41148000D03*
%TO.N,FMC_SWITCH_DATA_LANES_VADJ*%
X108077000Y-48260000D03*
X113538000Y-41148000D03*
%TO.N,FMC_1P2V_MONITOR*%
X108458000Y-43688000D03*
X105029000Y-126492000D03*
%TO.N,FMC_ENN_JT_GPIO_INPUT*%
X113665000Y-51181000D03*
X119888000Y-38608000D03*
X110744000Y-126492000D03*
%TO.N,FMC_2P8V_MONITOR*%
X108458000Y-37338000D03*
X99201477Y-40781477D03*
%TO.N,FMC_3P3V_MONITOR*%
X109728000Y-38608000D03*
X93599000Y-48387000D03*
%TO.N,FMC_GPIO17_OUT*%
X129286000Y-129413000D03*
X131318000Y-38608000D03*
%TO.N,FMC_GPIO9_OUT*%
X129413000Y-128524000D03*
X132588000Y-38607998D03*
%TO.N,FMC_1P8V_MONITOR*%
X129362200Y-123850400D03*
X133858000Y-41148000D03*
D27*
%TO.N,/LVDS_to_Jetson_lines/VOLT_2P5_CSI_C*%
X112014000Y-98044000D03*
X112014000Y-95504000D03*
D28*
X105918000Y-85090000D03*
D27*
X111760000Y-105918000D03*
X112776000Y-116840000D03*
D28*
X110236000Y-88646000D03*
D27*
X111760000Y-108712000D03*
%TO.N,/LVDS_to_Jetson_lines/VOLT_2P5_CSI_D*%
X147574000Y-65024000D03*
X139649200Y-65354200D03*
X154940000Y-65024000D03*
X149352000Y-65024000D03*
X132588000Y-64516000D03*
X139700000Y-67818000D03*
D28*
%TO.N,/FMC_Connector/DBG_IO_5*%
X131343400Y-37261800D03*
X153924000Y-47879000D03*
%TO.N,/FMC_Connector/DBG_IO_6*%
X128778000Y-36068000D03*
%TO.N,/FMC_Connector/DBG_IO_1*%
X142748000Y-41148000D03*
%TO.N,/FMC_Connector/DBG_IO_2*%
X146558000Y-41148000D03*
%TO.N,/FMC_Connector/DBG_IO_3*%
X146532600Y-39852600D03*
X150114000Y-49657000D03*
%TO.N,/FMC_Connector/DBG_IO_4*%
X151765000Y-37058600D03*
X138912600Y-41148000D03*
%TO.N,Earth*%
X151384000Y-77724000D03*
X142748000Y-39878000D03*
X120243600Y-62814200D03*
X156337000Y-39243000D03*
X135382000Y-82042000D03*
X144907000Y-108077000D03*
X135001000Y-97155000D03*
X125145800Y-66802000D03*
X113284000Y-53213000D03*
X111887000Y-126365000D03*
X148844000Y-97536000D03*
X118440200Y-69240400D03*
X144018000Y-42418000D03*
X155321000Y-128651000D03*
X141478000Y-112776000D03*
X144018000Y-46482000D03*
X148971000Y-130429000D03*
X115824000Y-123825000D03*
X144272000Y-84963000D03*
X151003000Y-125730000D03*
X94234000Y-37211000D03*
X108585000Y-30988000D03*
X135001000Y-100711000D03*
X106045000Y-133985000D03*
X148463000Y-106553000D03*
X117475000Y-115951000D03*
X110490000Y-70561200D03*
X157099000Y-108966000D03*
X101219000Y-121539000D03*
X115570000Y-86080600D03*
X96266000Y-119888000D03*
X116078000Y-41148000D03*
X151130000Y-118618000D03*
X151638000Y-40259000D03*
X109855000Y-73152000D03*
X154432000Y-56769000D03*
X149352000Y-71882000D03*
X135001000Y-102489000D03*
X103378000Y-43688000D03*
X151130000Y-100965000D03*
X115392200Y-67208400D03*
X121158000Y-39878000D03*
X118999000Y-120904000D03*
X149733000Y-139319000D03*
X120396000Y-138303000D03*
X129921000Y-124841000D03*
X94361000Y-91567000D03*
X135001000Y-101600000D03*
X136398000Y-44958000D03*
X144272000Y-85852000D03*
X151130000Y-110744000D03*
X148463000Y-66929000D03*
X116078000Y-38608000D03*
X155956000Y-44450000D03*
X123698000Y-38608000D03*
X112268000Y-39878000D03*
X140589000Y-124206000D03*
X112395000Y-71958200D03*
X148717000Y-112903000D03*
X147828000Y-42418000D03*
X129159000Y-76962000D03*
X135001000Y-99822000D03*
X144780000Y-97536000D03*
X116967000Y-127000000D03*
X102743000Y-75184000D03*
X117602000Y-88163400D03*
X133858000Y-46355000D03*
X109601000Y-76885800D03*
X148717000Y-118618000D03*
X147828000Y-39878000D03*
X140081000Y-43815000D03*
X148717000Y-110744000D03*
X138049000Y-97409000D03*
X103378000Y-39878000D03*
X151130000Y-105791000D03*
X112268000Y-41148000D03*
X118618000Y-43688000D03*
X104648000Y-39878000D03*
X91821000Y-127889000D03*
X107950000Y-126746000D03*
X122428000Y-127000000D03*
X148717000Y-94234000D03*
X117475000Y-105283000D03*
X133858000Y-39878000D03*
X151130000Y-97536000D03*
X151130000Y-107188000D03*
X140208000Y-46228000D03*
X133604000Y-50927000D03*
X134832000Y-136102000D03*
X151003000Y-126873000D03*
X144145000Y-105918000D03*
X151130000Y-113792000D03*
X148717000Y-111633000D03*
X148844000Y-99187000D03*
X153162000Y-89789000D03*
X131597400Y-57988200D03*
X140208000Y-39878000D03*
X109347000Y-59690000D03*
X106375200Y-83616800D03*
X140716000Y-118872000D03*
X148590000Y-103759000D03*
X140843000Y-132842000D03*
X157226000Y-116840000D03*
X147828000Y-43688000D03*
X132842000Y-61341000D03*
X108458000Y-39878000D03*
X100838000Y-126746000D03*
X140208000Y-42418000D03*
X156083000Y-136906000D03*
X128778000Y-42291000D03*
X135509000Y-120015000D03*
X114808000Y-44958000D03*
X129794000Y-126619000D03*
X130048000Y-132207000D03*
X153162000Y-86360000D03*
X148717000Y-109728000D03*
X147447000Y-84963000D03*
X117348000Y-81788000D03*
X150876000Y-130302000D03*
X117475000Y-98298000D03*
X119761000Y-73660000D03*
X151511000Y-31242000D03*
X122986800Y-70053200D03*
X109982000Y-56007000D03*
X136906000Y-129286000D03*
X107188000Y-44958000D03*
X120319800Y-66395600D03*
X135001000Y-98044000D03*
X113538000Y-39878000D03*
X117475000Y-108966000D03*
X119888000Y-44958000D03*
X94361000Y-62103000D03*
X93853000Y-32512000D03*
X106172000Y-60071000D03*
X152654000Y-137414000D03*
X148209000Y-68834000D03*
X134112000Y-101600000D03*
X128651000Y-43815000D03*
X102997000Y-57785000D03*
X119253000Y-127000000D03*
X148717000Y-123444000D03*
X143383000Y-136398000D03*
X109728000Y-39878000D03*
X114808000Y-43688000D03*
X119253000Y-132588000D03*
X151130000Y-111633000D03*
X105918000Y-41148000D03*
X147955000Y-82423000D03*
X104648000Y-43688000D03*
X143891000Y-41275000D03*
X148717000Y-120396000D03*
X126238000Y-39751000D03*
X136398000Y-40005000D03*
X131064000Y-98298000D03*
X125095000Y-68808600D03*
X102108000Y-44958000D03*
X110109000Y-85598000D03*
X140843000Y-126492000D03*
X140970000Y-124968000D03*
X102870000Y-121666000D03*
X158242000Y-46482000D03*
X134874000Y-76708000D03*
X120421400Y-69494400D03*
X129921000Y-130175000D03*
X115290600Y-70332600D03*
X140081000Y-50165000D03*
X148539200Y-105638600D03*
X135128000Y-43688000D03*
D31*
X154559000Y-60071000D03*
D28*
X118389400Y-66751200D03*
X154813000Y-108077000D03*
X148590000Y-125730000D03*
X94361000Y-73533000D03*
X139573000Y-87376000D03*
X100203000Y-51181000D03*
X151130000Y-109728000D03*
X143256000Y-85852000D03*
X154813000Y-116967000D03*
X157607000Y-124714000D03*
X145288000Y-85852000D03*
X146558000Y-85852000D03*
X147447000Y-85852000D03*
X133350000Y-124841000D03*
X129286000Y-63373000D03*
X149479000Y-85852000D03*
X155829000Y-112395000D03*
X118618000Y-44958000D03*
X104648000Y-41148000D03*
X126238000Y-46355000D03*
X134112000Y-103378000D03*
X141478000Y-39878000D03*
X105664000Y-73406000D03*
X151130000Y-104775000D03*
X125679200Y-60960000D03*
X151130000Y-112903000D03*
X147066000Y-71882000D03*
X94361000Y-125222000D03*
X148717000Y-114681000D03*
X105283000Y-122047000D03*
X135001000Y-98933000D03*
X112268000Y-44958000D03*
X158115000Y-98552000D03*
X133731000Y-30861000D03*
X148590000Y-85852000D03*
X110998000Y-43688000D03*
X132588000Y-43688000D03*
X146558000Y-84963000D03*
X128778000Y-39878000D03*
X104648000Y-42418000D03*
X148717000Y-124460000D03*
X154813000Y-98298000D03*
X126238000Y-42418000D03*
X107188000Y-87884000D03*
X144526000Y-128778000D03*
X127635000Y-85344000D03*
X100330000Y-55880000D03*
X112776000Y-134366000D03*
X148590000Y-84963000D03*
X148717000Y-117094000D03*
X134493000Y-84328000D03*
X141859000Y-47879000D03*
X121158000Y-43688000D03*
X136398000Y-42418000D03*
X151130000Y-98552000D03*
X134112000Y-97155000D03*
X108458000Y-42545000D03*
X129921000Y-138557000D03*
X135001000Y-103378000D03*
X134747000Y-129794000D03*
X134324000Y-121624000D03*
X158115000Y-52451000D03*
X136017000Y-59563000D03*
X151130000Y-114681000D03*
X104648000Y-44958000D03*
X114935000Y-87503000D03*
X151003000Y-124587000D03*
X123952000Y-77470000D03*
X100863400Y-39954200D03*
X157607000Y-132334000D03*
X143256000Y-84963000D03*
X131546600Y-51816000D03*
X103251000Y-45085000D03*
X105918000Y-43688000D03*
X110998000Y-44958000D03*
X99415600Y-38506400D03*
X135128000Y-39878000D03*
X134112000Y-98933000D03*
X151130000Y-117094000D03*
X146558000Y-44958000D03*
X131572000Y-71882000D03*
X140208000Y-71882000D03*
X150622000Y-41529000D03*
X103505000Y-116840000D03*
X118237000Y-82677000D03*
X148463000Y-104775000D03*
X136398000Y-106680000D03*
X157099000Y-93091000D03*
X144780000Y-96012000D03*
X115468400Y-76962000D03*
X134112000Y-100711000D03*
X93599000Y-127381000D03*
X148082000Y-75057000D03*
X128905000Y-47625000D03*
X157353000Y-105410000D03*
X130683000Y-107061000D03*
X154813000Y-85090000D03*
X154559000Y-75565000D03*
X125476000Y-81788000D03*
X134239000Y-109601000D03*
X121158000Y-42418000D03*
X116078000Y-44958000D03*
X135890000Y-50800000D03*
X134112000Y-102489000D03*
X112141000Y-65024000D03*
X134112000Y-98044000D03*
X151765000Y-45339000D03*
X134112000Y-99822000D03*
X150876000Y-131572000D03*
X154940000Y-73279000D03*
X151257000Y-103759000D03*
X151003000Y-120396000D03*
X102743000Y-71882000D03*
X104648000Y-38608000D03*
X127381000Y-138049000D03*
X100711000Y-44831000D03*
X149479000Y-84963000D03*
X148844000Y-100838000D03*
X152019000Y-38735000D03*
X147828000Y-44958000D03*
X145288000Y-84963000D03*
X133731000Y-56642000D03*
X117983000Y-86360000D03*
X117602000Y-95123000D03*
X127508000Y-39878000D03*
X124206000Y-128016000D03*
X130048000Y-120904000D03*
X138049000Y-71882000D03*
X99441000Y-48641000D03*
X117348000Y-39878000D03*
X127025400Y-73050400D03*
X151003000Y-123444000D03*
X148717000Y-113792000D03*
X93726000Y-51181000D03*
X124206000Y-135128000D03*
%TD*%
D32*
%TO.N,CSI_C_D0_P*%
X137078721Y-101426010D02*
X136980931Y-101328220D01*
X144640301Y-99617529D02*
X143448143Y-99617529D01*
X136980931Y-101328220D02*
X136344660Y-101328220D01*
X143448143Y-99617529D02*
X141639662Y-101426010D01*
X144830800Y-99427030D02*
X144640301Y-99617529D01*
X141639662Y-101426010D02*
X137078721Y-101426010D01*
%TO.N,CSI_C_D0_N*%
X141765918Y-101730810D02*
X137078721Y-101730810D01*
X137078721Y-101730810D02*
X136980931Y-101828600D01*
X144830800Y-100112830D02*
X144640301Y-99922331D01*
X143574397Y-99922331D02*
X141765918Y-101730810D01*
X144640301Y-99922331D02*
X143574397Y-99922331D01*
X136980931Y-101828600D02*
X136344660Y-101828600D01*
%TO.N,CSI_C_D1_P*%
X136980931Y-102328980D02*
X137078721Y-102426770D01*
X136344660Y-102328980D02*
X136980931Y-102328980D01*
X140575927Y-104241599D02*
X141998701Y-104241599D01*
X138761098Y-102426770D02*
X140575927Y-104241599D01*
X137078721Y-102426770D02*
X138761098Y-102426770D01*
X141998701Y-104241599D02*
X142189200Y-104051100D01*
%TO.N,CSI_C_D1_N*%
X140449673Y-104546401D02*
X141998701Y-104546401D01*
X136980931Y-102829360D02*
X137078721Y-102731570D01*
X136344660Y-102829360D02*
X136980931Y-102829360D01*
X141998701Y-104546401D02*
X142189200Y-104736900D01*
X138634842Y-102731570D02*
X140449673Y-104546401D01*
X137078721Y-102731570D02*
X138634842Y-102731570D01*
%TO.N,CSI_D_D0_P*%
X149987000Y-98844472D02*
X150760058Y-99617530D01*
X154773257Y-99617530D02*
X155217860Y-100062133D01*
X149987000Y-97142672D02*
X149987000Y-98844472D01*
X145207990Y-87904321D02*
X145207990Y-92363662D01*
X145305780Y-87170260D02*
X145305780Y-87806531D01*
X155217860Y-100062133D02*
X155487267Y-100062133D01*
X145207990Y-92363662D02*
X149987000Y-97142672D01*
X145305780Y-87806531D02*
X145207990Y-87904321D01*
X150760058Y-99617530D02*
X154773257Y-99617530D01*
%TO.N,CSI_D_D0_N*%
X149682200Y-97268928D02*
X149682200Y-98970728D01*
X155002333Y-100277660D02*
X155002333Y-100547067D01*
X144805400Y-87806531D02*
X144903190Y-87904321D01*
X144903190Y-87904321D02*
X144903190Y-92489918D01*
X154647003Y-99922330D02*
X155002333Y-100277660D01*
X150633802Y-99922330D02*
X154647003Y-99922330D01*
X149682200Y-98970728D02*
X150633802Y-99922330D01*
X144805400Y-87170260D02*
X144805400Y-87806531D01*
X144903190Y-92489918D02*
X149682200Y-97268928D01*
%TO.N,CSI_C_CLK_P*%
X137078721Y-97928430D02*
X138874501Y-97928429D01*
X136980931Y-97830640D02*
X137078721Y-97928430D01*
X136344660Y-97830640D02*
X136980931Y-97830640D01*
X138874501Y-97928429D02*
X139065000Y-97737930D01*
%TO.N,CSI_D_CLK_P*%
X148705570Y-90273242D02*
X156667200Y-98234872D01*
X148705570Y-87904321D02*
X148705570Y-90273242D01*
X148803360Y-87170260D02*
X148803360Y-87806531D01*
X156667200Y-102095673D02*
X156995860Y-102424333D01*
X156667200Y-98234872D02*
X156667200Y-102095673D01*
X148803360Y-87806531D02*
X148705570Y-87904321D01*
X156995860Y-102424333D02*
X157265267Y-102424333D01*
%TO.N,CSI_C_CLK_N*%
X136344660Y-98331020D02*
X136980931Y-98331020D01*
X137078721Y-98233230D02*
X138874501Y-98233231D01*
X136980931Y-98331020D02*
X137078721Y-98233230D01*
X138874501Y-98233231D02*
X139065000Y-98423730D01*
%TO.N,CSI_D_CLK_N*%
X148302980Y-87170260D02*
X148302980Y-87806531D01*
X148302980Y-87806531D02*
X148400770Y-87904321D01*
X148400770Y-87904321D02*
X148400770Y-90399498D01*
X156780333Y-102639860D02*
X156780333Y-102909267D01*
X156362400Y-102221927D02*
X156780333Y-102639860D01*
X148400770Y-90399498D02*
X156362400Y-98361128D01*
X156362400Y-98361128D02*
X156362400Y-102221927D01*
%TO.N,CSI_D_D1_P*%
X148907128Y-102590600D02*
X154342728Y-102590600D01*
X148209000Y-101892472D02*
X148907128Y-102590600D01*
X144305020Y-87170260D02*
X144305020Y-87806531D01*
X144207230Y-93826702D02*
X148209000Y-97828472D01*
X144305020Y-87806531D02*
X144207230Y-87904321D01*
X148209000Y-97828472D02*
X148209000Y-101892472D01*
X144207230Y-87904321D02*
X144207230Y-93826702D01*
X154342728Y-102590600D02*
X155522660Y-103770533D01*
X155522660Y-103770533D02*
X155792067Y-103770533D01*
%TO.N,CSI_D_D1_N*%
X155307133Y-103986060D02*
X155307133Y-104255467D01*
X143804640Y-87806531D02*
X143902430Y-87904321D01*
X154216472Y-102895400D02*
X155307133Y-103986060D01*
X148780872Y-102895400D02*
X154216472Y-102895400D01*
X143804640Y-87170260D02*
X143804640Y-87806531D01*
X147904200Y-97954728D02*
X147904200Y-102018728D01*
X143902430Y-93952958D02*
X147904200Y-97954728D01*
X143902430Y-87904321D02*
X143902430Y-93952958D01*
X147904200Y-102018728D02*
X148780872Y-102895400D01*
D33*
%TO.N,/LVDS_to_Jetson_lines/CSI_LP_C_CLK_P*%
X131841240Y-96332040D02*
X131826000Y-96316800D01*
X132895340Y-96332040D02*
X131841240Y-96332040D01*
%TO.N,/LVDS_to_Jetson_lines/CSI_LP_C_CLK_N*%
X132895340Y-97330260D02*
X131828540Y-97330260D01*
X131828540Y-97330260D02*
X131826000Y-97332800D01*
%TO.N,/LVDS_to_Jetson_lines/CSI_LP_C_D0_P*%
X132895340Y-100827840D02*
X130845560Y-100827840D01*
X130845560Y-100827840D02*
X130835400Y-100838000D01*
%TO.N,/LVDS_to_Jetson_lines/CSI_LP_C_D0_N*%
X132895340Y-101828600D02*
X132003800Y-101828600D01*
%TO.N,/LVDS_to_Jetson_lines/CSI_LP_C_D1_P*%
X132895340Y-102829360D02*
X131836160Y-102829360D01*
X131836160Y-102829360D02*
X131826000Y-102819200D01*
%TO.N,/LVDS_to_Jetson_lines/CSI_LP_C_D1_N*%
X131833620Y-103827580D02*
X131826000Y-103835200D01*
X132895340Y-103827580D02*
X131833620Y-103827580D01*
%TO.N,/LVDS_to_Jetson_lines/CSI_LP_D_CLK_P*%
X150301960Y-82814160D02*
X150291800Y-82804000D01*
X150301960Y-83720940D02*
X150301960Y-82814160D01*
%TO.N,/LVDS_to_Jetson_lines/CSI_LP_D_CLK_N*%
X149301200Y-82804000D02*
X149301200Y-83718400D01*
D32*
X127838200Y-72745600D02*
X125196600Y-70104000D01*
D33*
X149301200Y-83718400D02*
X149303740Y-83720940D01*
D32*
X125196600Y-70104000D02*
X124917200Y-70104000D01*
D33*
%TO.N,/LVDS_to_Jetson_lines/CSI_LP_D_D0_P*%
X145796000Y-83710780D02*
X145806160Y-83720940D01*
X145796000Y-82804000D02*
X145796000Y-83710780D01*
%TO.N,/LVDS_to_Jetson_lines/CSI_LP_D_D0_N*%
X144780000Y-83695540D02*
X144805400Y-83720940D01*
X144780000Y-82804000D02*
X144780000Y-83695540D01*
%TO.N,/LVDS_to_Jetson_lines/CSI_LP_D_D1_P*%
X143789400Y-82804000D02*
X143789400Y-83705700D01*
X143789400Y-83705700D02*
X143804640Y-83720940D01*
%TO.N,/LVDS_to_Jetson_lines/CSI_LP_D_D1_N*%
X142798800Y-83713320D02*
X142806420Y-83720940D01*
X142798800Y-82778600D02*
X142798800Y-83713320D01*
D32*
%TO.N,/LVDS_to_Jetson_lines/HS_CSI_D_D0_P*%
X144538000Y-71882000D02*
X144538000Y-72557001D01*
X143916400Y-73178601D02*
X143916400Y-74231872D01*
X144957800Y-82270600D02*
X145305780Y-82618580D01*
X144957800Y-79412728D02*
X144957800Y-82270600D01*
X144538000Y-72557001D02*
X143916400Y-73178601D01*
X144538000Y-71682000D02*
X144538000Y-71882000D01*
X143916400Y-71060400D02*
X144538000Y-71682000D01*
X145305780Y-82618580D02*
X145305780Y-83720940D01*
X143916401Y-70955599D02*
X143916400Y-71060400D01*
X146583400Y-77787128D02*
X144957800Y-79412728D01*
X144780000Y-70092000D02*
X143916401Y-70955599D01*
X143916400Y-74231872D02*
X146583400Y-76898872D01*
X146583400Y-76898872D02*
X146583400Y-77787128D01*
%TO.N,/LVDS_to_Jetson_lines/HS_CSI_D_D0_N*%
X142990000Y-71882000D02*
X142990000Y-72557001D01*
X146278600Y-77660872D02*
X144653000Y-79286472D01*
X144653000Y-79286472D02*
X144653000Y-82270600D01*
X144653000Y-82270600D02*
X144305020Y-82618580D01*
X143611600Y-71060400D02*
X142990000Y-71682000D01*
X143611600Y-73178601D02*
X143611600Y-74358128D01*
X143611599Y-70955599D02*
X143611600Y-71060400D01*
X142748000Y-70092000D02*
X143611599Y-70955599D01*
X142990000Y-72557001D02*
X143611600Y-73178601D01*
X144305020Y-82618580D02*
X144305020Y-83720940D01*
X146278600Y-77025128D02*
X146278600Y-77660872D01*
X143611600Y-74358128D02*
X146278600Y-77025128D01*
X142990000Y-71682000D02*
X142990000Y-71882000D01*
%TO.N,/LVDS_to_Jetson_lines/HS_CSI_D_D1_P*%
X142957550Y-82276950D02*
X143304260Y-82623660D01*
X135648000Y-71682000D02*
X135648000Y-71882000D01*
X140906128Y-77063600D02*
X142957550Y-79115022D01*
X142957550Y-79115022D02*
X142957550Y-82276950D01*
X143304260Y-82623660D02*
X143304260Y-83720940D01*
X135026400Y-71060400D02*
X135648000Y-71682000D01*
X135648000Y-72557001D02*
X135026400Y-73178601D01*
X135890000Y-70092000D02*
X135026401Y-70955599D01*
X137985128Y-77063600D02*
X140906128Y-77063600D01*
X135026400Y-74104872D02*
X137985128Y-77063600D01*
X135026401Y-70955599D02*
X135026400Y-71060400D01*
X135026400Y-73178601D02*
X135026400Y-74104872D01*
X135648000Y-71882000D02*
X135648000Y-72557001D01*
%TO.N,/LVDS_to_Jetson_lines/HS_CSI_D_D1_N*%
X134100000Y-71682000D02*
X134100000Y-71882000D01*
X133858000Y-70092000D02*
X134721599Y-70955599D01*
X142652750Y-79241278D02*
X142652750Y-82289650D01*
X134721600Y-74231128D02*
X137858872Y-77368400D01*
X137858872Y-77368400D02*
X140779872Y-77368400D01*
X134721599Y-70955599D02*
X134721600Y-71060400D01*
X142652750Y-82289650D02*
X142306040Y-82636360D01*
X134721600Y-73178601D02*
X134721600Y-74231128D01*
X134100000Y-71882000D02*
X134100000Y-72557001D01*
X134721600Y-71060400D02*
X134100000Y-71682000D01*
X142306040Y-82636360D02*
X142306040Y-83720940D01*
X134100000Y-72557001D02*
X134721600Y-73178601D01*
X140779872Y-77368400D02*
X142652750Y-79241278D01*
%TO.N,/LVDS_to_Jetson_lines/HS_CSI_C_D0_P*%
X116548599Y-101676199D02*
X116653400Y-101676200D01*
X117275000Y-101054600D02*
X117475000Y-101054600D01*
X118771601Y-101676200D02*
X131309744Y-101676200D01*
X131309744Y-101676200D02*
X131657724Y-101328220D01*
X118150001Y-101054600D02*
X118771601Y-101676200D01*
X117475000Y-101054600D02*
X118150001Y-101054600D01*
X131657724Y-101328220D02*
X132895340Y-101328220D01*
X116653400Y-101676200D02*
X117275000Y-101054600D01*
X115685000Y-100812600D02*
X116548599Y-101676199D01*
%TO.N,/LVDS_to_Jetson_lines/HS_CSI_C_D0_N*%
X116548599Y-101981001D02*
X116653400Y-101981000D01*
X118771601Y-101981000D02*
X131292600Y-101981000D01*
X116653400Y-101981000D02*
X117275000Y-102602600D01*
X131640580Y-102328980D02*
X132895340Y-102328980D01*
X131292600Y-101981000D02*
X131640580Y-102328980D01*
X115685000Y-102844600D02*
X116548599Y-101981001D01*
X118150001Y-102602600D02*
X118771601Y-101981000D01*
X117475000Y-102602600D02*
X118150001Y-102602600D01*
X117275000Y-102602600D02*
X117475000Y-102602600D01*
%TO.N,/LVDS_to_Jetson_lines/HS_CSI_C_D1_P*%
X118771601Y-112369600D02*
X118150001Y-111748000D01*
X118150001Y-111748000D02*
X117475000Y-111748000D01*
X132895340Y-103329740D02*
X131620260Y-103329740D01*
X116548599Y-112369599D02*
X116653400Y-112369600D01*
X131620260Y-103329740D02*
X131273550Y-103676450D01*
X121602872Y-112369600D02*
X118771601Y-112369600D01*
X115685000Y-111506000D02*
X116548599Y-112369599D01*
X131273550Y-103676450D02*
X130296022Y-103676450D01*
X130296022Y-103676450D02*
X121602872Y-112369600D01*
X116653400Y-112369600D02*
X117275000Y-111748000D01*
X117275000Y-111748000D02*
X117475000Y-111748000D01*
%TO.N,/LVDS_to_Jetson_lines/HS_CSI_C_D1_N*%
X132895340Y-104327960D02*
X131632960Y-104327960D01*
X118771601Y-112674400D02*
X118150001Y-113296000D01*
X116653400Y-112674400D02*
X117275000Y-113296000D01*
X117275000Y-113296000D02*
X117475000Y-113296000D01*
X115685000Y-113538000D02*
X116548599Y-112674401D01*
X118150001Y-113296000D02*
X117475000Y-113296000D01*
X131632960Y-104327960D02*
X131286250Y-103981250D01*
X130422278Y-103981250D02*
X121729128Y-112674400D01*
X121729128Y-112674400D02*
X118771601Y-112674400D01*
X131286250Y-103981250D02*
X130422278Y-103981250D01*
X116548599Y-112674401D02*
X116653400Y-112674400D01*
%TO.N,/LVDS_to_Jetson_lines/HS_CSI_D_CLK_N*%
X149150070Y-81674598D02*
X149150070Y-82269330D01*
X152501600Y-73178601D02*
X152501600Y-73596872D01*
X147294600Y-79819128D02*
X149150070Y-81674598D01*
X152501599Y-70955599D02*
X152501600Y-71060400D01*
X151638000Y-70092000D02*
X152501599Y-70955599D01*
X151880000Y-71882000D02*
X151880000Y-72557001D01*
X148803360Y-82616040D02*
X148803360Y-83720940D01*
X151880000Y-71682000D02*
X151880000Y-71882000D01*
X149150070Y-82269330D02*
X148803360Y-82616040D01*
X152501600Y-71060400D02*
X151880000Y-71682000D01*
X152501600Y-73596872D02*
X147294600Y-78803872D01*
X151880000Y-72557001D02*
X152501600Y-73178601D01*
X147294600Y-78803872D02*
X147294600Y-79819128D01*
%TO.N,/LVDS_to_Jetson_lines/HS_CSI_D_CLK_P*%
X152806400Y-71060400D02*
X153428000Y-71682000D01*
X152806400Y-73723128D02*
X147599400Y-78930128D01*
X152806400Y-73178601D02*
X152806400Y-73723128D01*
X147599400Y-79692872D02*
X149454870Y-81548342D01*
X153428000Y-71682000D02*
X153428000Y-71882000D01*
X153428000Y-71882000D02*
X153428000Y-72557001D01*
X149801580Y-82618580D02*
X149801580Y-83720940D01*
X149454870Y-81548342D02*
X149454870Y-82271870D01*
X147599400Y-78930128D02*
X147599400Y-79692872D01*
X153428000Y-72557001D02*
X152806400Y-73178601D01*
X152806401Y-70955599D02*
X152806400Y-71060400D01*
X153670000Y-70092000D02*
X152806401Y-70955599D01*
X149454870Y-82271870D02*
X149801580Y-82618580D01*
%TO.N,/LVDS_to_Jetson_lines/HS_CSI_C_CLK_N*%
X115812000Y-92710000D02*
X116675599Y-91846401D01*
X126580002Y-97483930D02*
X131297045Y-97483930D01*
X116780400Y-91846400D02*
X117402000Y-92468000D01*
X131643755Y-97830640D02*
X132895340Y-97830640D01*
X118898601Y-91846400D02*
X120942472Y-91846400D01*
X116675599Y-91846401D02*
X116780400Y-91846400D01*
X120942472Y-91846400D02*
X126580002Y-97483930D01*
X118277001Y-92468000D02*
X118898601Y-91846400D01*
X117402000Y-92468000D02*
X117602000Y-92468000D01*
X131297045Y-97483930D02*
X131643755Y-97830640D01*
X117602000Y-92468000D02*
X118277001Y-92468000D01*
%TO.N,/LVDS_to_Jetson_lines/HS_CSI_C_CLK_P*%
X131293870Y-97179130D02*
X131640580Y-96832420D01*
X117402000Y-90920000D02*
X117602000Y-90920000D01*
X121068728Y-91541600D02*
X126706258Y-97179130D01*
X117602000Y-90920000D02*
X118277001Y-90920000D01*
X118277001Y-90920000D02*
X118898601Y-91541600D01*
X116780400Y-91541600D02*
X117402000Y-90920000D01*
X115812000Y-90678000D02*
X116675599Y-91541599D01*
X131640580Y-96832420D02*
X132895340Y-96832420D01*
X118898601Y-91541600D02*
X121068728Y-91541600D01*
X116675599Y-91541599D02*
X116780400Y-91541600D01*
X126706258Y-97179130D02*
X131293870Y-97179130D01*
D33*
%TO.N,/Jetson_connector/EEPROM_SCL*%
X117094000Y-128590000D02*
X117094000Y-128016000D01*
X117094000Y-128016000D02*
X118364000Y-126746000D01*
%TO.N,/Jetson_connector/EEPROM_SDA*%
X119888000Y-128590000D02*
X119888000Y-127762010D01*
X119888000Y-127762010D02*
X121158010Y-126492000D01*
%TO.N,/Jetson_connector/EEPROM_A2*%
X124714000Y-118491000D02*
X119888000Y-118491000D01*
X119888000Y-118491000D02*
X117094000Y-121285000D01*
X126238000Y-121920000D02*
X126238000Y-120015000D01*
X117094000Y-121285000D02*
X117094000Y-123764000D01*
X125984000Y-122174000D02*
X126238000Y-121920000D01*
X124206000Y-122555000D02*
X124587000Y-122174000D01*
X124587000Y-122174000D02*
X125984000Y-122174000D01*
X124206000Y-124968000D02*
X124206000Y-122555000D01*
X126238000Y-120015000D02*
X124714000Y-118491000D01*
%TO.N,/Jetson_connector/EEPROM_A1*%
X119888000Y-123764000D02*
X119888000Y-121094500D01*
X121475500Y-119507000D02*
X123698000Y-119507000D01*
X119888000Y-121094500D02*
X121475500Y-119507000D01*
X123698000Y-119507000D02*
X124968000Y-120777000D01*
%TO.N,/Jetson_connector/EEPROM_A0*%
X122682000Y-123764000D02*
X122682000Y-122174000D01*
X122682000Y-122174000D02*
X123444000Y-121412000D01*
D34*
%TO.N,/Jetson_connector/JT_VDD_3V3*%
X94996000Y-138430000D02*
X94996000Y-137348000D01*
X94996000Y-138430000D02*
X95250000Y-138684000D01*
D33*
%TO.N,Net-(R8-Pad2)*%
X116332000Y-134366000D02*
X116586000Y-134112000D01*
X116332000Y-135448000D02*
X116332000Y-134366000D01*
%TO.N,JT_1p8V_GPIO9_IN*%
X139170000Y-128472000D02*
X142825400Y-128472000D01*
X142825400Y-128472000D02*
X143408400Y-127889000D01*
X143408400Y-127889000D02*
X154813000Y-127889000D01*
X154813000Y-127889000D02*
X155194000Y-127508000D01*
%TO.N,JT_1p8V_GPIO17_IN*%
X142163800Y-130302000D02*
X144907000Y-130302000D01*
X140833800Y-128972000D02*
X142163800Y-130302000D01*
X139170000Y-128972000D02*
X140833800Y-128972000D01*
%TO.N,JT_1p8V_I2C_CAM_CLK*%
X117094000Y-130490000D02*
X117602000Y-130998000D01*
X118110000Y-139446000D02*
X126034800Y-139446000D01*
X126034800Y-139446000D02*
X126060200Y-139420600D01*
X125984000Y-139344400D02*
X126060200Y-139420600D01*
X117602000Y-130998000D02*
X117602000Y-138938000D01*
X125984000Y-137348000D02*
X125984000Y-139344400D01*
X117602000Y-138938000D02*
X118110000Y-139446000D01*
%TO.N,JT_1p8V_I2C_CAM_DAT*%
X125156000Y-128590000D02*
X124206000Y-129540000D01*
X120838000Y-129540000D02*
X119888000Y-130490000D01*
X125730000Y-128590000D02*
X125156000Y-128590000D01*
X125730000Y-128270000D02*
X125730000Y-128590000D01*
X127762000Y-126238000D02*
X125730000Y-128270000D01*
X128524000Y-126238000D02*
X127762000Y-126238000D01*
X124206000Y-129540000D02*
X120838000Y-129540000D01*
%TO.N,JT_1p8V_CAM0_MCLK*%
X142036800Y-121005600D02*
X141003200Y-119972000D01*
X144018000Y-121793000D02*
X143230600Y-121005600D01*
X141003200Y-119972000D02*
X139170000Y-119972000D01*
X143230600Y-121005600D02*
X142036800Y-121005600D01*
%TO.N,JT_1p8V_CAM0_PWR*%
X142709900Y-122135900D02*
X143891000Y-123317000D01*
X139170000Y-121472000D02*
X141334800Y-121472000D01*
X141998700Y-122135900D02*
X142709900Y-122135900D01*
X141334800Y-121472000D02*
X141998700Y-122135900D01*
%TO.N,JT_1p8V_CAM0_RST*%
X141655800Y-122758200D02*
X142087600Y-122758200D01*
X142087600Y-122758200D02*
X143535400Y-124206000D01*
X140869600Y-121972000D02*
X141655800Y-122758200D01*
X143687800Y-124333000D02*
X144653000Y-124333000D01*
X139170000Y-121972000D02*
X140869600Y-121972000D01*
X143535400Y-124206000D02*
X143560800Y-124206000D01*
X143560800Y-124206000D02*
X143687800Y-124333000D01*
%TO.N,Net-(IC3-Pad8)*%
X133604000Y-134808000D02*
X133604000Y-137668000D01*
X133604000Y-137668000D02*
X133096000Y-138176000D01*
%TO.N,Net-(IC3-Pad5)*%
X130810000Y-134620000D02*
X126812000Y-134620000D01*
X126812000Y-134620000D02*
X125984000Y-135448000D01*
%TO.N,Net-(IC3-Pad4)*%
X128204000Y-130490000D02*
X128524000Y-130810000D01*
X125730000Y-130490000D02*
X128204000Y-130490000D01*
%TO.N,Net-(IC3-Pad1)*%
X122682000Y-137922000D02*
X123571000Y-138811000D01*
X122682000Y-137348000D02*
X122682000Y-137922000D01*
%TO.N,/Slow_signals_level_shifters/2DIR_U3*%
X129822500Y-130972000D02*
X128841500Y-131953000D01*
X128841500Y-131953000D02*
X124145000Y-131953000D01*
X124145000Y-131953000D02*
X122682000Y-130490000D01*
X131594000Y-130972000D02*
X129822500Y-130972000D01*
%TO.N,/Slow_signals_level_shifters/1DIR_U3*%
X127254000Y-124333000D02*
X126685000Y-123764000D01*
X131594000Y-119472000D02*
X130140000Y-119472000D01*
X126685000Y-123764000D02*
X125730000Y-123764000D01*
X127762000Y-124333000D02*
X127254000Y-124333000D01*
X130140000Y-119472000D02*
X129794000Y-119126000D01*
%TO.N,Net-(R16-Pad2)*%
X131445000Y-53975000D02*
X129474000Y-52004000D01*
X129474000Y-52004000D02*
X129474000Y-51054000D01*
D34*
%TO.N,/Jetson_connector/VCC_1V8_EEPROM*%
X117094000Y-125664000D02*
X116652000Y-125664000D01*
X116652000Y-125664000D02*
X115570000Y-126746000D01*
D33*
%TO.N,Net-(R17-Pad2)*%
X128016000Y-80706000D02*
X131384000Y-80706000D01*
X131384000Y-80706000D02*
X132588000Y-79502000D01*
D34*
%TO.N,/VDD_VADJ*%
X106934000Y-129032000D02*
X106680000Y-129286000D01*
X132809800Y-122472000D02*
X131594000Y-122472000D01*
X116416000Y-66294000D02*
X117348000Y-66294000D01*
X111506000Y-135448000D02*
X111318000Y-135448000D01*
X133350000Y-123012200D02*
X132809800Y-122472000D01*
X113599000Y-74869000D02*
X114046000Y-74422000D01*
X113599000Y-76073000D02*
X113599000Y-74869000D01*
X133604000Y-128270000D02*
X133306000Y-127972000D01*
X122386000Y-66802000D02*
X121158000Y-66802000D01*
X133306000Y-127972000D02*
X131594000Y-127972000D01*
X111318000Y-135448000D02*
X109982000Y-134112000D01*
X106934000Y-128058000D02*
X106934000Y-129032000D01*
X133350000Y-123698000D02*
X133350000Y-123012200D01*
%TO.N,/VOLT_3P3*%
X130302000Y-78486000D02*
X129982000Y-78806000D01*
X126238000Y-51816000D02*
X126812000Y-51816000D01*
X151015700Y-87884000D02*
X151130008Y-87884000D01*
X136344660Y-96332040D02*
X137734040Y-96332040D01*
X114366000Y-137348000D02*
X114046000Y-137668000D01*
X132895340Y-100330000D02*
X132029200Y-100330000D01*
X136344660Y-104327960D02*
X137480032Y-104327960D01*
X93387000Y-129074000D02*
X93599000Y-129286000D01*
X150301960Y-87170260D02*
X151015700Y-87884000D01*
X137480032Y-104327960D02*
X137480032Y-105555968D01*
X129982000Y-78806000D02*
X128016000Y-78806000D01*
X137480032Y-105555968D02*
X137414000Y-105622000D01*
X141732000Y-87744300D02*
X142306040Y-87170260D01*
X146685000Y-82661760D02*
X146685000Y-82423000D01*
X92710000Y-129074000D02*
X93387000Y-129074000D01*
X126812000Y-51816000D02*
X127574000Y-51054000D01*
X137734040Y-96332040D02*
X137922000Y-96520000D01*
X102682000Y-138430000D02*
X101600000Y-137348000D01*
X116332000Y-137348000D02*
X114366000Y-137348000D01*
X146304000Y-83720940D02*
X146304000Y-83042760D01*
X141732000Y-88163400D02*
X141732000Y-87744300D01*
X130302000Y-78232000D02*
X130302000Y-78486000D01*
X130302000Y-77740000D02*
X131334000Y-76708000D01*
X102870000Y-138430000D02*
X102682000Y-138430000D01*
X146304000Y-83042760D02*
X146685000Y-82661760D01*
X132029200Y-100330000D02*
X130962400Y-99263200D01*
X130302000Y-78232000D02*
X130302000Y-77740000D01*
%TO.N,/VOLT_1P8*%
X125730000Y-125664000D02*
X125288008Y-125664000D01*
X118135400Y-138379200D02*
X118135400Y-136017000D01*
X113030000Y-123698000D02*
X113030000Y-124409200D01*
X125288008Y-125664000D02*
X123952000Y-127000008D01*
X118454400Y-135698000D02*
X119634000Y-135698000D01*
X137751000Y-122472000D02*
X139170000Y-122472000D01*
X137617200Y-127533400D02*
X138055800Y-127972000D01*
X118465600Y-133299200D02*
X119634000Y-134467600D01*
X135890000Y-123698000D02*
X136525000Y-123698000D01*
X118465600Y-130022600D02*
X118465600Y-133299200D01*
X118135400Y-136017000D02*
X118454400Y-135698000D01*
X136525000Y-123698000D02*
X137751000Y-122472000D01*
X138055800Y-127972000D02*
X139170000Y-127972000D01*
X114300000Y-129286000D02*
X113326000Y-129286000D01*
X136321800Y-127533400D02*
X137617200Y-127533400D01*
X113944400Y-125323600D02*
X113944400Y-127651600D01*
X135890000Y-128270000D02*
X135890000Y-127965200D01*
X113944400Y-127651600D02*
X112818000Y-128778000D01*
X119634000Y-134467600D02*
X119634000Y-135698000D01*
X113030000Y-124409200D02*
X113944400Y-125323600D01*
X135890000Y-127965200D02*
X136321800Y-127533400D01*
X113326000Y-129286000D02*
X112818000Y-128778000D01*
D35*
%TO.N,/VOLT_1P2*%
X121539000Y-72644000D02*
X121539000Y-71247000D01*
D34*
X117348000Y-69342000D02*
X117348000Y-69596000D01*
D35*
X121640601Y-72644001D02*
X121539001Y-72644001D01*
X123952000Y-74955400D02*
X121640601Y-72644001D01*
D34*
X121310400Y-70078600D02*
X121158000Y-70231000D01*
X121539000Y-72644000D02*
X121539001Y-72644001D01*
X122284400Y-68935600D02*
X122386000Y-68834000D01*
X116374000Y-69342000D02*
X117348000Y-69342000D01*
X117983000Y-70231000D02*
X120777000Y-70231000D01*
X121310400Y-68935600D02*
X121310400Y-70078600D01*
X121310400Y-68935600D02*
X122284400Y-68935600D01*
X121158000Y-70231000D02*
X120777000Y-70231000D01*
D35*
X121539000Y-71247000D02*
X120777000Y-70485000D01*
X109032000Y-135448000D02*
X108204000Y-135448000D01*
X120777000Y-70485000D02*
X120777000Y-70231000D01*
X109982000Y-136398000D02*
X109032000Y-135448000D01*
D34*
X117348000Y-69596000D02*
X117983000Y-70231000D01*
D35*
X123952000Y-75184000D02*
X123952000Y-74955400D01*
D36*
%TO.N,/VOLT_2P5*%
X112522000Y-54864000D02*
X111887000Y-55499000D01*
X121412000Y-54864000D02*
X112522000Y-54864000D01*
D33*
%TO.N,/FMC_Connector/TDI*%
X136718000Y-38288000D02*
X136718000Y-36576000D01*
X136398000Y-38608000D02*
X136718000Y-38288000D01*
%TO.N,/FMC_Connector/TDO*%
X137668000Y-38608000D02*
X138618000Y-37658000D01*
X138618000Y-37658000D02*
X138618000Y-36576000D01*
%TO.N,/LVDS_to_Jetson_lines/DIR_IC1*%
X111699000Y-80325000D02*
X111699000Y-76073000D01*
X111252000Y-80772000D02*
X111699000Y-80325000D01*
%TO.N,/LVDS_to_Jetson_lines/EN_U5*%
X136344660Y-100827840D02*
X138165840Y-100827840D01*
X138409680Y-100584000D02*
X139954000Y-100584000D01*
X139954000Y-100584000D02*
X141986000Y-98552000D01*
X138165840Y-100827840D02*
X138409680Y-100584000D01*
X140716000Y-94234000D02*
X140716000Y-92390000D01*
%TO.N,/LVDS_to_Jetson_lines/EN_U6*%
X153924000Y-82804000D02*
X153924000Y-81468000D01*
X145806160Y-88427560D02*
X145821400Y-88442800D01*
X145806160Y-87170260D02*
X145806160Y-88427560D01*
%TO.N,Net-(IC4-Pad8)*%
X107635000Y-118684000D02*
X106426000Y-118684000D01*
X108585000Y-119634000D02*
X107635000Y-118684000D01*
%TO.N,Net-(IC4-Pad5)*%
X110363000Y-118684000D02*
X110363000Y-116967000D01*
%TO.N,Net-(IC4-Pad4)*%
X94996000Y-118684000D02*
X94996000Y-117093966D01*
X94996000Y-117093966D02*
X95757966Y-116332000D01*
%TO.N,Net-(IC4-Pad1)*%
X97597000Y-118684000D02*
X98933000Y-118684000D01*
X96520000Y-120777000D02*
X96901000Y-120777000D01*
X96901000Y-120777000D02*
X97282000Y-120396000D01*
X97282000Y-118999000D02*
X97597000Y-118684000D01*
X97282000Y-120396000D02*
X97282000Y-118999000D01*
%TO.N,JT_1p8V_I2C2_CAM_CLK*%
X144703800Y-121081800D02*
X145034000Y-121412000D01*
X138785600Y-112268000D02*
X143065500Y-116547900D01*
X127635000Y-112268000D02*
X138785600Y-112268000D01*
X144449800Y-121081800D02*
X144703800Y-121081800D01*
X122555000Y-117348000D02*
X127635000Y-112268000D01*
X110363000Y-120584000D02*
X116271000Y-120584000D01*
X143065500Y-119697500D02*
X144449800Y-121081800D01*
X119507000Y-117348000D02*
X122555000Y-117348000D01*
X143065500Y-116547900D02*
X143065500Y-119697500D01*
X116271000Y-120584000D02*
X119507000Y-117348000D01*
%TO.N,JT_1p8V_I2C2_CAM_DAT*%
X95504000Y-121092000D02*
X95504000Y-121539000D01*
X94996000Y-120584000D02*
X95504000Y-121092000D01*
%TO.N,JT_1p8V_I2C3_CAM_CLK*%
X96520000Y-134112000D02*
X95438000Y-133030000D01*
X95438000Y-133030000D02*
X94996000Y-133030000D01*
%TO.N,JT_1p8V_I2C3_CAM_DAT*%
X98298000Y-133030000D02*
X98994000Y-133030000D01*
X98994000Y-133030000D02*
X100076000Y-134112000D01*
%TO.N,Net-(IC5-Pad8)*%
X97155000Y-122174000D02*
X96901000Y-122174000D01*
X96469200Y-122605800D02*
X94919800Y-122605800D01*
X101600000Y-129667000D02*
X100076000Y-128143000D01*
X99187000Y-123190000D02*
X98171000Y-123190000D01*
X96901000Y-122174000D02*
X96469200Y-122605800D01*
X101600000Y-131130000D02*
X101600000Y-129667000D01*
X94919800Y-122605800D02*
X94234000Y-121920000D01*
X100076000Y-124079000D02*
X99187000Y-123190000D01*
X100076000Y-128143000D02*
X100076000Y-124079000D01*
X98171000Y-123190000D02*
X97155000Y-122174000D01*
%TO.N,Net-(IC5-Pad5)*%
X92837000Y-131445000D02*
X93472000Y-131445000D01*
X93472000Y-131445000D02*
X93787000Y-131130000D01*
X93787000Y-131130000D02*
X94996000Y-131130000D01*
%TO.N,Net-(IC5-Pad4)*%
X98298000Y-126238000D02*
X98298000Y-131130000D01*
X98653600Y-125882400D02*
X98298000Y-126238000D01*
%TO.N,Net-(IC5-Pad1)*%
X108392000Y-131318000D02*
X108204000Y-131130000D01*
X109982000Y-131826000D02*
X109474000Y-131318000D01*
X109474000Y-131318000D02*
X108392000Y-131318000D01*
%TO.N,/LVDS_to_Jetson_lines/SWITCH_DATA_LANES_CSI_CD*%
X134721600Y-85166200D02*
X135661400Y-86106000D01*
X131724400Y-85166200D02*
X134721600Y-85166200D01*
X135661400Y-87731600D02*
X136255800Y-88326000D01*
X129794000Y-87096600D02*
X131724400Y-85166200D01*
X126898400Y-87096600D02*
X129794000Y-87096600D01*
X118491000Y-80187800D02*
X119989600Y-80187800D01*
X135661400Y-86106000D02*
X135661400Y-87731600D01*
X136255800Y-88326000D02*
X137160000Y-88326000D01*
X119989600Y-80187800D02*
X126898400Y-87096600D01*
X137160000Y-90490000D02*
X137160000Y-88326000D01*
%TO.N,/LVDS_to_Jetson_lines/SWITCH_CLOCK_LANES_CSI_CD*%
X127828000Y-90490000D02*
X117348000Y-80010000D01*
X133985000Y-90490000D02*
X127828000Y-90490000D01*
X133858000Y-90490000D02*
X133858000Y-88326000D01*
%TO.N,/LVDS_to_Jetson_lines/EN_MIPI_OUT_CSI_C*%
X127431800Y-93522800D02*
X130124200Y-93522800D01*
X142494000Y-90678000D02*
X142240000Y-90424000D01*
X142240000Y-90424000D02*
X140782000Y-90424000D01*
X113792000Y-79883000D02*
X127431800Y-93522800D01*
X140782000Y-90424000D02*
X140716000Y-90490000D01*
%TO.N,/LVDS_to_Jetson_lines/EN_MIPI_OUT_CSI_D*%
X123977400Y-78714600D02*
X130683000Y-72009000D01*
X153898600Y-79542600D02*
X153924000Y-79568000D01*
X130683000Y-72009000D02*
X130683000Y-70485000D01*
X117322600Y-78714600D02*
X123977400Y-78714600D01*
X153898600Y-77698600D02*
X153898600Y-79542600D01*
%TO.N,/LVDS_to_Jetson_lines/SWITCH1_U6*%
X139700000Y-85852000D02*
X137734000Y-85852000D01*
X146304000Y-87170260D02*
X146304000Y-88138000D01*
X146558000Y-88392000D02*
X146558000Y-88493600D01*
X146558000Y-88493600D02*
X146710400Y-88646000D01*
X146304000Y-88138000D02*
X146558000Y-88392000D01*
X137734000Y-85852000D02*
X137160000Y-86426000D01*
%TO.N,/LVDS_to_Jetson_lines/SWITCH2_U5*%
X137149844Y-99832160D02*
X137922004Y-99060000D01*
X133985000Y-92390000D02*
X133985000Y-93599000D01*
X136344660Y-99832160D02*
X137149844Y-99832160D01*
X133985000Y-93599000D02*
X133858000Y-93726000D01*
%TO.N,/LVDS_to_Jetson_lines/SWITCH2_U6*%
X146801840Y-87873840D02*
X147574000Y-88646000D01*
X132877600Y-86426000D02*
X132207000Y-87096600D01*
X146801840Y-87170260D02*
X146801840Y-87873840D01*
X133858000Y-86426000D02*
X132877600Y-86426000D01*
%TO.N,/LVDS_to_Jetson_lines/SWITCH1_U5*%
X137668000Y-100330000D02*
X138430000Y-99568000D01*
X137287000Y-93853000D02*
X137414000Y-93980000D01*
X137287000Y-92390000D02*
X137287000Y-93853000D01*
X136344660Y-100330000D02*
X137668000Y-100330000D01*
X138430000Y-99568000D02*
X138684000Y-99568000D01*
D34*
%TO.N,JT_VDD_1V8*%
X108623100Y-126199900D02*
X109435900Y-126199900D01*
X125730000Y-118110000D02*
X127000000Y-116840000D01*
X110388400Y-129962400D02*
X111506000Y-131080000D01*
X134493000Y-113157000D02*
X135062000Y-113726000D01*
X113092000Y-131380000D02*
X113792000Y-131380000D01*
X110388400Y-127965200D02*
X110388400Y-129962400D01*
X113792000Y-131380000D02*
X115254000Y-131380000D01*
X111506000Y-131080000D02*
X112792000Y-131080000D01*
X115254000Y-131380000D02*
X115316000Y-131318000D01*
X109702600Y-127279400D02*
X110388400Y-127965200D01*
X109435900Y-126199900D02*
X109702600Y-126466600D01*
X130683000Y-113157000D02*
X134493000Y-113157000D01*
X135062000Y-113726000D02*
X135062000Y-115062000D01*
X109702600Y-126466600D02*
X109702600Y-127279400D01*
X107950000Y-125526800D02*
X108623100Y-126199900D01*
X127000000Y-116840000D02*
X130683000Y-113157000D01*
X107950000Y-123698000D02*
X107950000Y-125526800D01*
X112792000Y-131080000D02*
X113092000Y-131380000D01*
D33*
%TO.N,Net-(IC6-Pad5)*%
X107630000Y-137348000D02*
X108204000Y-137348000D01*
X106680000Y-136398000D02*
X107630000Y-137348000D01*
%TO.N,Net-(IC6-Pad3)*%
X104902000Y-130048000D02*
X102616000Y-127762000D01*
X102616000Y-126873000D02*
X102997000Y-126492000D01*
X102616000Y-127762000D02*
X102616000Y-126873000D01*
X104902000Y-135448000D02*
X104902000Y-130048000D01*
D34*
%TO.N,/Jetson_connector/JT_VDD_2V8*%
X98044000Y-137602000D02*
X98298000Y-137348000D01*
X98044000Y-138684000D02*
X98044000Y-137602000D01*
%TO.N,/Jetson_connector/JT_VDD_1V2*%
X103870800Y-137348000D02*
X104902000Y-137348000D01*
X103301800Y-136779000D02*
X103870800Y-137348000D01*
X103301800Y-136347200D02*
X103301800Y-136779000D01*
D33*
%TO.N,Net-(R31-Pad1)*%
X140599600Y-122972000D02*
X141224000Y-123596400D01*
X131419600Y-115112800D02*
X131470400Y-115062000D01*
X139170000Y-122972000D02*
X140599600Y-122972000D01*
X131470400Y-115062000D02*
X133162000Y-115062000D01*
%TO.N,Net-(R32-Pad2)*%
X98298000Y-134366000D02*
X98552000Y-134112000D01*
X98298000Y-135448000D02*
X98298000Y-134366000D01*
%TO.N,Net-(R33-Pad2)*%
X102042000Y-135448000D02*
X103378000Y-134112000D01*
X101600000Y-135448000D02*
X102042000Y-135448000D01*
%TO.N,Net-(R34-Pad2)*%
X94996000Y-135448000D02*
X94808000Y-135448000D01*
X94808000Y-135448000D02*
X93472000Y-134112000D01*
%TO.N,Net-(IC7-Pad5)*%
X111572000Y-137414000D02*
X111506000Y-137348000D01*
X113284000Y-136779000D02*
X113411000Y-136779000D01*
X112649000Y-137414000D02*
X113284000Y-136779000D01*
X112649000Y-137414000D02*
X111572000Y-137414000D01*
%TO.N,/Slow_signals_level_shifters/ENN_JETSON_GPIO*%
X137160000Y-134808000D02*
X138618000Y-134808000D01*
X138618000Y-134808000D02*
X138684000Y-134874000D01*
D32*
%TO.N,FMC_HS_CSI_C_D1_N*%
X112750599Y-43205401D02*
X112268000Y-43688000D01*
X100431600Y-58102872D02*
X113639600Y-44894872D01*
X111098399Y-112674400D02*
X104838872Y-112674400D01*
X104838872Y-112674400D02*
X100431599Y-108267127D01*
X112395000Y-113296000D02*
X111719999Y-113296000D01*
X113121400Y-112674400D02*
X113985000Y-113538000D01*
X100241100Y-88392000D02*
X100431599Y-88201501D01*
X113347873Y-43205401D02*
X112750599Y-43205401D01*
X113016599Y-112674401D02*
X113121400Y-112674400D01*
X111719999Y-113296000D02*
X111098399Y-112674400D01*
X100431599Y-108267127D02*
X100431599Y-94932499D01*
X112395000Y-113296000D02*
X113016599Y-112674401D01*
X100431599Y-94932499D02*
X100241100Y-94742000D01*
X113639600Y-44894872D02*
X113639600Y-43497128D01*
X100431599Y-88201501D02*
X100431600Y-58102872D01*
X113985000Y-113538000D02*
X114185000Y-113538000D01*
X113639600Y-43497128D02*
X113347873Y-43205401D01*
%TO.N,FMC_HS_CSI_C_D1_P*%
X100926900Y-88392000D02*
X100736401Y-88201501D01*
X111719999Y-111748000D02*
X111098399Y-112369600D01*
X100736401Y-108140873D02*
X100736401Y-94932499D01*
X112395000Y-111748000D02*
X111719999Y-111748000D01*
X100736400Y-58229128D02*
X113944400Y-45021128D01*
X113944400Y-45021128D02*
X113944400Y-43370872D01*
X113944400Y-43370872D02*
X113474127Y-42900599D01*
X113474127Y-42900599D02*
X112750599Y-42900599D01*
X100736401Y-88201501D02*
X100736400Y-58229128D01*
X113016599Y-112369599D02*
X113121400Y-112369600D01*
X111098399Y-112369600D02*
X104965128Y-112369600D01*
X112395000Y-111748000D02*
X113016599Y-112369599D01*
X112750599Y-42900599D02*
X112268000Y-42418000D01*
X113985000Y-111506000D02*
X114185000Y-111506000D01*
X113121400Y-112369600D02*
X113985000Y-111506000D01*
X104965128Y-112369600D02*
X100736401Y-108140873D01*
X100736401Y-94932499D02*
X100926900Y-94742000D01*
%TO.N,FMC_HS_CSI_C_D0_N*%
X103348523Y-67678201D02*
X103987599Y-67678201D01*
X116560599Y-43205401D02*
X117157873Y-43205401D01*
X103987600Y-58356872D02*
X103987599Y-60375800D01*
X103987599Y-63278201D02*
X104931477Y-63278201D01*
X104292401Y-68473399D02*
X103348523Y-68473399D01*
X103348523Y-69878201D02*
X103590000Y-69878201D01*
X117449600Y-44894872D02*
X103987600Y-58356872D01*
X113985000Y-102844600D02*
X114185000Y-102844600D01*
X111098399Y-101981000D02*
X111719999Y-102602600D01*
X103987599Y-70275800D02*
X103987599Y-77961293D01*
X112395000Y-102602600D02*
X113016599Y-101981001D01*
X103348523Y-65478201D02*
X103987599Y-65478201D01*
X104690000Y-61078201D02*
X104931477Y-61078201D01*
X103348523Y-63278201D02*
X103987599Y-63278201D01*
X103987599Y-94932499D02*
X103987599Y-99631127D01*
X104931477Y-66273399D02*
X104292401Y-66273399D01*
X117449600Y-43497128D02*
X117449600Y-44894872D01*
X111719999Y-102602600D02*
X112395000Y-102602600D01*
X116078000Y-43688000D02*
X116560599Y-43205401D01*
X103987599Y-99631127D02*
X106337472Y-101981000D01*
X103987599Y-88201501D02*
X103797100Y-88392000D01*
X104931477Y-64073399D02*
X104292401Y-64073399D01*
X103987599Y-77961293D02*
X103987599Y-88201501D01*
X113016599Y-101981001D02*
X113121400Y-101981000D01*
X104690000Y-61873399D02*
X103348523Y-61873399D01*
X104292401Y-66273399D02*
X103348523Y-66273399D01*
X104931477Y-68473399D02*
X104292401Y-68473399D01*
X104931477Y-61873399D02*
X104690000Y-61873399D01*
X103987599Y-67678201D02*
X104931477Y-67678201D01*
X103797100Y-94742000D02*
X103987599Y-94932499D01*
X106337472Y-101981000D02*
X111098399Y-101981000D01*
X113121400Y-101981000D02*
X113985000Y-102844600D01*
X104292401Y-64073399D02*
X103348523Y-64073399D01*
X103987599Y-65478201D02*
X104931477Y-65478201D01*
X117157873Y-43205401D02*
X117449600Y-43497128D01*
X105329099Y-61475800D02*
G75*
G03*
X104931477Y-61078201I-397599J0D01*
G01*
X103987599Y-70275800D02*
G75*
G03*
X103590000Y-69878201I-397599J0D01*
G01*
X103348523Y-65478178D02*
G75*
G02*
X102646122Y-64775800I-23J702378D01*
G01*
X103348523Y-63278178D02*
G75*
G02*
X102646122Y-62575800I-23J702378D01*
G01*
X104931477Y-68473376D02*
G75*
G03*
X105329076Y-68075800I23J397576D01*
G01*
X104931477Y-64073376D02*
G75*
G03*
X105329076Y-63675800I23J397576D01*
G01*
X103348523Y-69878178D02*
G75*
G02*
X102646122Y-69175800I-23J702378D01*
G01*
X104931477Y-66273376D02*
G75*
G03*
X105329076Y-65875800I23J397576D01*
G01*
X105329099Y-65875800D02*
G75*
G03*
X104931477Y-65478201I-397599J0D01*
G01*
X105329099Y-68075800D02*
G75*
G03*
X104931477Y-67678201I-397599J0D01*
G01*
X103348523Y-67678178D02*
G75*
G02*
X102646122Y-66975800I-23J702378D01*
G01*
X104690000Y-61078201D02*
G75*
G02*
X103987599Y-60375800I0J702401D01*
G01*
X102646099Y-62575800D02*
G75*
G02*
X103348523Y-61873399I702401J0D01*
G01*
X104931477Y-61873376D02*
G75*
G03*
X105329076Y-61475800I23J397576D01*
G01*
X102646099Y-64775800D02*
G75*
G02*
X103348523Y-64073399I702401J0D01*
G01*
X102646099Y-66975800D02*
G75*
G02*
X103348523Y-66273399I702401J0D01*
G01*
X102646099Y-69175800D02*
G75*
G02*
X103348523Y-68473399I702401J0D01*
G01*
X105329099Y-63675800D02*
G75*
G03*
X104931477Y-63278201I-397599J0D01*
G01*
%TO.N,FMC_HS_CSI_C_D0_P*%
X104292401Y-66578201D02*
X103348523Y-66578201D01*
X104292401Y-94932499D02*
X104292401Y-99504873D01*
X104690000Y-62178201D02*
X103348523Y-62178201D01*
X104292401Y-77961293D02*
X104292401Y-88201501D01*
X104292401Y-99504873D02*
X106463728Y-101676200D01*
X104931477Y-68778201D02*
X104292401Y-68778201D01*
X104690000Y-60773399D02*
X104931477Y-60773399D01*
X104931477Y-66578201D02*
X104292401Y-66578201D01*
X111098399Y-101676200D02*
X111719999Y-101054600D01*
X116078000Y-42418000D02*
X116560599Y-42900599D01*
X103987599Y-67373399D02*
X104931477Y-67373399D01*
X104931477Y-64378201D02*
X104292401Y-64378201D01*
X112395000Y-101054600D02*
X113016599Y-101676199D01*
X104292401Y-64378201D02*
X103348523Y-64378201D01*
X103987599Y-65173399D02*
X104931477Y-65173399D01*
X104292400Y-58483128D02*
X104292401Y-60375800D01*
X103348523Y-62973399D02*
X103987599Y-62973399D01*
X103987599Y-62973399D02*
X104931477Y-62973399D01*
X117754400Y-45021128D02*
X104292400Y-58483128D01*
X104482900Y-94742000D02*
X104292401Y-94932499D01*
X104292401Y-70275800D02*
X104292401Y-77961293D01*
X104292401Y-88201501D02*
X104482900Y-88392000D01*
X103348523Y-65173399D02*
X103987599Y-65173399D01*
X113121400Y-101676200D02*
X113985000Y-100812600D01*
X117284127Y-42900599D02*
X117754400Y-43370872D01*
X103348523Y-69573399D02*
X103590000Y-69573399D01*
X103348523Y-67373399D02*
X103987599Y-67373399D01*
X104292401Y-68778201D02*
X103348523Y-68778201D01*
X117754400Y-43370872D02*
X117754400Y-45021128D01*
X113016599Y-101676199D02*
X113121400Y-101676200D01*
X111719999Y-101054600D02*
X112395000Y-101054600D01*
X106463728Y-101676200D02*
X111098399Y-101676200D01*
X113985000Y-100812600D02*
X114185000Y-100812600D01*
X104931477Y-62178201D02*
X104690000Y-62178201D01*
X116560599Y-42900599D02*
X117284127Y-42900599D01*
X103348523Y-67373376D02*
G75*
G02*
X102950924Y-66975800I-23J397576D01*
G01*
X104931477Y-62178178D02*
G75*
G03*
X105633878Y-61475800I23J702378D01*
G01*
X102950901Y-69175800D02*
G75*
G02*
X103348523Y-68778201I397599J0D01*
G01*
X105633901Y-63675800D02*
G75*
G03*
X104931477Y-62973399I-702401J0D01*
G01*
X102950901Y-64775800D02*
G75*
G02*
X103348523Y-64378201I397599J0D01*
G01*
X102950901Y-66975800D02*
G75*
G02*
X103348523Y-66578201I397599J0D01*
G01*
X105633901Y-61475800D02*
G75*
G03*
X104931477Y-60773399I-702401J0D01*
G01*
X104931477Y-64378178D02*
G75*
G03*
X105633878Y-63675800I23J702378D01*
G01*
X105633901Y-65875800D02*
G75*
G03*
X104931477Y-65173399I-702401J0D01*
G01*
X103348523Y-62973376D02*
G75*
G02*
X102950924Y-62575800I-23J397576D01*
G01*
X104931477Y-68778178D02*
G75*
G03*
X105633878Y-68075800I23J702378D01*
G01*
X105633901Y-68075800D02*
G75*
G03*
X104931477Y-67373399I-702401J0D01*
G01*
X104292401Y-70275800D02*
G75*
G03*
X103590000Y-69573399I-702401J0D01*
G01*
X104931477Y-66578178D02*
G75*
G03*
X105633878Y-65875800I23J702378D01*
G01*
X103348523Y-65173376D02*
G75*
G02*
X102950924Y-64775800I-23J397576D01*
G01*
X104690000Y-60773399D02*
G75*
G02*
X104292401Y-60375800I0J397599D01*
G01*
X102950901Y-62575800D02*
G75*
G02*
X103348523Y-62178201I397599J0D01*
G01*
X103348523Y-69573376D02*
G75*
G02*
X102950924Y-69175800I-23J397576D01*
G01*
%TO.N,FMC_HS_CSI_D_D1_N*%
X134100000Y-66802000D02*
X134721599Y-67423599D01*
X134721599Y-67423599D02*
X134721600Y-67528400D01*
X138404600Y-42951400D02*
X137752914Y-42951400D01*
X134100000Y-66126999D02*
X134100000Y-66802000D01*
X134772400Y-65454599D02*
X134100000Y-66126999D01*
X137752914Y-42951400D02*
X137312400Y-43391914D01*
X134721600Y-67528400D02*
X133858000Y-68392000D01*
X134772400Y-63457914D02*
X134772400Y-65454599D01*
X133858000Y-68392000D02*
X133858000Y-68592000D01*
X138938000Y-42418000D02*
X138404600Y-42951400D01*
X137312400Y-60917914D02*
X134772400Y-63457914D01*
X137312400Y-43391914D02*
X137312400Y-60917914D01*
%TO.N,FMC_HS_CSI_D_D1_P*%
X135026401Y-67423599D02*
X135026400Y-67528400D01*
X134975600Y-65454599D02*
X135648000Y-66126999D01*
X135890000Y-68392000D02*
X135890000Y-68592000D01*
X135648000Y-66126999D02*
X135648000Y-66802000D01*
X137515600Y-45788800D02*
X137515600Y-61002086D01*
X135026400Y-67528400D02*
X135890000Y-68392000D01*
X137666240Y-44113800D02*
X137640600Y-44113800D01*
X137515600Y-43476086D02*
X137515600Y-43738800D01*
X137515600Y-44238800D02*
X137515600Y-45788800D01*
X137640600Y-43863800D02*
X137666240Y-43863800D01*
X138938000Y-43688000D02*
X138404600Y-43154600D01*
X134975600Y-63542086D02*
X134975600Y-65454599D01*
X138404600Y-43154600D02*
X137837086Y-43154600D01*
X137837086Y-43154600D02*
X137515600Y-43476086D01*
X135648000Y-66802000D02*
X135026401Y-67423599D01*
X137515600Y-61002086D02*
X134975600Y-63542086D01*
X137791200Y-43988800D02*
G75*
G03*
X137666240Y-43863800I-125000J0D01*
G01*
X137515600Y-44238800D02*
G75*
G02*
X137640600Y-44113800I125000J0D01*
G01*
X137666240Y-44113840D02*
G75*
G03*
X137791240Y-43988800I-40J125040D01*
G01*
X137640600Y-43863800D02*
G75*
G02*
X137515600Y-43738800I0J125000D01*
G01*
%TO.N,FMC_HS_CSI_D_D0_N*%
X143662400Y-55375400D02*
X143662400Y-58003856D01*
X144343270Y-54298800D02*
X143865600Y-54298800D01*
X143865600Y-52998800D02*
X143184730Y-52998800D01*
X142748000Y-68392000D02*
X142748000Y-68592000D01*
X143662400Y-52552000D02*
X144343270Y-52552000D01*
X143662400Y-53852000D02*
X144343270Y-53852000D01*
X143611599Y-67423599D02*
X143611600Y-67528400D01*
X143184730Y-53852000D02*
X143662400Y-53852000D01*
X143662400Y-65454599D02*
X142990000Y-66126999D01*
X143184730Y-55152000D02*
X143439000Y-55152000D01*
X142748000Y-42418000D02*
X142214600Y-42951400D01*
X141122400Y-45508086D02*
X143662400Y-48048086D01*
X142990000Y-66802000D02*
X143611599Y-67423599D01*
X143611600Y-67528400D02*
X142748000Y-68392000D01*
X142214600Y-42951400D02*
X141562914Y-42951400D01*
X143865600Y-54298800D02*
X143184730Y-54298800D01*
X142990000Y-66126999D02*
X142990000Y-66802000D01*
X144343270Y-52998800D02*
X143865600Y-52998800D01*
X144089000Y-51252000D02*
X144343270Y-51252000D01*
X143662400Y-48048086D02*
X143662400Y-50825400D01*
X143662400Y-58003856D02*
X143662400Y-65454599D01*
X144343270Y-51698800D02*
X144089000Y-51698800D01*
X141122400Y-43391914D02*
X141122400Y-45508086D01*
X141562914Y-42951400D02*
X141122400Y-43391914D01*
X143184730Y-52552000D02*
X143662400Y-52552000D01*
X144089000Y-51698800D02*
X143184730Y-51698800D01*
X143662400Y-55375400D02*
G75*
G03*
X143439000Y-55152000I-223400J0D01*
G01*
X144089000Y-51252000D02*
G75*
G02*
X143662400Y-50825400I0J426600D01*
G01*
X144566700Y-51475400D02*
G75*
G03*
X144343270Y-51252000I-223400J0D01*
G01*
X144566700Y-52775400D02*
G75*
G03*
X144343270Y-52552000I-223400J0D01*
G01*
X142758100Y-54725400D02*
G75*
G02*
X143184730Y-54298800I426600J0D01*
G01*
X143184730Y-53851970D02*
G75*
G02*
X142758130Y-53425400I-30J426570D01*
G01*
X142758100Y-53425400D02*
G75*
G02*
X143184730Y-52998800I426600J0D01*
G01*
X143184730Y-52551970D02*
G75*
G02*
X142758130Y-52125400I-30J426570D01*
G01*
X144343270Y-52998770D02*
G75*
G03*
X144566670Y-52775400I30J223370D01*
G01*
X142758100Y-52125400D02*
G75*
G02*
X143184730Y-51698800I426600J0D01*
G01*
X143184730Y-55151970D02*
G75*
G02*
X142758130Y-54725400I-30J426570D01*
G01*
X144343270Y-54298770D02*
G75*
G03*
X144566670Y-54075400I30J223370D01*
G01*
X144566700Y-54075400D02*
G75*
G03*
X144343270Y-53852000I-223400J0D01*
G01*
X144343270Y-51698770D02*
G75*
G03*
X144566670Y-51475400I30J223370D01*
G01*
%TO.N,FMC_HS_CSI_D_D0_P*%
X143184730Y-52348800D02*
X143662400Y-52348800D01*
X143916400Y-67528400D02*
X144780000Y-68392000D01*
X144538000Y-66802000D02*
X143916401Y-67423599D01*
X144538000Y-66126999D02*
X144538000Y-66802000D01*
X143865600Y-65454599D02*
X144538000Y-66126999D01*
X142748000Y-43688000D02*
X142214600Y-43154600D01*
X144089000Y-51902000D02*
X143184730Y-51902000D01*
X141325600Y-45169800D02*
X141325600Y-45423914D01*
X141476240Y-44494800D02*
X141450600Y-44494800D01*
X143865600Y-58003856D02*
X143865600Y-65454599D01*
X141647086Y-43154600D02*
X141325600Y-43476086D01*
X144343270Y-51902000D02*
X144089000Y-51902000D01*
X143662400Y-53648800D02*
X144343270Y-53648800D01*
X143916401Y-67423599D02*
X143916400Y-67528400D01*
X143865600Y-47963914D02*
X143865600Y-50825400D01*
X143865600Y-53202000D02*
X143184730Y-53202000D01*
X141450600Y-44244800D02*
X141476240Y-44244800D01*
X144343270Y-53202000D02*
X143865600Y-53202000D01*
X144780000Y-68392000D02*
X144780000Y-68592000D01*
X144343270Y-54502000D02*
X143865600Y-54502000D01*
X143865600Y-54502000D02*
X143184730Y-54502000D01*
X143184730Y-54948800D02*
X143439000Y-54948800D01*
X141325600Y-45423914D02*
X143865600Y-47963914D01*
X141325600Y-43476086D02*
X141325600Y-44119800D01*
X143865600Y-55375400D02*
X143865600Y-58003856D01*
X144089000Y-51048800D02*
X144343270Y-51048800D01*
X141325600Y-44619800D02*
X141325600Y-45169800D01*
X143184730Y-53648800D02*
X143662400Y-53648800D01*
X143662400Y-52348800D02*
X144343270Y-52348800D01*
X142214600Y-43154600D02*
X141647086Y-43154600D01*
X144089000Y-51048800D02*
G75*
G02*
X143865600Y-50825400I0J223400D01*
G01*
X143865600Y-55375400D02*
G75*
G03*
X143439000Y-54948800I-426600J0D01*
G01*
X144343270Y-53201970D02*
G75*
G03*
X144769870Y-52775400I30J426570D01*
G01*
X141325600Y-44619800D02*
G75*
G02*
X141450600Y-44494800I125000J0D01*
G01*
X142961300Y-54725400D02*
G75*
G02*
X143184730Y-54502000I223400J0D01*
G01*
X144769900Y-51475400D02*
G75*
G03*
X144343270Y-51048800I-426600J0D01*
G01*
X144343270Y-54501970D02*
G75*
G03*
X144769870Y-54075400I30J426570D01*
G01*
X141450600Y-44244800D02*
G75*
G02*
X141325600Y-44119800I0J125000D01*
G01*
X144769900Y-52775400D02*
G75*
G03*
X144343270Y-52348800I-426600J0D01*
G01*
X144343270Y-51901970D02*
G75*
G03*
X144769870Y-51475400I30J426570D01*
G01*
X144769900Y-54075400D02*
G75*
G03*
X144343270Y-53648800I-426600J0D01*
G01*
X141601200Y-44369800D02*
G75*
G03*
X141476240Y-44244800I-125000J0D01*
G01*
X141476240Y-44494840D02*
G75*
G03*
X141601240Y-44369800I-40J125040D01*
G01*
X142961300Y-53425400D02*
G75*
G02*
X143184730Y-53202000I223400J0D01*
G01*
X142961300Y-52125400D02*
G75*
G02*
X143184730Y-51902000I223400J0D01*
G01*
X143184730Y-52348770D02*
G75*
G02*
X142961330Y-52125400I-30J223370D01*
G01*
X143184730Y-53648770D02*
G75*
G02*
X142961330Y-53425400I-30J223370D01*
G01*
X143184730Y-54948770D02*
G75*
G02*
X142961330Y-54725400I-30J223370D01*
G01*
%TO.N,FMC_HS_CSI_D_CLK_N*%
X149817914Y-47853600D02*
X152552400Y-50588086D01*
X151880000Y-66802000D02*
X152501599Y-67423599D01*
X152552400Y-58681313D02*
X152552400Y-65454599D01*
X152501600Y-67528400D02*
X151638000Y-68392000D01*
X151638000Y-68392000D02*
X151638000Y-68592000D01*
X145118914Y-42951400D02*
X144424400Y-43645914D01*
X144424400Y-43645914D02*
X144424400Y-45000086D01*
X152222053Y-54281200D02*
X152354000Y-54281200D01*
X151880000Y-66126999D02*
X151880000Y-66802000D01*
X153085947Y-53478000D02*
X152954000Y-53478000D01*
X152552400Y-54479600D02*
X152552400Y-58681313D01*
X152954000Y-53478000D02*
X152222053Y-53478000D01*
X152954000Y-53081200D02*
X153085947Y-53081200D01*
X146558000Y-42418000D02*
X146024600Y-42951400D01*
X146024600Y-42951400D02*
X145118914Y-42951400D01*
X144424400Y-45000086D02*
X147277914Y-47853600D01*
X152552400Y-50588086D02*
X152552400Y-52679600D01*
X152552400Y-65454599D02*
X151880000Y-66126999D01*
X152501599Y-67423599D02*
X152501600Y-67528400D01*
X147277914Y-47853600D02*
X149817914Y-47853600D01*
X151820500Y-53879600D02*
G75*
G02*
X152222053Y-53478000I401600J0D01*
G01*
X152954000Y-53081200D02*
G75*
G02*
X152552400Y-52679600I0J401600D01*
G01*
X153085947Y-53478047D02*
G75*
G03*
X153284347Y-53279600I-47J198447D01*
G01*
X153284300Y-53279600D02*
G75*
G03*
X153085947Y-53081200I-198400J0D01*
G01*
X152222053Y-54281247D02*
G75*
G02*
X151820453Y-53879600I47J401647D01*
G01*
X152552400Y-54479600D02*
G75*
G03*
X152354000Y-54281200I-198400J0D01*
G01*
%TO.N,FMC_HS_CSI_D_CLK_P*%
X147362086Y-47650400D02*
X149902086Y-47650400D01*
X145203086Y-43154600D02*
X144627600Y-43730086D01*
X153085947Y-53681200D02*
X152222053Y-53681200D01*
X144627600Y-44915914D02*
X147362086Y-47650400D01*
X146558000Y-43688000D02*
X146024600Y-43154600D01*
X152222053Y-54078000D02*
X152354000Y-54078000D01*
X144627600Y-43730086D02*
X144627600Y-43942000D01*
X152806400Y-67528400D02*
X153670000Y-68392000D01*
X144627600Y-44492000D02*
X144627600Y-44915914D01*
X144627600Y-44442000D02*
X144627600Y-44492000D01*
X153428000Y-66802000D02*
X152806401Y-67423599D01*
X146024600Y-43154600D02*
X145203086Y-43154600D01*
X152806401Y-67423599D02*
X152806400Y-67528400D01*
X153670000Y-68392000D02*
X153670000Y-68592000D01*
X153428000Y-66126999D02*
X153428000Y-66802000D01*
X152755600Y-50503914D02*
X152755600Y-52679600D01*
X144778240Y-44317000D02*
X144752600Y-44317000D01*
X152954000Y-52878000D02*
X153085947Y-52878000D01*
X152755600Y-65454599D02*
X153428000Y-66126999D01*
X149902086Y-47650400D02*
X152755600Y-50503914D01*
X152755600Y-54479600D02*
X152755600Y-65454599D01*
X144752600Y-44067000D02*
X144778240Y-44067000D01*
X152023700Y-53879600D02*
G75*
G02*
X152222053Y-53681200I198400J0D01*
G01*
X152755600Y-54479600D02*
G75*
G03*
X152354000Y-54078000I-401600J0D01*
G01*
X152222053Y-54078047D02*
G75*
G02*
X152023653Y-53879600I47J198447D01*
G01*
X144752600Y-44067000D02*
G75*
G02*
X144627600Y-43942000I0J125000D01*
G01*
X152954000Y-52878000D02*
G75*
G02*
X152755600Y-52679600I0J198400D01*
G01*
X144627600Y-44442000D02*
G75*
G02*
X144752600Y-44317000I125000J0D01*
G01*
X153487500Y-53279600D02*
G75*
G03*
X153085947Y-52878000I-401600J0D01*
G01*
X144778240Y-44317040D02*
G75*
G03*
X144903240Y-44192000I-40J125040D01*
G01*
X153085947Y-53681247D02*
G75*
G03*
X153487547Y-53279600I-47J401647D01*
G01*
X144903200Y-44192000D02*
G75*
G03*
X144778240Y-44067000I-125000J0D01*
G01*
%TO.N,FMC_HS_CSI_C_CLK_N*%
X97954103Y-72159344D02*
X97910294Y-72161000D01*
X98035060Y-62050972D02*
X98097021Y-62112929D01*
X96856906Y-68361000D02*
X96787833Y-68363035D01*
X96856906Y-65815800D02*
X97910294Y-65815800D01*
X109855000Y-44005872D02*
X97268990Y-56591882D01*
X97954106Y-69617442D02*
X98035060Y-69650972D01*
X96534754Y-68467860D02*
X96437068Y-68565543D01*
X96787834Y-69613752D02*
X96856906Y-69615800D01*
X96330213Y-69089107D02*
X96332250Y-69158179D01*
X98130542Y-66282916D02*
X98097009Y-66363863D01*
X98132187Y-68139107D02*
X98130542Y-68182916D01*
X97954103Y-62659344D02*
X97910294Y-62661000D01*
X96534754Y-60867860D02*
X96437068Y-60965543D01*
X96437068Y-60965543D02*
X96367993Y-61085181D01*
X97954103Y-64559344D02*
X97910294Y-64561000D01*
X96534754Y-70367860D02*
X96437068Y-70465543D01*
X96856906Y-64561000D02*
X96787833Y-64563035D01*
X96367993Y-62985181D02*
X96332237Y-63118620D01*
X97954106Y-65817442D02*
X98035060Y-65850972D01*
X96437078Y-71311249D02*
X96534762Y-71408929D01*
X96787833Y-66463035D02*
X96654393Y-66498788D01*
X107695500Y-41910500D02*
X109538372Y-41910500D01*
X96332250Y-69158179D02*
X96368005Y-69291614D01*
X98132187Y-64137693D02*
X98132187Y-64339107D01*
X96654398Y-69578000D02*
X96787834Y-69613752D01*
X96654393Y-62698788D02*
X96534754Y-62767860D01*
X98132187Y-64339107D02*
X98130542Y-64382916D01*
X98035052Y-64525817D02*
X97954103Y-64559344D01*
X96534754Y-62767860D02*
X96437068Y-62865543D01*
X97628340Y-60150265D02*
X97744052Y-60150265D01*
X98035052Y-70225817D02*
X97954103Y-70259344D01*
X96654398Y-61978000D02*
X96787834Y-62013752D01*
X98097021Y-62112929D02*
X98130555Y-62193881D01*
X96437068Y-68565543D02*
X96367993Y-68685181D01*
X96368005Y-61691614D02*
X96437078Y-61811249D01*
X96856906Y-62015800D02*
X97910294Y-62015800D01*
X97910294Y-65815800D02*
X97954106Y-65817442D01*
X96367993Y-70585181D02*
X96332237Y-70718620D01*
X98035052Y-62625817D02*
X97954103Y-62659344D01*
X98130555Y-64093881D02*
X98132187Y-64137693D01*
X96787833Y-68363035D02*
X96654393Y-68398788D01*
X96330213Y-70787693D02*
X96330213Y-70989107D01*
X98097009Y-62563863D02*
X98035052Y-62625817D01*
X97954103Y-66459344D02*
X97910294Y-66461000D01*
X98097009Y-68263863D02*
X98035052Y-68325817D01*
X96332237Y-68818620D02*
X96330213Y-68887693D01*
X96787833Y-62663035D02*
X96654393Y-62698788D01*
X98035263Y-60725427D02*
X97954177Y-60759012D01*
X98130555Y-62193881D02*
X98132187Y-62237693D01*
X96856906Y-70261000D02*
X96787833Y-70263035D01*
X98130542Y-62482916D02*
X98097009Y-62563863D01*
X98132187Y-67937693D02*
X98132187Y-68139107D01*
X96330213Y-61287693D02*
X96330213Y-61489107D01*
X97954106Y-67717442D02*
X98035060Y-67750972D01*
X97910294Y-71515800D02*
X97954106Y-71517442D01*
X96437068Y-64765543D02*
X96367993Y-64885181D01*
X96534762Y-67608929D02*
X96654398Y-67678000D01*
X96332237Y-65018620D02*
X96330213Y-65087693D01*
X96856906Y-60761000D02*
X96787833Y-60763035D01*
X96367993Y-64885181D02*
X96332237Y-65018620D01*
X98097021Y-67812929D02*
X98130555Y-67893881D01*
X97910294Y-62661000D02*
X96856906Y-62661000D01*
X98132187Y-71737693D02*
X98132187Y-71939107D01*
X97954106Y-63917442D02*
X98035060Y-63950972D01*
X109538372Y-41910500D02*
X109855000Y-42227128D01*
X96332250Y-71058179D02*
X96368005Y-71191614D01*
X98130555Y-69793881D02*
X98132187Y-69837693D01*
X96437068Y-70465543D02*
X96367993Y-70585181D01*
X97954103Y-70259344D02*
X97910294Y-70261000D01*
X96330213Y-70989107D02*
X96332250Y-71058179D01*
X97910294Y-68361000D02*
X96856906Y-68361000D01*
X96787834Y-63913752D02*
X96856906Y-63915800D01*
X96856906Y-63915800D02*
X97910294Y-63915800D01*
X97910294Y-67715800D02*
X97954106Y-67717442D01*
X96654393Y-60798788D02*
X96534754Y-60867860D01*
X96437078Y-63711249D02*
X96534762Y-63808929D01*
X96330213Y-68887693D02*
X96330213Y-69089107D01*
X96787834Y-62013752D02*
X96856906Y-62015800D01*
X97954103Y-68359344D02*
X97910294Y-68361000D01*
X96534762Y-71408929D02*
X96654398Y-71478000D01*
X98132187Y-60538400D02*
X98130911Y-60582283D01*
X97910294Y-60760293D02*
X97383600Y-60760293D01*
X96368005Y-65491614D02*
X96437078Y-65611249D01*
X98035052Y-68325817D02*
X97954103Y-68359344D01*
X97910294Y-63915800D02*
X97954106Y-63917442D01*
X96856906Y-67715800D02*
X97910294Y-67715800D01*
X98132187Y-62439107D02*
X98130542Y-62482916D01*
X96330213Y-67189107D02*
X96332250Y-67258179D01*
X96787834Y-67713752D02*
X96856906Y-67715800D01*
X98132187Y-69837693D02*
X98132187Y-70039107D01*
X98035052Y-66425817D02*
X97954103Y-66459344D01*
X98132187Y-66239107D02*
X98130542Y-66282916D01*
X96534762Y-63808929D02*
X96654398Y-63878000D01*
X96534754Y-66567860D02*
X96437068Y-66665543D01*
X111846999Y-92468000D02*
X112522000Y-92468000D01*
X96332237Y-66918620D02*
X96330213Y-66987693D01*
X96856906Y-71515800D02*
X97910294Y-71515800D01*
X97744052Y-60150265D02*
X98132187Y-60538400D01*
X96856906Y-62661000D02*
X96787833Y-62663035D01*
X96332237Y-61218620D02*
X96330213Y-61287693D01*
X98097021Y-69712929D02*
X98130555Y-69793881D01*
X96654398Y-71478000D02*
X96787834Y-71513752D01*
X96368005Y-71191614D02*
X96437078Y-71311249D01*
X96654393Y-66498788D02*
X96534754Y-66567860D01*
X96368005Y-67391614D02*
X96437078Y-67511249D01*
X97954106Y-71517442D02*
X98035060Y-71550972D01*
X96332250Y-61558179D02*
X96368005Y-61691614D01*
X96367993Y-68685181D02*
X96332237Y-68818620D01*
X98035052Y-72125817D02*
X97954103Y-72159344D01*
X98130542Y-68182916D02*
X98097009Y-68263863D01*
X114112000Y-92710000D02*
X114312000Y-92710000D01*
X98130542Y-71982916D02*
X98097009Y-72063863D01*
X97688821Y-72163037D02*
X97555384Y-72198792D01*
X98035060Y-67750972D02*
X98097021Y-67812929D01*
X113143599Y-91846401D02*
X113248400Y-91846400D01*
X96330213Y-61489107D02*
X96332250Y-61558179D01*
X98130911Y-60582283D02*
X98097324Y-60663368D01*
X96654393Y-68398788D02*
X96534754Y-68467860D01*
X96367993Y-61085181D02*
X96332237Y-61218620D01*
X96787833Y-64563035D02*
X96654393Y-64598788D01*
X96332250Y-65358179D02*
X96368005Y-65491614D01*
X96654393Y-64598788D02*
X96534754Y-64667860D01*
X98130542Y-64382916D02*
X98097009Y-64463863D01*
X97757893Y-72161000D02*
X97688821Y-72163037D01*
X96654398Y-65778000D02*
X96787834Y-65813752D01*
X96437078Y-69411249D02*
X96534762Y-69508929D01*
X96856906Y-66461000D02*
X96787833Y-66463035D01*
X96330213Y-63187693D02*
X96330213Y-63389107D01*
X97910294Y-70261000D02*
X96856906Y-70261000D01*
X98130555Y-65993881D02*
X98132187Y-66037693D01*
X98130555Y-67893881D02*
X98132187Y-67937693D01*
X98130555Y-71693881D02*
X98132187Y-71737693D01*
X96332237Y-63118620D02*
X96330213Y-63187693D01*
X98132187Y-66037693D02*
X98132187Y-66239107D01*
X96437078Y-61811249D02*
X96534762Y-61908929D01*
X97910294Y-69615800D02*
X97954106Y-69617442D01*
X98132187Y-70039107D02*
X98130542Y-70082916D01*
X97383600Y-60760293D02*
X97383600Y-60761000D01*
X96332237Y-70718620D02*
X96330213Y-70787693D01*
X96330213Y-63389107D02*
X96332250Y-63458179D01*
X96437078Y-67511249D02*
X96534762Y-67608929D01*
X111225399Y-91846400D02*
X111846999Y-92468000D01*
X97268990Y-59790915D02*
X97628340Y-60150265D01*
X107188000Y-42418000D02*
X107695500Y-41910500D01*
X98035060Y-63950972D02*
X98097021Y-64012929D01*
X97910294Y-66461000D02*
X96856906Y-66461000D01*
X98097009Y-66363863D02*
X98035052Y-66425817D01*
X96437078Y-65611249D02*
X96534762Y-65708929D01*
X98097021Y-65912929D02*
X98130555Y-65993881D01*
X96368005Y-63591614D02*
X96437078Y-63711249D01*
X97555384Y-72198792D02*
X97435748Y-72267865D01*
X97435748Y-72267865D02*
X97338065Y-72365548D01*
X98035060Y-69650972D02*
X98097021Y-69712929D01*
X96330213Y-65087693D02*
X96330213Y-65289107D01*
X96856906Y-69615800D02*
X97910294Y-69615800D01*
X96654393Y-70298788D02*
X96534754Y-70367860D01*
X96330213Y-65289107D02*
X96332250Y-65358179D01*
X96332250Y-67258179D02*
X96368005Y-67391614D01*
X96787833Y-70263035D02*
X96654393Y-70298788D01*
X97954177Y-60759012D02*
X97910294Y-60760293D01*
X97268992Y-72485184D02*
X97233237Y-72618621D01*
X97268990Y-56591882D02*
X97268990Y-59790915D01*
X96437068Y-62865543D02*
X96367993Y-62985181D01*
X98097021Y-64012929D02*
X98130555Y-64093881D01*
X96534762Y-69508929D02*
X96654398Y-69578000D01*
X98130542Y-70082916D02*
X98097009Y-70163863D01*
X96534762Y-61908929D02*
X96654398Y-61978000D01*
X98132187Y-62237693D02*
X98132187Y-62439107D01*
X98097021Y-71612929D02*
X98130555Y-71693881D01*
X96437068Y-66665543D02*
X96367993Y-66785181D01*
X97338065Y-72365548D02*
X97268992Y-72485184D01*
X112522000Y-92468000D02*
X113143599Y-91846401D01*
X96787834Y-71513752D02*
X96856906Y-71515800D01*
X98097009Y-70163863D02*
X98035052Y-70225817D01*
X96787834Y-65813752D02*
X96856906Y-65815800D01*
X96654398Y-63878000D02*
X96787834Y-63913752D01*
X98097009Y-72063863D02*
X98035052Y-72125817D01*
X113248400Y-91846400D02*
X114112000Y-92710000D01*
X96534762Y-65708929D02*
X96654398Y-65778000D01*
X98132187Y-71939107D02*
X98130542Y-71982916D01*
X97231200Y-72687693D02*
X97231200Y-89420328D01*
X98097324Y-60663368D02*
X98035263Y-60725427D01*
X98035060Y-65850972D02*
X98097021Y-65912929D01*
X97910294Y-62015800D02*
X97954106Y-62017442D01*
X98097009Y-64463863D02*
X98035052Y-64525817D01*
X97231200Y-89420328D02*
X99657272Y-91846400D01*
X97910294Y-72161000D02*
X97757893Y-72161000D01*
X96330213Y-66987693D02*
X96330213Y-67189107D01*
X109855000Y-42227128D02*
X109855000Y-44005872D01*
X97910294Y-64561000D02*
X96856906Y-64561000D01*
X97954106Y-62017442D02*
X98035060Y-62050972D01*
X96787833Y-60763035D02*
X96654393Y-60798788D01*
X98035060Y-71550972D02*
X98097021Y-71612929D01*
X96367993Y-66785181D02*
X96332237Y-66918620D01*
X96368005Y-69291614D02*
X96437078Y-69411249D01*
X97383600Y-60761000D02*
X96856906Y-60761000D01*
X97233237Y-72618621D02*
X97231200Y-72687693D01*
X96534754Y-64667860D02*
X96437068Y-64765543D01*
X96332250Y-63458179D02*
X96368005Y-63591614D01*
X99657272Y-91846400D02*
X111225399Y-91846400D01*
X96654398Y-67678000D02*
X96787834Y-67713752D01*
%TO.N,FMC_HS_CSI_C_CLK_P*%
X96635013Y-65087693D02*
X96635013Y-65289107D01*
X97910294Y-72465800D02*
X97757893Y-72465800D01*
X107670599Y-41630599D02*
X109689527Y-41630599D01*
X97910294Y-64865800D02*
X97536000Y-64865800D01*
X98436987Y-62237693D02*
X98436987Y-62439107D01*
X97536000Y-62965800D02*
X96856906Y-62965800D01*
X113143599Y-91541599D02*
X113248400Y-91541600D01*
X99783528Y-91541600D02*
X111225399Y-91541600D01*
X97536000Y-68665800D02*
X96856906Y-68665800D01*
X97231200Y-69311000D02*
X97910294Y-69311000D01*
X97383600Y-61065093D02*
X97383600Y-61065800D01*
X97231200Y-63611000D02*
X97910294Y-63611000D01*
X98436987Y-60336986D02*
X98436987Y-60538400D01*
X97757893Y-61065093D02*
X97383600Y-61065093D01*
X96635013Y-68887693D02*
X96635013Y-69089107D01*
X97910294Y-68665800D02*
X97536000Y-68665800D01*
X97910294Y-62965800D02*
X97536000Y-62965800D01*
X97757893Y-59810293D02*
X97910294Y-59810293D01*
X98436987Y-69837693D02*
X98436987Y-70039107D01*
X96856906Y-67411000D02*
X97231200Y-67411000D01*
X97231200Y-71211000D02*
X97910294Y-71211000D01*
X111225399Y-91541600D02*
X111846999Y-90920000D01*
X97231200Y-65511000D02*
X97910294Y-65511000D01*
X97536000Y-72687693D02*
X97536000Y-73312063D01*
X97536000Y-56755928D02*
X97536000Y-59588400D01*
X113248400Y-91541600D02*
X114112000Y-90678000D01*
X97910294Y-70565800D02*
X97536000Y-70565800D01*
X97536000Y-89294072D02*
X99783528Y-91541600D01*
X96856906Y-71211000D02*
X97231200Y-71211000D01*
X96635013Y-66987693D02*
X96635013Y-67189107D01*
X109689527Y-41630599D02*
X110159800Y-42100872D01*
X96856906Y-61711000D02*
X97231200Y-61711000D01*
X98436987Y-71737693D02*
X98436987Y-71939107D01*
X97910294Y-61065093D02*
X97757893Y-61065093D01*
X110159800Y-42100872D02*
X110159800Y-44132128D01*
X112522000Y-90920000D02*
X113143599Y-91541599D01*
X110159800Y-44132128D02*
X97536000Y-56755928D01*
X96635013Y-70787693D02*
X96635013Y-70989107D01*
X97536000Y-70565800D02*
X96856906Y-70565800D01*
X114112000Y-90678000D02*
X114312000Y-90678000D01*
X98436987Y-64137693D02*
X98436987Y-64339107D01*
X111846999Y-90920000D02*
X112522000Y-90920000D01*
X97231200Y-61711000D02*
X97910294Y-61711000D01*
X98436987Y-66037693D02*
X98436987Y-66239107D01*
X107188000Y-41148000D02*
X107670599Y-41630599D01*
X96856906Y-69311000D02*
X97231200Y-69311000D01*
X97536000Y-66765800D02*
X96856906Y-66765800D01*
X96635013Y-63187693D02*
X96635013Y-63389107D01*
X97910294Y-66765800D02*
X97536000Y-66765800D01*
X96856906Y-63611000D02*
X97231200Y-63611000D01*
X97231200Y-67411000D02*
X97910294Y-67411000D01*
X96635013Y-61287693D02*
X96635013Y-61489107D01*
X97383600Y-61065800D02*
X96856906Y-61065800D01*
X97536000Y-64865800D02*
X96856906Y-64865800D01*
X98436987Y-67937693D02*
X98436987Y-68139107D01*
X97536000Y-73312063D02*
X97536000Y-89294072D01*
X96856906Y-65511000D02*
X97231200Y-65511000D01*
X96856906Y-69310987D02*
G75*
G02*
X96635013Y-69089107I-6J221887D01*
G01*
X96635000Y-61287693D02*
G75*
G02*
X96856906Y-61065800I221900J-7D01*
G01*
X97910294Y-68665787D02*
G75*
G03*
X98436987Y-68139107I6J526687D01*
G01*
X97910294Y-64865787D02*
G75*
G03*
X98436987Y-64339107I6J526687D01*
G01*
X97757893Y-59810300D02*
G75*
G02*
X97536000Y-59588400I7J221900D01*
G01*
X98437000Y-69837693D02*
G75*
G03*
X97910294Y-69311000I-526700J-7D01*
G01*
X96635000Y-66987693D02*
G75*
G02*
X96856906Y-66765800I221900J-7D01*
G01*
X98437000Y-62237693D02*
G75*
G03*
X97910294Y-61711000I-526700J-7D01*
G01*
X96856906Y-67410987D02*
G75*
G02*
X96635013Y-67189107I-6J221887D01*
G01*
X96856906Y-65510987D02*
G75*
G02*
X96635013Y-65289107I-6J221887D01*
G01*
X96635000Y-70787693D02*
G75*
G02*
X96856906Y-70565800I221900J-7D01*
G01*
X98437000Y-71737693D02*
G75*
G03*
X97910294Y-71211000I-526700J-7D01*
G01*
X96635000Y-63187693D02*
G75*
G02*
X96856906Y-62965800I221900J-7D01*
G01*
X97910294Y-66765787D02*
G75*
G03*
X98436987Y-66239107I6J526687D01*
G01*
X97910294Y-72465787D02*
G75*
G03*
X98436987Y-71939107I6J526687D01*
G01*
X96856906Y-71210987D02*
G75*
G02*
X96635013Y-70989107I-6J221887D01*
G01*
X97536000Y-72687693D02*
G75*
G02*
X97757893Y-72465800I221900J-7D01*
G01*
X98437000Y-66037693D02*
G75*
G03*
X97910294Y-65511000I-526700J-7D01*
G01*
X96856906Y-61710987D02*
G75*
G02*
X96635013Y-61489107I-6J221887D01*
G01*
X98437000Y-64137693D02*
G75*
G03*
X97910294Y-63611000I-526700J-7D01*
G01*
X98437007Y-60336986D02*
G75*
G03*
X97910294Y-59810293I-526707J-14D01*
G01*
X96635000Y-68887693D02*
G75*
G02*
X96856906Y-68665800I221900J-7D01*
G01*
X98437000Y-67937693D02*
G75*
G03*
X97910294Y-67411000I-526700J-7D01*
G01*
X97910294Y-62965787D02*
G75*
G03*
X98436987Y-62439107I6J526687D01*
G01*
X96635000Y-65087693D02*
G75*
G02*
X96856906Y-64865800I221900J-7D01*
G01*
X97910294Y-61065087D02*
G75*
G03*
X98436987Y-60538400I6J526687D01*
G01*
X96856906Y-63610987D02*
G75*
G02*
X96635013Y-63389107I-6J221887D01*
G01*
X97910294Y-70565787D02*
G75*
G03*
X98436987Y-70039107I6J526687D01*
G01*
D33*
%TO.N,FMC_CSI_LP_C_D1_P*%
X119888000Y-43688000D02*
X120904000Y-44704000D01*
X120904000Y-44704000D02*
X120904000Y-47244000D01*
X120904000Y-47244000D02*
X119380000Y-48768000D01*
%TO.N,FMC_CSI_LP_C_D0_N*%
X122047000Y-45339000D02*
X122047000Y-46990000D01*
X122047000Y-46990000D02*
X121412000Y-47625000D01*
X124968000Y-42418000D02*
X122047000Y-45339000D01*
%TO.N,FMC_CSI_LP_C_D0_P*%
X124333000Y-44323000D02*
X124333000Y-45847000D01*
X124968000Y-43688000D02*
X124333000Y-44323000D01*
X124333000Y-45847000D02*
X121158000Y-49022000D01*
%TO.N,FMC_CSI_LP_C_CLK_N*%
X126873000Y-43053000D02*
X126873000Y-46990000D01*
X127508000Y-42418000D02*
X126873000Y-43053000D01*
X126873000Y-46990000D02*
X125730000Y-48133000D01*
%TO.N,FMC_CSI_LP_C_CLK_P*%
X128143000Y-44323000D02*
X128143000Y-47244000D01*
X128143000Y-47244000D02*
X126492000Y-48895000D01*
X127508000Y-43688000D02*
X128143000Y-44323000D01*
%TO.N,FMC_I2C_CAM_CLK*%
X133604000Y-132908000D02*
X131130000Y-132908000D01*
%TO.N,FMC_I2C_CAM_DAT*%
X122682000Y-135448000D02*
X122682000Y-132842000D01*
X122682000Y-132842000D02*
X121920000Y-132080000D01*
%TO.N,FMC_I2C2_CAM_CLK*%
X100965000Y-113030000D02*
X98298000Y-113030000D01*
X106426000Y-120584000D02*
X105217000Y-120584000D01*
X104394000Y-116459000D02*
X100965000Y-113030000D01*
X105217000Y-120584000D02*
X104394000Y-119761000D01*
X104394000Y-119761000D02*
X104394000Y-116459000D01*
%TO.N,FMC_I2C2_CAM_DAT*%
X98933000Y-116967000D02*
X100330000Y-116967000D01*
X100396000Y-120584000D02*
X98933000Y-120584000D01*
X100965000Y-120015000D02*
X100396000Y-120584000D01*
X100330000Y-116967000D02*
X100965000Y-117602000D01*
X94742000Y-114046000D02*
X96012000Y-114046000D01*
X96012000Y-114046000D02*
X98933000Y-116967000D01*
X100965000Y-117602000D02*
X100965000Y-120015000D01*
%TO.N,FMC_I2C3_CAM_CLK*%
X92456000Y-125095000D02*
X92456000Y-114046000D01*
X101600000Y-133030000D02*
X99441000Y-130871000D01*
X93599000Y-126238000D02*
X92456000Y-125095000D01*
X98806000Y-124587000D02*
X97917000Y-124587000D01*
X97917000Y-124587000D02*
X96266000Y-126238000D01*
X99441000Y-130871000D02*
X99441000Y-125222000D01*
X95694500Y-110807500D02*
X98107500Y-110807500D01*
X92456000Y-114046000D02*
X95694500Y-110807500D01*
X99441000Y-125222000D02*
X98806000Y-124587000D01*
X96266000Y-126238000D02*
X93599000Y-126238000D01*
%TO.N,FMC_I2C3_CAM_DAT*%
X101346000Y-115443000D02*
X102489000Y-116586000D01*
X104074199Y-127442199D02*
X105918000Y-129286000D01*
X105918000Y-129286000D02*
X105918000Y-132080000D01*
X102489000Y-119380000D02*
X104074199Y-120965199D01*
X105918000Y-132080000D02*
X106868000Y-133030000D01*
X102489000Y-116586000D02*
X102489000Y-119380000D01*
X106868000Y-133030000D02*
X108204000Y-133030000D01*
X104074199Y-120965199D02*
X104074199Y-127442199D01*
%TO.N,FMC_CAM0_RST*%
X129692400Y-122428000D02*
X129286000Y-122428000D01*
X131594000Y-121972000D02*
X130148400Y-121972000D01*
X130148400Y-121972000D02*
X129692400Y-122428000D01*
%TO.N,FMC_CAM0_PWR*%
X129480000Y-121472000D02*
X129463799Y-121488201D01*
X131594000Y-121472000D02*
X129480000Y-121472000D01*
%TO.N,FMC_CAM0_MCLK*%
X130048000Y-120269000D02*
X129540000Y-120269000D01*
X131594000Y-119972000D02*
X130345000Y-119972000D01*
X130345000Y-119972000D02*
X130048000Y-120269000D01*
%TO.N,FMC_EN_MIPI_OUT_CLOCK_VADJ*%
X119253000Y-39243000D02*
X118618000Y-38608000D01*
X114554000Y-50165000D02*
X117475000Y-50165000D01*
X117856000Y-48387000D02*
X119253000Y-46990000D01*
X117475000Y-50165000D02*
X117856000Y-49784000D01*
X119253000Y-46990000D02*
X119253000Y-39243000D01*
X117856000Y-49784000D02*
X117856000Y-48387000D01*
%TO.N,FMC_GPIO17_OUT*%
X131594000Y-128972000D02*
X129727000Y-128972000D01*
X129727000Y-128972000D02*
X129286000Y-129413000D01*
%TO.N,FMC_GPIO9_OUT*%
X129465000Y-128472000D02*
X129413000Y-128524000D01*
X131594000Y-128472000D02*
X129465000Y-128472000D01*
%TO.N,FMC_1P8V_MONITOR*%
X130240600Y-122972000D02*
X131594000Y-122972000D01*
X129362200Y-123850400D02*
X130240600Y-122972000D01*
D34*
%TO.N,/LVDS_to_Jetson_lines/VOLT_2P5_CSI_C*%
X112395000Y-116459000D02*
X112776000Y-116840000D01*
X112395000Y-109347000D02*
X111760000Y-108712000D01*
X111010000Y-89420000D02*
X110236000Y-88646000D01*
X112522000Y-94996000D02*
X112014000Y-95504000D01*
X112522000Y-89420000D02*
X111010000Y-89420000D01*
X112395000Y-99580000D02*
X112395000Y-98425000D01*
X112395000Y-114796000D02*
X112395000Y-116459000D01*
X112395000Y-105283000D02*
X111760000Y-105918000D01*
X112522000Y-93968000D02*
X112522000Y-94996000D01*
X112395000Y-98425000D02*
X112014000Y-98044000D01*
X112395000Y-110248000D02*
X112395000Y-109347000D01*
X112395000Y-104128000D02*
X112395000Y-105283000D01*
%TO.N,/LVDS_to_Jetson_lines/VOLT_2P5_CSI_D*%
X132600000Y-66802000D02*
X132600000Y-64516000D01*
X137148000Y-66802000D02*
X138201400Y-66802000D01*
X154928000Y-66802000D02*
X154928000Y-65036000D01*
X154928000Y-65036000D02*
X154940000Y-65024000D01*
X147574000Y-66040000D02*
X146812000Y-66802000D01*
X150380000Y-66802000D02*
X150380000Y-66306000D01*
X132600000Y-64516000D02*
X132588000Y-64516000D01*
X146812000Y-66802000D02*
X146038000Y-66802000D01*
X138201400Y-66802000D02*
X139649200Y-65354200D01*
X147574000Y-65024000D02*
X147574000Y-66040000D01*
X141490000Y-66802000D02*
X140716000Y-66802000D01*
X150380000Y-66052000D02*
X149352000Y-65024000D01*
X140716000Y-66802000D02*
X139700000Y-67818000D01*
X150380000Y-66306000D02*
X150380000Y-66052000D01*
%TO.N,Earth*%
X131594000Y-126472000D02*
X129941000Y-126472000D01*
X137414000Y-129286000D02*
X136906000Y-129286000D01*
X139170000Y-129472000D02*
X137600000Y-129472000D01*
X117475000Y-104102600D02*
X117475000Y-105283000D01*
X131594000Y-124972000D02*
X131594000Y-125472000D01*
X139170000Y-125472000D02*
X139170000Y-125972000D01*
X137101000Y-120972000D02*
X136144000Y-120015000D01*
X120396000Y-137541000D02*
X120396000Y-138303000D01*
X139170000Y-119472000D02*
X140116000Y-119472000D01*
D33*
X115392200Y-67208400D02*
X115392200Y-66370200D01*
D34*
X129941000Y-126472000D02*
X129794000Y-126619000D01*
X139170000Y-123972000D02*
X139170000Y-124472000D01*
X130116000Y-120972000D02*
X130048000Y-120904000D01*
X132600000Y-71882000D02*
X131572000Y-71882000D01*
X139170000Y-124972000D02*
X140966000Y-124972000D01*
X117475000Y-110248000D02*
X117475000Y-108966000D01*
X130497000Y-129472000D02*
X129921000Y-130048000D01*
X119953000Y-137098000D02*
X120396000Y-137541000D01*
X117475000Y-114796000D02*
X117475000Y-115951000D01*
X117602000Y-93968000D02*
X117602000Y-95123000D01*
X117475000Y-99554600D02*
X117475000Y-98298000D01*
X140966000Y-124972000D02*
X140970000Y-124968000D01*
X122682000Y-126746000D02*
X122428000Y-127000000D01*
X132981000Y-124472000D02*
X133350000Y-124841000D01*
X119634000Y-137098000D02*
X119953000Y-137098000D01*
X150380000Y-71882000D02*
X149352000Y-71882000D01*
X92710000Y-127974000D02*
X91906000Y-127974000D01*
X154928000Y-71882000D02*
X154928000Y-73267000D01*
X123632000Y-128590000D02*
X124206000Y-128016000D01*
X139170000Y-120972000D02*
X137101000Y-120972000D01*
D33*
X123486000Y-68834000D02*
X125069600Y-68834000D01*
D34*
X146038000Y-71882000D02*
X147066000Y-71882000D01*
X130552000Y-125472000D02*
X129921000Y-124841000D01*
X131594000Y-123972000D02*
X131594000Y-124472000D01*
X141490000Y-71882000D02*
X140208000Y-71882000D01*
X136144000Y-120015000D02*
X135509000Y-120015000D01*
X133334000Y-76708000D02*
X134874000Y-76708000D01*
X119888000Y-126365000D02*
X119253000Y-127000000D01*
X111718000Y-126534000D02*
X111887000Y-126365000D01*
X131594000Y-120972000D02*
X130116000Y-120972000D01*
X91906000Y-127974000D02*
X91821000Y-127889000D01*
D33*
X123486000Y-66802000D02*
X125145800Y-66802000D01*
D34*
X111506000Y-133080000D02*
X112919000Y-133080000D01*
X137148000Y-71882000D02*
X138049000Y-71882000D01*
X122682000Y-125664000D02*
X122682000Y-126746000D01*
X137414000Y-106722000D02*
X136440000Y-106722000D01*
D33*
X123486000Y-69554000D02*
X122986800Y-70053200D01*
D34*
X129921000Y-130048000D02*
X129921000Y-130175000D01*
X140450000Y-125972000D02*
X140843000Y-126365000D01*
X131594000Y-124472000D02*
X131594000Y-124972000D01*
X119888000Y-125664000D02*
X119888000Y-126365000D01*
D33*
X115392200Y-66370200D02*
X115316000Y-66294000D01*
D34*
X131594000Y-125972000D02*
X131594000Y-126472000D01*
X131594000Y-129472000D02*
X130497000Y-129472000D01*
X107146000Y-126746000D02*
X107950000Y-126746000D01*
X139170000Y-125972000D02*
X139170000Y-126472000D01*
X136440000Y-106722000D02*
X136398000Y-106680000D01*
X139170000Y-124972000D02*
X139170000Y-125472000D01*
X112919000Y-133080000D02*
X113492000Y-133080000D01*
X122682000Y-128590000D02*
X123632000Y-128590000D01*
X139170000Y-125972000D02*
X140450000Y-125972000D01*
X154928000Y-73267000D02*
X154940000Y-73279000D01*
X139170000Y-124472000D02*
X139170000Y-124972000D01*
X140355000Y-123972000D02*
X140589000Y-124206000D01*
X117602000Y-89420000D02*
X117602000Y-88163400D01*
X112776000Y-133223000D02*
X112776000Y-134366000D01*
X106934000Y-126958000D02*
X107146000Y-126746000D01*
X111718000Y-128778000D02*
X111718000Y-126534000D01*
X140843000Y-126365000D02*
X140843000Y-126492000D01*
X139170000Y-123972000D02*
X140355000Y-123972000D01*
D33*
X125069600Y-68834000D02*
X125095000Y-68808600D01*
D34*
X137600000Y-129472000D02*
X137414000Y-129286000D01*
X140116000Y-119472000D02*
X140716000Y-118872000D01*
X113492000Y-133080000D02*
X113792000Y-132780000D01*
X131594000Y-124472000D02*
X132981000Y-124472000D01*
D33*
X115290600Y-69358600D02*
X115274000Y-69342000D01*
D34*
X112919000Y-133080000D02*
X112776000Y-133223000D01*
D33*
X115290600Y-70332600D02*
X115290600Y-69358600D01*
D34*
X131594000Y-125472000D02*
X130552000Y-125472000D01*
D33*
X123486000Y-68834000D02*
X123486000Y-69554000D01*
%TO.N,Net-(R36-Pad1)*%
X137160000Y-131140200D02*
X137160000Y-132908000D01*
X139170000Y-130972000D02*
X137328200Y-130972000D01*
X137328200Y-130972000D02*
X137160000Y-131140200D01*
%TD*%
M02*
