%TF.GenerationSoftware,KiCad,Pcbnew,(6.0.9)*%
%TF.CreationDate,2022-12-19T19:37:01+02:00*%
%TF.ProjectId,FMC_MIPI_v2,464d435f-4d49-4504-995f-76322e6b6963,rev?*%
%TF.SameCoordinates,Original*%
%TF.FileFunction,Copper,L4,Inr*%
%TF.FilePolarity,Positive*%
%FSLAX46Y46*%
G04 Gerber Fmt 4.6, Leading zero omitted, Abs format (unit mm)*
G04 Created by KiCad (PCBNEW (6.0.9)) date 2022-12-19 19:37:01*
%MOMM*%
%LPD*%
G01*
G04 APERTURE LIST*
%TA.AperFunction,ComponentPad*%
%ADD10R,1.700000X1.700000*%
%TD*%
%TA.AperFunction,ComponentPad*%
%ADD11O,1.700000X1.700000*%
%TD*%
%TA.AperFunction,ComponentPad*%
%ADD12C,2.800000*%
%TD*%
%TA.AperFunction,ViaPad*%
%ADD13C,0.355600*%
%TD*%
%TA.AperFunction,ViaPad*%
%ADD14C,0.406400*%
%TD*%
%TA.AperFunction,ViaPad*%
%ADD15C,1.143000*%
%TD*%
%TA.AperFunction,ViaPad*%
%ADD16C,0.508000*%
%TD*%
%TA.AperFunction,ViaPad*%
%ADD17C,0.635000*%
%TD*%
%TA.AperFunction,Conductor*%
%ADD18C,0.254000*%
%TD*%
%TA.AperFunction,Conductor*%
%ADD19C,0.381000*%
%TD*%
%TA.AperFunction,Conductor*%
%ADD20C,0.508000*%
%TD*%
%TA.AperFunction,Conductor*%
%ADD21C,0.635000*%
%TD*%
%TA.AperFunction,Conductor*%
%ADD22C,0.152400*%
%TD*%
G04 APERTURE END LIST*
D10*
%TO.N,/VOLT_1P8*%
%TO.C,JP1*%
X113030000Y-123698000D03*
D11*
%TO.N,/Jetson_connector/VCC_1V8_EEPROM*%
X110490000Y-123698000D03*
%TO.N,JT_VDD_1V8*%
X107950000Y-123698000D03*
%TD*%
D10*
%TO.N,/VOLT_2P5*%
%TO.C,JP2*%
X112014000Y-58674000D03*
D11*
%TO.N,/LVDS_to_Jetson_lines/VOLT_2P5_CSI_C*%
X112014000Y-61214000D03*
%TD*%
D10*
%TO.N,/VOLT_2P5*%
%TO.C,JP3*%
X128524000Y-67564000D03*
D11*
%TO.N,/LVDS_to_Jetson_lines/VOLT_2P5_CSI_D*%
X128524000Y-70104000D03*
%TD*%
D12*
%TO.N,Earth*%
%TO.C,TP1*%
X141427200Y-109423200D03*
%TD*%
D10*
%TO.N,/FMC_Connector/DBG_IO_1*%
%TO.C,J3*%
X147066000Y-52451000D03*
D11*
%TO.N,/FMC_Connector/DBG_IO_2*%
X149606000Y-52451000D03*
%TO.N,/FMC_Connector/DBG_IO_3*%
X147066000Y-54991000D03*
%TO.N,/FMC_Connector/DBG_IO_4*%
X149606000Y-54991000D03*
%TO.N,/FMC_Connector/DBG_IO_5*%
X147066000Y-57531000D03*
%TO.N,/FMC_Connector/DBG_IO_6*%
X149606000Y-57531000D03*
%TO.N,Earth*%
X147066000Y-60071000D03*
X149606000Y-60071000D03*
%TD*%
D12*
%TO.N,Earth*%
%TO.C,TP2*%
X107315000Y-107137200D03*
%TD*%
D13*
%TO.N,CSI_C_D0_P*%
X144830800Y-99427030D03*
%TO.N,CSI_C_D0_N*%
X144830800Y-100112830D03*
%TO.N,CSI_C_D1_P*%
X142189200Y-104051100D03*
%TO.N,CSI_C_D1_N*%
X142189200Y-104736900D03*
%TO.N,CSI_D_D0_P*%
X155487267Y-100062133D03*
%TO.N,CSI_D_D0_N*%
X155002333Y-100547067D03*
%TO.N,CSI_C_CLK_P*%
X139065000Y-97737930D03*
%TO.N,CSI_D_CLK_P*%
X157265267Y-102424333D03*
%TO.N,CSI_C_CLK_N*%
X139065000Y-98423730D03*
%TO.N,CSI_D_CLK_N*%
X156780333Y-102909267D03*
%TO.N,CSI_D_D1_P*%
X155792067Y-103770533D03*
%TO.N,CSI_D_D1_N*%
X155307133Y-104255467D03*
%TO.N,/LVDS_to_Jetson_lines/CSI_LP_C_CLK_P*%
X131826000Y-96316800D03*
%TO.N,/LVDS_to_Jetson_lines/CSI_LP_C_CLK_N*%
X131826000Y-97332800D03*
%TO.N,/LVDS_to_Jetson_lines/CSI_LP_C_D0_P*%
X130835400Y-100838000D03*
%TO.N,/LVDS_to_Jetson_lines/CSI_LP_C_D0_N*%
X132003800Y-101828600D03*
%TO.N,/LVDS_to_Jetson_lines/CSI_LP_C_D1_P*%
X131826000Y-102819200D03*
%TO.N,/LVDS_to_Jetson_lines/CSI_LP_C_D1_N*%
X131826000Y-103835200D03*
%TO.N,/LVDS_to_Jetson_lines/CSI_LP_D_CLK_P*%
X150291800Y-82804000D03*
D14*
%TO.N,/LVDS_to_Jetson_lines/CSI_LP_D_CLK_N*%
X127863600Y-72745600D03*
D13*
X149301200Y-82804000D03*
D14*
X124917200Y-70104000D03*
D13*
%TO.N,/LVDS_to_Jetson_lines/CSI_LP_D_D0_P*%
X145796000Y-82804000D03*
%TO.N,/LVDS_to_Jetson_lines/CSI_LP_D_D0_N*%
X144780000Y-82804000D03*
%TO.N,/LVDS_to_Jetson_lines/CSI_LP_D_D1_P*%
X143789400Y-82804000D03*
%TO.N,/LVDS_to_Jetson_lines/CSI_LP_D_D1_N*%
X142798800Y-82804000D03*
D14*
%TO.N,/Jetson_connector/EEPROM_SCL*%
X118364000Y-126746000D03*
%TO.N,/Jetson_connector/EEPROM_SDA*%
X121158010Y-126492000D03*
%TO.N,/Jetson_connector/EEPROM_A2*%
X124206000Y-124968000D03*
%TO.N,/Jetson_connector/EEPROM_A1*%
X124968000Y-120777000D03*
%TO.N,/Jetson_connector/EEPROM_A0*%
X123444000Y-121412000D03*
D13*
%TO.N,/Jetson_connector/JT_VDD_3V3*%
X95250000Y-138684000D03*
X154686000Y-126492000D03*
D15*
%TO.N,/Jetson_connector/JT_VDD_5V*%
X145288000Y-134874000D03*
D13*
X148590000Y-127000000D03*
X151384000Y-129286000D03*
D14*
%TO.N,Net-(R8-Pad2)*%
X116586000Y-134112000D03*
%TO.N,JT_1p8V_GPIO9_IN*%
X155194000Y-127508000D03*
%TO.N,JT_1p8V_GPIO17_IN*%
X144907000Y-130302000D03*
%TO.N,JT_1p8V_I2C_CAM_CLK*%
X126060200Y-139420600D03*
X144780000Y-118364000D03*
%TO.N,JT_1p8V_I2C_CAM_DAT*%
X128524000Y-126238000D03*
%TO.N,JT_1p8V_CAM0_MCLK*%
X144018000Y-121793000D03*
%TO.N,JT_1p8V_CAM0_PWR*%
X143891000Y-123317000D03*
%TO.N,JT_1p8V_CAM0_RST*%
X144653000Y-124333000D03*
%TO.N,Net-(IC3-Pad8)*%
X133096000Y-138176000D03*
%TO.N,Net-(IC3-Pad5)*%
X130810000Y-134620000D03*
%TO.N,Net-(IC3-Pad4)*%
X128524000Y-130810000D03*
%TO.N,Net-(IC3-Pad1)*%
X123571000Y-138811000D03*
%TO.N,/Slow_signals_level_shifters/1DIR_U3*%
X127762000Y-124333000D03*
X129794000Y-119126000D03*
%TO.N,Net-(R16-Pad2)*%
X131445000Y-53975000D03*
D13*
%TO.N,/Jetson_connector/VCC_1V8_EEPROM*%
X115570000Y-126746000D03*
D14*
%TO.N,Net-(R17-Pad2)*%
X132588000Y-79502000D03*
D13*
%TO.N,/VDD_VADJ*%
X97028000Y-123190000D03*
D14*
X108458000Y-83820000D03*
D13*
X100330000Y-130048000D03*
X133604000Y-128270000D03*
X149098000Y-39878000D03*
X106680000Y-129286000D03*
X133350000Y-123698000D03*
X121158000Y-66802000D03*
X117348000Y-66294000D03*
X149098000Y-42418000D03*
D14*
X135382000Y-134112000D03*
D13*
X106680000Y-117348000D03*
X109982000Y-134112000D03*
X109474000Y-130048000D03*
X114046000Y-74422000D03*
X150495000Y-42672000D03*
X150368000Y-39878000D03*
%TO.N,/VOLT_3P3*%
X126238000Y-51816000D03*
X130302000Y-78232000D03*
X147828000Y-37338000D03*
X114046000Y-137668000D03*
X151130008Y-87884000D03*
X102870000Y-138430000D03*
X144018000Y-38608000D03*
X93599000Y-129286000D03*
X130962400Y-99263200D03*
X137480032Y-104327960D03*
D16*
X146685000Y-82423000D03*
D13*
X116586000Y-83820000D03*
X137922000Y-96520000D03*
X120904000Y-135128000D03*
X149098000Y-38608000D03*
X141732000Y-88163400D03*
X147828000Y-36068000D03*
%TO.N,/VOLT_1P8*%
X132080000Y-134366000D03*
X118465600Y-130022600D03*
X127482600Y-135432800D03*
X94081600Y-116992400D03*
X118135400Y-138379200D03*
X114300000Y-129286000D03*
X135890000Y-128270000D03*
X135890000Y-123698000D03*
X123952000Y-127000008D03*
X103200200Y-125603000D03*
X101879400Y-122402600D03*
%TO.N,/VOLT_1P2*%
X104140000Y-130302000D03*
X117348000Y-69342000D03*
D14*
X109982000Y-136398000D03*
D13*
X123952000Y-75184000D03*
D14*
X129794000Y-79756000D03*
%TO.N,/VOLT_2P5*%
X121412000Y-54864000D03*
X111887000Y-55499000D03*
%TO.N,/FMC_Connector/TDI*%
X136398000Y-38608000D03*
%TO.N,/FMC_Connector/TDO*%
X137668000Y-38608000D03*
%TO.N,/LVDS_to_Jetson_lines/DIR_IC1*%
X111252000Y-80772000D03*
%TO.N,/LVDS_to_Jetson_lines/EN_U5*%
X141986000Y-98552000D03*
X140716000Y-94234000D03*
%TO.N,/LVDS_to_Jetson_lines/EN_U6*%
X153924000Y-82804000D03*
X145821400Y-88442800D03*
%TO.N,Net-(IC4-Pad8)*%
X108585000Y-119634000D03*
%TO.N,Net-(IC4-Pad5)*%
X110363000Y-116967000D03*
%TO.N,Net-(IC4-Pad4)*%
X95757966Y-116332000D03*
%TO.N,Net-(IC4-Pad1)*%
X96520000Y-120777000D03*
%TO.N,JT_1p8V_I2C2_CAM_CLK*%
X145034000Y-121412000D03*
%TO.N,JT_1p8V_I2C2_CAM_DAT*%
X136652000Y-117170200D03*
X148463000Y-122047000D03*
X95504000Y-121539000D03*
%TO.N,JT_1p8V_I2C3_CAM_CLK*%
X96520000Y-134112000D03*
X114554000Y-135890000D03*
X143891000Y-126619000D03*
X115570000Y-132334000D03*
%TO.N,JT_1p8V_I2C3_CAM_DAT*%
X122174000Y-138811000D03*
X100076000Y-134112000D03*
%TO.N,Net-(IC5-Pad8)*%
X94234000Y-121920000D03*
%TO.N,Net-(IC5-Pad5)*%
X92837000Y-131445000D03*
X96012000Y-125222000D03*
%TO.N,Net-(IC5-Pad4)*%
X98653600Y-125882400D03*
%TO.N,Net-(IC5-Pad1)*%
X109982000Y-131826000D03*
X97790000Y-121920000D03*
%TO.N,/LVDS_to_Jetson_lines/SWITCH_DATA_LANES_CSI_CD*%
X118491000Y-80187800D03*
%TO.N,/LVDS_to_Jetson_lines/SWITCH_CLOCK_LANES_CSI_CD*%
X117348000Y-80010000D03*
%TO.N,/LVDS_to_Jetson_lines/EN_MIPI_OUT_CSI_C*%
X142494000Y-90678000D03*
X113792000Y-79883000D03*
X130124200Y-93522800D03*
%TO.N,/LVDS_to_Jetson_lines/EN_MIPI_OUT_CSI_D*%
X130683000Y-70485000D03*
X117322600Y-78714600D03*
X153898600Y-77698600D03*
%TO.N,/LVDS_to_Jetson_lines/SWITCH1_U6*%
X146710400Y-88646000D03*
X139700000Y-85852000D03*
%TO.N,/LVDS_to_Jetson_lines/SWITCH2_U5*%
X137922004Y-99060000D03*
X133858000Y-93726000D03*
%TO.N,/LVDS_to_Jetson_lines/SWITCH2_U6*%
X132207000Y-87096600D03*
X147574000Y-88646000D03*
%TO.N,/LVDS_to_Jetson_lines/SWITCH1_U5*%
X138684000Y-99568000D03*
X137414000Y-93980000D03*
D13*
%TO.N,JT_VDD_1V8*%
X115316000Y-131318000D03*
X154940000Y-124714000D03*
X125730000Y-118110000D03*
X134493000Y-113156998D03*
D14*
%TO.N,Net-(IC6-Pad5)*%
X106680000Y-136398000D03*
%TO.N,Net-(IC6-Pad3)*%
X102997000Y-126492000D03*
D13*
%TO.N,/Jetson_connector/JT_VDD_2V8*%
X155194000Y-120396000D03*
X98044000Y-138684000D03*
X145034000Y-120396000D03*
%TO.N,/Jetson_connector/JT_VDD_1V2*%
X142011400Y-125831600D03*
X121767600Y-134112000D03*
X103301800Y-136347200D03*
D14*
%TO.N,Net-(R31-Pad1)*%
X131419600Y-115112800D03*
X141224000Y-123596400D03*
%TO.N,Net-(R32-Pad2)*%
X98552000Y-134112000D03*
%TO.N,Net-(R33-Pad2)*%
X97155000Y-126746000D03*
X103378000Y-134112000D03*
%TO.N,Net-(R34-Pad2)*%
X93472000Y-134112000D03*
%TO.N,Net-(IC7-Pad5)*%
X113411000Y-136779000D03*
%TO.N,/Slow_signals_level_shifters/ENN_JETSON_GPIO*%
X138684000Y-134874000D03*
X112776000Y-126746000D03*
%TO.N,FMC_HS_CSI_C_D1_N*%
X112268000Y-43688000D03*
D13*
X100241100Y-88392000D03*
X100241100Y-94742000D03*
%TO.N,FMC_HS_CSI_C_D1_P*%
X100926900Y-88392000D03*
X112268000Y-42418000D03*
X100926900Y-94742000D03*
%TO.N,FMC_HS_CSI_C_D0_N*%
X103797100Y-94742000D03*
X116078000Y-43688000D03*
X103797100Y-88392000D03*
%TO.N,FMC_HS_CSI_C_D0_P*%
X104482900Y-88392000D03*
X116078000Y-42418000D03*
X104482900Y-94742000D03*
D14*
%TO.N,FMC_HS_CSI_D_D1_N*%
X138938000Y-42418000D03*
%TO.N,FMC_HS_CSI_D_D1_P*%
X138938000Y-43688000D03*
%TO.N,FMC_HS_CSI_D_D0_N*%
X142748000Y-42418000D03*
%TO.N,FMC_HS_CSI_D_D0_P*%
X142748000Y-43688000D03*
%TO.N,FMC_HS_CSI_D_CLK_N*%
X146558000Y-42418000D03*
%TO.N,FMC_HS_CSI_D_CLK_P*%
X146558000Y-43688000D03*
D13*
%TO.N,FMC_HS_CSI_C_CLK_N*%
X107188000Y-42418000D03*
%TO.N,FMC_HS_CSI_C_CLK_P*%
X107188000Y-41148000D03*
D14*
%TO.N,FMC_CSI_LP_C_D1_N*%
X119888000Y-42418000D03*
X116713000Y-49276000D03*
%TO.N,FMC_CSI_LP_C_D1_P*%
X119380000Y-48768000D03*
X119888000Y-43688000D03*
%TO.N,FMC_CSI_LP_C_D0_N*%
X124968000Y-42418000D03*
X121412000Y-47625000D03*
%TO.N,FMC_CSI_LP_C_D0_P*%
X121158000Y-49022000D03*
X124968000Y-43688000D03*
%TO.N,FMC_CSI_LP_C_CLK_N*%
X127508000Y-42418000D03*
X125730000Y-48133000D03*
%TO.N,FMC_CSI_LP_C_CLK_P*%
X126492000Y-48895000D03*
X127508000Y-43688000D03*
%TO.N,FMC_CSI_LP_D_D1_N*%
X118618000Y-41148000D03*
X121132600Y-62814200D03*
%TO.N,FMC_CSI_LP_D_D1_P*%
X117348000Y-41148000D03*
X121437400Y-61671200D03*
%TO.N,FMC_CSI_LP_D_D0_N*%
X122428000Y-41148000D03*
X123088400Y-62230000D03*
%TO.N,FMC_CSI_LP_D_D0_P*%
X123088400Y-60858400D03*
X121158000Y-41148000D03*
%TO.N,FMC_CSI_LP_D_CLK_N*%
X124866400Y-61772800D03*
X126212600Y-41122600D03*
%TO.N,FMC_CSI_LP_D_CLK_P*%
X124942600Y-41148000D03*
X125984000Y-62026800D03*
%TO.N,FMC_I2C_CAM_CLK*%
X130048000Y-41148000D03*
X131130000Y-132908000D03*
%TO.N,FMC_I2C_CAM_DAT*%
X128778000Y-41148000D03*
X121920000Y-132080000D03*
%TO.N,FMC_I2C2_CAM_CLK*%
X95885000Y-48768000D03*
X110998000Y-41148000D03*
X98298000Y-113030000D03*
%TO.N,FMC_I2C2_CAM_DAT*%
X112268000Y-38608000D03*
X94742000Y-114046000D03*
X95948500Y-47434500D03*
%TO.N,FMC_I2C3_CAM_CLK*%
X96774000Y-50038000D03*
X98107500Y-110807500D03*
X107188000Y-43688000D03*
%TO.N,FMC_I2C3_CAM_DAT*%
X101346000Y-115443000D03*
X110998000Y-42418000D03*
%TO.N,FMC_CAM0_RST*%
X129286000Y-122428000D03*
X135128000Y-41148000D03*
%TO.N,FMC_CAM0_PWR*%
X137668000Y-41148000D03*
X129463799Y-121488201D03*
%TO.N,FMC_CAM0_MCLK*%
X140208000Y-41148000D03*
X129540000Y-120269000D03*
%TO.N,FMC_EN_MIPI_OUT_CLOCK_VADJ*%
X114554000Y-50165000D03*
X118618000Y-38608000D03*
%TO.N,FMC_EN_MIPI_OUT_DATA_VADJ*%
X116713001Y-47370999D03*
X117348000Y-38608000D03*
%TO.N,FMC_SWITCH_CLOCK_LANES_VADJ*%
X113030000Y-47625000D03*
X114808000Y-41148000D03*
%TO.N,FMC_SWITCH_DATA_LANES_VADJ*%
X108077000Y-48260000D03*
X113538000Y-41148000D03*
%TO.N,FMC_1P2V_MONITOR*%
X108458000Y-43688000D03*
X105029000Y-126492000D03*
%TO.N,FMC_ENN_JT_GPIO_INPUT*%
X113665000Y-51181000D03*
X119888000Y-38608000D03*
X110744000Y-126492000D03*
%TO.N,FMC_2P8V_MONITOR*%
X108458000Y-37338000D03*
X99201477Y-40781477D03*
%TO.N,FMC_3P3V_MONITOR*%
X109728000Y-38608000D03*
X93599000Y-48387000D03*
%TO.N,FMC_GPIO17_OUT*%
X129286000Y-129413000D03*
X131318000Y-38608000D03*
%TO.N,FMC_GPIO9_OUT*%
X129413000Y-128524000D03*
X132588000Y-38607998D03*
%TO.N,FMC_1P8V_MONITOR*%
X129362200Y-123850400D03*
X133858000Y-41148000D03*
D13*
%TO.N,/LVDS_to_Jetson_lines/VOLT_2P5_CSI_C*%
X112014000Y-98044000D03*
X112014000Y-95504000D03*
D14*
X105918000Y-85090000D03*
D13*
X111760000Y-105918000D03*
X112776000Y-116840000D03*
D14*
X110236000Y-88646000D03*
D13*
X111760000Y-108712000D03*
%TO.N,/LVDS_to_Jetson_lines/VOLT_2P5_CSI_D*%
X147574000Y-65024000D03*
X139649200Y-65354200D03*
X154940000Y-65024000D03*
X149352000Y-65024000D03*
X132588000Y-64516000D03*
X139700000Y-67818000D03*
D14*
%TO.N,/FMC_Connector/DBG_IO_5*%
X131343400Y-37261800D03*
X153924000Y-47879000D03*
%TO.N,/FMC_Connector/DBG_IO_6*%
X128778000Y-36068000D03*
%TO.N,/FMC_Connector/DBG_IO_1*%
X142748000Y-41148000D03*
%TO.N,/FMC_Connector/DBG_IO_2*%
X146558000Y-41148000D03*
%TO.N,/FMC_Connector/DBG_IO_3*%
X146532600Y-39852600D03*
X150114000Y-49657000D03*
%TO.N,/FMC_Connector/DBG_IO_4*%
X151765000Y-37058600D03*
X138912600Y-41148000D03*
%TO.N,Earth*%
X151384000Y-77724000D03*
X142748000Y-39878000D03*
X120243600Y-62814200D03*
X156337000Y-39243000D03*
X135382000Y-82042000D03*
X144907000Y-108077000D03*
X135001000Y-97155000D03*
X125145800Y-66802000D03*
X113284000Y-53213000D03*
X111887000Y-126365000D03*
X148844000Y-97536000D03*
X118440200Y-69240400D03*
X144018000Y-42418000D03*
X155321000Y-128651000D03*
X141478000Y-112776000D03*
X144018000Y-46482000D03*
X148971000Y-130429000D03*
X115824000Y-123825000D03*
X144272000Y-84963000D03*
X151003000Y-125730000D03*
X94234000Y-37211000D03*
X108585000Y-30988000D03*
X135001000Y-100711000D03*
X106045000Y-133985000D03*
X148463000Y-106553000D03*
X117475000Y-115951000D03*
X110490000Y-70561200D03*
X157099000Y-108966000D03*
X101219000Y-121539000D03*
X115570000Y-86080600D03*
X96266000Y-119888000D03*
X116078000Y-41148000D03*
X151130000Y-118618000D03*
X151638000Y-40259000D03*
X109855000Y-73152000D03*
X154432000Y-56769000D03*
X149352000Y-71882000D03*
X135001000Y-102489000D03*
X103378000Y-43688000D03*
X151130000Y-100965000D03*
X115392200Y-67208400D03*
X121158000Y-39878000D03*
X118999000Y-120904000D03*
X149733000Y-139319000D03*
X120396000Y-138303000D03*
X129921000Y-124841000D03*
X94361000Y-91567000D03*
X135001000Y-101600000D03*
X136398000Y-44958000D03*
X144272000Y-85852000D03*
X151130000Y-110744000D03*
X148463000Y-66929000D03*
X116078000Y-38608000D03*
X155956000Y-44450000D03*
X123698000Y-38608000D03*
X112268000Y-39878000D03*
X140589000Y-124206000D03*
X112395000Y-71958200D03*
X148717000Y-112903000D03*
X147828000Y-42418000D03*
X129159000Y-76962000D03*
X135001000Y-99822000D03*
X144780000Y-97536000D03*
X116967000Y-127000000D03*
X102743000Y-75184000D03*
X117602000Y-88163400D03*
X133858000Y-46355000D03*
X109601000Y-76885800D03*
X148717000Y-118618000D03*
X147828000Y-39878000D03*
X140081000Y-43815000D03*
X148717000Y-110744000D03*
X138049000Y-97409000D03*
X103378000Y-39878000D03*
X151130000Y-105791000D03*
X112268000Y-41148000D03*
X118618000Y-43688000D03*
X104648000Y-39878000D03*
X91821000Y-127889000D03*
X107950000Y-126746000D03*
X122428000Y-127000000D03*
X148717000Y-94234000D03*
X117475000Y-105283000D03*
X133858000Y-39878000D03*
X151130000Y-97536000D03*
X151130000Y-107188000D03*
X140208000Y-46228000D03*
X133604000Y-50927000D03*
X134832000Y-136102000D03*
X151003000Y-126873000D03*
X144145000Y-105918000D03*
X151130000Y-113792000D03*
X148717000Y-111633000D03*
X148844000Y-99187000D03*
X153162000Y-89789000D03*
X131597400Y-57988200D03*
X140208000Y-39878000D03*
X109347000Y-59690000D03*
X106375200Y-83616800D03*
X140716000Y-118872000D03*
X148590000Y-103759000D03*
X140843000Y-132842000D03*
X157226000Y-116840000D03*
X147828000Y-43688000D03*
X132842000Y-61341000D03*
X108458000Y-39878000D03*
X100838000Y-126746000D03*
X140208000Y-42418000D03*
X156083000Y-136906000D03*
X128778000Y-42291000D03*
X135509000Y-120015000D03*
X114808000Y-44958000D03*
X129794000Y-126619000D03*
X130048000Y-132207000D03*
X153162000Y-86360000D03*
X148717000Y-109728000D03*
X147447000Y-84963000D03*
X117348000Y-81788000D03*
X150876000Y-130302000D03*
X117475000Y-98298000D03*
X119761000Y-73660000D03*
X151511000Y-31242000D03*
X122986800Y-70053200D03*
X109982000Y-56007000D03*
X136906000Y-129286000D03*
X107188000Y-44958000D03*
X120319800Y-66395600D03*
X135001000Y-98044000D03*
X113538000Y-39878000D03*
X117475000Y-108966000D03*
X119888000Y-44958000D03*
X94361000Y-62103000D03*
X93853000Y-32512000D03*
X106172000Y-60071000D03*
X152654000Y-137414000D03*
X148209000Y-68834000D03*
X134112000Y-101600000D03*
X128651000Y-43815000D03*
X102997000Y-57785000D03*
X119253000Y-127000000D03*
X148717000Y-123444000D03*
X143383000Y-136398000D03*
X109728000Y-39878000D03*
X114808000Y-43688000D03*
X119253000Y-132588000D03*
X151130000Y-111633000D03*
X105918000Y-41148000D03*
X147955000Y-82423000D03*
X104648000Y-43688000D03*
X143891000Y-41275000D03*
X148717000Y-120396000D03*
X126238000Y-39751000D03*
X136398000Y-40005000D03*
X131064000Y-98298000D03*
X125095000Y-68808600D03*
X102108000Y-44958000D03*
X110109000Y-85598000D03*
X140843000Y-126492000D03*
X140970000Y-124968000D03*
X102870000Y-121666000D03*
X158242000Y-46482000D03*
X134874000Y-76708000D03*
X120421400Y-69494400D03*
X129921000Y-130175000D03*
X115290600Y-70332600D03*
X140081000Y-50165000D03*
X148539200Y-105638600D03*
X135128000Y-43688000D03*
D17*
X154559000Y-60071000D03*
D14*
X118389400Y-66751200D03*
X154813000Y-108077000D03*
X148590000Y-125730000D03*
X94361000Y-73533000D03*
X139573000Y-87376000D03*
X100203000Y-51181000D03*
X151130000Y-109728000D03*
X143256000Y-85852000D03*
X154813000Y-116967000D03*
X157607000Y-124714000D03*
X145288000Y-85852000D03*
X146558000Y-85852000D03*
X147447000Y-85852000D03*
X133350000Y-124841000D03*
X129286000Y-63373000D03*
X149479000Y-85852000D03*
X155829000Y-112395000D03*
X118618000Y-44958000D03*
X104648000Y-41148000D03*
X126238000Y-46355000D03*
X134112000Y-103378000D03*
X141478000Y-39878000D03*
X105664000Y-73406000D03*
X151130000Y-104775000D03*
X125679200Y-60960000D03*
X151130000Y-112903000D03*
X147066000Y-71882000D03*
X94361000Y-125222000D03*
X148717000Y-114681000D03*
X105283000Y-122047000D03*
X135001000Y-98933000D03*
X112268000Y-44958000D03*
X158115000Y-98552000D03*
X133731000Y-30861000D03*
X148590000Y-85852000D03*
X110998000Y-43688000D03*
X132588000Y-43688000D03*
X146558000Y-84963000D03*
X128778000Y-39878000D03*
X104648000Y-42418000D03*
X148717000Y-124460000D03*
X154813000Y-98298000D03*
X126238000Y-42418000D03*
X107188000Y-87884000D03*
X144526000Y-128778000D03*
X127635000Y-85344000D03*
X100330000Y-55880000D03*
X112776000Y-134366000D03*
X148590000Y-84963000D03*
X148717000Y-117094000D03*
X134493000Y-84328000D03*
X141859000Y-47879000D03*
X121158000Y-43688000D03*
X136398000Y-42418000D03*
X151130000Y-98552000D03*
X134112000Y-97155000D03*
X108458000Y-42545000D03*
X129921000Y-138557000D03*
X135001000Y-103378000D03*
X134747000Y-129794000D03*
X134324000Y-121624000D03*
X158115000Y-52451000D03*
X136017000Y-59563000D03*
X151130000Y-114681000D03*
X104648000Y-44958000D03*
X114935000Y-87503000D03*
X151003000Y-124587000D03*
X123952000Y-77470000D03*
X100863400Y-39954200D03*
X157607000Y-132334000D03*
X143256000Y-84963000D03*
X131546600Y-51816000D03*
X103251000Y-45085000D03*
X105918000Y-43688000D03*
X110998000Y-44958000D03*
X99415600Y-38506400D03*
X135128000Y-39878000D03*
X134112000Y-98933000D03*
X151130000Y-117094000D03*
X146558000Y-44958000D03*
X131572000Y-71882000D03*
X140208000Y-71882000D03*
X150622000Y-41529000D03*
X103505000Y-116840000D03*
X118237000Y-82677000D03*
X148463000Y-104775000D03*
X136398000Y-106680000D03*
X157099000Y-93091000D03*
X144780000Y-96012000D03*
X115468400Y-76962000D03*
X134112000Y-100711000D03*
X93599000Y-127381000D03*
X148082000Y-75057000D03*
X128905000Y-47625000D03*
X157353000Y-105410000D03*
X130683000Y-107061000D03*
X154813000Y-85090000D03*
X154559000Y-75565000D03*
X125476000Y-81788000D03*
X134239000Y-109601000D03*
X121158000Y-42418000D03*
X116078000Y-44958000D03*
X135890000Y-50800000D03*
X134112000Y-102489000D03*
X112141000Y-65024000D03*
X134112000Y-98044000D03*
X151765000Y-45339000D03*
X134112000Y-99822000D03*
X150876000Y-131572000D03*
X154940000Y-73279000D03*
X151257000Y-103759000D03*
X151003000Y-120396000D03*
X102743000Y-71882000D03*
X104648000Y-38608000D03*
X127381000Y-138049000D03*
X100711000Y-44831000D03*
X149479000Y-84963000D03*
X148844000Y-100838000D03*
X152019000Y-38735000D03*
X147828000Y-44958000D03*
X145288000Y-84963000D03*
X133731000Y-56642000D03*
X117983000Y-86360000D03*
X117602000Y-95123000D03*
X127508000Y-39878000D03*
X124206000Y-128016000D03*
X130048000Y-120904000D03*
X138049000Y-71882000D03*
X99441000Y-48641000D03*
X117348000Y-39878000D03*
X127025400Y-73050400D03*
X151003000Y-123444000D03*
X148717000Y-113792000D03*
X93726000Y-51181000D03*
X124206000Y-135128000D03*
%TD*%
D18*
%TO.N,/Jetson_connector/JT_VDD_3V3*%
X104648000Y-139700000D02*
X115062000Y-139700000D01*
X141401800Y-139954000D02*
X142417800Y-138938000D01*
X145542000Y-138938000D02*
X148082000Y-136398000D01*
X123825000Y-138049000D02*
X126111000Y-138049000D01*
X117348000Y-137414000D02*
X123190000Y-137414000D01*
X148082000Y-136398000D02*
X150622000Y-136398000D01*
X123190000Y-137414000D02*
X123825000Y-138049000D01*
X104394000Y-139954000D02*
X104648000Y-139700000D01*
X127508000Y-139446000D02*
X129222500Y-139446000D01*
X154432000Y-126746000D02*
X154686000Y-126492000D01*
X126111000Y-138049000D02*
X127508000Y-139446000D01*
X150622000Y-136398000D02*
X154432000Y-132588000D01*
X129222500Y-139446000D02*
X129730500Y-139954000D01*
X129730500Y-139954000D02*
X141401800Y-139954000D01*
X115062000Y-139700000D02*
X117348000Y-137414000D01*
X142417800Y-138938000D02*
X145542000Y-138938000D01*
X154432000Y-132588000D02*
X154432000Y-126746000D01*
X95250000Y-138684000D02*
X96520000Y-139954000D01*
X96520000Y-139954000D02*
X104394000Y-139954000D01*
D19*
%TO.N,/Jetson_connector/JT_VDD_5V*%
X149961600Y-129286000D02*
X151384000Y-129286000D01*
X148590000Y-134366000D02*
X145796000Y-134366000D01*
X148590000Y-127000000D02*
X149961600Y-128371600D01*
X149936200Y-133019800D02*
X148590000Y-134366000D01*
X145796000Y-134366000D02*
X145288000Y-134874000D01*
X149961600Y-128371600D02*
X149961600Y-129286000D01*
X149936200Y-129438400D02*
X149936200Y-133019800D01*
D20*
%TO.N,/VDD_VADJ*%
X119380000Y-69977000D02*
X117729000Y-71628000D01*
D18*
X117856000Y-65786000D02*
X118618000Y-65786000D01*
X97282000Y-123444000D02*
X97028000Y-123190000D01*
D20*
X116721364Y-75946000D02*
X114554000Y-75946000D01*
X149860000Y-46482000D02*
X149860000Y-46609000D01*
X102870000Y-103682800D02*
X102870000Y-111455200D01*
D18*
X149860000Y-46482000D02*
X150368000Y-45974000D01*
D20*
X114554000Y-75946000D02*
X114046000Y-75946000D01*
D18*
X149352000Y-39878000D02*
X150114000Y-39116000D01*
X101854000Y-130048000D02*
X102006399Y-130200399D01*
X114046000Y-74422000D02*
X114554000Y-74930000D01*
X149098000Y-42418000D02*
X149098000Y-45720000D01*
D20*
X117729000Y-71628000D02*
X117729000Y-74938364D01*
D18*
X106680000Y-129286000D02*
X106680000Y-130048000D01*
X102362000Y-123444000D02*
X97282000Y-123444000D01*
X150114000Y-39116000D02*
X150876000Y-39116000D01*
D20*
X108458000Y-98094800D02*
X102870000Y-103682800D01*
X107848400Y-118389400D02*
X107848400Y-116433600D01*
D19*
X134620000Y-128270000D02*
X133731000Y-129159000D01*
D20*
X106680000Y-131572000D02*
X107442000Y-131572000D01*
X102870000Y-111455200D02*
X107848400Y-116433600D01*
X150114000Y-34290000D02*
X133096000Y-34290000D01*
D18*
X133604000Y-128270000D02*
X134620000Y-128270000D01*
D20*
X102362000Y-123444000D02*
X102793800Y-123444000D01*
D18*
X106680000Y-117348000D02*
X107594400Y-116433600D01*
D20*
X102793800Y-123444000D02*
X107848400Y-118389400D01*
X119380000Y-66548000D02*
X119380000Y-69977000D01*
D18*
X100330000Y-130048000D02*
X101854000Y-130048000D01*
D20*
X126314200Y-38074600D02*
X123698000Y-40690800D01*
D18*
X118618000Y-65786000D02*
X119380000Y-66548000D01*
D20*
X149860000Y-46609000D02*
X156972000Y-53721000D01*
X103378000Y-131572000D02*
X106680000Y-131572000D01*
D19*
X133731000Y-130429000D02*
X135382000Y-132080000D01*
D18*
X150368000Y-39878000D02*
X150876000Y-39370000D01*
X150368000Y-45974000D02*
X150368000Y-42799000D01*
X107594400Y-116433600D02*
X107848400Y-116433600D01*
X121031000Y-67437000D02*
X119380000Y-67437000D01*
D20*
X133096000Y-34290000D02*
X129311400Y-38074600D01*
X108458000Y-81534000D02*
X108458000Y-83820000D01*
X123698000Y-40690800D02*
X123698000Y-55626000D01*
D18*
X106680000Y-130048000D02*
X109474000Y-130048000D01*
D20*
X137414000Y-120904000D02*
X134620000Y-123698000D01*
X129311400Y-38074600D02*
X126314200Y-38074600D01*
X102006399Y-123799601D02*
X102006399Y-130200399D01*
D18*
X133350000Y-123698000D02*
X134620000Y-123698000D01*
D20*
X156972000Y-89154000D02*
X149860000Y-96266000D01*
D18*
X150368000Y-42799000D02*
X150495000Y-42672000D01*
D20*
X108458000Y-83820000D02*
X108458000Y-98094800D01*
D18*
X150876000Y-39370000D02*
X150876000Y-39116000D01*
X119380000Y-67437000D02*
X119380000Y-66548000D01*
D20*
X102362000Y-123444000D02*
X102006399Y-123799601D01*
X150876000Y-35052000D02*
X150114000Y-34290000D01*
X134620000Y-128270000D02*
X134620000Y-123698000D01*
D19*
X135382000Y-132080000D02*
X135382000Y-134112000D01*
D20*
X149860000Y-107050082D02*
X137414000Y-119496082D01*
D18*
X106680000Y-130048000D02*
X106680000Y-131572000D01*
D20*
X156972000Y-53721000D02*
X156972000Y-89154000D01*
D18*
X121158000Y-67310000D02*
X121031000Y-67437000D01*
D20*
X123698000Y-55626000D02*
X119380000Y-59944000D01*
D18*
X149098000Y-39878000D02*
X149352000Y-39878000D01*
X121158000Y-66802000D02*
X121158000Y-67310000D01*
D20*
X137414000Y-119496082D02*
X137414000Y-120904000D01*
X150876000Y-39116000D02*
X150876000Y-35052000D01*
D19*
X133731000Y-129159000D02*
X133731000Y-130429000D01*
D18*
X114554000Y-74930000D02*
X114554000Y-75946000D01*
D20*
X119380000Y-59944000D02*
X119380000Y-66548000D01*
X102006399Y-130200399D02*
X103378000Y-131572000D01*
D18*
X117348000Y-66294000D02*
X117856000Y-65786000D01*
D20*
X114046000Y-75946000D02*
X108458000Y-81534000D01*
X117729000Y-74938364D02*
X116721364Y-75946000D01*
D18*
X149098000Y-45720000D02*
X149860000Y-46482000D01*
D20*
X107442000Y-131572000D02*
X109982000Y-134112000D01*
X149860000Y-96266000D02*
X149860000Y-107050082D01*
D21*
%TO.N,/VOLT_3P3*%
X146558000Y-38608000D02*
X145884899Y-39281101D01*
D18*
X141732000Y-86588600D02*
X141732000Y-88163400D01*
D21*
X137668000Y-79248000D02*
X137414000Y-79502000D01*
D18*
X126238000Y-66116200D02*
X126238000Y-77978000D01*
X140716000Y-104140000D02*
X140538200Y-104317800D01*
X138303000Y-110001810D02*
X136798810Y-111506000D01*
X146812000Y-79248000D02*
X150368000Y-79248000D01*
X140716000Y-105740200D02*
X138303000Y-108153200D01*
X128041399Y-129438401D02*
X127533400Y-129946400D01*
X146685000Y-79375000D02*
X146685000Y-82423000D01*
X127228600Y-127431800D02*
X128041399Y-128244599D01*
D21*
X145288000Y-65532000D02*
X145288000Y-71628000D01*
D18*
X144018000Y-38608000D02*
X139192000Y-38608000D01*
D19*
X146050000Y-79248000D02*
X137668000Y-79248000D01*
D18*
X126238000Y-51816000D02*
X126238000Y-58420000D01*
X128295400Y-123012200D02*
X128676400Y-123393200D01*
D21*
X140208000Y-60452000D02*
X145288000Y-65532000D01*
D18*
X145884899Y-39281101D02*
X145884899Y-38989000D01*
X103632000Y-137668000D02*
X114046000Y-137668000D01*
D21*
X137716006Y-90121994D02*
X138938000Y-91343988D01*
D18*
X128676400Y-124688600D02*
X127228600Y-126136400D01*
X93599000Y-129873250D02*
X93599000Y-129286000D01*
X137490192Y-104317800D02*
X137480032Y-104327960D01*
X136798810Y-111506000D02*
X130048000Y-111506000D01*
X97496375Y-133770625D02*
X97496375Y-135342375D01*
X126238000Y-77978000D02*
X126492000Y-78232000D01*
X140716000Y-104140000D02*
X140716000Y-105740200D01*
X152400000Y-81280000D02*
X152400000Y-86614008D01*
X126492000Y-78232000D02*
X130302000Y-78232000D01*
X128676400Y-123393200D02*
X128676400Y-124688600D01*
X136446006Y-90121994D02*
X134874000Y-91694000D01*
X149098000Y-38608000D02*
X146558000Y-38608000D01*
D21*
X140208000Y-52959000D02*
X140208000Y-60452000D01*
D18*
X127533400Y-129946400D02*
X127533400Y-130352800D01*
X102870000Y-138430000D02*
X102155750Y-138430000D01*
X146050000Y-79248000D02*
X146812000Y-79248000D01*
X146558000Y-37338000D02*
X146558000Y-38608000D01*
D19*
X140716000Y-96774000D02*
X140716000Y-104140000D01*
X138938000Y-94996000D02*
X140716000Y-96774000D01*
D18*
X121462800Y-133019800D02*
X120904000Y-133578600D01*
X124866400Y-133019800D02*
X121462800Y-133019800D01*
D21*
X137414000Y-84505800D02*
X137414000Y-89819988D01*
D18*
X138684000Y-95504000D02*
X138684000Y-95758000D01*
X127228600Y-126136400D02*
X127228600Y-127431800D01*
X127533400Y-130352800D02*
X124866400Y-133019800D01*
X145503899Y-38608000D02*
X144018000Y-38608000D01*
X138303000Y-108153200D02*
X138303000Y-110001810D01*
X137716006Y-90121994D02*
X136446006Y-90121994D01*
X126238000Y-77978000D02*
X126238000Y-78486000D01*
X126238000Y-58420000D02*
X127685800Y-59867800D01*
X152400000Y-86614008D02*
X151130008Y-87884000D01*
X120904000Y-135128000D02*
X116586000Y-135128000D01*
X138684000Y-95758000D02*
X137922000Y-96520000D01*
X146812000Y-79248000D02*
X146685000Y-79375000D01*
X147828000Y-37338000D02*
X146558000Y-38608000D01*
D21*
X145288000Y-47879000D02*
X140208000Y-52959000D01*
D18*
X126238000Y-78486000D02*
X120904000Y-83820000D01*
X150368000Y-79248000D02*
X152400000Y-81280000D01*
X145884899Y-38989000D02*
X145503899Y-38608000D01*
D21*
X138938000Y-91343988D02*
X138938000Y-94996000D01*
D18*
X138938000Y-94996000D02*
X138938000Y-95250000D01*
X139649200Y-84505800D02*
X141732000Y-86588600D01*
X133527800Y-91694000D02*
X129794000Y-95427800D01*
X102870000Y-138430000D02*
X103632000Y-137668000D01*
X120904000Y-83820000D02*
X116586000Y-83820000D01*
D21*
X145288000Y-71628000D02*
X137668000Y-79248000D01*
X145288000Y-39878000D02*
X145288000Y-47879000D01*
D18*
X137414000Y-84505800D02*
X139649200Y-84505800D01*
X127685800Y-64668400D02*
X126238000Y-66116200D01*
X128041399Y-128244599D02*
X128041399Y-129438401D01*
X97496375Y-135342375D02*
X98718625Y-136564625D01*
D21*
X137414000Y-89819988D02*
X137716006Y-90121994D01*
X137414000Y-79502000D02*
X137414000Y-84505800D01*
D18*
X120904000Y-133578600D02*
X120904000Y-135128000D01*
X130048000Y-111506000D02*
X128295400Y-113258600D01*
X138938000Y-95250000D02*
X138684000Y-95504000D01*
X128295400Y-113258600D02*
X128295400Y-123012200D01*
X147828000Y-36068000D02*
X146558000Y-37338000D01*
X129794000Y-98094800D02*
X130962400Y-99263200D01*
D21*
X145884899Y-39281101D02*
X145288000Y-39878000D01*
D18*
X116586000Y-135128000D02*
X114046000Y-137668000D01*
X140538200Y-104317800D02*
X137490192Y-104317800D01*
X139192000Y-38608000D02*
X126238000Y-51562000D01*
X127685800Y-59867800D02*
X127685800Y-64668400D01*
X129794000Y-95427800D02*
X129794000Y-98094800D01*
X97496375Y-133770625D02*
X93599000Y-129873250D01*
X102155750Y-138430000D02*
X100290375Y-136564625D01*
X126238000Y-51562000D02*
X126238000Y-51816000D01*
X134874000Y-91694000D02*
X133527800Y-91694000D01*
X98718625Y-136564625D02*
X100290375Y-136564625D01*
%TO.N,/VOLT_1P8*%
X136906000Y-130302000D02*
X136906000Y-134620000D01*
X113030000Y-124714000D02*
X113030000Y-123698000D01*
X136906000Y-124206000D02*
X136398000Y-123698000D01*
X114300000Y-129286000D02*
X121666008Y-129286000D01*
X135890000Y-128270000D02*
X135890000Y-129286000D01*
X100584000Y-122402600D02*
X101879400Y-122402600D01*
X136398000Y-135128000D02*
X135382000Y-135128000D01*
X121666008Y-129286000D02*
X123952000Y-127000008D01*
X112141000Y-125603000D02*
X113030000Y-124714000D01*
X136906000Y-134620000D02*
X136398000Y-135128000D01*
X135890000Y-127762000D02*
X136906000Y-126746000D01*
X132842000Y-135128000D02*
X132080000Y-134366000D01*
X103200200Y-125603000D02*
X112141000Y-125603000D01*
X94081600Y-116992400D02*
X95173800Y-116992400D01*
X136398000Y-123698000D02*
X135890000Y-123698000D01*
X135382000Y-135128000D02*
X132842000Y-135128000D01*
X95173800Y-116992400D02*
X100584000Y-122402600D01*
X135890000Y-128270000D02*
X135890000Y-127762000D01*
X135890000Y-129286000D02*
X136906000Y-130302000D01*
X136906000Y-126746000D02*
X136906000Y-124206000D01*
D19*
%TO.N,/VOLT_1P2*%
X125476000Y-87299800D02*
X125476000Y-111760000D01*
X113792000Y-131318000D02*
X113792000Y-135128000D01*
X113030000Y-128524000D02*
X113030000Y-129794000D01*
X129794000Y-79756000D02*
X125476000Y-84074000D01*
X117602000Y-119634000D02*
X117602000Y-123444000D01*
X113030000Y-128524000D02*
X108712000Y-128524000D01*
D18*
X106426000Y-127762000D02*
X104648000Y-129540000D01*
X104648000Y-129794000D02*
X104648000Y-129540000D01*
D19*
X108712000Y-128524000D02*
X107950000Y-127762000D01*
X125476000Y-84074000D02*
X125476000Y-87299800D01*
X112522000Y-136398000D02*
X109982000Y-136398000D01*
D18*
X104140000Y-130302000D02*
X104648000Y-129794000D01*
D19*
X113030000Y-129794000D02*
X113779299Y-130543299D01*
X114300000Y-127254000D02*
X113030000Y-128524000D01*
X117602000Y-123444000D02*
X114300000Y-126746000D01*
X113779299Y-130543299D02*
X113779299Y-131305299D01*
X107950000Y-127762000D02*
X106426000Y-127762000D01*
X114300000Y-126746000D02*
X114300000Y-127254000D01*
X113779299Y-131305299D02*
X113792000Y-131318000D01*
X113792000Y-135128000D02*
X112522000Y-136398000D01*
X125476000Y-111760000D02*
X117602000Y-119634000D01*
D18*
%TO.N,JT_VDD_1V8*%
X120650000Y-131318000D02*
X122174000Y-131318000D01*
X125730000Y-127762000D02*
X125730000Y-118110000D01*
X115316000Y-131318000D02*
X120650000Y-131318000D01*
X122174000Y-131318000D02*
X125730000Y-127762000D01*
%TO.N,/Jetson_connector/JT_VDD_2V8*%
X116500658Y-136652000D02*
X114468658Y-138684000D01*
D19*
X143256000Y-119380000D02*
X143154400Y-119380000D01*
D18*
X114468658Y-138684000D02*
X104394000Y-138684000D01*
X104394000Y-138684000D02*
X103886000Y-139192000D01*
X129032000Y-136652000D02*
X116500658Y-136652000D01*
X142951200Y-122072400D02*
X142951200Y-134670800D01*
X154178000Y-119380000D02*
X143256000Y-119380000D01*
X132334000Y-138938000D02*
X131445000Y-138049000D01*
X103886000Y-139192000D02*
X101727000Y-139192000D01*
X141732000Y-120853200D02*
X142951200Y-122072400D01*
X101219000Y-138684000D02*
X98044000Y-138684000D01*
X101727000Y-139192000D02*
X101219000Y-138684000D01*
D19*
X143154400Y-119380000D02*
X141706600Y-120827800D01*
D18*
X155194000Y-120396000D02*
X154178000Y-119380000D01*
D19*
X144272000Y-120396000D02*
X143256000Y-119380000D01*
D18*
X130429000Y-138049000D02*
X129032000Y-136652000D01*
D19*
X145034000Y-120396000D02*
X144272000Y-120396000D01*
D18*
X138684000Y-138938000D02*
X132334000Y-138938000D01*
X142951200Y-134670800D02*
X138684000Y-138938000D01*
X131445000Y-138049000D02*
X130429000Y-138049000D01*
%TO.N,/Jetson_connector/JT_VDD_1V2*%
X133705600Y-137287000D02*
X137972800Y-137287000D01*
X123799600Y-136144000D02*
X132562600Y-136144000D01*
X137972800Y-137287000D02*
X142011400Y-133248400D01*
X142011400Y-133248400D02*
X142011400Y-125831600D01*
X121767600Y-134112000D02*
X123799600Y-136144000D01*
X132562600Y-136144000D02*
X133705600Y-137287000D01*
D22*
%TO.N,FMC_EN_MIPI_OUT_DATA_VADJ*%
X117348000Y-38608000D02*
X116713001Y-39242999D01*
X116713001Y-39242999D02*
X116713001Y-47370999D01*
%TO.N,FMC_ENN_JT_GPIO_INPUT*%
X117348000Y-51181000D02*
X118491000Y-50038000D01*
X113665000Y-51181000D02*
X117348000Y-51181000D01*
X120497600Y-39217600D02*
X119888000Y-38608000D01*
X120497600Y-46634400D02*
X120497600Y-39217600D01*
X118491000Y-48641000D02*
X120497600Y-46634400D01*
X118491000Y-50038000D02*
X118491000Y-48641000D01*
D18*
%TO.N,/LVDS_to_Jetson_lines/VOLT_2P5_CSI_C*%
X112014000Y-98044000D02*
X113792000Y-98044000D01*
D19*
X107594400Y-66522600D02*
X110210600Y-63906400D01*
X104394000Y-78486000D02*
X107594400Y-75285600D01*
X113792000Y-105918000D02*
X113792000Y-108712000D01*
X110236000Y-88646000D02*
X113792000Y-92202000D01*
D18*
X112014000Y-95504000D02*
X112268000Y-95758000D01*
D19*
X113792000Y-95758000D02*
X113792000Y-98044000D01*
D18*
X111760000Y-108712000D02*
X113792000Y-108712000D01*
X111760000Y-105918000D02*
X113792000Y-105918000D01*
X112268000Y-95758000D02*
X113792000Y-95758000D01*
D19*
X107594400Y-75285600D02*
X107594400Y-66522600D01*
X113030000Y-116840000D02*
X112776000Y-116840000D01*
X113792000Y-98044000D02*
X113792000Y-105918000D01*
X104394000Y-83566000D02*
X104394000Y-78486000D01*
X111353600Y-63906400D02*
X112014000Y-63246000D01*
X113792000Y-92202000D02*
X113792000Y-95758000D01*
X110210600Y-63906400D02*
X111353600Y-63906400D01*
X113792000Y-116078000D02*
X113030000Y-116840000D01*
X105918000Y-85090000D02*
X104394000Y-83566000D01*
X112014000Y-63246000D02*
X112014000Y-61214000D01*
X113792000Y-108712000D02*
X113792000Y-116078000D01*
%TD*%
M02*
